{
  "accessors": [
    {
      "bufferView": 2,
      "componentType": 5126,
      "count": 287,
      "max": [
        5.5025033950805664,
        12.842978477478027,
        5.5025033950805664
      ],
      "min": [
        -5.5025038719177246,
        -1.9734172821044922,
        -5.5025033950805664
      ],
      "type": "VEC3"
    },
    {
      "bufferView": 2,
      "byteOffset": 3444,
      "componentType": 5126,
      "count": 287,
      "max": [
        0.9992097020149231,
        1,
        0.99780911207199097
      ],
      "min": [
        -0.99920964241027832,
        -1,
        -0.99780911207199097
      ],
      "type": "VEC3"
    },
    {
      "bufferView": 1,
      "componentType": 5126,
      "count": 287,
      "max": [
        1,
        1
      ],
      "min": [
        0,
        0.01000000536441803
      ],
      "type": "VEC2"
    },
    {
      "bufferView": 0,
      "componentType": 5125,
      "count": 912,
      "max": [
        286
      ],
      "min": [
        0
      ],
      "type": "SCALAR"
    },
    {
      "bufferView": 2,
      "byteOffset": 6888,
      "componentType": 5126,
      "count": 49,
      "max": [
        5.5025029182434082,
        12.842978477478027,
        1.3193777799606323
      ],
      "min": [
        -5.5025038719177246,
        -0.56742668151855469,
        -1.3193717002868652
      ],
      "type": "VEC3"
    },
    {
      "bufferView": 2,
      "byteOffset": 7476,
      "componentType": 5126,
      "count": 49,
      "max": [
        0.98078542947769165,
        2.3464089338176564e-07,
        0.19509042799472809
      ],
      "min": [
        -0.9807853102684021,
        -1,
        -0.19509075582027435
      ],
      "type": "VEC3"
    },
    {
      "bufferView": 1,
      "byteOffset": 2296,
      "componentType": 5126,
      "count": 49,
      "max": [
        0.75,
        1
      ],
      "min": [
        0.1875,
        0.96860963106155396
      ],
      "type": "VEC2"
    },
    {
      "bufferView": 0,
      "byteOffset": 3648,
      "componentType": 5125,
      "count": 81,
      "max": [
        48
      ],
      "min": [
        0
      ],
      "type": "SCALAR"
    },
    {
      "bufferView": 2,
      "byteOffset": 8064,
      "componentType": 5126,
      "count": 276,
      "max": [
        1.9999998807907104,
        16.410556793212891,
        2
      ],
      "min": [
        -2.0000002384185791,
        12.842977523803711,
        -2
      ],
      "type": "VEC3"
    },
    {
      "bufferView": 2,
      "byteOffset": 11376,
      "componentType": 5126,
      "count": 276,
      "max": [
        0.95081144571304321,
        1,
        0.95081156492233276
      ],
      "min": [
        -0.95081150531768799,
        0.2453325092792511,
        -0.95081150531768799
      ],
      "type": "VEC3"
    },
    {
      "bufferView": 1,
      "byteOffset": 2688,
      "componentType": 5126,
      "count": 276,
      "max": [
        0.49000000953674316,
        0.49000000953674316
      ],
      "min": [
        0.01000000536441803,
        0.01000000536441803
      ],
      "type": "VEC2"
    },
    {
      "bufferView": 0,
      "byteOffset": 3972,
      "componentType": 5125,
      "count": 438,
      "max": [
        275
      ],
      "min": [
        0
      ],
      "type": "SCALAR"
    },
    {
      "bufferView": 2,
      "byteOffset": 14688,
      "componentType": 5126,
      "count": 58,
      "max": [
        0.92148590087890625,
        -1.6385490894317627,
        0.9214860200881958
      ],
      "min": [
        -0.9214862585067749,
        -4.8725509643554688,
        -0.92148613929748535
      ],
      "type": "VEC3"
    },
    {
      "bufferView": 2,
      "byteOffset": 15384,
      "componentType": 5126,
      "count": 58,
      "max": [
        0.96172118186950684,
        1,
        0.99227786064147949
      ],
      "min": [
        -0.96172130107879639,
        -0.27402976155281067,
        -0.94459289312362671
      ],
      "type": "VEC3"
    },
    {
      "bufferView": 1,
      "byteOffset": 4896,
      "componentType": 5126,
      "count": 58,
      "max": [
        0.86057829856872559,
        0.36057835817337036
      ],
      "min": [
        0.63942164182662964,
        0.13942164182662964
      ],
      "type": "VEC2"
    },
    {
      "bufferView": 0,
      "byteOffset": 5724,
      "componentType": 5125,
      "count": 72,
      "max": [
        57
      ],
      "min": [
        0
      ],
      "type": "SCALAR"
    }
  ],
  "asset": {
    "extras": {
      "author": "ahmadyyaseen12 (https://sketchfab.com/ahmadyyaseen12)",
      "license": "CC-BY-4.0 (http://creativecommons.org/licenses/by/4.0/)",
      "source": "https://sketchfab.com/3d-models/simple-rocket-29d5c2ea3c8e43bcb44516096db4f3f5",
      "title": "Simple Rocket"
    },
    "generator": "Sketchfab-7.82.0",
    "version": "2.0"
  },
  "bufferViews": [
    {
      "buffer": 0,
      "byteLength": 6012,
      "byteOffset": 0,
      "name": "floatBufferViews",
      "target": 34963
    },
    {
      "buffer": 0,
      "byteLength": 5360,
      "byteOffset": 6012,
      "byteStride": 8,
      "name": "floatBufferViews",
      "target": 34962
    },
    {
      "buffer": 0,
      "byteLength": 16080,
      "byteOffset": 11372,
      "byteStride": 12,
      "name": "floatBufferViews",
      "target": 34962
    }
  ],
  "buffers": [
    {
      "byteLength": 27452,
      "uri": "scene.bin"
    }
  ],
  "materials": [
    {
      "doubleSided": true,
      "emissiveFactor": [
        0,
        0,
        0
      ],
      "name": "Material.001",
      "pbrMetallicRoughness": {
        "baseColorFactor": [
          0.078859499999999999,
          0.078859499999999999,
          0.078859499999999999,
          1
        ],
        "metallicFactor": 1,
        "roughnessFactor": 0.5
      }
    },
    {
      "doubleSided": true,
      "emissiveFactor": [
        0,
        0,
        0
      ],
      "name": "Material.002",
      "pbrMetallicRoughness": {
        "baseColorFactor": [
          0,
          0.30054399999999998,
          0.79910300000000001,
          1
        ],
        "metallicFactor": 0,
        "roughnessFactor": 0.5
      }
    },
    {
      "doubleSided": true,
      "emissiveFactor": [
        0,
        0,
        0
      ],
      "name": "Material.003",
      "pbrMetallicRoughness": {
        "baseColorFactor": [
          0,
          0.29871700000000001,
          0.80000000000000004,
          1
        ],
        "metallicFactor": 0,
        "roughnessFactor": 0.5
      }
    },
    {
      "doubleSided": true,
      "emissiveFactor": [
        1,
        0.26603100000000002,
        0
      ],
      "name": "Material.004",
      "pbrMetallicRoughness": {
        "baseColorFactor": [
          1,
          1,
          1,
          1
        ],
        "metallicFactor": 1,
        "roughnessFactor": 1
      }
    }
  ],
  "meshes": [
    {
      "primitives": [
        {
          "attributes": {
            "NORMAL": 1,
            "POSITION": 0,
            "TEXCOORD_0": 2
          },
          "indices": 3,
          "material": 0,
          "mode": 4
        }
      ]
    },
    {
      "primitives": [
        {
          "attributes": {
            "NORMAL": 5,
            "POSITION": 4,
            "TEXCOORD_0": 6
          },
          "indices": 7,
          "material": 1,
          "mode": 4
        }
      ]
    },
    {
      "primitives": [
        {
          "attributes": {
            "NORMAL": 9,
            "POSITION": 8,
            "TEXCOORD_0": 10
          },
          "indices": 11,
          "material": 2,
          "mode": 4
        }
      ]
    },
    {
      "primitives": [
        {
          "attributes": {
            "NORMAL": 13,
            "POSITION": 12,
            "TEXCOORD_0": 14
          },
          "indices": 15,
          "material": 3,
          "mode": 4
        }
      ]
    }
  ],
  "nodes": [
    {
      "children": [
        1
      ],
      "name": "RootNode (gltf orientation matrix)",
      "rotation": [
        -0.70710678118654746,
        -0,
        -0,
        0.70710678118654757
      ]
    },
    {
      "children": [
        2
      ],
      "name": "RootNode (model correction matrix)"
    },
    {
      "children": [
        3
      ],
      "name": "root"
    },
    {
      "children": [
        4
      ],
      "matrix": [
        1,
        0,
        0,
        0,
        0,
        2.2204460492503131e-16,
        1,
        0,
        0,
        -1,
        2.2204460492503131e-16,
        0,
        0,
        0,
        0,
        1
      ],
      "name": "GLTF_SceneRootNode"
    },
    {
      "children": [
        5,
        6,
        7,
        8
      ],
      "name": "Cylinder_1"
    },
    {
      "mesh": 0,
      "name": ""
    },
    {
      "mesh": 1,
      "name": ""
    },
    {
      "mesh": 2,
      "name": ""
    },
    {
      "mesh": 3,
      "name": ""
    }
  ],
  "scene": 0,
  "scenes": [
    {
      "name": "OSG_Scene",
      "nodes": [
        0
      ]
    }
  ]
}

