<svg id="Слой_1" data-name="Слой 1" xmlns="http://www.w3.org/2000/svg" viewBox="0 0 682.89 411.96"><defs><style>.cls-1{fill:#fff;}</style></defs><title>header-code</title><path class="cls-1" d="M482.59,75.3c1.53,6.75,7.18,2.67,10.38,4.83-1.91,3.26-5.05,3.86-7.66,2.67-2.14-1-4.49-3.47-5-5.68-.82-3.64,0-7.62-.27-11.42-.34-4.29,1.61-6.07,5.62-6.34,4.6-.31,7.71,1.86,8.28,5.9C495,72.75,491.41,76.29,482.59,75.3Zm-1.65-7.11c2.61,2,4.52,4.29,5.47,4,1.84-.66,4-2.6,4.47-4.41.77-3.18-1.26-5.84-4.67-5.26C484.59,62.75,483.38,65.41,480.94,68.19Z" transform="translate(-1.59 -3.46)"/><path class="cls-1" d="M510.2,192.07l11.53-1v-6.55l-9.47-.62c2.83-4.1,6.6-1.54,9.49-3.07v-5.65a34.58,34.58,0,0,1-5.76-.08c-1.33-.22-2.54-1.2-3.8-1.83,1.18-.6,2.33-1.61,3.56-1.72,2.79-.26,5.63-.08,9.17-.08,0,7.27,0,14.35,0,21.43,0,.67-.72,1.91-1.14,1.92-4.47.14-9,.09-13.44.09Z" transform="translate(-1.59 -3.46)"/><path class="cls-1" d="M521.55,316c-4.89.35-9.56,1-12.45-3.61s-2.83-9.41-.68-14.19c1.93-4.29,9-6.82,12.85-4.54.94.56,1.57,2.48,1.52,3.75C522.54,303.5,522,309.58,521.55,316ZM519,295.4c-2.86,1.25-6.76,1.81-7.22,3.38a23.48,23.48,0,0,0-.3,11.77c.4,1.61,4.36,2.34,7.52,3.86Z" transform="translate(-1.59 -3.46)"/><path class="cls-1" d="M480.43,129.36c.28,2.81.56,5.61.7,7.07,3.46,1.62,6.84,2.33,8.87,4.38,3,3,2.09,7.14.06,10.56s-5.74,4.49-9.52,3.64c-1.31-.3-3.28-2.13-3.25-3.22.15-7.39.76-14.77,1.22-22.16Zm.73,10.56c-.18,3-.19,4-.31,5-.14,1.14-.44,2.26-.56,3.4-.4,3.57,1.57,5.07,4.79,3.57,3.88-1.81,4-5.46,2.76-8.47C487.18,141.84,484,141.32,481.16,139.92Z" transform="translate(-1.59 -3.46)"/><path class="cls-1" d="M373.74,143.86c.4-2.59-.09-6.51,1.39-7.49,2.43-1.62,6.12-1.46,9.3-1.73.35,0,1.27,2.08,1.25,3.19a120.34,120.34,0,0,1-.79,12.88c-.24,1.79-1.65,5-2.32,4.91a22.53,22.53,0,0,1-9.45-2.54c-.91-.53,0-4.35.31-6.63.09-.67,1.06-1.21,1.63-1.8Zm8.14,9.29v-8.39c-2.94,1.89-6.42,3-6.62,4.48C374.72,153.46,378.2,153.52,381.88,153.15Zm2-14.77c-.45-.38-.9-.76-1.36-1.13-2.37.31-5.82-1.61-6.21,2.81-.08.95,2.68,2.15,4.13,3.23C381.57,141.66,382.71,140,383.86,138.38Z" transform="translate(-1.59 -3.46)"/><path class="cls-1" d="M475.77,193.66c.42-8.25.84-16.24,1.25-24.22l2.2-.2,1,7.62c8.38,1.15,10.69,3.68,9.71,10.62C489.11,193.42,485,195.36,475.77,193.66Zm2.38-3.08,1.88,1.59c2.17-1.15,5.31-1.79,6.24-3.58s.08-4.91-.72-7.19c-.24-.71-4.05-1.09-4.17-.79C480.07,183.84,479.16,187.23,478.15,190.58Z" transform="translate(-1.59 -3.46)"/><path class="cls-1" d="M485.9,302.88c.08,7.42-3.07,12.3-7.83,12.24-5-.06-8.75-6.22-7.88-13.33.24-1.92.51-4.34,1.73-5.52,2.05-2,4.87-4.32,7.38-4.34,3.66,0,5.85,3.28,6.56,7A21.13,21.13,0,0,1,485.9,302.88Zm-2.81.3c0-1.19.4-2.58-.09-3.45-1-1.69-2.36-4.23-3.69-4.31-1.74-.1-3.95,1.54-5.3,3-.92,1-1,3-1,4.62-.14,5.68,2.08,9.66,5.25,9C483,311.09,483.32,307.13,483.09,303.18Z" transform="translate(-1.59 -3.46)"/><path class="cls-1" d="M519.1,64c4.38.87,10.8-.8,10.48,6.54-.19,4.65-7.05,6.44-14.55,4,.87-5.35-2.3-12,4.21-15.59,2.45-1.36,6.22-2,9.09,1.65L519,62.34Zm2.82,9.84,4.18-4.43c-1.52-1.06-3-2.85-4.58-2.93-1.12,0-2.75,2.06-3.32,3.53C518,70.58,520.11,72,521.92,73.84Z" transform="translate(-1.59 -3.46)"/><path class="cls-1" d="M640,17c-5.11-.66-7.37,1.15-7.1,6a40.68,40.68,0,0,1-.14,7c-.08.7-1.19,1.28-1.82,1.91-.58-.69-1.69-1.42-1.64-2.07.27-4.12.23-8.39,1.39-12.28,1.25-4.2,7-5.05,12.9-2.54,1.25,13.1.74,15.69-3.59,15.77Z" transform="translate(-1.59 -3.46)"/><path class="cls-1" d="M445.71,299.69c-7.06-.92-7.56-.48-7.75,5.16a29.91,29.91,0,0,1-1.23,8.28c-3.46-13.2-.61-18.36,8-17.11.43-2.8.87-5.6,1.3-8.4l1.26.13v25.7l-1.57.1Z" transform="translate(-1.59 -3.46)"/><path class="cls-1" d="M282.79,45.58c.52,6.05,5.55,2.57,9.41,5.31-3.46.56-5.94,1.67-7.87,1a7,7,0,0,1-4-4.64,40.17,40.17,0,0,1,0-11.38c.22-1.79,1.6-4.44,3-4.84a9.47,9.47,0,0,1,6.77,1.05c3.34,2.06,3.18,5.88,1.64,8.79-1,1.94-3.71,3.06-5.79,4.33C285.2,45.69,284.07,45.47,282.79,45.58Zm.2-13.72a72.31,72.31,0,0,0,.06,7.49c.15,1.11.73,2.89,1.42,3,1.22.27,3.41,0,3.88-.84,1-1.66,2-4.37,1.28-5.66C288.69,34.25,286,33.59,283,31.86Z" transform="translate(-1.59 -3.46)"/><path class="cls-1" d="M650,29.66c.75-5.81-1.15-11.68,1.42-16.93l2.24.11c0,3.31.14,6.63,0,9.93-.13,2.16-1.13,4.49,2.4,4.64,2.89.12,4.87-1,5-4.09.15-2.48-.13-5,.2-7.45a6.43,6.43,0,0,1,2.37-3.52C667.19,26.51,663.14,31.61,650,29.66Z" transform="translate(-1.59 -3.46)"/><path class="cls-1" d="M569,25.91a9.21,9.21,0,0,1-9.17,9.14c-3.75-.11-7.7-4.56-7.54-8.5a9.26,9.26,0,0,1,9.2-9.19C566,17.36,569,20.82,569,25.91Zm-7.23,6.47c1.45-2.15,3.61-4.13,4.16-6.48.73-3.09-1.32-5.53-4.63-5.56-3.79,0-5.39,2.45-5.4,6.13C555.85,29.66,557.21,31.44,561.73,32.38Z" transform="translate(-1.59 -3.46)"/><path class="cls-1" d="M374.23,169.45c.21,2.45.42,4.89.65,7.48,8.58,1.47,10.25,3.37,9.08,10.83-.76,4.9-6.56,8.31-10.95,6.12-1-.51-1.84-2.64-1.81-4,.18-6.73.68-13.46,1.07-20.19Zm-.48,21.45c5.56.57,8.44-1.47,8.25-5.68-.12-2.73-1.17-5.78-4.66-4.89C370.59,182,375.65,187.45,373.75,190.9Z" transform="translate(-1.59 -3.46)"/><path class="cls-1" d="M586.68,275.41c3.85-1.64,9.06.86,11.52-6.13-3.31-.18-6.24-.44-9.17-.46-4,0-5-2.14-2.76-4.92a11.88,11.88,0,0,1,6.94-4.21c3.93-.49,6.26,2.59,7.28,6.19s.52,7.12-2.65,9.44C594.28,277.94,590.4,277.64,586.68,275.41Zm1-10.32.48,1.62h9.28l.58-1.41c-1.62-1.05-3.25-2.94-4.86-2.93C591.34,262.39,589.52,264.11,587.7,265.09Z" transform="translate(-1.59 -3.46)"/><path class="cls-1" d="M383.53,311.36c-2.21-1.75-1.71-14.23.57-22.27,5.11,1.63,2.17,7.46,5.41,10.16l4.54-10.18,1.49.42V311l-1,.06V295.87l-1.4-.37-4.1,9c-1.35-3.81-2.23-6.3-3.12-8.79h-1C384.47,300.79,384,305.85,383.53,311.36Z" transform="translate(-1.59 -3.46)"/><path class="cls-1" d="M680.52,11.05l4,1.07c-6.23,2.31-4.3,7.27-4.56,11.39-.13,2.1-.5,4.19-.76,6.28l-2-.23V15.42l-6.85-.52-.49-1.7,7.13-2.45c-.16-6.46-5-3.9-8.56-3.86-.08-.58-.16-1.17-.25-1.76,2.33-.58,5.13-2.24,6.88-1.48,2.49,1.09,4.21,4,6.26,6.06Z" transform="translate(-1.59 -3.46)"/><path class="cls-1" d="M496.28,315.28a8.25,8.25,0,0,1-8.12-8.68c0-4.84,4.17-9.26,8.57-9.19s8.39,4.92,8.14,9.61C504.6,312,501.09,315.37,496.28,315.28Zm-1.28-3c5.34.33,6.66-2.68,6.81-5.56s-1.25-5.73-5.19-5.81-5.31,2.53-5.5,5.58C490.91,309.8,492.82,312,495,312.31Z" transform="translate(-1.59 -3.46)"/><path class="cls-1" d="M406.61,20.2c0,6.33.16,11.62-.11,16.88-.07,1.32-1.51,3.63-2.33,3.64a20.49,20.49,0,0,1-8.47-1.47c-.94-.42-1.52-4-.79-5.27,1.44-2.56,2.84-4.44.87-7.52-.48-.74,1.46-4,3-4.79C400.77,20.57,403.45,20.71,406.61,20.2ZM406,35.85c-2-2.27-3.65-4.71-4.07-4.52A36.05,36.05,0,0,0,396,35.45c1.6,1.31,3.05,3.23,4.87,3.71C402,39.45,403.64,37.46,406,35.85ZM400.78,30l2-.11c.74-1.5,2-3,2-4.5,0-1-2.21-2.93-2.81-2.71-1.59.58-3.58,1.87-4,3.29C397.71,27,399.76,28.62,400.78,30Z" transform="translate(-1.59 -3.46)"/><path class="cls-1" d="M588.2,227a62.41,62.41,0,0,0,3-6.25,24.09,24.09,0,0,0,.8-4.91c.8-6.39,2-7.24,8.9-5.89-2,1.23-4.63,2-5.54,3.67s-.3,4.55-.46,6.86c-.25,3.8-.86,7.58-.87,11.37,0,7.18.11,7.18,6.3,10.78-1.88-.09-4.17.44-5.56-.44a9.09,9.09,0,0,1-3.57-5.1C590.3,233.37,593,228.45,588.2,227Z" transform="translate(-1.59 -3.46)"/><path class="cls-1" d="M454,133.62c-.48,7.44,1.17,14.71-1.35,21.6l-1.64-.05v-7.46c-7.77-1.06-10.49-3.45-9.84-8.41S444.81,132.94,454,133.62Zm-3.14,2.78c-3.69-.47-6.85-.17-6.74,4s3.29,4.24,6.74,3.69Z" transform="translate(-1.59 -3.46)"/><path class="cls-1" d="M272.72,156q1.14-10.15,2.26-20.31l1.83-.14,3.36,10.4,4.13-10.64,1.57.26c-.48,6.81,1.81,13.62.58,20.44l-1.95,0v-13.5l-.95-.27L280,150.16c-1.34-3.37-2.34-5.87-3.65-9.18-.67,5.72-1.23,10.5-1.78,15.29Z" transform="translate(-1.59 -3.46)"/><path class="cls-1" d="M664.74,398.57c1.13-2.41,2.34-4.71,3.28-7.11a8.65,8.65,0,0,0,.05-3c0-7.05,2.54-8.68,9.62-6.28-6.55,1.52-5.76,1.65-7,9.13-.9,5.3-.34,10.2-.17,15.34.16,4.73.36,8.25,7.1,7.87-5.42,2.28-9.66-.14-10.22-5-.18-1.64.35-3.42-.08-5A43.26,43.26,0,0,0,664.74,398.57Z" transform="translate(-1.59 -3.46)"/><path class="cls-1" d="M465.81,138.19c4.54-.07,7.73,3,7.9,7.63.19,4.87-3.62,9.22-8.22,9.39s-7.32-2.56-7.4-7.76C458,141.45,460.64,138.27,465.81,138.19Zm-1.36,3c-2.13,0-3.45,1.9-3.6,5.32s1.14,5.5,4.51,5.79c3.71.31,4.9-2.48,5.06-5.41S469.67,141.19,464.45,141.15Z" transform="translate(-1.59 -3.46)"/><path class="cls-1" d="M512.85,15.61c-.41,6.51-.45,12.46-1.4,18.26-.21,1.25-3.7,2.89-5.59,2.77-5.05-.3-7.54-3.93-7.57-9.78,0-6.24,3-10.5,8.18-11.21A54.3,54.3,0,0,1,512.85,15.61Zm-2.56,10.11h0c0-1.33,0-2.66,0-4-.08-4.67-2.14-5.78-6.19-3.36S498.51,29.15,502,32.42a7.71,7.71,0,0,0,5.74,1.84c1.07-.17,1.94-2.88,2.48-4.58C510.6,28.47,510.29,27.05,510.29,25.72Z" transform="translate(-1.59 -3.46)"/><path class="cls-1" d="M301.8,291c9.1.89,12.53,6.59,8.72,13.37-1.91,3.4-4.86,4.27-8.46,3.54-3.83-.77-2.95-3.77-2.81-6.27.16-3.13.67-6.24.83-9.37.15-2.88,0-5.79,0-8.68l1.68-.05Zm-.46,14c6.55.36,8-.82,8-5.65,0-2.74-.16-6-4-5.19C298.53,295.71,303.78,301.31,301.34,305.05Z" transform="translate(-1.59 -3.46)"/><path class="cls-1" d="M312.51,193.68c-5.67.93-8.54-1-9.36-6-.74-4.61,2.76-9.83,7.09-10.25,3.49-.34,6.25.32,5.78,5-.59,5.83-.91,11.68-1.34,17.53l-1.44.15C313,198.06,312.79,196.08,312.51,193.68Zm.87-13.29c-6.29.08-7.52,1.34-7.45,6.22,0,2.94,1.29,5.44,4.25,4.55C316.27,189.32,311.69,184.19,313.38,180.39Z" transform="translate(-1.59 -3.46)"/><path class="cls-1" d="M570.52,51c4.83-4.21,9.16-3.36,11,1A48.78,48.78,0,0,0,585.1,58c-7.3,2.7-1.08,10.84-6.19,15.64-.14-2.62-.81-5.35-.31-7.84,1-5,0-7.81-6.21-7.87.87-.51,1.77-1,2.6-1.52,1.37-.92,2.69-1.89,4-2.84a43.7,43.7,0,0,0-4.68-2.48C573.51,50.76,572.43,51,570.52,51Z" transform="translate(-1.59 -3.46)"/><path class="cls-1" d="M590.52,16.27l8.21-1.34c.22-1.3.48-2.85.86-5.17l6.15,7.61-3.48,1.47c-1.43,4.85,2.26,11.64-5,14.15-1.77.61-4.11-.42-6.06-1.36,6.77-2.06,6.43-2.13,7.8-8.24C600.8,15.18,592.79,20.92,590.52,16.27Z" transform="translate(-1.59 -3.46)"/><path class="cls-1" d="M528.88,273.17c4.91.14,10.18,1.44,11.5-5.84H528.54c-.67-4.38.49-7.43,4.35-8.59a7.21,7.21,0,0,1,8.91,3.6c2.07,3.58,1.28,9.13-1.58,11.41C536.54,276.69,533,276.64,528.88,273.17Zm10.89-8c.23-.54.47-1.08.71-1.62-1.8-.86-3.6-2.35-5.41-2.36-1.52,0-3.05,1.7-4.58,2.64.23.45.46.89.68,1.34Z" transform="translate(-1.59 -3.46)"/><path class="cls-1" d="M598,335.44c-5.92-.15-6.65,3.34-6.14,7.79a2.62,2.62,0,0,1-.07,1.48c-2.7,4.64-1,9.49-.92,14.31.09,4.35,0,8.13,6.72,7.61-5.43,2.54-9.21.4-9.46-4.5-.07-1.49.3-3.08-.09-4.47a53.8,53.8,0,0,0-2.41-6c.88-2.37,1.85-4.66,2.55-7a32.17,32.17,0,0,0,.37-4C589.5,334.47,591,333.54,598,335.44Z" transform="translate(-1.59 -3.46)"/><path class="cls-1" d="M504.4,195c-2.65-3.4-.71-7.49-1-11.25-.1-1.2-.89-3.36-1.3-3.34-1.64.06-3.9.33-4.72,1.42-1.06,1.42-1.17,3.69-1.33,5.63-.2,2.44,0,4.9,0,7.29l-1.52.14c-.06-4.84-1-9.86.07-14.44.93-4.13,5.6-3.43,8.92-3,1.3.17,3.31,2.26,3.32,3.49,0,4.59-.62,9.18-1,13.77Z" transform="translate(-1.59 -3.46)"/><path class="cls-1" d="M417.07,304.2c1-4.59,1.68-8.51,6.62-8.82,3.95-.25,6.54,1.83,7.78,5.6,1.36,4.11.33,7.67-3.06,10.13s-6.9,2.38-11.31-1.42c2.32,0,3.46.09,4.58,0a16.56,16.56,0,0,0,5.13-.82c1-.43,1.43-2,2.11-3-1.08-.54-2.13-1.44-3.26-1.53C423,304.05,420.39,304.2,417.07,304.2Zm11.46-2,.71-1.51c-1.85-.82-3.68-2.14-5.57-2.25-1.14-.07-2.38,1.77-3.58,2.76l.63,1Z" transform="translate(-1.59 -3.46)"/><path class="cls-1" d="M367.63,141.52c-3.75.71-6.23,1.14-8.69,1.67-.35.08-.58.67-1.53,1.84,2.32.14,4.27-.28,5.55.46,1.92,1.12,4.26,2.84,4.71,4.71.33,1.38-1.69,4.17-3.34,5-6,3.13-9.24,1-9.23-5.64,0-8.22,3-11.47,9.32-10.12C365.25,139.64,366,140.42,367.63,141.52Zm-9.32,5.71v5.86l1.18,1.23c1.87-1.38,5.29-2.73,5.32-4.15C364.92,145.59,361.05,147.7,358.31,147.23Z" transform="translate(-1.59 -3.46)"/><path class="cls-1" d="M429.46,155.22a7.29,7.29,0,0,1-7.11-7.82c.32-5,4-9,8.16-9.05s7.48,3.53,7.46,8.17C438,152,434.68,155.35,429.46,155.22Zm7.91-8.05c-3.06-2.78-4.54-5-6.56-5.74-2.65-.92-5.92,2.71-5.75,6,.16,3,1.82,5.44,4.95,4.76C432.18,151.71,434,149.57,437.37,147.17Z" transform="translate(-1.59 -3.46)"/><path class="cls-1" d="M405.43,186.46c-.87-4.9.66-7.9,4.52-8.94,3.56-1,6.49.57,8.09,4.1,1.84,4.07,1.43,8-2,10.79-3.27,2.66-7.07,2.54-11.68.13,4.23-2.46,10.39,1,11.51-6.08Zm10.27-2.3.59-1.7c-1.85-.73-3.67-1.93-5.54-2-1-.05-2.07,1.84-4,3.72Z" transform="translate(-1.59 -3.46)"/><path class="cls-1" d="M490,280c7.42.34,5.84-5.3,7.18-9.33,2.17-6.47-1.55-12.62.07-19l-5.76-2.05c4.66-2.36,8.23-.51,8.46,4.37.07,1.49-.25,3,.07,4.46.56,2.48,1.49,4.87,2.15,6.94-.93,3.19-2.08,6.61-2.92,10.1C497.86,281.37,496.57,282.14,490,280Z" transform="translate(-1.59 -3.46)"/><path class="cls-1" d="M471.4,172.53c-2.86,7.53.08,15.18-2.4,22l-1.89-.19V184.17h-8.75l-.33-2,9-1.38c.07-1.54.15-3.28.24-5.11L458,174.36c.11-.61.22-1.22.34-1.83Z" transform="translate(-1.59 -3.46)"/><path class="cls-1" d="M322.13,31.13l-8.27,2.33c.15.28.3.56.46.84a56.93,56.93,0,0,1,7.94,2.13c.83.34,1.44,2.26,1.43,3.46,0,4.29-4.08,5.91-12,5C309.58,32,312.55,27.26,322.13,31.13ZM314.52,43.6c2.59-1.71,4.54-3,6.5-4.28-1.37-.9-2.73-2.54-4.09-2.54C313.24,36.77,313.82,39.48,314.52,43.6Z" transform="translate(-1.59 -3.46)"/><path class="cls-1" d="M227,155.1c3.89-1.6,9.3,1,10-5.61l-9.67-.5c-.31-4,1.1-7.17,4.92-7.35,2.18-.1,5.33,1.77,6.53,3.7,2.26,3.66.83,7.46-2.51,10C233.56,157.44,230.52,158.23,227,155.1Z" transform="translate(-1.59 -3.46)"/><path class="cls-1" d="M545.77,35.29V22.07c-6-1.14-7.52,0-7.81,4.95-.18,3-.42,6.05-.63,9.08l-2-.15c0-4.32-.49-8.71.14-12.94.58-3.93,8.91-6.61,12.11-4.29a2.34,2.34,0,0,1,.94,1.65c-.26,4.9-.62,9.8-1,14.7Z" transform="translate(-1.59 -3.46)"/><path class="cls-1" d="M341.11,309V296c-5.46-1.22-6.79-.21-7.14,4.86-.2,2.8.77,5.89-1.37,9.12-3.81-9.64,0-17.24,8.08-17.74.56-2.48,1.12-5,1.69-7.52l1.74.12Q343.54,296.88,343,309Z" transform="translate(-1.59 -3.46)"/><path class="cls-1" d="M348.05,169.74V194l-1.95.08v-13.3c-4.49-1.47-6.13.27-6.4,4.3-.2,3-.78,6-1.25,9.39-4.21-6.93-1-15.19,6.09-17.19,1-.29,2-1.86,2.43-3a18.09,18.09,0,0,0,.39-4.51Z" transform="translate(-1.59 -3.46)"/><path class="cls-1" d="M365.85,193.32c-2.9.21-5.93,1-8.64.4-1.58-.36-3.62-3-3.67-4.61-.06-1.9,1.61-4.05,3-5.73.86-1,2.79-1.17,3.79-2.16A21.75,21.75,0,0,0,363,177a35.57,35.57,0,0,0-4.23-1.7,12.49,12.49,0,0,0-3.18,0c-.1-.52-.19-1-.29-1.54,2.09-.4,4.4-1.52,6.22-1s3.94,2.63,4.11,4.24c.2,1.87-1.25,4.23-2.61,5.85-1.08,1.29-3.32,1.54-4.62,2.72-1.09,1-1.57,2.63-2.32,4,1.24.62,2.43,1.57,3.74,1.79a35.06,35.06,0,0,0,5.71.08C365.65,192,365.75,192.66,365.85,193.32Z" transform="translate(-1.59 -3.46)"/><path class="cls-1" d="M461.29,292.08c1.94,1.78,3.48,3.1,4.91,4.54a2.88,2.88,0,0,1,.6,1.63c-1.14.67-2.37,1.19-3.89,1.89,0,2.83.57,6-.19,8.72a9,9,0,0,1-4.48,5.07c-1.33.61-3.62-.82-5.24-2,7.44-1,7.94-2,6.65-12.43l-6.66-.88.06-1.77,6.3-.84C460.09,294.53,460.9,292.89,461.29,292.08Z" transform="translate(-1.59 -3.46)"/><path class="cls-1" d="M428.31,53.89c5.34-1.29,8.38,1.11,7.05,6.87-.89,3.87-.43,6.79,2.2,7.76-1,3-2.32,5.58-2.48,8.18-.41,6.85-1.58,8.07-8.68,7.54a6.77,6.77,0,0,1,0-.93c5.08-.71,4.92-4.26,6.12-8.36,1.61-5.48-1.44-10.44.23-15.69C433.14,58.06,429.87,55.69,428.31,53.89Z" transform="translate(-1.59 -3.46)"/><path class="cls-1" d="M547.49,261.1c3.9-3.58,7.08-3,10.06-1.42,3.28,1.72,3.16,5.57-.14,7.38-1.57.87-3.46,1.17-5,2a12.43,12.43,0,0,0-2.49,2.57,13.09,13.09,0,0,0,3,1.78,16.65,16.65,0,0,0,3.47.08c.93.05,1.85.24,3,.4-3.08,3-9.87,3.11-11.28.08-.71-1.5,0-4.46,1.2-5.84s3.84-1.73,5.71-2.76c.86-.48,1.39-1.56,2.07-2.37-.87-.64-1.67-1.7-2.62-1.85A50.17,50.17,0,0,0,547.49,261.1Z" transform="translate(-1.59 -3.46)"/><path class="cls-1" d="M609.28,30c5.62-1.22,12.8.95,12.62-7-.15-7.31-6.87-3.87-10.72-5.12l-.35-1.55c2.12-.6,4.32-1.87,6.36-1.66,3.91.4,7.38,2.09,7.74,6.81.31,4.14-.12,8.08-4.73,9.79C616.79,32.46,613.28,33.39,609.28,30Z" transform="translate(-1.59 -3.46)"/><path class="cls-1" d="M377,302.6,365.62,302c0-4.37,1.39-8.26,5.89-8.22,2.47,0,5.88,2.5,7.15,4.81,2.12,3.87,0,9.33-3.3,10.8-3.13,1.38-6.36,1.81-10.12-1.55C370.27,307.52,375.28,309.72,377,302.6Zm-.56-2.42L377,299c-1.68-.93-3.33-2.48-5.06-2.58-1.38-.07-2.86,1.64-4.29,2.56l.61,1.22Z" transform="translate(-1.59 -3.46)"/><path class="cls-1" d="M415.66,142l-8.26-.56c3.28-3.71,7.46-3.93,10.27-.9,2.2,2.36,1.22,5.11-2.52,6.94-1.76.86-3.58,1.59-5.33,2.48-.37.18-.52.79-1.28,2.05l10,.67c-2.33,3.52-5.33,3.14-7.93,2.46-1.64-.43-4.35-2.59-4.16-3.12a13.79,13.79,0,0,1,3.85-5.58c1.5-1.3,3.67-1.83,5.55-2.69Z" transform="translate(-1.59 -3.46)"/><path class="cls-1" d="M476,17.74c-.47,7-.89,13.29-1.31,19.58h-1.21c-.07-1.35.24-2.87-.3-4-.63-1.31-2-3.18-3.06-3.19-4.41-.07-6.71-2.34-6.55-6.34.17-4.16,2.93-6.49,7.27-6.45C472.27,17.38,473.72,17.57,476,17.74Zm-2.86,0c-3,1.65-5.44,2.35-6.8,4-.78.92-.47,4.17.45,4.83,1.56,1.11,4,1,6.35,1.45Z" transform="translate(-1.59 -3.46)"/><path class="cls-1" d="M397.11,193.87V180.16c-11.39.27-4.81,9.66-8,13.85l-.73.09c.11-4.63-.41-9.43.7-13.81.39-1.51,4.82-2.25,7.51-2.77.94-.18,3.16,1.37,3.18,2.15.07,4.79-.32,9.58-.56,14.37Z" transform="translate(-1.59 -3.46)"/><path class="cls-1" d="M565.9,274.37c6.63.9,6.49-3.15,6.37-7.42-.14-5.26,0-10.54,0-15.95h8.49l.23,1.41-5.57,1.29c-.18,5.46-.28,11.34-.59,17.21C574.5,276.47,571,278.11,565.9,274.37Z" transform="translate(-1.59 -3.46)"/><path class="cls-1" d="M529.46,158.92c-3.35,3.09-34.57,3.1-37.87,0Z" transform="translate(-1.59 -3.46)"/><path class="cls-1" d="M176,150.27h-9.37l-1.06-1.45c2-2.15,3.76-5,6.26-6.16,1.21-.58,4.6,1.41,5.72,3.09,2.12,3.17,1.17,6.86-1.34,9.52s-5.63,2.7-9.62.57C170.71,154.88,175.43,156.31,176,150.27Z" transform="translate(-1.59 -3.46)"/><path class="cls-1" d="M397.31,134.16l5.22,6.3c-5,1.77-3.81,6.45-4.71,10.39a8.13,8.13,0,0,1-3.94,4.76c-1.18.6-3.31-.65-4.82-1.7,7.49-.39,7.12-4.62,6.58-11.33l-6.52-1.52.1-1.26c1.67-.3,3.62-.16,4.93-1S396,136.13,397.31,134.16Z" transform="translate(-1.59 -3.46)"/><path class="cls-1" d="M331,145.89c.54-4.93,1-9.27,1.54-14.13.92.8,2.15,1.39,2.13,1.92-.35,7.51-.88,15-1.36,22.51H331.5c-.21-2.16-.43-4.32-.75-7.63l-8.35,8-1-1.17,8.63-6.52-6.4-8.08.84-1Z" transform="translate(-1.59 -3.46)"/><path class="cls-1" d="M536.1,81.92c2.69-6.23,6.31-11.13,6.56-16.2s-2.87-10.23-4.66-15.8c3.76,1.33,5.58,4.71,7,8.35C548.06,66.51,545.34,74.43,536.1,81.92Z" transform="translate(-1.59 -3.46)"/><path class="cls-1" d="M347.16,307.24c4.67.2,8.07.46,8-4.54-.06-4.3.83-8.87-7.12-7.37l1-1.9,5.7-1.21c.38-.91,1-2.44,1.77-4.21l4.48,6.82c-4.8,1.27-2.74,6.5-3.84,10.31C355.6,310.38,353.06,311.42,347.16,307.24Z" transform="translate(-1.59 -3.46)"/><path class="cls-1" d="M321.32,308.38c-4.15,0-7.28-3.61-7.19-8.27.08-4.26,3.8-8.29,7.61-8.25,3.55.05,7.08,4.22,7,8.23C328.59,304.72,325.31,308.39,321.32,308.38Zm-6.57-8.08,6.43,6c1.64-1.91,4.11-3.58,4.74-5.78.9-3.19-1-6.37-4.53-6C319.43,294.69,317.74,297.56,314.75,300.3Z" transform="translate(-1.59 -3.46)"/><path class="cls-1" d="M459.66,30.45c-.05,4.36-4.06,8.57-8.12,8.53-3.83,0-6.52-3-6.57-7.27-.05-4.6,3.67-8.93,7.7-8.95C456.35,22.73,459.71,26.43,459.66,30.45Zm-2.29.51c0-3.82-1.43-6.11-5-5.89-3.77.24-5.61,2.73-5.57,6.37,0,3.24,1.48,5.4,5.15,5.29C456,36.6,457.31,34.09,457.37,31Z" transform="translate(-1.59 -3.46)"/><path class="cls-1" d="M471.4,82.93C460,76.57,461.47,59.31,472.9,52c-2.4,5.59-6,10.44-6.2,15.43S469.67,77.71,471.4,82.93Z" transform="translate(-1.59 -3.46)"/><path class="cls-1" d="M258,155.65c1-4.67-2.38-10.43,3.07-14,1.76-1.15,4.77-.38,7.21-.49l.07,1.49-7.53,1.65,0,1.47c3.68,1.47,10,.12,8.72,7C268.86,156.84,264.63,157.77,258,155.65Zm3.26-.43,5.87-3.89c-1.17-1-2.23-2.79-3.51-3C259.41,147.75,259.92,150.88,261.3,155.22Z" transform="translate(-1.59 -3.46)"/><path class="cls-1" d="M140.74,135.61l.32,6.7.9-1c2.09,1.57,5.39,2.79,5.95,4.79.79,2.81.5,6.88-1.12,9.11-1.37,1.87-5.3,1.88-9.07,3,.49-8.6.88-15.64,1.27-22.67ZM139.62,155c5.45.17,7.68-1.7,7.49-5.65-.11-2.55-1-4.93-4.06-4.19C137,146.62,141.45,151.54,139.62,155Z" transform="translate(-1.59 -3.46)"/><path class="cls-1" d="M104.73,161.69c-7.12,3.47-11.3.07-9.82-6.56.49-2.22-.15-4.69.36-6.9.39-1.72,1.84-4.58,2.7-4.54,2.32.11,5.53.85,6.69,2.52,3,4.4-.55,10.9-5.49,10.94a11.26,11.26,0,0,0-3,.88c.88,1.08,1.55,2.61,2.69,3.12C100.19,161.76,102,161.49,104.73,161.69Zm-7.88-16c1.36,3.29-2.57,7.76,2.72,9.31.78.23,3.71-3.46,3.93-5.51C103.92,145.61,101.19,144.48,96.85,145.71Z" transform="translate(-1.59 -3.46)"/><path class="cls-1" d="M121.9,156.46c1.61-5.18,3.38-11.07,5.34-16.9a2.63,2.63,0,0,1,2.29-1.06,2.92,2.92,0,0,1,1.84,1.85c1.13,5.56,2.08,11.16,3.09,16.74l-1.38.35c-.52-1.33-1.05-2.67-2-5.23Zm3.49-4.69c2.55-.71,5.19-1.11,5.19-1.5a76.55,76.55,0,0,0-.92-8.89l-1.33.14Z" transform="translate(-1.59 -3.46)"/><path class="cls-1" d="M488.1,21.51c4.17,0,6.85,2.9,6.79,7.4-.07,4.75-3.55,8.56-7.87,8.61-4,0-6.7-3-6.68-7.55C480.36,25,483.56,21.53,488.1,21.51Zm1.65,1.58c-5.45.51-7.5,2.82-7.59,6.63-.07,3.13,1.34,5.49,4.79,5.79,3,.26,6.73-3.26,6.11-6.44C492.6,26.74,490.68,24.69,489.75,23.09Z" transform="translate(-1.59 -3.46)"/><path class="cls-1" d="M212.17,137.16h11c-.44,6.31-.91,13-1.37,19.77l-1.27.08c-.19-2.9-.39-5.81-.63-9.36H213c-.06-.52-.11-1.05-.17-1.57l7.06-1.16c.13-1.42.27-3.14.46-5.31l-8.09-.76C212.22,138.29,212.19,137.72,212.17,137.16Z" transform="translate(-1.59 -3.46)"/><path class="cls-1" d="M231.56,53.56l6.39-2V27.66l-4.41-1c5.43-1.94,7.12-.61,7.53,4.31.26,3.14-2.14,7.23,1.49,8.47-.93,3-2.24,5.5-2.46,8.14C239.62,53.49,238.43,54.67,231.56,53.56Z" transform="translate(-1.59 -3.46)"/><path class="cls-1" d="M411.17,39.34c6.59-1.4,7.33-2.81,6.65-11.89l-5.89-.95-.15-1.12c1.56-.27,3.42-.12,4.6-.94s1.86-2.64,2.9-4.27l3.82,5.63c-4.87,1.1-3.17,5.27-3.36,8.65C419.44,39.81,416.46,41.79,411.17,39.34Z" transform="translate(-1.59 -3.46)"/><path class="cls-1" d="M250.62,147.29c.65-4.95,1.22-9.34,1.8-13.73l1.75.15q-.64,11.52-1.3,23l-1.27.18-.83-6.53-1.05-.86-6.28,8.11L242,156.21c2-2.18,5.18-4.12,5.66-6.59s-1.91-5.26-3.67-9.4Z" transform="translate(-1.59 -3.46)"/><path class="cls-1" d="M572.69,31.62c10.37-1,2.85-10.71,8.22-15h5.84l.44,1.31-4.93,2c-1.4,4.64,1.84,11.27-5,14-1.42.58-3.53-.53-5.33-.87Z" transform="translate(-1.59 -3.46)"/><path class="cls-1" d="M439.12,38.84c-2.08.35-4.27,1.26-6.22.9a6.43,6.43,0,0,1-4.25-3.32c-.36-1,1.36-3.17,2.66-4.15a48.25,48.25,0,0,1,6.75-3.69V26.87l-7-1.28c0-.33-.06-.65-.1-1,2.09-.12,4.25-.63,6.21-.21,1.06.22,2.74,2.59,2.49,3a23,23,0,0,1-4.3,4.86c-.69.64-1.93.67-2.65,1.3a12.39,12.39,0,0,0-1.82,2.61,9.93,9.93,0,0,0,2.84,1.38,39.33,39.33,0,0,0,5.21.06C439,38,439.07,38.43,439.12,38.84Z" transform="translate(-1.59 -3.46)"/><path class="cls-1" d="M377.74,41.37c-1.43-12.86,1-16.51,8.79-14.09l-8,3.59c4.52,2.89,11.51-.67,10.43,6.88C388.37,41.59,384.77,42.61,377.74,41.37Zm4,.69,5.54-5.69c-1.36-1.12-2.85-3.25-4-3.09-1.55.21-3.29,2-4.09,3.57C378.79,37.61,380.36,39.37,381.77,42.06Z" transform="translate(-1.59 -3.46)"/><path class="cls-1" d="M338,142.69c4.79-3.93,8.66-3.85,11.53-.85,2.19,2.3,2.06,8.78-.23,11.57-2.72,3.32-7,3.74-11.32.69,4.55-1.5,11.85.32,10.81-7.41C348.09,141.68,343.37,141.94,338,142.69Z" transform="translate(-1.59 -3.46)"/><path class="cls-1" d="M329.49,21.78C334,22,337,25.14,337.82,30c1.35,7.64-1.58,17.32-10,20.65C336.06,40.72,339.46,31.47,329.49,21.78Z" transform="translate(-1.59 -3.46)"/><path class="cls-1" d="M598.57,55.71h6.16c.13.4.26.8.38,1.2l-5,2c-1.62,4.23,1.9,11-4.65,14-1.32.6-3.35-.37-5.06-1.19C601.26,70,594.13,60.55,598.57,55.71Z" transform="translate(-1.59 -3.46)"/><path class="cls-1" d="M347.54,28.09l4.26,6,1.07-.46,1.43-12.86,1.34,0c0,3.53.16,7.07-.05,10.59a49.2,49.2,0,0,1-1.86,10.89l-.68-5.8-1.41-1.26-6.77,8.58-.88-.72A26.65,26.65,0,0,1,347.6,39c3.57-2.7,3.44-5.23.18-8a15.26,15.26,0,0,1-1.55-1.75Z" transform="translate(-1.59 -3.46)"/><path class="cls-1" d="M310.05,133.2c8.45,4.24,9.73,21.21-1.66,28.61,2-4.8,5.12-9.3,5.36-14S311.41,138.12,310.05,133.2Z" transform="translate(-1.59 -3.46)"/><path class="cls-1" d="M290.34,199.69c2.14-5.51,5.18-10.12,5.42-14.87s-2.4-9.41-3.84-14.34c4.91,2.54,6.51,7.56,6.65,12.32C298.76,189.18,296.27,195,290.34,199.69Z" transform="translate(-1.59 -3.46)"/><path class="cls-1" d="M272.81,51.81c-5.85-1.88-7.15-7-7.29-11.57-.19-6.25,2.16-12.12,8.47-15.86C267.4,33.34,264.7,42.31,272.81,51.81Z" transform="translate(-1.59 -3.46)"/><path class="cls-1" d="M506.36,62.58l-8.42-.94c0-.67,0-1.34.05-2,3.52,0,7-.07,10.54.09.43,0,1.18,1.29,1.15,1.95-.22,4.6-.59,9.19-1,13.77,0,.33-1,.59-2.3,1.38Z" transform="translate(-1.59 -3.46)"/><path class="cls-1" d="M160.42,157.28a7.06,7.06,0,0,1-.84-2.36c0-2,.71-4,.45-5.88-.23-1.64-1.4-3.15-2.16-4.71-1.29,1.65-3.11,3.12-3.75,5-.86,2.55-.82,5.4-1.17,8.12l-1.86-.26c.46-3.82.32-7.85,1.56-11.4,1.41-4,5.16-4,9.07-2.82v13.85Z" transform="translate(-1.59 -3.46)"/><path class="cls-1" d="M422.27,192c10-1.25,3.77-9.75,6.41-14.36h7.06c.12.38.24.76.37,1.14l-4.65,2,1,.28c-1.78,4.34-3.4,8.76-5.53,12.92-.27.53-3.21-.3-4.92-.5Z" transform="translate(-1.59 -3.46)"/><path class="cls-1" d="M284.28,311.76c8-9,8.5-18.18,1-27.7,3.77.83,6.79,5.51,7.6,11.53C293.75,301.85,290.12,309.06,284.28,311.76Z" transform="translate(-1.59 -3.46)"/><path class="cls-1" d="M282.28,170.89c-7.58,9-8.94,18.22,0,28.44-4.89-2.05-7.84-6.31-8.11-10.4C273.7,182.2,274.29,175.56,282.28,170.89Z" transform="translate(-1.59 -3.46)"/><path class="cls-1" d="M448.09,194.68v-14l-8-1.07c.06-.76.12-1.51.19-2.26,3.11.29,6.24.52,9.34,1,.6.08,1.55,1,1.55,1.54-.07,4.6-.29,9.19-.57,13.78C450.56,193.86,449.55,194.06,448.09,194.68Z" transform="translate(-1.59 -3.46)"/><path class="cls-1" d="M118.83,142.69c-.49,6-.87,10.54-1.24,15.12l-1.16,0V145c-9.4,1.16-4.79,8.82-7.59,12.74-.57-4.26-2.14-9,1.27-12.47C111.86,143.5,115.54,143.58,118.83,142.69Z" transform="translate(-1.59 -3.46)"/><path class="cls-1" d="M276.77,283.72c-8.44,8.93-9.18,18.26-1.38,28.17C264.63,305.45,267.07,287.18,276.77,283.72Z" transform="translate(-1.59 -3.46)"/><path class="cls-1" d="M361.16,41.49c4.57-.81,9.83-.59,9.55-7.3-.22-5.43-4.37-5.34-8.29-5.77,3.11-1.15,6.32-1.82,8.72,1.27,2.69,3.48,2.13,7.23-.7,10.4C367.86,43,364.73,43.85,361.16,41.49Z" transform="translate(-1.59 -3.46)"/><path class="cls-1" d="M409.2,312.31a13.92,13.92,0,0,1-.95-3.77c.08-3.12,1.62-6.82.4-9.15-1-1.94-5.11-2.26-8.3-3.47,3.3-3.07,6.67-1.23,9.51-.18,1,.36,1.21,3.44,1.31,5.3.2,3.6.06,7.22.06,10.84Z" transform="translate(-1.59 -3.46)"/><path class="cls-1" d="M320.3,191.52c3.53.1,6-.86,5.83-4.93-.13-2.94,0-5.89,0-9h6.68c.05.63.18,1.21.09,1.25-5,2-4.44,6.45-5,10.59a6.88,6.88,0,0,1-3.17,4.37c-1,.59-3-.45-4.51-.77C320.2,192.56,320.25,192,320.3,191.52Z" transform="translate(-1.59 -3.46)"/><path class="cls-1" d="M67.42,143.78c.82,3.94,1.6,7.66,2.37,11.37l1,.06q2.4-5.76,4.81-11.51l1,.35c-1.31,3.59-2.47,7.24-4,10.75-2.3,5.42-2.4,5.38,2.36,8.3-1.44-.35-3.21-.29-4.27-1.12C68.39,160.13,66.18,147.28,67.42,143.78Z" transform="translate(-1.59 -3.46)"/><path class="cls-1" d="M303.11,45.81c0-2.7-.21-5.43.05-8.11.38-4-.82-6.05-5.22-5.19-.54.11-1.23-.54-1.71-1.95h9.95c-.28,5.21-.56,10.27-.83,15.33Z" transform="translate(-1.59 -3.46)"/><path class="cls-1" d="M189.23,145c-1,12.6-3.28,13.86-8.16,11.1,9.24-1.52,2.63-10.12,7.27-14.23l4.21-.23c.18.38.37.76.56,1.14Z" transform="translate(-1.59 -3.46)"/><path class="cls-1" d="M205.76,143v14.12l-1.43,0V144.46l-7-.47C199.9,140.69,201.06,140.63,205.76,143Z" transform="translate(-1.59 -3.46)"/><path class="cls-1" d="M18.94,145.49c-5.4,1-6.52,3.08-5.7,10.65,5.26,1.15,5.79.93,7.37-3.2-.25,5.2-1.76,6-8.32,4.28C12.27,146.1,13.24,144.36,18.94,145.49Z" transform="translate(-1.59 -3.46)"/><path class="cls-1" d="M87.19,157.7V145.53l-6.06-.65c5.25-3,7.82-1.58,7.86,3.82,0,3,0,6,0,9Z" transform="translate(-1.59 -3.46)"/><path class="cls-1" d="M5.49,146.49l-3.9-.87c0-.22.09-.44.13-.66l5.23.95c-.27,3.3-.52,6.5-.78,9.7l-.68,0Z" transform="translate(-1.59 -3.46)"/><path class="cls-1" d="M263.88,198.89a46.44,46.44,0,0,1-3.59-6.53c-.24-.62,1.26-1.89,2-2.86a11.18,11.18,0,0,1,1.56,3.08A45.48,45.48,0,0,1,263.88,198.89Z" transform="translate(-1.59 -3.46)"/></svg>