<?xml version="1.0" encoding="utf-8"?>
<!-- Generator: Adobe Illustrator 22.0.0, SVG Export Plug-In . SVG Version: 6.00 Build 0)  -->
<svg version="1.1" id="Слой_1" xmlns="http://www.w3.org/2000/svg" xmlns:xlink="http://www.w3.org/1999/xlink" x="0px" y="0px"
	 viewBox="0 0 398 460" style="enable-background:new 0 0 398 460;" xml:space="preserve">
<style type="text/css">
	.st0{fill:#1E1E1E;}
</style>
<g>
	<path class="st0" d="M363,11L325,0L216,46h-18h-18L71,0L33,11L-1,77l8,19l34,24l125,12L46,148l33,7l-22,11l52,107l-4-95l29,13
		l22,144l13,23l15-20l14,29l14-29l15,20l13-23l22-144l29-13l-4,95l52-107l-22-11l33-7l-120-16l125-12l34-24l8-19L363,11z M150,99H74
		L37,80l19-32l16-7l96,39L150,99z M185,226l-35-76l35,16V226z M246,150l-35,76v-60L246,150z M322,99h-76l-18-19l96-39l16,7l19,32
		L322,99z"/>
	<polygon class="st0" points="268,384 277,372 264,338 240,393 211,367 198,393 185,367 156,393 132,338 119,372 128,384 103,384 
		84,402 158,433 198,462 238,433 312,402 293,384 	"/>
</g>
</svg>
