<?xml version="1.0" encoding="UTF-8"?>
<!-- Generator: Adobe Illustrator 23.0.0, SVG Export Plug-In . SVG Version: 6.00 Build 0)  -->
<svg version="1.1" id="Layer_1" xmlns="http://www.w3.org/2000/svg" xmlns:xlink="http://www.w3.org/1999/xlink" x="0px" y="0px" viewBox="0 0 400 400" style="enable-background:new 0 0 400 400;" xml:space="preserve">
<style type="text/css">
	.st0{fill:#DB4040;}
	.st1{fill:#FF7676;}
	.st2{fill:#F45656;}
</style>
<g>
	<rect class="st0" width="400" height="400"/>
	<g>
		<g>
			<g>
				<g>
					<path class="st1" d="M184.6,159.02l-25.59,25.59v56.38h81.98v-81.97H184.6z M238.99,238.98h-77.98v-53.56l24.41-24.41h53.57       V238.98z"/>
				</g>
			</g>
			<g>
				<g>
					<path class="st1" d="M224,217.01c-3.85,0-6.98,3.14-6.98,6.99s3.13,6.99,6.98,6.99c3.86,0,6.99-3.14,6.99-6.99       S227.86,217.01,224,217.01z M224,228.98c-2.75,0-4.98-2.24-4.98-4.99s2.23-4.99,4.98-4.99s4.99,2.24,4.99,4.99       S226.75,228.98,224,228.98z"/>
				</g>
			</g>
			<g>
				<g>
					<path class="st1" d="M262.49,189.33v-1.5h5.91v-2.48h16.74c0.45,1.82,2.09,3.17,4.04,3.17c2.3,0,4.17-1.87,4.17-4.18       c0-2.3-1.87-4.17-4.17-4.17c-1.95,0-3.59,1.36-4.04,3.18H268.4v-2.48h-5.91v-1.51h-9.5v-5.68h9.5v-1.51h5.91v-2.48h16.74       c0.45,1.82,2.09,3.18,4.04,3.18c2.3,0,4.17-1.88,4.17-4.18s-1.87-4.17-4.17-4.17c-1.95,0-3.59,1.36-4.04,3.17H268.4v-2.48       h-5.91v-1.5h-9.5v-8.23c0-4.67-3.79-8.46-8.46-8.46h-8.24v-9.51h-1.5v-5.91h-2.48v-16.74c1.82-0.45,3.17-2.09,3.17-4.04       c0-2.3-1.87-4.17-4.18-4.17c-2.3,0-4.17,1.87-4.17,4.17c0,1.96,1.36,3.59,3.18,4.04v16.74h-2.48v5.91h-1.51v9.51h-5.68v-9.51       h-1.51v-5.91h-2.48v-16.74c1.82-0.45,3.18-2.09,3.18-4.04c0-2.3-1.88-4.17-4.18-4.17s-4.17,1.87-4.17,4.17       c0,1.96,1.36,3.59,3.17,4.04v16.74h-2.48v5.91h-1.5v9.51h-5.69v-9.51h-1.5v-5.91H201v-16.74c1.82-0.45,3.17-2.09,3.17-4.04       c0-2.3-1.87-4.17-4.18-4.17c-2.29,0-4.16,1.87-4.16,4.17c0,1.96,1.35,3.59,3.17,4.04v16.74h-2.48v5.91h-1.51v9.51h-5.68v-9.51       h-1.51v-5.91h-2.47v-16.74c1.81-0.45,3.17-2.09,3.17-4.04c0-2.3-1.88-4.17-4.18-4.17c-2.3,0-4.17,1.87-4.17,4.17       c0,1.96,1.36,3.59,3.18,4.04v16.74h-2.48v5.91h-1.51v9.51h-5.68v-9.51h-1.51v-5.91h-2.48v-16.74c1.82-0.45,3.17-2.09,3.17-4.04       c0-2.3-1.87-4.17-4.18-4.17c-2.29,0-4.16,1.87-4.16,4.17c0,1.96,1.35,3.59,3.17,4.04v16.74h-2.48v5.91h-1.5v9.51h-10.58       c-3.37,0-6.12,2.75-6.12,6.12v10.57h-9.5v1.5h-5.91v2.48h-16.74c-0.46-1.81-2.09-3.17-4.05-3.17c-2.29,0-4.16,1.87-4.16,4.18       c0,2.3,1.87,4.17,4.16,4.17c1.96,0,3.6-1.36,4.05-3.18h16.74v2.48h5.91v1.51h9.5v5.68h-9.5v1.51h-5.91v2.48h-16.74       c-0.46-1.82-2.09-3.18-4.05-3.18c-2.29,0-4.16,1.88-4.16,4.18c0,2.3,1.87,4.17,4.16,4.17c1.96,0,3.6-1.36,4.05-3.17h16.74v2.48       h5.91v1.5h9.5v5.69h-9.5v1.5h-5.91v2.48h-16.74c-0.46-1.82-2.09-3.17-4.05-3.17c-2.29,0-4.16,1.87-4.16,4.18       c0,2.3,1.87,4.17,4.16,4.17c1.96,0,3.6-1.36,4.05-3.18h16.74v2.48h5.91v1.51h9.5v5.68h-9.5v1.51h-5.91v2.48h-16.74       c-0.46-1.82-2.09-3.18-4.05-3.18c-2.29,0-4.16,1.88-4.16,4.18c0,2.3,1.87,4.17,4.16,4.17c1.96,0,3.6-1.36,4.05-3.17h16.74v2.48       h5.91v1.5h9.5v5.69h-9.5v1.5h-5.91v2.48h-16.74c-0.46-1.82-2.09-3.17-4.05-3.17c-2.29,0-4.16,1.87-4.16,4.18       c0,2.29,1.87,4.16,4.16,4.16c1.96,0,3.6-1.35,4.05-3.17h16.74v2.48h5.91v1.51h9.5v8.23c0,4.66,3.79,8.46,8.46,8.46h8.24v9.5       h1.5v5.91h2.48v16.74c-1.82,0.46-3.17,2.09-3.17,4.05c0,2.3,1.87,4.17,4.18,4.17c2.29,0,4.16-1.87,4.16-4.17       c0-1.96-1.35-3.6-3.17-4.05V268.4h2.48v-5.91h1.51v-9.5h5.68v9.5h1.51v5.91h2.48v16.74c-1.82,0.46-3.18,2.09-3.18,4.05       c0,2.3,1.88,4.17,4.18,4.17c2.3,0,4.17-1.87,4.17-4.17c0-1.96-1.36-3.6-3.17-4.05V268.4h2.47v-5.91h1.51v-9.5h5.68v9.5h1.51       v5.91H199v16.74c-1.82,0.46-3.17,2.09-3.17,4.05c0,2.3,1.87,4.17,4.18,4.17c2.29,0,4.16-1.87,4.16-4.17       c0-1.96-1.35-3.6-3.17-4.05V268.4h2.48v-5.91h1.5v-9.5h5.69v9.5h1.5v5.91h2.48v16.74c-1.81,0.46-3.17,2.09-3.17,4.05       c0,2.3,1.88,4.17,4.18,4.17c2.3,0,4.17-1.87,4.17-4.17c0-1.96-1.36-3.6-3.18-4.05V268.4h2.48v-5.91h1.51v-9.5h5.68v9.5h1.51       v5.91h2.48v16.74c-1.82,0.46-3.18,2.09-3.18,4.05c0,2.3,1.88,4.17,4.18,4.17s4.17-1.87,4.17-4.17c0-1.96-1.35-3.6-3.17-4.05       V268.4h2.48v-5.91h1.5v-9.5h8.24c4.67,0,8.46-3.8,8.46-8.46v-8.23h9.5v-1.51h5.91v-2.48h16.74c0.45,1.82,2.09,3.17,4.04,3.17       c2.3,0,4.17-1.87,4.17-4.17s-1.87-4.17-4.17-4.17c-1.95,0-3.59,1.35-4.04,3.17H268.4v-2.48h-5.91v-1.5h-9.5v-5.69h9.5v-1.5       h5.91v-2.48h16.74c0.45,1.81,2.09,3.17,4.04,3.17c2.3,0,4.17-1.88,4.17-4.18c0-2.3-1.87-4.17-4.17-4.17       c-1.95,0-3.59,1.36-4.04,3.18H268.4v-2.48h-5.91v-1.51h-9.5v-5.68h9.5v-1.51h5.91v-2.48h16.74c0.45,1.82,2.09,3.18,4.04,3.18       c2.3,0,4.17-1.88,4.17-4.18s-1.87-4.17-4.17-4.17c-1.95,0-3.59,1.35-4.04,3.17H268.4v-2.48h-5.91v-1.5h-9.5v-5.69H262.49z        M289.18,182.16c1.2,0,2.17,0.98,2.17,2.17c0,1.2-0.97,2.18-2.17,2.18s-2.17-0.98-2.17-2.18       C287.01,183.15,287.98,182.16,289.18,182.16z M262.49,182.86h3.91v2.96h-3.91V182.86z M289.18,166.52       c1.2,0,2.17,0.97,2.17,2.17s-0.97,2.18-2.17,2.18s-2.17-0.98-2.17-2.18S287.98,166.52,289.18,166.52z M262.49,167.21h3.91v2.96       h-3.91V167.21z M252.99,165.71h7.5v5.97h-7.5V165.71z M252.99,181.35h7.5v5.97h-7.5V181.35z M110.81,170.86       c-1.19,0-2.16-0.98-2.16-2.17c0-1.2,0.97-2.18,2.16-2.18c1.21,0,2.18,0.98,2.18,2.18       C112.99,169.89,112.02,170.86,110.81,170.86z M137.51,170.16h-3.91v-2.96h3.91V170.16z M110.81,186.52       c-1.19,0-2.16-0.97-2.16-2.17c0-1.2,0.97-2.18,2.16-2.18c1.21,0,2.18,0.98,2.18,2.18       C112.99,185.54,112.02,186.52,110.81,186.52z M137.51,185.83h-3.91v-2.96h3.91V185.83z M110.81,202.17       c-1.19,0-2.16-0.98-2.16-2.17c0-1.2,0.97-2.18,2.16-2.18c1.21,0,2.18,0.98,2.18,2.18C112.99,201.2,112.02,202.17,110.81,202.17       z M137.51,201.47h-3.91v-2.96h3.91V201.47z M110.81,217.83c-1.19,0-2.16-0.97-2.16-2.17c0-1.2,0.97-2.18,2.16-2.18       c1.21,0,2.18,0.98,2.18,2.18C112.99,216.85,112.02,217.83,110.81,217.83z M137.51,217.14h-3.91v-2.96h3.91V217.14z        M110.81,233.47c-1.19,0-2.16-0.97-2.16-2.16c0-1.2,0.97-2.18,2.16-2.18c1.21,0,2.18,0.98,2.18,2.18       C112.99,232.51,112.02,233.47,110.81,233.47z M137.51,232.78h-3.91v-2.96h3.91V232.78z M147.01,234.29h-7.5v-5.97h7.5V234.29z        M147.01,218.64h-7.5v-5.97h7.5V218.64z M147.01,202.98h-7.5v-5.97h7.5V202.98z M147.01,187.33h-7.5v-5.97h7.5V187.33z        M147.01,171.67h-7.5v-5.97h7.5V171.67z M229.13,110.82c0-1.2,0.98-2.17,2.17-2.17c1.2,0,2.18,0.97,2.18,2.17       s-0.98,2.18-2.18,2.18C230.11,112.99,229.13,112.02,229.13,110.82z M229.83,133.59h2.96v3.91h-2.96V133.59z M228.32,139.51       h5.97v7.51h-5.97V139.51z M213.48,110.82c0-1.2,0.97-2.17,2.17-2.17s2.18,0.97,2.18,2.17s-0.98,2.18-2.18,2.18       S213.48,112.02,213.48,110.82z M214.17,133.59h2.96v3.91h-2.96V133.59z M212.67,139.51h5.97v7.51h-5.97V139.51z M197.83,110.82       c0-1.2,0.97-2.17,2.16-2.17c1.21,0,2.18,0.97,2.18,2.17s-0.97,2.18-2.18,2.18C198.8,112.99,197.83,112.02,197.83,110.82z        M198.52,133.59h2.96v3.91h-2.96V133.59z M197.01,139.51h5.97v7.51h-5.97V139.51z M182.17,110.82c0-1.2,0.97-2.17,2.17-2.17       c1.2,0,2.18,0.97,2.18,2.17s-0.98,2.18-2.18,2.18C183.14,112.99,182.17,112.02,182.17,110.82z M182.87,133.59h2.95v3.91h-2.95       V133.59z M181.36,139.51h5.97v7.51h-5.97V139.51z M166.52,110.82c0-1.2,0.97-2.17,2.16-2.17c1.21,0,2.18,0.97,2.18,2.17       s-0.97,2.18-2.18,2.18C167.49,112.99,166.52,112.02,166.52,110.82z M167.21,133.59h2.96v3.91h-2.96V133.59z M165.71,139.51       h5.97v7.51h-5.97V139.51z M170.86,289.18c0,1.19-0.97,2.17-2.16,2.17c-1.21,0-2.18-0.98-2.18-2.17c0-1.2,0.97-2.18,2.18-2.18       C169.89,287.01,170.86,287.98,170.86,289.18z M170.17,266.4h-2.96v-3.91h2.96V266.4z M171.68,260.48h-5.97v-7.5h5.97V260.48z        M186.52,289.18c0,1.19-0.97,2.17-2.17,2.17c-1.2,0-2.18-0.98-2.18-2.17c0-1.2,0.98-2.18,2.18-2.18       C185.55,287.01,186.52,287.98,186.52,289.18z M185.82,266.4h-2.95v-3.91h2.95V266.4z M187.33,260.48h-5.97v-7.5h5.97V260.48z        M202.17,289.18c0,1.19-0.97,2.17-2.16,2.17c-1.21,0-2.18-0.98-2.18-2.17c0-1.2,0.97-2.18,2.18-2.18       C201.2,287.01,202.17,287.98,202.17,289.18z M201.48,266.4h-2.96v-3.91h2.96V266.4z M202.98,260.48h-5.97v-7.5h5.97V260.48z        M217.83,289.18c0,1.19-0.98,2.17-2.17,2.17c-1.2,0-2.18-0.98-2.18-2.17c0-1.2,0.98-2.18,2.18-2.18       C216.85,287.01,217.83,287.98,217.83,289.18z M217.13,266.4h-2.96v-3.91h2.96V266.4z M218.64,260.48h-5.97v-7.5h5.97V260.48z        M233.48,289.18c0,1.19-0.97,2.17-2.17,2.17s-2.18-0.98-2.18-2.17c0-1.2,0.98-2.18,2.18-2.18S233.48,287.98,233.48,289.18z        M232.79,266.4h-2.96v-3.91h2.96V266.4z M234.29,260.48h-5.97v-7.5h5.97V260.48z M250.99,163.71h-0.01v9.97h0.01v5.68h-0.01       v9.97h0.01v5.69h-0.01v9.97h0.01v5.68h-0.01v9.97h0.01v5.69h-0.01v9.97h0.01v8.23c0,3.56-2.9,6.46-6.46,6.46h-89.06       c-3.56,0-6.46-2.9-6.46-6.46v-91.39c0-2.27,1.85-4.12,4.12-4.12h91.4c3.56,0,6.46,2.9,6.46,6.46V163.71z M289.18,229.14       c1.2,0,2.17,0.97,2.17,2.17s-0.97,2.17-2.17,2.17s-2.17-0.97-2.17-2.17S287.98,229.14,289.18,229.14z M262.49,229.83h3.91v2.96       h-3.91V229.83z M260.49,228.33v5.97h-7.5v-5.97H260.49z M289.18,213.47c1.2,0,2.17,0.98,2.17,2.17c0,1.2-0.97,2.18-2.17,2.18       s-2.17-0.98-2.17-2.18C287.01,214.46,287.98,213.47,289.18,213.47z M262.49,214.17h3.91v2.96h-3.91V214.17z M260.49,212.66       v5.97h-7.5v-5.97H260.49z M289.18,197.83c1.2,0,2.17,0.97,2.17,2.17s-0.97,2.18-2.17,2.18s-2.17-0.98-2.17-2.18       S287.98,197.83,289.18,197.83z M262.49,198.52h3.91v2.96h-3.91V198.52z M260.49,197.02v5.97h-7.5v-5.97H260.49z"/>
				</g>
			</g>
		</g>
	</g>
	<path class="st2" d="M393.71,324.95c-2.58,0-4.69,2.1-4.69,4.7c0,2.24,1.59,4.12,3.7,4.58v21.38h-58.9v-36.39   c2.11-0.46,3.69-2.34,3.69-4.58c0-2.59-2.11-4.7-4.7-4.7c-2.58,0-4.69,2.11-4.69,4.7c0,2.25,1.59,4.13,3.7,4.59v13.03h-38.91   l-10.81-10.8c0.51-0.75,0.8-1.65,0.8-2.62c0-2.59-2.11-4.7-4.7-4.7c-2.58,0-4.69,2.11-4.69,4.7c0,2.59,2.11,4.7,4.69,4.7   c0.9,0,1.74-0.27,2.45-0.71l11.43,11.43h39.74v21.35h-38.23l-12.57-12.57c0.46-0.73,0.74-1.59,0.74-2.51c0-2.59-2.11-4.7-4.7-4.7   c-2.59,0-4.69,2.11-4.69,4.7c0,2.59,2.1,4.7,4.69,4.7c0.94,0,1.82-0.29,2.55-0.77l13.15,13.15h101.96v-23.38   c2.11-0.46,3.69-2.34,3.69-4.58C398.41,327.05,396.3,324.95,393.71,324.95z M278.2,321.54c-1.48,0-2.69-1.21-2.69-2.7   c0-1.49,1.21-2.7,2.69-2.7c1.49,0,2.7,1.21,2.7,2.7C280.9,320.33,279.69,321.54,278.2,321.54z M277.06,343.23   c-1.49,0-2.69-1.21-2.69-2.7c0-1.49,1.2-2.7,2.69-2.7s2.7,1.21,2.7,2.7C279.76,342.02,278.55,343.23,277.06,343.23z M330.12,314.64   c0-1.49,1.21-2.7,2.69-2.7c1.49,0,2.7,1.21,2.7,2.7s-1.21,2.7-2.7,2.7C331.33,317.34,330.12,316.13,330.12,314.64z M393.71,332.35   c-1.48,0-2.69-1.22-2.69-2.7c0-1.49,1.21-2.7,2.69-2.7c1.49,0,2.7,1.21,2.7,2.7C396.41,331.13,395.2,332.35,393.71,332.35z"/>
	<path class="st2" d="M319.01,310.44c-2.25,0-4.12,1.59-4.58,3.7h-13.32c-0.46-2.11-2.34-3.7-4.59-3.7c-2.58,0-4.69,2.11-4.69,4.7   c0,2.59,2.11,4.7,4.69,4.7c2.25,0,4.13-1.59,4.59-3.7h13.32c0.46,2.11,2.33,3.7,4.58,3.7c2.59,0,4.7-2.11,4.7-4.7   C323.71,312.55,321.6,310.44,319.01,310.44z M296.52,317.84c-1.48,0-2.69-1.21-2.69-2.7s1.21-2.7,2.69-2.7c1.49,0,2.7,1.21,2.7,2.7   S298.01,317.84,296.52,317.84z M319.01,317.84c-1.49,0-2.69-1.21-2.69-2.7s1.2-2.7,2.69-2.7c1.48,0,2.7,1.21,2.7,2.7   S320.49,317.84,319.01,317.84z"/>
	<path class="st2" d="M338.01,363.81c-2.25,0-4.12,1.58-4.58,3.7h-46.4l-13.4-13.4c0.46-0.73,0.74-1.58,0.74-2.51   c0-2.59-2.11-4.7-4.7-4.7c-2.59,0-4.69,2.11-4.69,4.7c0,2.59,2.1,4.7,4.69,4.7c0.94,0,1.82-0.28,2.56-0.77l13.97,13.98h47.23   c0.46,2.11,2.33,3.7,4.58,3.7c2.59,0,4.7-2.11,4.7-4.7C342.71,365.91,340.6,363.81,338.01,363.81z M269.67,354.3   c-1.49,0-2.69-1.21-2.69-2.7c0-1.49,1.2-2.7,2.69-2.7c1.49,0,2.7,1.21,2.7,2.7C272.37,353.09,271.16,354.3,269.67,354.3z    M338.01,371.21c-1.49,0-2.69-1.22-2.69-2.7c0-1.49,1.2-2.7,2.69-2.7c1.48,0,2.7,1.21,2.7,2.7   C340.71,369.99,339.49,371.21,338.01,371.21z"/>
	<path class="st2" d="M358.36,342.87v-19.14l-13.45-13.44v-12.02c2.11-0.46,3.7-2.34,3.7-4.58c0-2.59-2.11-4.7-4.7-4.7   c-2.59,0-4.69,2.11-4.69,4.7c0,2.25,1.59,4.13,3.69,4.59v12.84l13.45,13.44v18.31c-2.11,0.46-3.7,2.34-3.7,4.58   c0,2.6,2.11,4.7,4.69,4.7c2.59,0,4.7-2.1,4.7-4.7C362.05,345.21,360.47,343.33,358.36,342.87z M341.22,293.69   c0-1.49,1.21-2.7,2.69-2.7c1.49,0,2.7,1.21,2.7,2.7s-1.21,2.7-2.7,2.7C342.43,296.39,341.22,295.18,341.22,293.69z M357.35,350.15   c-1.48,0-2.69-1.21-2.69-2.7c0-1.48,1.21-2.7,2.69-2.7c1.49,0,2.7,1.22,2.7,2.7C360.05,348.94,358.84,350.15,357.35,350.15z"/>
	<path class="st2" d="M351.47,231.98c-1.11,0-2.11,0.4-2.91,1.04l-9.54-9.54v-39.49h-13.11c-0.46-2.11-2.34-3.7-4.59-3.7   c-2.59,0-4.69,2.11-4.69,4.7c0,2.59,2.1,4.7,4.69,4.7c2.25,0,4.13-1.59,4.59-3.7h11.11v38.32l10.27,10.27   c-0.32,0.64-0.51,1.34-0.51,2.1c0,2.59,2.1,4.7,4.69,4.7c2.59,0,4.7-2.11,4.7-4.7C356.17,234.09,354.06,231.98,351.47,231.98z    M321.32,187.69c-1.49,0-2.69-1.21-2.69-2.7s1.2-2.7,2.69-2.7s2.7,1.21,2.7,2.7S322.81,187.69,321.32,187.69z M351.47,239.38   c-1.49,0-2.69-1.21-2.69-2.7s1.2-2.7,2.69-2.7c1.49,0,2.7,1.21,2.7,2.7S352.96,239.38,351.47,239.38z"/>
	<path class="st2" d="M362.12,225.74c-1.03,0-1.99,0.36-2.77,0.93L349,216.32V171.2l-8.69-8.69c0.33-0.64,0.53-1.36,0.53-2.13   c0-2.59-2.11-4.7-4.7-4.7c-2.58,0-4.69,2.11-4.69,4.7c0,2.6,2.11,4.7,4.69,4.7c1.1,0,2.09-0.39,2.89-1.02l7.97,7.97v45.11   l11.04,11.04c-0.37,0.68-0.61,1.44-0.61,2.27c0,2.59,2.11,4.69,4.69,4.69c2.6,0,4.7-2.1,4.7-4.69   C366.82,227.85,364.72,225.74,362.12,225.74z M336.14,163.08c-1.48,0-2.69-1.21-2.69-2.7c0-1.48,1.21-2.7,2.69-2.7   c1.49,0,2.7,1.22,2.7,2.7C338.84,161.87,337.63,163.08,336.14,163.08z M362.12,233.14c-1.48,0-2.69-1.21-2.69-2.69   c0-1.49,1.21-2.71,2.69-2.71c1.49,0,2.7,1.22,2.7,2.71C364.82,231.93,363.61,233.14,362.12,233.14z"/>
	<path class="st2" d="M390.08,262.22l-9.09,9.09c-1.81-1.17-4.26-0.96-5.85,0.63c-0.66,0.66-1.08,1.47-1.26,2.32H272.55L253.2,293.6   v9.18c-2.11,0.46-3.7,2.34-3.7,4.59c0,2.58,2.11,4.69,4.7,4.69c2.6,0,4.7-2.11,4.7-4.69c0-2.25-1.58-4.13-3.7-4.59v-8.35   l18.18-18.17h100.49c0.19,0.85,0.6,1.66,1.26,2.32c0.89,0.89,2.07,1.37,3.32,1.37c0,0,0,0,0.01,0c1.25,0,2.43-0.49,3.32-1.37   c1.58-1.59,1.79-4.04,0.63-5.86l8.49-8.5h9.1v-2H390.08z M256.9,307.37c0,1.48-1.21,2.69-2.7,2.69c-1.48,0-2.7-1.21-2.7-2.69   c0-1.49,1.22-2.7,2.7-2.7C255.69,304.67,256.9,305.88,256.9,307.37z M380.36,277.16c-0.51,0.51-1.19,0.79-1.91,0.79   c-0.72,0-1.4-0.28-1.91-0.79c-1.05-1.05-1.04-2.76,0.01-3.81c0.53-0.53,1.22-0.79,1.91-0.79s1.38,0.26,1.9,0.78   C381.41,274.4,381.41,276.11,380.36,277.16z"/>
	<path class="st2" d="M327.32,215.26v-14.31c2.12-0.46,3.7-2.34,3.7-4.59c0-2.59-2.11-4.69-4.7-4.69s-4.7,2.1-4.7,4.69   c0,2.25,1.59,4.13,3.7,4.59v14.31c-2.11,0.46-3.7,2.34-3.7,4.58c0,2.59,2.11,4.7,4.7,4.7s4.7-2.11,4.7-4.7   C331.02,217.6,329.44,215.72,327.32,215.26z M323.62,196.36c0-1.49,1.21-2.69,2.7-2.69s2.7,1.2,2.7,2.69s-1.21,2.7-2.7,2.7   S323.62,197.85,323.62,196.36z M326.32,222.54c-1.49,0-2.7-1.21-2.7-2.7c0-1.48,1.21-2.69,2.7-2.69s2.7,1.21,2.7,2.69   C329.02,221.33,327.81,222.54,326.32,222.54z"/>
	<path class="st2" d="M391.94,222.81V208.5c2.11-0.46,3.7-2.34,3.7-4.59c0-2.59-2.11-4.69-4.7-4.69c-2.6,0-4.7,2.1-4.7,4.69   c0,2.25,1.58,4.13,3.7,4.59v14.31c-2.12,0.46-3.7,2.34-3.7,4.58c0,2.59,2.1,4.7,4.7,4.7c2.59,0,4.7-2.11,4.7-4.7   C395.64,225.15,394.05,223.27,391.94,222.81z M388.24,203.91c0-1.48,1.21-2.69,2.7-2.69c1.48,0,2.7,1.21,2.7,2.69   c0,1.49-1.22,2.7-2.7,2.7C389.45,206.61,388.24,205.4,388.24,203.91z M390.94,230.09c-1.49,0-2.7-1.21-2.7-2.7   c0-1.48,1.21-2.69,2.7-2.69c1.48,0,2.7,1.21,2.7,2.69C393.64,228.88,392.42,230.09,390.94,230.09z"/>
	<path class="st2" d="M350.78,258.82c-2.25,0-4.13,1.59-4.59,3.7h-79.31c-0.46-2.11-2.34-3.7-4.58-3.7c-2.59,0-4.7,2.11-4.7,4.7   c0,2.59,2.11,4.7,4.7,4.7c2.24,0,4.12-1.59,4.58-3.7h79.31c0.46,2.11,2.34,3.7,4.59,3.7c2.59,0,4.69-2.11,4.69-4.7   C355.47,260.93,353.37,258.82,350.78,258.82z M262.3,266.22c-1.49,0-2.7-1.21-2.7-2.7s1.21-2.7,2.7-2.7c1.48,0,2.69,1.21,2.69,2.7   S263.78,266.22,262.3,266.22z M350.78,266.22c-1.49,0-2.7-1.21-2.7-2.7s1.21-2.7,2.7-2.7c1.48,0,2.69,1.21,2.69,2.7   S352.26,266.22,350.78,266.22z"/>
	<path class="st2" d="M293.72,283.99c-0.46-2.11-2.34-3.7-4.59-3.7c-2.58,0-4.69,2.11-4.69,4.7c0,2.59,2.11,4.7,4.69,4.7   c2.25,0,4.13-1.59,4.59-3.7h29.16l-15.43,15.44h-25.14c-0.46-2.12-2.34-3.7-4.59-3.7c-2.58,0-4.69,2.1-4.69,4.7   c0,2.59,2.11,4.7,4.69,4.7c2.25,0,4.13-1.59,4.59-3.7h25.96l17.44-17.44H400v-2H293.72z M289.13,287.69c-1.48,0-2.69-1.21-2.69-2.7   s1.21-2.7,2.69-2.7c1.49,0,2.7,1.21,2.7,2.7S290.62,287.69,289.13,287.69z M277.72,305.13c-1.48,0-2.69-1.22-2.69-2.7   c0-1.49,1.21-2.7,2.69-2.7c1.49,0,2.7,1.21,2.7,2.7C280.42,303.91,279.21,305.13,277.72,305.13z"/>
	<path class="st2" d="M346.91,245.61l-16.87-16.87h-19.05c-0.46-2.11-2.34-3.7-4.59-3.7c-2.58,0-4.69,2.11-4.69,4.7   c0,2.6,2.11,4.71,4.69,4.71c2.25,0,4.13-1.59,4.59-3.71h16.22l-16.57,16.58h-26.1c-0.46-2.11-2.34-3.7-4.59-3.7   c-2.58,0-4.69,2.11-4.69,4.7c0,2.59,2.11,4.7,4.69,4.7c2.25,0,4.13-1.59,4.59-3.7h26.92l18.16-18.16l16.46,16.45H400v-2H346.91z    M306.4,232.45c-1.48,0-2.69-1.22-2.69-2.71c0-1.48,1.21-2.7,2.69-2.7c1.49,0,2.7,1.22,2.7,2.7   C309.1,231.23,307.89,232.45,306.4,232.45z M279.95,251.02c-1.48,0-2.69-1.21-2.69-2.7s1.21-2.7,2.69-2.7c1.49,0,2.7,1.21,2.7,2.7   S281.44,251.02,279.95,251.02z"/>
	<path class="st2" d="M378.16,230.4v-19.13l-13.44-13.44v-12.02c2.11-0.47,3.69-2.34,3.69-4.59c0-2.59-2.11-4.7-4.7-4.7   c-2.58,0-4.69,2.11-4.69,4.7c0,2.25,1.59,4.13,3.7,4.59v12.84l13.44,13.44v18.31c-2.11,0.46-3.7,2.34-3.7,4.59   c0,2.59,2.11,4.7,4.69,4.7c2.6,0,4.7-2.11,4.7-4.7C381.85,232.74,380.27,230.86,378.16,230.4z M361.02,181.22   c0-1.49,1.21-2.7,2.69-2.7c1.49,0,2.7,1.21,2.7,2.7c0,1.49-1.21,2.7-2.7,2.7C362.23,183.92,361.02,182.71,361.02,181.22z    M377.15,237.69c-1.48,0-2.69-1.21-2.69-2.7s1.21-2.7,2.69-2.7c1.49,0,2.7,1.21,2.7,2.7S378.64,237.69,377.15,237.69z"/>
	<path class="st2" d="M383.98,341.48c-2.25,0-4.13,1.59-4.59,3.7h-11.11v-28.32L358,306.59c0.32-0.64,0.52-1.35,0.52-2.1   c0-2.59-2.11-4.7-4.69-4.7c-2.59,0-4.7,2.11-4.7,4.7c0,2.59,2.11,4.7,4.7,4.7c1.1,0,2.1-0.4,2.91-1.04l9.54,9.54v29.49h13.11   c0.46,2.11,2.34,3.7,4.59,3.7c2.58,0,4.69-2.11,4.69-4.7C388.67,343.59,386.56,341.48,383.98,341.48z M353.83,307.19   c-1.49,0-2.7-1.21-2.7-2.7s1.21-2.7,2.7-2.7c1.48,0,2.69,1.21,2.69,2.7S355.31,307.19,353.83,307.19z M383.98,348.88   c-1.49,0-2.7-1.21-2.7-2.7s1.21-2.7,2.7-2.7c1.48,0,2.69,1.21,2.69,2.7S385.46,348.88,383.98,348.88z"/>
	<path class="st2" d="M380.9,315.33v-14.31c2.11-0.46,3.7-2.34,3.7-4.58c0-2.59-2.11-4.7-4.7-4.7c-2.59,0-4.7,2.11-4.7,4.7   c0,2.24,1.59,4.12,3.7,4.58v14.31c-2.11,0.46-3.7,2.34-3.7,4.59c0,2.58,2.11,4.69,4.7,4.69c2.59,0,4.7-2.11,4.7-4.69   C384.6,317.67,383.01,315.79,380.9,315.33z M377.2,296.44c0-1.49,1.21-2.7,2.7-2.7s2.7,1.21,2.7,2.7c0,1.48-1.21,2.69-2.7,2.69   S377.2,297.92,377.2,296.44z M379.9,322.61c-1.49,0-2.7-1.21-2.7-2.69c0-1.49,1.21-2.7,2.7-2.7s2.7,1.21,2.7,2.7   C382.6,321.4,381.39,322.61,379.9,322.61z"/>
	<path class="st2" d="M271.45,368.96c-2.25,0-4.13,1.59-4.59,3.7h-36.39v-43.9h16.38c0.46,2.11,2.34,3.69,4.59,3.69   c2.59,0,4.7-2.1,4.7-4.69c0-2.59-2.11-4.7-4.7-4.7c-2.24,0-4.12,1.59-4.58,3.7h-18.39V400h2v-25.34h21.36V400h2v-25.34h13.03   c0.46,2.11,2.34,3.69,4.59,3.69c2.59,0,4.7-2.1,4.7-4.69C276.15,371.07,274.04,368.96,271.45,368.96z M251.44,325.06   c1.49,0,2.7,1.21,2.7,2.7c0,1.48-1.21,2.69-2.7,2.69s-2.7-1.21-2.7-2.69C248.74,326.27,249.95,325.06,251.44,325.06z    M271.45,376.35c-1.49,0-2.7-1.2-2.7-2.69c0-1.49,1.21-2.7,2.7-2.7s2.7,1.21,2.7,2.7C274.15,375.15,272.94,376.35,271.45,376.35z"/>
	<path class="st2" d="M270.95,382.77c-2.6,0-4.71,2.11-4.71,4.7c0,2.24,1.59,4.12,3.71,4.58V400h2v-7.95   c2.11-0.46,3.69-2.34,3.69-4.58C275.64,384.88,273.54,382.77,270.95,382.77z M270.95,390.16c-1.49,0-2.71-1.21-2.71-2.69   c0-1.49,1.22-2.7,2.71-2.7c1.48,0,2.69,1.21,2.69,2.7C273.64,388.95,272.43,390.16,270.95,390.16z"/>
	<path class="st2" d="M217.58,363.77c-2.59,0-4.7,2.11-4.7,4.7c0,2.24,1.59,4.12,3.7,4.58V400h2v-26.95c2.11-0.46,3.7-2.34,3.7-4.58   C222.28,365.88,220.17,363.77,217.58,363.77z M217.58,371.16c-1.49,0-2.7-1.21-2.7-2.69c0-1.49,1.21-2.7,2.7-2.7s2.7,1.21,2.7,2.7   C220.28,369.95,219.07,371.16,217.58,371.16z"/>
	<path class="st2" d="M202.91,344.96c-2.59,0-4.7,2.1-4.7,4.7c0,0.92,0.28,1.78,0.74,2.51l-23.96,23.96h-58.22v-11.36h44.73   l11.43-11.42c0.72,0.44,1.55,0.7,2.45,0.7c2.59,0,4.69-2.1,4.69-4.7c0-2.59-2.1-4.7-4.69-4.7s-4.7,2.11-4.7,4.7   c0,0.97,0.3,1.87,0.8,2.62l-10.8,10.8h-43.91v-23.03c2.11-0.46,3.69-2.34,3.69-4.59c0-2.59-2.1-4.7-4.69-4.7   c-2.59,0-4.7,2.11-4.7,4.7c0,2.25,1.59,4.13,3.7,4.59v36.39h-23.9v-16.38c2.1-0.46,3.69-2.34,3.69-4.59c0-2.59-2.1-4.7-4.69-4.7   c-2.59,0-4.7,2.11-4.7,4.7c0,2.24,1.59,4.12,3.7,4.58v18.39h86.95l24.54-24.54c0.73,0.48,1.61,0.77,2.55,0.77   c2.59,0,4.69-2.11,4.69-4.7C207.6,347.06,205.5,344.96,202.91,344.96z M175.38,346.65c1.48,0,2.69,1.22,2.69,2.7   c0,1.49-1.21,2.7-2.69,2.7c-1.49,0-2.7-1.21-2.7-2.7C172.68,347.87,173.89,346.65,175.38,346.65z M87.17,355.16   c0-1.49,1.21-2.7,2.7-2.7c1.48,0,2.69,1.21,2.69,2.7c0,1.49-1.21,2.7-2.69,2.7C88.38,357.86,87.17,356.65,87.17,355.16z    M113.07,335.15c0-1.49,1.21-2.7,2.7-2.7s2.69,1.21,2.69,2.7c0,1.49-1.2,2.7-2.69,2.7S113.07,336.64,113.07,335.15z M202.91,352.36   c-1.49,0-2.7-1.22-2.7-2.7c0-1.49,1.21-2.7,2.7-2.7c1.49,0,2.69,1.21,2.69,2.7C205.6,351.14,204.4,352.36,202.91,352.36z"/>
	<path class="st2" d="M152.06,340.95c-2.25,0-4.13,1.59-4.59,3.7h-13.32c-0.45-2.11-2.33-3.7-4.57-3.7c-2.59,0-4.7,2.11-4.7,4.7   c0,2.6,2.11,4.7,4.7,4.7c2.24,0,4.12-1.58,4.57-3.7h13.32c0.46,2.12,2.34,3.7,4.59,3.7c2.58,0,4.69-2.1,4.69-4.7   C156.75,343.06,154.64,340.95,152.06,340.95z M129.58,348.35c-1.49,0-2.7-1.21-2.7-2.7c0-1.48,1.21-2.7,2.7-2.7   c1.48,0,2.69,1.22,2.69,2.7C132.27,347.14,131.06,348.35,129.58,348.35z M152.06,348.35c-1.49,0-2.7-1.21-2.7-2.7   c0-1.48,1.21-2.7,2.7-2.7c1.48,0,2.69,1.22,2.69,2.7C154.75,347.14,153.54,348.35,152.06,348.35z"/>
	<path class="st2" d="M198.92,367.42c-2.59,0-4.7,2.1-4.7,4.7c0,0.92,0.27,1.77,0.73,2.5l-13.39,13.4H75.16   c-0.46-2.11-2.34-3.7-4.58-3.7c-2.59,0-4.7,2.11-4.7,4.7c0,2.59,2.11,4.7,4.7,4.7c2.24,0,4.12-1.59,4.58-3.7h107.23l13.97-13.97   c0.73,0.48,1.61,0.77,2.56,0.77c2.58,0,4.69-2.11,4.69-4.7C203.61,369.52,201.5,367.42,198.92,367.42z M70.58,391.72   c-1.49,0-2.7-1.21-2.7-2.7s1.21-2.7,2.7-2.7c1.48,0,2.69,1.21,2.69,2.7S72.06,391.72,70.58,391.72z M198.92,374.82   c-1.49,0-2.7-1.22-2.7-2.7c0-1.49,1.21-2.7,2.7-2.7c1.48,0,2.69,1.21,2.69,2.7C201.61,373.6,200.4,374.82,198.92,374.82z"/>
	<path class="st2" d="M267.24,18.57c-0.96,0-1.86,0.3-2.61,0.8l-10.8-10.8V0h-2v9.4l11.42,11.42c-0.44,0.72-0.7,1.55-0.7,2.45   c0,2.59,2.1,4.69,4.69,4.69c2.6,0,4.71-2.1,4.71-4.69C271.95,20.68,269.84,18.57,267.24,18.57z M267.24,25.96   c-1.48,0-2.69-1.2-2.69-2.69s1.21-2.7,2.69-2.7c1.49,0,2.71,1.21,2.71,2.7S268.73,25.96,267.24,25.96z M245.56,24.72   c-0.93,0-1.79,0.28-2.51,0.74l-12.58-12.57V0h-2v13.71l13.15,13.15c-0.48,0.74-0.76,1.61-0.76,2.56c0,2.58,2.11,4.69,4.7,4.69   c2.59,0,4.7-2.11,4.7-4.69C250.26,26.83,248.15,24.72,245.56,24.72z M245.56,32.11c-1.49,0-2.7-1.21-2.7-2.69   c0-1.49,1.21-2.7,2.7-2.7s2.7,1.21,2.7,2.7C248.26,30.9,247.05,32.11,245.56,32.11z"/>
	<path class="st2" d="M271.95,5.36V0h-2v5.36c-2.12,0.46-3.71,2.34-3.71,4.59c0,2.59,2.11,4.69,4.71,4.69c2.59,0,4.69-2.1,4.69-4.69   C275.64,7.7,274.06,5.82,271.95,5.36z M270.95,12.64c-1.49,0-2.71-1.21-2.71-2.69c0-1.49,1.22-2.7,2.71-2.7   c1.48,0,2.69,1.21,2.69,2.7C273.64,11.43,272.43,12.64,270.95,12.64z"/>
	<path class="st2" d="M234.48,32.11c-0.92,0-1.77,0.27-2.5,0.74l-13.4-13.4V0h-2v20.28l13.97,13.97c-0.48,0.74-0.77,1.61-0.77,2.56   c0,2.58,2.11,4.69,4.7,4.69c2.6,0,4.7-2.11,4.7-4.69C239.18,34.22,237.08,32.11,234.48,32.11z M234.48,39.5   c-1.49,0-2.7-1.21-2.7-2.69c0-1.49,1.21-2.7,2.7-2.7c1.49,0,2.7,1.21,2.7,2.7C237.18,38.29,235.97,39.5,234.48,39.5z"/>
	<path class="st2" d="M191.88,51.12c-0.89-0.89-2.07-1.38-3.32-1.38c-0.92,0-1.79,0.26-2.53,0.75l-10.31-10.31h-12.15l-24.21,24.21   v-22.3l17.77-17.77c0.75,0.48,1.62,0.75,2.54,0.75c1.26,0,2.43-0.49,3.32-1.38c0.89-0.89,1.38-2.07,1.37-3.32   c0-1.26-0.49-2.43-1.37-3.32c-1.84-1.83-4.82-1.84-6.64-0.01c-0.89,0.89-1.38,2.07-1.38,3.33c0,0.91,0.27,1.78,0.75,2.53   l-18.36,18.36v25.07h0.06l-85.75,85.75c-1.82-1.17-4.27-0.96-5.86,0.63c-1.83,1.83-1.83,4.8,0.01,6.64   c0.91,0.91,2.12,1.37,3.32,1.37s2.4-0.45,3.32-1.37c1.58-1.59,1.79-4.04,0.62-5.86l20.62-20.62v21.83l-17.77,17.78   c-1.82-1.17-4.27-0.97-5.86,0.62c-1.83,1.83-1.83,4.81,0.01,6.64c0.91,0.92,2.12,1.38,3.32,1.38s2.4-0.46,3.32-1.37   c1.58-1.59,1.79-4.04,0.62-5.86l18.36-18.36v-24.66l88.7-88.69h10.49l9.72,9.72c-0.48,0.75-0.75,1.62-0.75,2.54   c0,1.25,0.49,2.43,1.38,3.31c0.92,0.92,2.12,1.38,3.33,1.38c1.2,0,2.4-0.45,3.31-1.37C193.71,55.93,193.71,52.95,191.88,51.12z    M157.76,18.46c0.52-0.53,1.21-0.79,1.9-0.79s1.38,0.27,1.91,0.79c0.51,0.51,0.79,1.19,0.79,1.91c0.01,0.72-0.27,1.4-0.78,1.91   c-0.51,0.51-1.19,0.79-1.91,0.79c-0.72,0-1.4-0.29-1.91-0.8c-0.51-0.5-0.79-1.18-0.79-1.9C156.97,19.65,157.25,18.97,157.76,18.46z    M51.04,157.94c-1.05,1.05-2.76,1.05-3.81-0.01c-1.05-1.05-1.06-2.76-0.01-3.81c1.06-1.05,2.77-1.05,3.82,0   C52.09,155.17,52.09,156.89,51.04,157.94z M55.3,178.34c-1.05,1.05-2.76,1.04-3.81-0.01s-1.06-2.76-0.01-3.81   c1.06-1.05,2.77-1.05,3.82,0C56.35,175.57,56.35,177.29,55.3,178.34z M190.47,56.35c-1.05,1.05-2.76,1.04-3.82-0.01   c-0.51-0.51-0.79-1.19-0.79-1.91c0-0.72,0.28-1.39,0.79-1.9c0.51-0.51,1.19-0.79,1.91-0.79c0.72,0,1.4,0.28,1.91,0.79   C191.52,53.58,191.52,55.3,190.47,56.35z"/>
	<path class="st2" d="M128.35,18.02c-2.59,0-4.69,2.11-4.69,4.7c0,2.25,1.58,4.13,3.69,4.59v18.3l-22.94,22.95V81.4   c-2.11,0.46-3.69,2.34-3.69,4.59c0,2.59,2.1,4.7,4.69,4.7c2.59,0,4.69-2.11,4.69-4.7c0-2.25-1.58-4.12-3.69-4.59V69.39l22.94-22.95   V27.31c2.11-0.47,3.7-2.34,3.7-4.59C133.05,20.13,130.94,18.02,128.35,18.02z M108.1,85.99c0,1.49-1.21,2.7-2.69,2.7   c-1.49,0-2.69-1.21-2.69-2.7s1.2-2.7,2.69-2.7C106.89,83.29,108.1,84.5,108.1,85.99z M128.35,25.42c-1.49,0-2.69-1.21-2.69-2.7   c0-1.49,1.2-2.7,2.69-2.7c1.49,0,2.7,1.21,2.7,2.7C131.05,24.21,129.84,25.42,128.35,25.42z"/>
	<path class="st2" d="M50.27,105.34c-2.59,0-4.7,2.11-4.7,4.7c0,2.24,1.59,4.12,3.7,4.58v12.02l-22.94,22.94v19.14   c-2.11,0.46-3.7,2.34-3.7,4.59c0,2.59,2.11,4.7,4.7,4.7c2.59,0,4.69-2.11,4.69-4.7c0-2.25-1.58-4.13-3.69-4.59v-18.31l22.94-22.94   v-12.84c2.11-0.46,3.69-2.34,3.69-4.59C54.96,107.45,52.86,105.34,50.27,105.34z M30.02,173.31c0,1.48-1.2,2.7-2.69,2.7   s-2.7-1.22-2.7-2.7c0-1.49,1.21-2.7,2.7-2.7S30.02,171.82,30.02,173.31z M50.27,112.74c-1.48,0-2.7-1.21-2.7-2.7   c0-1.49,1.22-2.7,2.7-2.7c1.49,0,2.69,1.21,2.69,2.7C52.96,111.53,51.76,112.74,50.27,112.74z"/>
	<path class="st2" d="M137.86,318.62c-1.1,0-2.1,0.4-2.91,1.04l-9.54-9.55v-39.49H112.3c-0.46-2.11-2.34-3.7-4.59-3.7   c-2.58,0-4.69,2.11-4.69,4.7c0,2.59,2.11,4.7,4.69,4.7c2.25,0,4.13-1.59,4.59-3.7h11.11v38.32l10.28,10.28   c-0.32,0.63-0.52,1.34-0.52,2.1c0,2.59,2.11,4.7,4.69,4.7c2.59,0,4.7-2.11,4.7-4.7C142.56,320.72,140.45,318.62,137.86,318.62z    M107.71,274.32c-1.48,0-2.69-1.21-2.69-2.7s1.21-2.7,2.69-2.7c1.49,0,2.7,1.21,2.7,2.7S109.2,274.32,107.71,274.32z    M137.86,326.02c-1.48,0-2.69-1.22-2.69-2.7c0-1.49,1.21-2.7,2.69-2.7c1.49,0,2.7,1.21,2.7,2.7   C140.56,324.8,139.35,326.02,137.86,326.02z"/>
	<path class="st2" d="M148.52,312.38c-1.04,0-1.99,0.35-2.77,0.93l-10.36-10.36v-45.11l-8.69-8.69c0.33-0.64,0.54-1.36,0.54-2.13   c0-2.59-2.11-4.7-4.7-4.7c-2.59,0-4.69,2.11-4.69,4.7c0,2.59,2.1,4.7,4.69,4.7c1.09,0,2.09-0.39,2.89-1.02l7.96,7.96v45.12   l11.04,11.04c-0.37,0.68-0.6,1.44-0.6,2.26c0,2.59,2.1,4.7,4.69,4.7c2.59,0,4.7-2.11,4.7-4.7   C153.22,314.49,151.11,312.38,148.52,312.38z M122.54,249.72c-1.49,0-2.69-1.21-2.69-2.7s1.2-2.7,2.69-2.7c1.49,0,2.7,1.21,2.7,2.7   S124.03,249.72,122.54,249.72z M148.52,319.78c-1.48,0-2.69-1.21-2.69-2.7s1.21-2.7,2.69-2.7c1.49,0,2.7,1.21,2.7,2.7   S150.01,319.78,148.52,319.78z"/>
	<path class="st2" d="M113.72,301.9v-14.32c2.11-0.46,3.7-2.34,3.7-4.59c0-2.58-2.11-4.69-4.7-4.69c-2.59,0-4.7,2.11-4.7,4.69   c0,2.25,1.59,4.13,3.7,4.59v14.32c-2.11,0.46-3.7,2.33-3.7,4.58c0,2.59,2.11,4.7,4.7,4.7c2.59,0,4.7-2.11,4.7-4.7   C117.42,304.23,115.83,302.36,113.72,301.9z M110.02,282.99c0-1.48,1.21-2.69,2.7-2.69c1.49,0,2.7,1.21,2.7,2.69   c0,1.49-1.21,2.7-2.7,2.7C111.23,285.69,110.02,284.48,110.02,282.99z M112.72,309.18c-1.49,0-2.7-1.22-2.7-2.7   c0-1.49,1.21-2.69,2.7-2.69c1.49,0,2.7,1.2,2.7,2.69C115.42,307.96,114.21,309.18,112.72,309.18z"/>
	<path class="st2" d="M214.67,312.72c-2.59,0-4.69,2.1-4.69,4.7c0,1.1,0.4,2.11,1.04,2.91l-11.92,11.92h-65.8l-16.87-16.87H97.38   c-0.46-2.11-2.34-3.7-4.58-3.7c-2.59,0-4.69,2.11-4.69,4.7c0,2.59,2.1,4.7,4.69,4.7c2.24,0,4.12-1.59,4.58-3.7h16.23l-16.58,16.58   h-26.1c-0.46-2.12-2.34-3.7-4.58-3.7c-2.59,0-4.69,2.11-4.69,4.7c0,2.59,2.1,4.7,4.69,4.7c2.24,0,4.12-1.59,4.58-3.7h26.93   l18.16-18.16l16.45,16.45h67.46l12.65-12.65c0.63,0.32,1.34,0.52,2.09,0.52c2.59,0,4.7-2.11,4.7-4.7   C219.37,314.82,217.26,312.72,214.67,312.72z M92.8,319.08c-1.49,0-2.69-1.21-2.69-2.7s1.2-2.7,2.69-2.7c1.48,0,2.7,1.21,2.7,2.7   S94.28,319.08,92.8,319.08z M66.35,337.66c-1.49,0-2.69-1.21-2.69-2.7c0-1.49,1.2-2.7,2.69-2.7c1.48,0,2.7,1.21,2.7,2.7   C69.05,336.45,67.83,337.66,66.35,337.66z M214.67,320.12c-1.48,0-2.69-1.22-2.69-2.7c0-1.49,1.21-2.7,2.69-2.7   c1.49,0,2.7,1.21,2.7,2.7C217.37,318.9,216.16,320.12,214.67,320.12z"/>
	<path class="st2" d="M84.77,216.2c-0.76,0-1.46,0.2-2.1,0.51L72.4,206.44H34.08v-11.11c2.11-0.46,3.7-2.34,3.7-4.59   c0-2.59-2.11-4.69-4.7-4.69c-2.59,0-4.7,2.1-4.7,4.69c0,2.25,1.59,4.13,3.7,4.59v13.11h39.49l9.54,9.54   c-0.64,0.8-1.04,1.81-1.04,2.91c0,2.59,2.11,4.7,4.7,4.7c2.59,0,4.7-2.11,4.7-4.7C89.47,218.3,87.36,216.2,84.77,216.2z    M30.38,190.74c0-1.48,1.21-2.69,2.7-2.69s2.7,1.21,2.7,2.69c0,1.49-1.21,2.7-2.7,2.7S30.38,192.23,30.38,190.74z M84.77,223.59   c-1.49,0-2.7-1.21-2.7-2.7c0-1.48,1.21-2.69,2.7-2.69s2.7,1.21,2.7,2.69C87.47,222.38,86.26,223.59,84.77,223.59z"/>
	<path class="st2" d="M78.54,226.86c-0.83,0-1.59,0.23-2.26,0.6l-11.05-11.04H20.12l-7.97-7.97c0.63-0.8,1.03-1.79,1.03-2.89   c0-2.58-2.11-4.69-4.71-4.69c-2.59,0-4.7,2.11-4.7,4.69c0,2.6,2.11,4.71,4.7,4.71c0.77,0,1.49-0.21,2.13-0.54l8.69,8.69h45.12   l10.35,10.36c-0.57,0.77-0.92,1.73-0.92,2.77c0,2.59,2.1,4.7,4.7,4.7c2.59,0,4.7-2.11,4.7-4.7   C83.24,228.96,81.13,226.86,78.54,226.86z M8.47,208.27c-1.48,0-2.7-1.22-2.7-2.71c0-1.48,1.22-2.69,2.7-2.69   c1.49,0,2.71,1.21,2.71,2.69C11.18,207.05,9.96,208.27,8.47,208.27z M78.54,234.25c-1.49,0-2.7-1.21-2.7-2.7s1.21-2.69,2.7-2.69   c1.48,0,2.7,1.2,2.7,2.69S80.02,234.25,78.54,234.25z"/>
	<path class="st2" d="M67.93,191.05c-2.24,0-4.12,1.58-4.58,3.69H49.04c-0.46-2.11-2.34-3.69-4.59-3.69c-2.59,0-4.69,2.1-4.69,4.69   c0,2.6,2.1,4.71,4.69,4.71c2.25,0,4.13-1.59,4.59-3.71h14.31c0.46,2.12,2.34,3.71,4.58,3.71c2.59,0,4.7-2.11,4.7-4.71   C72.63,193.15,70.52,191.05,67.93,191.05z M44.45,198.45c-1.48,0-2.69-1.22-2.69-2.71c0-1.48,1.21-2.69,2.69-2.69   c1.49,0,2.7,1.21,2.7,2.69C47.15,197.23,45.94,198.45,44.45,198.45z M67.93,198.45c-1.48,0-2.69-1.22-2.69-2.71   c0-1.48,1.21-2.69,2.69-2.69c1.49,0,2.7,1.21,2.7,2.69C70.63,197.23,69.42,198.45,67.93,198.45z"/>
	<path class="st2" d="M96.41,144.68c-2.59,0-4.7,2.11-4.7,4.69c0,2.25,1.59,4.13,3.7,4.59v26.1l-16.57,16.57v-16.22   c2.11-0.46,3.7-2.34,3.7-4.59c0-2.58-2.11-4.69-4.7-4.69c-2.6,0-4.7,2.11-4.7,4.69c0,2.25,1.58,4.13,3.7,4.59v19.05l16.86,16.87   v65.8l-11.91,11.92c-0.81-0.64-1.81-1.04-2.92-1.04c-2.59,0-4.7,2.1-4.7,4.69c0,2.59,2.11,4.7,4.7,4.7c2.59,0,4.7-2.11,4.7-4.7   c0-0.76-0.2-1.46-0.51-2.09l12.64-12.65V215.5l-16.45-16.45l18.16-18.16v-26.93c2.11-0.46,3.7-2.34,3.7-4.59   C101.11,146.79,99,144.68,96.41,144.68z M75.14,175.82c0-1.48,1.21-2.69,2.7-2.69c1.48,0,2.7,1.21,2.7,2.69   c0,1.49-1.22,2.7-2.7,2.7C76.35,178.52,75.14,177.31,75.14,175.82z M78.87,300.4c-1.49,0-2.7-1.21-2.7-2.7s1.21-2.69,2.7-2.69   s2.7,1.2,2.7,2.69S80.36,300.4,78.87,300.4z M96.41,152.07c-1.49,0-2.7-1.21-2.7-2.7c0-1.48,1.21-2.69,2.7-2.69   c1.49,0,2.7,1.21,2.7,2.69C99.11,150.86,97.9,152.07,96.41,152.07z"/>
	<path class="st2" d="M28.27,226.08c-2.58,0-4.69,2.11-4.69,4.7c0,1.11,0.4,2.11,1.05,2.92l-11.92,11.91H0v2h13.54l12.65-12.64   c0.63,0.31,1.33,0.51,2.08,0.51c2.6,0,4.7-2.11,4.7-4.7C32.97,228.19,30.87,226.08,28.27,226.08z M28.27,233.48   c-1.48,0-2.69-1.21-2.69-2.7c0-1.49,1.21-2.7,2.69-2.7c1.49,0,2.7,1.21,2.7,2.7C30.97,232.27,29.76,233.48,28.27,233.48z"/>
	<path class="st2" d="M58.64,268.22c0.46,2.11,2.34,3.7,4.59,3.7c2.58,0,4.69-2.11,4.69-4.7c0-2.59-2.11-4.7-4.69-4.7   c-2.25,0-4.13,1.59-4.59,3.7H32.68l-17.73,17.73l0.04,0.04H0v2h51.15l7.41,7.42v13.74c-2.1,0.46-3.69,2.34-3.69,4.59   c0,2.59,2.1,4.7,4.69,4.7c2.59,0,4.7-2.11,4.7-4.7c0-2.24-1.59-4.12-3.7-4.58v-14.58l-8.59-8.59H17.74l15.76-15.77H58.64z    M63.23,264.52c1.48,0,2.69,1.21,2.69,2.7c0,1.49-1.21,2.7-2.69,2.7c-1.49,0-2.7-1.21-2.7-2.7   C60.53,265.73,61.74,264.52,63.23,264.52z M62.26,311.74c0,1.49-1.21,2.7-2.7,2.7c-1.48,0-2.69-1.21-2.69-2.7s1.21-2.7,2.69-2.7   C61.05,309.04,62.26,310.25,62.26,311.74z"/>
	<path class="st2" d="M42.74,243.42c-1.83-1.83-4.81-1.83-6.64,0c-1.59,1.59-1.8,4.05-0.64,5.86l-12.94,12.94H0v2h23.35l13.53-13.53   c0.77,0.5,1.65,0.75,2.53,0.75c1.21,0,2.41-0.46,3.33-1.38C44.57,248.23,44.57,245.25,42.74,243.42z M41.32,248.65   c-1.05,1.05-2.76,1.05-3.82,0c-1.05-1.05-1.04-2.76,0.01-3.81c0.53-0.53,1.22-0.79,1.91-0.79s1.38,0.26,1.9,0.78   C42.37,245.88,42.37,247.6,41.32,248.65z"/>
	<path class="st2" d="M23.16,26.88c-2.24,0-4.12,1.58-4.58,3.7H5.26c-0.46-2.12-2.33-3.7-4.58-3.7c-0.23,0-0.46,0.02-0.68,0.05v2.04   c0.22-0.06,0.45-0.09,0.68-0.09c1.49,0,2.69,1.21,2.69,2.7c0,1.48-1.2,2.7-2.69,2.7c-0.23,0-0.46-0.03-0.68-0.09v2.04   c0.22,0.03,0.45,0.05,0.68,0.05c2.25,0,4.12-1.59,4.58-3.7h13.32c0.46,2.11,2.34,3.7,4.58,3.7c2.59,0,4.69-2.11,4.69-4.7   C27.85,28.98,25.75,26.88,23.16,26.88z M23.16,34.28c-1.48,0-2.7-1.22-2.7-2.7c0-1.49,1.22-2.7,2.7-2.7c1.49,0,2.69,1.21,2.69,2.7   C25.85,33.06,24.65,34.28,23.16,34.28z"/>
	<path class="st2" d="M39.74,93.7c-2.25,0-4.13,1.59-4.59,3.7H8.23L0,105.63v2.82l9.05-9.05h26.1c0.46,2.11,2.34,3.7,4.59,3.7   c2.58,0,4.69-2.11,4.69-4.7C44.43,95.81,42.32,93.7,39.74,93.7z M39.74,101.1c-1.49,0-2.7-1.21-2.7-2.7c0-1.49,1.21-2.7,2.7-2.7   c1.48,0,2.69,1.21,2.69,2.7C42.43,99.89,41.22,101.1,39.74,101.1z M13.29,112.27c-2.25,0-4.13,1.59-4.59,3.7H0v2h8.7   c0.46,2.11,2.34,3.7,4.59,3.7c2.58,0,4.69-2.11,4.69-4.7C17.98,114.38,15.87,112.27,13.29,112.27z M13.29,119.67   c-1.49,0-2.7-1.21-2.7-2.7c0-1.49,1.21-2.7,2.7-2.7c1.48,0,2.69,1.21,2.69,2.7C15.98,118.46,14.77,119.67,13.29,119.67z"/>
	<path class="st2" d="M0,157.33v2.26c0.64,0.49,1.06,1.27,1.06,2.14s-0.42,1.65-1.06,2.14v2.26c1.79-0.66,3.06-2.38,3.06-4.4   C3.06,159.71,1.79,157.99,0,157.33z"/>
	<path class="st2" d="M41.49,23.18c-0.9,0-1.74,0.26-2.45,0.7L27.61,12.46H0v2h26.78l10.8,10.8c-0.5,0.75-0.79,1.65-0.79,2.62   c0,2.59,2.1,4.7,4.7,4.7c2.58,0,4.69-2.11,4.69-4.7C46.18,25.28,44.07,23.18,41.49,23.18z M41.49,30.58c-1.49,0-2.7-1.22-2.7-2.7   c0-1.49,1.21-2.7,2.7-2.7c1.48,0,2.69,1.21,2.69,2.7C44.18,29.36,42.97,30.58,41.49,30.58z M42.63,1.49   c-0.94,0-1.82,0.28-2.55,0.76L37.83,0h-2.84l3.68,3.68c-0.46,0.73-0.74,1.58-0.74,2.51c0,2.59,2.11,4.7,4.7,4.7s4.69-2.11,4.69-4.7   S45.22,1.49,42.63,1.49z M42.63,8.89c-1.49,0-2.7-1.21-2.7-2.7s1.21-2.7,2.7-2.7s2.69,1.21,2.69,2.7S44.12,8.89,42.63,8.89z"/>
	<path class="st2" d="M30.55,57.03c-2.24,0-4.12,1.59-4.58,3.7H0v2h25.97c0.46,2.11,2.34,3.7,4.58,3.7c2.59,0,4.69-2.11,4.69-4.7   C35.24,59.14,33.14,57.03,30.55,57.03z M30.55,64.43c-1.48,0-2.7-1.21-2.7-2.7s1.22-2.7,2.7-2.7c1.49,0,2.69,1.21,2.69,2.7   S32.04,64.43,30.55,64.43z M41.97,39.59c-2.25,0-4.13,1.59-4.59,3.7H11.41L0,54.71v2.83l12.24-12.25h25.14   c0.46,2.11,2.34,3.7,4.59,3.7c2.58,0,4.69-2.11,4.69-4.7C46.66,41.7,44.55,39.59,41.97,39.59z M41.97,46.99   c-1.49,0-2.7-1.21-2.7-2.7c0-1.49,1.21-2.7,2.7-2.7c1.48,0,2.69,1.21,2.69,2.7C44.66,45.78,43.45,46.99,41.97,46.99z"/>
	<path class="st2" d="M324.97,389.11V400h2v-8.89h58.9V400h2v-8.89H400v-2H324.97z"/>
	<path class="st2" d="M386.26,377.21c-0.46-2.11-2.33-3.7-4.58-3.7c-2.59,0-4.7,2.11-4.7,4.7c0,2.59,2.11,4.7,4.7,4.7   c2.25,0,4.12-1.59,4.58-3.7H400v-2H386.26z M381.68,380.91c-1.49,0-2.7-1.21-2.7-2.7c0-1.49,1.21-2.7,2.7-2.7s2.69,1.21,2.69,2.7   C384.37,379.7,383.17,380.91,381.68,380.91z"/>
	<path class="st2" d="M362.34,394.56c-2.59,0-4.7,2.11-4.7,4.7c0,0.25,0.02,0.5,0.06,0.74h2.04c-0.06-0.23-0.1-0.48-0.1-0.74   c0-1.49,1.21-2.7,2.7-2.7c1.48,0,2.69,1.21,2.69,2.7c0,0.26-0.04,0.51-0.1,0.74h2.04c0.04-0.24,0.06-0.49,0.06-0.74   C367.03,396.67,364.92,394.56,362.34,394.56z"/>
	<path class="st2" d="M26.93,389.11H0v2h26.1l8.89,8.89h2.84L26.93,389.11z"/>
	<path class="st2" d="M50.02,390.41c-0.94,0-1.82,0.29-2.56,0.77l-13.97-13.97H0v2h32.66l13.4,13.4c-0.46,0.73-0.74,1.58-0.74,2.5   c0,2.6,2.11,4.7,4.7,4.7c2.59,0,4.69-2.1,4.69-4.7C54.71,392.52,52.61,390.41,50.02,390.41z M50.02,397.81   c-1.49,0-2.7-1.21-2.7-2.7c0-1.48,1.21-2.7,2.7-2.7s2.69,1.22,2.69,2.7C52.71,396.6,51.51,397.81,50.02,397.81z"/>
	<path class="st2" d="M219.88,296.97c-2.24,0-4.12,1.59-4.58,3.7h-12.85l-13.44,13.44h-18.3c-0.46-2.11-2.34-3.7-4.59-3.7   c-2.59,0-4.7,2.11-4.7,4.69c0,2.59,2.11,4.7,4.7,4.7c2.24,0,4.12-1.58,4.58-3.69h19.14l13.44-13.44h12.02   c0.46,2.11,2.34,3.69,4.58,3.69c2.6,0,4.7-2.11,4.7-4.7C224.58,299.08,222.48,296.97,219.88,296.97z M166.12,317.8   c-1.49,0-2.7-1.21-2.7-2.7c0-1.48,1.21-2.69,2.7-2.69s2.7,1.21,2.7,2.69C168.82,316.59,167.61,317.8,166.12,317.8z M219.88,304.36   c-1.48,0-2.7-1.21-2.7-2.7c0-1.48,1.22-2.69,2.7-2.69c1.49,0,2.7,1.21,2.7,2.69C222.58,303.15,221.37,304.36,219.88,304.36z"/>
	<path class="st2" d="M158.6,74.79c-2.59,0-4.69,2.11-4.69,4.7c0,1.01,0.32,1.94,0.86,2.71l-47.1,47.1c-0.77-0.54-1.7-0.87-2.7-0.87   c-2.59,0-4.69,2.11-4.69,4.7c0,2.59,2.1,4.7,4.69,4.7c2.59,0,4.69-2.11,4.69-4.7c0-0.86-0.24-1.65-0.65-2.34l47.25-47.25   c0.69,0.41,1.48,0.66,2.34,0.66c2.59,0,4.7-2.11,4.7-4.71C163.3,76.9,161.19,74.79,158.6,74.79z M104.97,135.83   c-1.49,0-2.69-1.21-2.69-2.7s1.2-2.7,2.69-2.7c1.48,0,2.69,1.21,2.69,2.7S106.45,135.83,104.97,135.83z M158.6,82.2   c-1.48,0-2.69-1.22-2.69-2.71c0-1.48,1.21-2.7,2.69-2.7c1.49,0,2.7,1.22,2.7,2.7C161.3,80.98,160.09,82.2,158.6,82.2z"/>
	<path class="st2" d="M336.14,138.21c-2.24,0-4.12,1.59-4.57,3.7h-41.21l21.81-21.81h14.89c0.46,2.11,2.34,3.7,4.58,3.7   c2.59,0,4.7-2.11,4.7-4.7c0-2.59-2.11-4.7-4.7-4.7c-2.24,0-4.12,1.59-4.58,3.7h-15.72l-23.4,23.39l-59.62-59.62V61.31l-17.24-17.24   c0.3-0.62,0.48-1.31,0.48-2.04c0-2.59-2.11-4.7-4.7-4.7c-2.58,0-4.69,2.11-4.69,4.7c0,2.59,2.11,4.7,4.69,4.7   c1.13,0,2.16-0.42,2.97-1.08l16.49,16.49v19.15h-34.91c-0.46-2.11-2.34-3.7-4.59-3.7c-2.59,0-4.69,2.11-4.69,4.7   c0,2.59,2.1,4.7,4.69,4.7c2.25,0,4.13-1.59,4.59-3.7h35.5l60.62,60.62h44.04c0.46,2.11,2.33,3.7,4.57,3.7c2.59,0,4.7-2.11,4.7-4.7   C340.84,140.32,338.73,138.21,336.14,138.21z M331.64,116.4c1.49,0,2.7,1.21,2.7,2.7c0,1.49-1.21,2.7-2.7,2.7   c-1.48,0-2.69-1.21-2.69-2.7C328.95,117.61,330.16,116.4,331.64,116.4z M206.86,44.73c-1.48,0-2.69-1.21-2.69-2.7   c0-1.49,1.21-2.7,2.69-2.7c1.49,0,2.7,1.21,2.7,2.7C209.56,43.52,208.35,44.73,206.86,44.73z M186.82,84.99   c-1.48,0-2.69-1.21-2.69-2.7c0-1.49,1.21-2.7,2.69-2.7c1.49,0,2.7,1.21,2.7,2.7C189.52,83.78,188.31,84.99,186.82,84.99z    M336.14,145.61c-1.48,0-2.69-1.21-2.69-2.7c0-1.49,1.21-2.7,2.69-2.7c1.49,0,2.7,1.21,2.7,2.7   C338.84,144.4,337.63,145.61,336.14,145.61z"/>
	<path class="st2" d="M90.47,17.74c-2.58,0-4.69,2.1-4.69,4.69c0,0.76,0.2,1.47,0.52,2.1L76.03,34.81v38.32H64.91   c-0.46-2.11-2.34-3.7-4.58-3.7c-2.59,0-4.69,2.11-4.69,4.7c0,2.59,2.1,4.7,4.69,4.7c2.24,0,4.12-1.59,4.58-3.7h13.12V35.64   l9.54-9.55c0.8,0.65,1.8,1.05,2.9,1.05c2.6,0,4.7-2.11,4.7-4.71C95.17,19.84,93.07,17.74,90.47,17.74z M60.33,76.83   c-1.49,0-2.69-1.21-2.69-2.7s1.2-2.7,2.69-2.7c1.48,0,2.7,1.21,2.7,2.7S61.81,76.83,60.33,76.83z M90.47,25.14   c-1.48,0-2.69-1.22-2.69-2.71c0-1.48,1.21-2.69,2.69-2.69c1.49,0,2.7,1.21,2.7,2.69C93.17,23.92,91.96,25.14,90.47,25.14z"/>
	<path class="st2" d="M66.33,58.17V43.85c2.11-0.46,3.7-2.33,3.7-4.58c0-2.59-2.11-4.69-4.7-4.69c-2.59,0-4.7,2.1-4.7,4.69   c0,2.25,1.59,4.12,3.7,4.58v14.32c-2.11,0.46-3.7,2.34-3.7,4.59c0,2.58,2.11,4.69,4.7,4.69c2.59,0,4.7-2.11,4.7-4.69   C70.03,60.51,68.44,58.63,66.33,58.17z M62.63,39.27c0-1.48,1.21-2.69,2.7-2.69s2.7,1.21,2.7,2.69c0,1.49-1.21,2.69-2.7,2.69   S62.63,40.76,62.63,39.27z M65.33,65.45c-1.49,0-2.7-1.21-2.7-2.69c0-1.49,1.21-2.7,2.7-2.7s2.7,1.21,2.7,2.7   C68.03,64.24,66.82,65.45,65.33,65.45z"/>
	<path class="st2" d="M101.13,23.97c-2.58,0-4.69,2.11-4.69,4.7c0,0.82,0.23,1.59,0.61,2.26L86,41.97v45.12l-7.96,7.96   c-0.8-0.63-1.8-1.02-2.89-1.02c-2.59,0-4.69,2.11-4.69,4.7c0,2.59,2.1,4.7,4.69,4.7c2.59,0,4.7-2.11,4.7-4.7   c0-0.77-0.2-1.49-0.53-2.13L88,87.91V42.8l10.36-10.36c0.78,0.58,1.73,0.93,2.77,0.93c2.59,0,4.7-2.11,4.7-4.7   C105.83,26.08,103.72,23.97,101.13,23.97z M75.15,101.43c-1.48,0-2.69-1.21-2.69-2.7s1.21-2.7,2.69-2.7c1.49,0,2.7,1.21,2.7,2.7   S76.64,101.43,75.15,101.43z M101.13,31.37c-1.48,0-2.69-1.21-2.69-2.7s1.21-2.7,2.69-2.7c1.49,0,2.7,1.21,2.7,2.7   S102.62,31.37,101.13,31.37z"/>
	<path class="st2" d="M191.55,25.65V7.54H71.68L61.07,18.15c-0.58-0.26-1.22-0.41-1.9-0.41c-2.59,0-4.7,2.11-4.7,4.7   s2.11,4.69,4.7,4.69c2.59,0,4.7-2.1,4.7-4.69c0-1.18-0.45-2.26-1.18-3.08l9.82-9.82h117.04v16.11c-2.11,0.46-3.7,2.34-3.7,4.59   c0,2.59,2.11,4.69,4.7,4.69c2.59,0,4.7-2.1,4.7-4.69C195.25,27.99,193.66,26.11,191.55,25.65z M59.17,25.13   c-1.49,0-2.7-1.21-2.7-2.69c0-1.49,1.21-2.7,2.7-2.7c1.49,0,2.7,1.21,2.7,2.7C61.87,23.92,60.66,25.13,59.17,25.13z M190.55,32.93   c-1.49,0-2.7-1.21-2.7-2.69c0-1.49,1.21-2.7,2.7-2.7s2.7,1.21,2.7,2.7C193.25,31.72,192.04,32.93,190.55,32.93z"/>
	<path class="st2" d="M400,54.71l-6.02,6.02H268.54l-7.41-7.42V39.56c2.1-0.45,3.69-2.34,3.69-4.58c0-2.6-2.1-4.7-4.69-4.7   s-4.7,2.1-4.7,4.7c0,2.24,1.59,4.12,3.7,4.58v14.58l8.59,8.59h34.23l-15.76,15.76h-25.14c-0.46-2.11-2.34-3.7-4.59-3.7   c-2.58,0-4.69,2.11-4.69,4.7c0,2.6,2.11,4.71,4.69,4.71c2.25,0,4.13-1.59,4.59-3.71h25.96l17.73-17.72l-0.04-0.04H400v-2h-3.19   l3.19-3.19V54.71z M257.43,34.98c0-1.49,1.21-2.7,2.7-2.7c1.48,0,2.69,1.21,2.69,2.7c0,1.48-1.21,2.7-2.69,2.7   C258.64,37.68,257.43,36.46,257.43,34.98z M256.46,82.2c-1.48,0-2.69-1.22-2.69-2.71c0-1.48,1.21-2.7,2.69-2.7   c1.49,0,2.7,1.22,2.7,2.7C259.16,80.98,257.95,82.2,256.46,82.2z"/>
	<path class="st2" d="M400,28.97v-2.04c-2.27,0.33-4.02,2.28-4.02,4.65c0,2.36,1.75,4.32,4.02,4.65v-2.04   c-1.16-0.3-2.02-1.36-2.02-2.61S398.84,29.27,400,28.97z"/>
	<path class="st2" d="M376.77,48.44V35.6l-13.44-13.44V3.85c1.88-0.41,3.34-1.94,3.64-3.85h-2.04c-0.33,1.13-1.37,1.96-2.59,1.96   c-1.23,0-2.27-0.83-2.6-1.96h-2.04c0.3,1.91,1.75,3.44,3.63,3.85v19.13l13.44,13.45v12.01c-2.1,0.47-3.69,2.34-3.69,4.59   c0,2.59,2.11,4.7,4.7,4.7c2.59,0,4.69-2.11,4.69-4.7C380.47,50.78,378.88,48.9,376.77,48.44z M375.78,55.73   c-1.49,0-2.7-1.21-2.7-2.7c0-1.49,1.21-2.7,2.7-2.7c1.48,0,2.69,1.21,2.69,2.7C378.47,54.52,377.26,55.73,375.78,55.73z"/>
	<path class="st2" d="M400,105.63l-9.94,9.93L373.61,99.1h-67.46l-12.65,12.65c-0.63-0.32-1.33-0.51-2.09-0.51   c-2.59,0-4.7,2.11-4.7,4.7s2.11,4.7,4.7,4.7c2.59,0,4.69-2.11,4.69-4.7c0-1.11-0.4-2.11-1.04-2.92l11.92-11.92h65.8l16.87,16.87   H400v-2h-7.52l7.52-7.52V105.63z M291.41,118.64c-1.48,0-2.7-1.21-2.7-2.7s1.22-2.7,2.7-2.7c1.49,0,2.69,1.21,2.69,2.7   S292.9,118.64,291.41,118.64z"/>
	<path class="st2" d="M383.55,181.63c-1.1,0-2.09,0.39-2.89,1.02l-7.97-7.96v-45.12l-11.04-11.04c0.37-0.67,0.6-1.43,0.6-2.26   c0-2.59-2.1-4.7-4.69-4.7c-2.59,0-4.7,2.11-4.7,4.7c0,2.59,2.11,4.7,4.7,4.7c1.04,0,2-0.35,2.77-0.93l10.36,10.36v45.12l8.69,8.68   c-0.33,0.65-0.53,1.36-0.53,2.13c0,2.59,2.1,4.7,4.7,4.7c2.58,0,4.69-2.11,4.69-4.7C388.24,183.74,386.13,181.63,383.55,181.63z    M357.56,118.97c-1.48,0-2.7-1.21-2.7-2.7s1.22-2.7,2.7-2.7c1.49,0,2.69,1.21,2.69,2.7S359.05,118.97,357.56,118.97z    M383.55,189.03c-1.49,0-2.7-1.21-2.7-2.7s1.21-2.7,2.7-2.7c1.48,0,2.69,1.21,2.69,2.7S385.03,189.03,383.55,189.03z"/>
	<path class="st2" d="M398.37,159.03c0.61,0,1.18,0.21,1.63,0.56v-2.26c-0.51-0.2-1.06-0.3-1.63-0.3c-2.25,0-4.13,1.59-4.59,3.7   h-11.11v-38.32l-10.27-10.27c0.32-0.64,0.51-1.34,0.51-2.1c0-2.59-2.1-4.7-4.69-4.7c-2.59,0-4.7,2.11-4.7,4.7   c0,2.59,2.11,4.7,4.7,4.7c1.11,0,2.11-0.4,2.91-1.04l9.54,9.54v39.49h13.11c0.46,2.11,2.34,3.7,4.59,3.7c0.57,0,1.12-0.1,1.63-0.3   v-2.26c-0.45,0.35-1.02,0.56-1.63,0.56c-1.49,0-2.7-1.21-2.7-2.7S396.88,159.03,398.37,159.03z M368.22,112.74   c-1.49,0-2.7-1.21-2.7-2.7c0-1.49,1.21-2.7,2.7-2.7c1.49,0,2.69,1.21,2.69,2.7C370.91,111.53,369.71,112.74,368.22,112.74z"/>
	<path class="st2" d="M326.97,7.48V0h-2v7.49c-2.11,0.46-3.69,2.34-3.69,4.58c0,2.59,2.1,4.7,4.7,4.7c2.58,0,4.69-2.11,4.69-4.7   C330.67,9.82,329.08,7.94,326.97,7.48z M325.98,14.77c-1.49,0-2.7-1.21-2.7-2.7s1.21-2.7,2.7-2.7c1.48,0,2.69,1.21,2.69,2.7   S327.46,14.77,325.98,14.77z M400,14.46v-2h-12.13V0h-2v27.49c-2.11,0.47-3.69,2.34-3.69,4.59c0,2.59,2.11,4.7,4.7,4.7   c2.58,0,4.69-2.11,4.69-4.7c0-2.25-1.59-4.13-3.7-4.59V14.46H400z M389.57,32.08c0,1.49-1.21,2.7-2.69,2.7   c-1.49,0-2.7-1.21-2.7-2.7s1.21-2.7,2.7-2.7C388.36,29.38,389.57,30.59,389.57,32.08z"/>
	<path class="st2" d="M344.56,68.14c-1.83-1.83-4.81-1.83-6.65,0c-1.58,1.59-1.79,4.04-0.63,5.86l-8.49,8.49h-32.45l-13.53,13.53   c-1.82-1.16-4.27-0.95-5.86,0.63c-1.83,1.84-1.83,4.82,0,6.65c0.92,0.91,2.12,1.37,3.32,1.37s2.41-0.46,3.32-1.38   c0.89-0.88,1.38-2.06,1.38-3.31c0-0.92-0.26-1.79-0.75-2.54l12.95-12.95h32.44l9.09-9.08c0.76,0.49,1.64,0.75,2.53,0.75   c1.2,0,2.41-0.46,3.32-1.38C346.39,72.95,346.39,69.97,344.56,68.14z M282.18,101.88c-1.05,1.05-2.76,1.06-3.81,0.01   c-1.06-1.06-1.06-2.77,0-3.82c0.52-0.53,1.22-0.79,1.91-0.79s1.38,0.26,1.91,0.79c0.5,0.51,0.78,1.18,0.78,1.9   C282.97,100.69,282.69,101.37,282.18,101.88z M343.14,73.37c-1.05,1.05-2.76,1.05-3.81,0c-1.06-1.05-1.06-2.76,0-3.82   c0.52-0.52,1.22-0.78,1.91-0.78s1.38,0.26,1.91,0.78C344.19,70.6,344.19,72.31,343.14,73.37z"/>
	<path class="st2" d="M394.37,145.77v-14.31c2.11-0.46,3.7-2.34,3.7-4.58c0-2.59-2.11-4.7-4.7-4.7c-2.6,0-4.7,2.11-4.7,4.7   c0,2.24,1.58,4.12,3.7,4.58v14.31c-2.12,0.46-3.7,2.34-3.7,4.59c0,2.59,2.1,4.69,4.7,4.69c2.59,0,4.7-2.1,4.7-4.69   C398.07,148.11,396.48,146.23,394.37,145.77z M390.67,126.88c0-1.49,1.21-2.7,2.7-2.7c1.48,0,2.7,1.21,2.7,2.7   c0,1.48-1.22,2.69-2.7,2.69C391.88,129.57,390.67,128.36,390.67,126.88z M393.37,153.05c-1.49,0-2.7-1.21-2.7-2.69   c0-1.49,1.21-2.7,2.7-2.7c1.48,0,2.7,1.21,2.7,2.7C396.07,151.84,394.85,153.05,393.37,153.05z"/>
	<path class="st2" d="M361.34,31.77c-0.77,0-1.48,0.21-2.13,0.54l-8.68-8.69h-45.12l-10.36-10.36c0.58-0.78,0.93-1.73,0.93-2.77   c0-2.59-2.11-4.7-4.7-4.7c-2.59,0-4.7,2.11-4.7,4.7c0,2.59,2.11,4.69,4.7,4.69c0.83,0,1.59-0.23,2.26-0.6l11.04,11.04h45.12   l7.96,7.96c-0.63,0.8-1.02,1.8-1.02,2.89c0,2.59,2.11,4.69,4.7,4.69c2.59,0,4.7-2.1,4.7-4.69   C366.04,33.88,363.93,31.77,361.34,31.77z M291.28,13.18c-1.49,0-2.7-1.2-2.7-2.69s1.21-2.7,2.7-2.7c1.49,0,2.7,1.21,2.7,2.7   S292.77,13.18,291.28,13.18z M361.34,39.16c-1.49,0-2.7-1.2-2.7-2.69c0-1.49,1.21-2.7,2.7-2.7s2.7,1.21,2.7,2.7   C364.04,37.96,362.83,39.16,361.34,39.16z"/>
	<path class="st2" d="M325.37,41.59c-2.25,0-4.13,1.59-4.59,3.7h-14.32c-0.45-2.11-2.33-3.7-4.57-3.7c-2.59,0-4.7,2.11-4.7,4.7   c0,2.6,2.11,4.7,4.7,4.7c2.24,0,4.12-1.58,4.57-3.7h14.32c0.46,2.12,2.34,3.7,4.59,3.7c2.58,0,4.69-2.1,4.69-4.7   C330.06,43.7,327.95,41.59,325.37,41.59z M301.89,48.99c-1.49,0-2.7-1.21-2.7-2.7c0-1.49,1.21-2.7,2.7-2.7   c1.48,0,2.69,1.21,2.69,2.7C304.58,47.78,303.37,48.99,301.89,48.99z M325.37,48.99c-1.49,0-2.7-1.21-2.7-2.7   c0-1.49,1.21-2.7,2.7-2.7c1.48,0,2.69,1.21,2.69,2.7C328.06,47.78,326.85,48.99,325.37,48.99z"/>
	<path class="st2" d="M337.74,46.71V33.6h-39.49l-9.54-9.54c0.64-0.81,1.04-1.81,1.04-2.91c0-2.59-2.11-4.7-4.7-4.7   c-2.59,0-4.7,2.11-4.7,4.7c0,2.59,2.11,4.69,4.7,4.69c0.75,0,1.46-0.2,2.1-0.52l10.27,10.28h38.32v11.11   c-2.11,0.46-3.7,2.34-3.7,4.59c0,2.58,2.11,4.69,4.7,4.69c2.59,0,4.7-2.11,4.7-4.69C341.44,49.05,339.85,47.17,337.74,46.71z    M285.05,23.84c-1.49,0-2.7-1.21-2.7-2.69c0-1.49,1.21-2.7,2.7-2.7s2.7,1.21,2.7,2.7C287.75,22.63,286.54,23.84,285.05,23.84z    M336.74,53.99c-1.49,0-2.7-1.21-2.7-2.69c0-1.49,1.21-2.7,2.7-2.7s2.7,1.21,2.7,2.7C339.44,52.78,338.23,53.99,336.74,53.99z"/>
	<path class="st2" d="M63.04,367.26c-0.55-0.55-1.2-0.91-1.88-1.13v-12.29l-31.91-31.9V307.3c0.96-0.15,1.88-0.57,2.62-1.31   c1.83-1.83,1.83-4.81,0-6.64c-1.83-1.84-4.82-1.84-6.65,0c-1.83,1.82-1.82,4.8,0.01,6.64c0.58,0.58,1.28,0.95,2.02,1.17v15.61   l31.91,31.9v11.27c-1.02,0.12-2,0.54-2.77,1.32c-1.83,1.83-1.82,4.8,0.01,6.64c0.88,0.88,2.06,1.37,3.32,1.38   c1.26,0,2.43-0.49,3.32-1.38c0.89-0.89,1.38-2.07,1.37-3.32C64.41,369.32,63.92,368.14,63.04,367.26z M26.64,304.57   c-1.05-1.05-1.05-2.76,0-3.81c0.52-0.53,1.21-0.79,1.91-0.79c0.69,0,1.38,0.26,1.9,0.79c1.06,1.05,1.06,2.77,0,3.82   C29.41,305.63,27.7,305.62,26.64,304.57z M61.62,372.49c-0.5,0.51-1.18,0.79-1.9,0.79c-0.72-0.01-1.4-0.29-1.91-0.8   c-1.05-1.05-1.05-2.76-0.01-3.81c0.53-0.52,1.22-0.79,1.91-0.79c0.7,0,1.39,0.27,1.91,0.79c0.51,0.51,0.79,1.19,0.79,1.91   C62.42,371.3,62.13,371.98,61.62,372.49z"/>
	<path class="st2" d="M45.06,351.86l-27.93-27.93v-13.49c1.02-0.11,2.01-0.54,2.79-1.32c1.84-1.83,1.84-4.81,0-6.65   c-0.88-0.88-2.06-1.37-3.32-1.37c-1.25,0-2.43,0.48-3.32,1.37c-1.83,1.83-1.83,4.81,0,6.64c0.54,0.54,1.18,0.9,1.85,1.12v14.53   l27.1,27.1l-7.86,7.86c-1.82-1.17-4.27-0.97-5.86,0.62c-1.83,1.83-1.82,4.81,0.01,6.64c0.92,0.92,2.12,1.38,3.32,1.38   c1.21,0,2.4-0.46,3.32-1.37c1.59-1.59,1.79-4.04,0.63-5.86L45.06,351.86z M14.7,307.7c-1.05-1.05-1.06-2.76-0.01-3.81   c0.51-0.51,1.19-0.79,1.91-0.79c0.72,0,1.4,0.28,1.91,0.79c1.05,1.05,1.05,2.76,0,3.82C17.46,308.75,15.75,308.75,14.7,307.7z    M33.74,365.58c-1.04,1.04-2.75,1.04-3.81-0.01c-1.05-1.05-1.05-2.76,0-3.81c0.52-0.53,1.21-0.79,1.9-0.79   c0.7,0,1.39,0.26,1.91,0.79C34.8,362.81,34.8,364.52,33.74,365.58z"/>
	<path class="st2" d="M30.66,348.76c-1.59-1.59-4.04-1.79-5.86-0.62l-10.13-10.13c1.17-1.81,0.97-4.26-0.62-5.85   c-1.83-1.83-4.81-1.83-6.64,0c-1.84,1.83-1.84,4.81,0,6.65c0.91,0.91,2.11,1.37,3.31,1.37c0.88,0,1.77-0.26,2.54-0.75l10.12,10.12   c-1.17,1.82-0.96,4.27,0.63,5.86c0.91,0.91,2.11,1.37,3.31,1.37c1.21,0,2.41-0.46,3.33-1.38   C32.48,353.57,32.49,350.59,30.66,348.76z M12.63,337.39c-1.05,1.05-2.76,1.05-3.81,0s-1.05-2.76,0-3.82   c0.53-0.52,1.22-0.79,1.91-0.79s1.38,0.27,1.91,0.79C13.69,334.62,13.68,336.33,12.63,337.39z M29.24,353.99   c-1.06,1.05-2.77,1.06-3.82,0.01c-1.05-1.06-1.05-2.77,0-3.82c0.53-0.53,1.22-0.79,1.91-0.79s1.39,0.26,1.91,0.79   C30.29,351.23,30.29,352.94,29.24,353.99z"/>
</g>
</svg>