{
  "accessors": [
    {
      "bufferView": 2,
      "componentType": 5126,
      "count": 543,
      "max": [
        1.129967212677002,
        1.34417724609375,
        1.032895565032959
      ],
      "min": [
        -1.129967212677002,
        -1.1845788955688477,
        -1.032895565032959
      ],
      "type": "VEC3"
    },
    {
      "bufferView": 2,
      "byteOffset": 6516,
      "componentType": 5126,
      "count": 543,
      "max": [
        0.99725598096847534,
        0.99999916553497314,
        0.99715501070022583
      ],
      "min": [
        -0.99725598096847534,
        -0.99905174970626831,
        -0.9971243143081665
      ],
      "type": "VEC3"
    },
    {
      "bufferView": 1,
      "componentType": 5126,
      "count": 543,
      "max": [
        0.98786520957946777,
        0.99476951360702515
      ],
      "min": [
        0.32321682572364807,
        0.71165001392364502
      ],
      "type": "VEC2"
    },
    {
      "bufferView": 0,
      "componentType": 5125,
      "count": 2052,
      "max": [
        542
      ],
      "min": [
        0
      ],
      "type": "SCALAR"
    },
    {
      "bufferView": 2,
      "byteOffset": 13032,
      "componentType": 5126,
      "count": 1286,
      "max": [
        3.1179540157318115,
        10.609541893005371,
        1.8136910200119019
      ],
      "min": [
        -3.1179540157318115,
        5.2180008888244629,
        -3.1156990528106689
      ],
      "type": "VEC3"
    },
    {
      "bufferView": 2,
      "byteOffset": 28464,
      "componentType": 5126,
      "count": 1286,
      "max": [
        0.99908739328384399,
        0.99834364652633667,
        0.99992305040359497
      ],
      "min": [
        -0.99914920330047607,
        -0.99843513965606689,
        -0.99995464086532593
      ],
      "type": "VEC3"
    },
    {
      "bufferView": 1,
      "byteOffset": 4344,
      "componentType": 5126,
      "count": 1286,
      "max": [
        0.97915154695510864,
        0.99232631921768188
      ],
      "min": [
        0.17281481623649597,
        0.2676699161529541
      ],
      "type": "VEC2"
    },
    {
      "bufferView": 0,
      "byteOffset": 8208,
      "componentType": 5125,
      "count": 5610,
      "max": [
        1285
      ],
      "min": [
        0
      ],
      "type": "SCALAR"
    },
    {
      "bufferView": 2,
      "byteOffset": 43896,
      "componentType": 5126,
      "count": 164,
      "max": [
        0.67151105403900146,
        7.3893184661865234,
        1.3171906471252441
      ],
      "min": [
        -0.67151105403900146,
        7.1878671646118164,
        1.2224011421203613
      ],
      "type": "VEC3"
    },
    {
      "bufferView": 2,
      "byteOffset": 45864,
      "componentType": 5126,
      "count": 164,
      "max": [
        0.9730181097984314,
        0.97859084606170654,
        0.98330444097518921
      ],
      "min": [
        -0.9730181097984314,
        -0.98152261972427368,
        -0.95284658670425415
      ],
      "type": "VEC3"
    },
    {
      "bufferView": 1,
      "byteOffset": 14632,
      "componentType": 5126,
      "count": 164,
      "max": [
        0.7228010892868042,
        0.3681638240814209
      ],
      "min": [
        0.65875917673110962,
        0.30803430080413818
      ],
      "type": "VEC2"
    },
    {
      "bufferView": 0,
      "byteOffset": 30648,
      "componentType": 5125,
      "count": 612,
      "max": [
        163
      ],
      "min": [
        0
      ],
      "type": "SCALAR"
    },
    {
      "bufferView": 2,
      "byteOffset": 47832,
      "componentType": 5126,
      "count": 232,
      "max": [
        0.3561931848526001,
        4.2813515663146973,
        1.0481095314025879
      ],
      "min": [
        -0.35347133874893188,
        3.3957588672637939,
        0.69778716564178467
      ],
      "type": "VEC3"
    },
    {
      "bufferView": 2,
      "byteOffset": 50616,
      "componentType": 5126,
      "count": 232,
      "max": [
        0.99995869398117065,
        0.99967163801193237,
        1
      ],
      "min": [
        -0.99995821714401245,
        -0.99967879056930542,
        -1
      ],
      "type": "VEC3"
    },
    {
      "bufferView": 1,
      "byteOffset": 15944,
      "componentType": 5126,
      "count": 232,
      "max": [
        0.74794185161590576,
        0.73163294792175293
      ],
      "min": [
        0.64003127813339233,
        0.60564887523651123
      ],
      "type": "VEC2"
    },
    {
      "bufferView": 0,
      "byteOffset": 33096,
      "componentType": 5125,
      "count": 564,
      "max": [
        231
      ],
      "min": [
        0
      ],
      "type": "SCALAR"
    },
    {
      "bufferView": 2,
      "byteOffset": 53400,
      "componentType": 5126,
      "count": 3500,
      "max": [
        3.9304296970367432,
        8.1167926788330078,
        1.5603630542755127
      ],
      "min": [
        -3.9304296970367432,
        -0.002721056342124939,
        -2.3372159004211426
      ],
      "type": "VEC3"
    },
    {
      "bufferView": 2,
      "byteOffset": 95400,
      "componentType": 5126,
      "count": 3500,
      "max": [
        0.99997353553771973,
        0.99856370687484741,
        0.99997162818908691
      ],
      "min": [
        -0.99997353553771973,
        -1,
        -0.99994093179702759
      ],
      "type": "VEC3"
    },
    {
      "bufferView": 1,
      "byteOffset": 17800,
      "componentType": 5126,
      "count": 3500,
      "max": [
        0.99266201257705688,
        0.77721011638641357
      ],
      "min": [
        0.0048753977753221989,
        0.0071964263916015625
      ],
      "type": "VEC2"
    },
    {
      "bufferView": 0,
      "byteOffset": 35352,
      "componentType": 5125,
      "count": 14952,
      "max": [
        3499
      ],
      "min": [
        0
      ],
      "type": "SCALAR"
    },
    {
      "bufferView": 2,
      "byteOffset": 137400,
      "componentType": 5126,
      "count": 361,
      "max": [
        1.3344628810882568,
        5.0479283332824707,
        -1.1389966011047363
      ],
      "min": [
        -1.3230857849121094,
        2.2102770805358887,
        -1.9511262178421021
      ],
      "type": "VEC3"
    },
    {
      "bufferView": 2,
      "byteOffset": 141732,
      "componentType": 5126,
      "count": 361,
      "max": [
        0.9611784815788269,
        0.9993135929107666,
        0.9686315655708313
      ],
      "min": [
        -0.96154552698135376,
        -0.99975323677062988,
        -0.96012073755264282
      ],
      "type": "VEC3"
    },
    {
      "bufferView": 1,
      "byteOffset": 45800,
      "componentType": 5126,
      "count": 361,
      "max": [
        0.74794185161590576,
        0.84903335571289062
      ],
      "min": [
        0.39808923006057739,
        0.60564887523651123
      ],
      "type": "VEC2"
    },
    {
      "bufferView": 0,
      "byteOffset": 95160,
      "componentType": 5125,
      "count": 852,
      "max": [
        360
      ],
      "min": [
        0
      ],
      "type": "SCALAR"
    },
    {
      "bufferView": 2,
      "byteOffset": 146064,
      "componentType": 5126,
      "count": 738,
      "max": [
        1.2724736928939819,
        5.4633612632751465,
        0.48559999465942383
      ],
      "min": [
        -1.2724736928939819,
        2.5638148784637451,
        -2.4253180027008057
      ],
      "type": "VEC3"
    },
    {
      "bufferView": 2,
      "byteOffset": 154920,
      "componentType": 5126,
      "count": 738,
      "max": [
        1,
        0.99995547533035278,
        0.99999189376831055
      ],
      "min": [
        -1,
        -0.99896347522735596,
        -0.99999594688415527
      ],
      "type": "VEC3"
    },
    {
      "bufferView": 1,
      "byteOffset": 48688,
      "componentType": 5126,
      "count": 738,
      "max": [
        0.99269384145736694,
        0.9955371618270874
      ],
      "min": [
        0.0055247512646019459,
        0.45846045017242432
      ],
      "type": "VEC2"
    },
    {
      "bufferView": 0,
      "byteOffset": 98568,
      "componentType": 5125,
      "count": 2514,
      "max": [
        737
      ],
      "min": [
        0
      ],
      "type": "SCALAR"
    },
    {
      "bufferView": 2,
      "byteOffset": 163776,
      "componentType": 5126,
      "count": 345,
      "max": [
        -2.0886325836181641,
        4.5197277069091797,
        0.49490311741828918
      ],
      "min": [
        -3.4754066467285156,
        3.0621242523193359,
        -0.88387119770050049
      ],
      "type": "VEC3"
    },
    {
      "bufferView": 2,
      "byteOffset": 167916,
      "componentType": 5126,
      "count": 345,
      "max": [
        0.97042000293731689,
        0.99093633890151978,
        0.97586953639984131
      ],
      "min": [
        -0.99481511116027832,
        -0.99605840444564819,
        -0.98405778408050537
      ],
      "type": "VEC3"
    },
    {
      "bufferView": 1,
      "byteOffset": 54592,
      "componentType": 5126,
      "count": 345,
      "max": [
        0.99116146564483643,
        0.52929979562759399
      ],
      "min": [
        0.47399404644966125,
        0.2332160472869873
      ],
      "type": "VEC2"
    },
    {
      "bufferView": 0,
      "byteOffset": 108624,
      "componentType": 5125,
      "count": 1098,
      "max": [
        344
      ],
      "min": [
        0
      ],
      "type": "SCALAR"
    },
    {
      "bufferView": 2,
      "byteOffset": 172056,
      "componentType": 5126,
      "count": 74,
      "max": [
        -3.3551714420318604,
        4.5811252593994141,
        -0.12528683245182037
      ],
      "min": [
        -3.5244033336639404,
        4.4004793167114258,
        -0.41645991802215576
      ],
      "type": "VEC3"
    },
    {
      "bufferView": 2,
      "byteOffset": 172944,
      "componentType": 5126,
      "count": 74,
      "max": [
        0.96661806106567383,
        0.97913670539855957,
        0.98158836364746094
      ],
      "min": [
        -0.99934184551239014,
        -0.94022840261459351,
        -0.97904342412948608
      ],
      "type": "VEC3"
    },
    {
      "bufferView": 1,
      "byteOffset": 57352,
      "componentType": 5126,
      "count": 74,
      "max": [
        0.60300672054290771,
        0.25039827823638916
      ],
      "min": [
        0.55416274070739746,
        0.19953107833862305
      ],
      "type": "VEC2"
    },
    {
      "bufferView": 0,
      "byteOffset": 113016,
      "componentType": 5125,
      "count": 384,
      "max": [
        73
      ],
      "min": [
        0
      ],
      "type": "SCALAR"
    }
  ],
  "asset": {
    "extras": {
      "author": "VinceOrigami (https://sketchfab.com/borbelyvince)",
      "license": "CC-BY-4.0 (http://creativecommons.org/licenses/by/4.0/)",
      "source": "https://sketchfab.com/3d-models/brawl-stars-bea-35c9f67bc9b445f5835b14eda7e0ccb5",
      "title": "Brawl Stars Bea"
    },
    "generator": "Sketchfab-8.2.1",
    "version": "2.0"
  },
  "bufferViews": [
    {
      "buffer": 0,
      "byteLength": 114552,
      "byteOffset": 0,
      "name": "floatBufferViews",
      "target": 34963
    },
    {
      "buffer": 0,
      "byteLength": 57944,
      "byteOffset": 114552,
      "byteStride": 8,
      "name": "floatBufferViews",
      "target": 34962
    },
    {
      "buffer": 0,
      "byteLength": 173832,
      "byteOffset": 172496,
      "byteStride": 12,
      "name": "floatBufferViews",
      "target": 34962
    }
  ],
  "buffers": [
    {
      "byteLength": 346328,
      "uri": "scene.bin"
    }
  ],
  "images": [
    {
      "uri": "textures/character_mat1_baseColor.png"
    }
  ],
  "materials": [
    {
      "doubleSided": true,
      "emissiveFactor": [
        0,
        0,
        0
      ],
      "name": "character_mat1",
      "pbrMetallicRoughness": {
        "baseColorFactor": [
          1,
          1,
          1,
          1
        ],
        "baseColorTexture": {
          "index": 0,
          "texCoord": 0
        },
        "metallicFactor": 0,
        "roughnessFactor": 0.59999999999999998
      }
    },
    {
      "doubleSided": true,
      "emissiveFactor": [
        0,
        0,
        0
      ],
      "name": "character_mat",
      "pbrMetallicRoughness": {
        "baseColorFactor": [
          1,
          1,
          1,
          1
        ],
        "baseColorTexture": {
          "index": 0,
          "texCoord": 0
        },
        "metallicFactor": 0,
        "roughnessFactor": 0.59999999999999998
      }
    },
    {
      "doubleSided": true,
      "emissiveFactor": [
        0,
        0,
        0
      ],
      "name": "character_metal_mat",
      "pbrMetallicRoughness": {
        "baseColorFactor": [
          1,
          1,
          1,
          1
        ],
        "baseColorTexture": {
          "index": 0,
          "texCoord": 0
        },
        "metallicFactor": 0,
        "roughnessFactor": 0.59999999999999998
      }
    }
  ],
  "meshes": [
    {
      "name": "beeGeo_character_mat1_0",
      "primitives": [
        {
          "attributes": {
            "NORMAL": 1,
            "POSITION": 0,
            "TEXCOORD_0": 2
          },
          "indices": 3,
          "material": 0,
          "mode": 4
        }
      ]
    },
    {
      "name": "hatGeo_character_mat_0",
      "primitives": [
        {
          "attributes": {
            "NORMAL": 5,
            "POSITION": 4,
            "TEXCOORD_0": 6
          },
          "indices": 7,
          "material": 1,
          "mode": 4
        }
      ]
    },
    {
      "name": "eyebrowsGeo1_character_mat_0",
      "primitives": [
        {
          "attributes": {
            "NORMAL": 9,
            "POSITION": 8,
            "TEXCOORD_0": 10
          },
          "indices": 11,
          "material": 1,
          "mode": 4
        }
      ]
    },
    {
      "name": "zipperGeo_character_metal_mat_0",
      "primitives": [
        {
          "attributes": {
            "NORMAL": 13,
            "POSITION": 12,
            "TEXCOORD_0": 14
          },
          "indices": 15,
          "material": 2,
          "mode": 4
        }
      ]
    },
    {
      "name": "bodyGeo_character_mat_0",
      "primitives": [
        {
          "attributes": {
            "NORMAL": 17,
            "POSITION": 16,
            "TEXCOORD_0": 18
          },
          "indices": 19,
          "material": 1,
          "mode": 4
        }
      ]
    },
    {
      "name": "backpackGeo_character_metal_mat_0",
      "primitives": [
        {
          "attributes": {
            "NORMAL": 21,
            "POSITION": 20,
            "TEXCOORD_0": 22
          },
          "indices": 23,
          "material": 2,
          "mode": 4
        }
      ]
    },
    {
      "name": "backpackGeo_character_mat_0",
      "primitives": [
        {
          "attributes": {
            "NORMAL": 25,
            "POSITION": 24,
            "TEXCOORD_0": 26
          },
          "indices": 27,
          "material": 1,
          "mode": 4
        }
      ]
    },
    {
      "name": "wristbandGeo_character_metal_mat_0",
      "primitives": [
        {
          "attributes": {
            "NORMAL": 29,
            "POSITION": 28,
            "TEXCOORD_0": 30
          },
          "indices": 31,
          "material": 2,
          "mode": 4
        }
      ]
    },
    {
      "name": "wristbandGeo_character_mat_0",
      "primitives": [
        {
          "attributes": {
            "NORMAL": 33,
            "POSITION": 32,
            "TEXCOORD_0": 34
          },
          "indices": 35,
          "material": 1,
          "mode": 4
        }
      ]
    }
  ],
  "nodes": [
    {
      "children": [
        1
      ],
      "name": "RootNode (gltf orientation matrix)",
      "rotation": [
        -0.70710678118654746,
        -0,
        -0,
        0.70710678118654757
      ]
    },
    {
      "children": [
        2
      ],
      "name": "RootNode (model correction matrix)"
    },
    {
      "children": [
        3
      ],
      "matrix": [
        1,
        0,
        0,
        0,
        0,
        0,
        1,
        0,
        0,
        -1,
        0,
        0,
        0,
        0,
        0,
        1
      ],
      "name": "bea_geo.fbx"
    },
    {
      "children": [
        4
      ],
      "name": "RootNode"
    },
    {
      "children": [
        5
      ],
      "name": "CHARACTER"
    },
    {
      "children": [
        6,
        8,
        10,
        12,
        14,
        16,
        19
      ],
      "name": "GEO"
    },
    {
      "children": [
        7
      ],
      "matrix": [
        1,
        0,
        0,
        0,
        0,
        1,
        0,
        0,
        0,
        0,
        1,
        0,
        -6.0092058181762695,
        6.1706156730651855,
        0,
        1
      ],
      "name": "beeGeo"
    },
    {
      "mesh": 0,
      "name": "beeGeo_character_mat1_0"
    },
    {
      "children": [
        9
      ],
      "name": "hatGeo"
    },
    {
      "mesh": 1,
      "name": "hatGeo_character_mat_0"
    },
    {
      "children": [
        11
      ],
      "name": "eyebrowsGeo1"
    },
    {
      "mesh": 2,
      "name": "eyebrowsGeo1_character_mat_0"
    },
    {
      "children": [
        13
      ],
      "name": "zipperGeo"
    },
    {
      "mesh": 3,
      "name": "zipperGeo_character_metal_mat_0"
    },
    {
      "children": [
        15
      ],
      "name": "bodyGeo"
    },
    {
      "mesh": 4,
      "name": "bodyGeo_character_mat_0"
    },
    {
      "children": [
        17,
        18
      ],
      "name": "backpackGeo"
    },
    {
      "mesh": 5,
      "name": "backpackGeo_character_metal_mat_0"
    },
    {
      "mesh": 6,
      "name": "backpackGeo_character_mat_0"
    },
    {
      "children": [
        20,
        21
      ],
      "name": "wristbandGeo"
    },
    {
      "mesh": 7,
      "name": "wristbandGeo_character_metal_mat_0"
    },
    {
      "mesh": 8,
      "name": "wristbandGeo_character_mat_0"
    }
  ],
  "samplers": [
    {
      "magFilter": 9729,
      "minFilter": 9987,
      "wrapS": 10497,
      "wrapT": 10497
    }
  ],
  "scene": 0,
  "scenes": [
    {
      "name": "OSG_Scene",
      "nodes": [
        0
      ]
    }
  ],
  "textures": [
    {
      "sampler": 0,
      "source": 0
    }
  ]
}

