{
  "accessors": [
    {
      "bufferView": 1,
      "componentType": 5126,
      "count": 159,
      "max": [
        0.76504999399185181,
        0.74742001295089722,
        1.4349499940872192
      ],
      "min": [
        -0.57252001762390137,
        -0.85522997379302979,
        -1.0755499601364136
      ],
      "type": "VEC3"
    },
    {
      "bufferView": 1,
      "byteOffset": 1908,
      "componentType": 5126,
      "count": 159,
      "max": [
        0.99509799480438232,
        1,
        0.93858051300048828
      ],
      "min": [
        -0.99626404047012329,
        -0.99956631660461426,
        -1
      ],
      "type": "VEC3"
    },
    {
      "bufferView": 0,
      "componentType": 5125,
      "count": 192,
      "max": [
        158
      ],
      "min": [
        0
      ],
      "type": "SCALAR"
    },
    {
      "bufferView": 1,
      "byteOffset": 3816,
      "componentType": 5126,
      "count": 144,
      "max": [
        1.4575999975204468,
        1.5770200490951538,
        1.4820300340652466
      ],
      "min": [
        -1.4216500520706177,
        -1.4991999864578247,
        -1.3917000293731689
      ],
      "type": "VEC3"
    },
    {
      "bufferView": 1,
      "byteOffset": 5544,
      "componentType": 5126,
      "count": 144,
      "max": [
        1,
        1,
        0.82684481143951416
      ],
      "min": [
        -1,
        -0.8748394250869751,
        -1
      ],
      "type": "VEC3"
    },
    {
      "bufferView": 0,
      "byteOffset": 768,
      "componentType": 5125,
      "count": 144,
      "max": [
        143
      ],
      "min": [
        0
      ],
      "type": "SCALAR"
    }
  ],
  "asset": {
    "extras": {
      "author": "MrRiskris (https://sketchfab.com/MrRiskris)",
      "license": "CC-BY-4.0 (http://creativecommons.org/licenses/by/4.0/)",
      "source": "https://sketchfab.com/3d-models/oak-tree-lowpoly-6ccd872db7f0429b8dad40c6f00ec75c",
      "title": "Oak Tree (LowPoly)"
    },
    "generator": "Sketchfab-8.12.0",
    "version": "2.0"
  },
  "bufferViews": [
    {
      "buffer": 0,
      "byteLength": 1344,
      "byteOffset": 0,
      "name": "floatBufferViews",
      "target": 34963
    },
    {
      "buffer": 0,
      "byteLength": 7272,
      "byteOffset": 1344,
      "byteStride": 12,
      "name": "floatBufferViews",
      "target": 34962
    }
  ],
  "buffers": [
    {
      "byteLength": 8616,
      "uri": "scene.bin"
    }
  ],
  "materials": [
    {
      "doubleSided": true,
      "emissiveFactor": [
        0,
        0,
        0
      ],
      "name": "Tannengrn.002",
      "pbrMetallicRoughness": {
        "baseColorFactor": [
          0.059266760945320129,
          0.1959882378578186,
          0.031852398067712784,
          1
        ],
        "metallicFactor": 0,
        "roughnessFactor": 0.59999999999999998
      }
    },
    {
      "doubleSided": true,
      "emissiveFactor": [
        0,
        0,
        0
      ],
      "name": "Holzbraun.002",
      "pbrMetallicRoughness": {
        "baseColorFactor": [
          0.094624213874340057,
          0.039774894714355469,
          0.0076360912062227726,
          1
        ],
        "metallicFactor": 0,
        "roughnessFactor": 0.59999999999999998
      }
    }
  ],
  "meshes": [
    {
      "name": "Stamm.001_0",
      "primitives": [
        {
          "attributes": {
            "NORMAL": 1,
            "POSITION": 0
          },
          "indices": 2,
          "material": 1,
          "mode": 4
        }
      ]
    },
    {
      "name": "Laub.001_0",
      "primitives": [
        {
          "attributes": {
            "NORMAL": 4,
            "POSITION": 3
          },
          "indices": 5,
          "material": 0,
          "mode": 4
        }
      ]
    }
  ],
  "nodes": [
    {
      "children": [
        1
      ],
      "name": "RootNode (gltf orientation matrix)",
      "rotation": [
        -0.70710678118654746,
        -0,
        -0,
        0.70710678118654757
      ]
    },
    {
      "children": [
        2
      ],
      "name": "RootNode (model correction matrix)"
    },
    {
      "children": [
        3,
        5,
        7
      ],
      "name": "Root"
    },
    {
      "children": [
        4
      ],
      "matrix": [
        -0.27699000000000001,
        0.96087000000000011,
        0,
        0,
        -0.96087000000000011,
        -0.27699000000000001,
        0,
        0,
        0,
        0,
        1,
        0,
        0,
        0,
        1.0784,
        1
      ],
      "name": "Stamm.001"
    },
    {
      "mesh": 0,
      "name": "Stamm.001_0"
    },
    {
      "children": [
        6
      ],
      "matrix": [
        -0.27699000000000001,
        0.96087000000000011,
        0,
        0,
        -0.96087000000000011,
        -0.27699000000000001,
        0,
        0,
        0,
        0,
        1,
        0,
        0,
        0,
        2.8794399999999993,
        1
      ],
      "name": "Laub.001"
    },
    {
      "mesh": 1,
      "name": "Laub.001_0"
    },
    {
      "children": [
        8
      ],
      "matrix": [
        -0.29086000000000006,
        0.95517000000000007,
        -0.05519000000000001,
        0,
        -0.77110000000000001,
        -0.19988000000000003,
        0.60452000000000006,
        0,
        0.56639000000000006,
        0.21839000000000003,
        0.7946700000000001,
        0,
        4.0762500000000008,
        1.00545,
        5.9038600000000008,
        1
      ],
      "name": "Lamp"
    },
    {
      "name": "Lamp"
    }
  ],
  "scene": 0,
  "scenes": [
    {
      "name": "OSG_Scene",
      "nodes": [
        0
      ]
    }
  ]
}

