<?xml version="1.0" encoding="utf-8"?>
<!-- Generator: Adobe Illustrator 18.1.1, SVG Export Plug-In . SVG Version: 6.00 Build 0)  -->
<svg version="1.1" id="Слой_1" xmlns="http://www.w3.org/2000/svg" xmlns:xlink="http://www.w3.org/1999/xlink" x="0px" y="0px"
	 viewBox="138.2 672.7 2762.9 3184.1" enable-background="new 138.2 672.7 2762.9 3184.1" xml:space="preserve">
<g id="Слой_1_1_" display="none">
	<g display="inline">
		<g>
			<path d="M1761.1,3649.2c18.6,77.3-7.9,161.3-72.2,209.2c-67.1,50.2-148.3,47.9-223.9,18.6c-63.7-24.8-140.4-61.5-178.8-121.2
				c-49.6-77.3-4.5-167.5,34.4-239.1c8.5-15.8-15.8-30.5-24.2-14.1c-42.9,78.4-88,174.2-38.9,260.5
				c41.7,73.3,133.6,116.7,209.2,144.4c85.7,31,177.6,24.8,249.2-35c66.5-56.4,92.5-147.2,72.2-230.6
				C1784.2,3623.9,1757.1,3631.2,1761.1,3649.2L1761.1,3649.2z"/>
		</g>
	</g>
	<g display="inline">
		<g>
			<path d="M1787,3663.3c-11.8-2.3-25.4-0.6-31.6,11.8c-6.2,14.1,7.3,35.5,13.5,47.4c20.9,37.8,54.1,71.1,85.7,99.2
				c67.7,60.3,181,44,261.7,20.3c81.2-23.7,161.3-75,194.5-155.6c28.8-69.9,9-157.3-60.3-194.5c-15.8-8.5-30.5,15.8-14.1,24.2
				c59.8,32.1,72.7,107.1,46.2,165.2c-28.2,62-89.1,103.8-151.1,126.3c-60.9,22-134.8,33.3-198.5,22.6
				c-38.9-6.2-64.3-33.8-90.2-60.9s-49.6-55.3-60.9-91.4c-1.1,4.5-2.3,9-3.4,13.5c0.6-0.6,1.1-1.1,1.7-1.7
				C1797.2,3693.8,1805.1,3666.7,1787,3663.3L1787,3663.3z"/>
		</g>
	</g>
	<g display="inline">
		<g>
			<path d="M1704.1,3971.8c70.5,15.8,142.1,13.5,211.5-8.5c17.5-5.6,10.2-32.7-7.3-27.1c-64.3,20.3-130.3,23.7-196.2,8.5
				C1694,3940.2,1686.7,3967.3,1704.1,3971.8L1704.1,3971.8z"/>
		</g>
	</g>
	<g display="inline">
		<g>
			<path d="M2047,3626.1c278.6-9,557.1-27.1,834.6-53c18-1.7,18-29.9,0-28.2c-277.4,25.9-556,43.4-834.6,53
				C2028.9,3598.5,2028.9,3626.7,2047,3626.1L2047,3626.1z"/>
		</g>
	</g>
	<g display="inline">
		<g>
			<path d="M2210.5,3711.8c139.3,14.7,278.6,28.8,417.3,43.4c18,1.7,18-26.5,0-28.2c-139.3-14.7-278.6-28.8-417.3-43.4
				C2192.5,3681.4,2192.5,3709.6,2210.5,3711.8L2210.5,3711.8z"/>
		</g>
	</g>
	<g display="inline">
		<g>
			<path d="M2111.3,3775c112.8,26.5,225.6,52.4,338.3,78.9c17.5,3.9,25.4-23.1,7.3-27.1c-112.8-26.5-225.6-52.4-338.3-78.9
				C2101.1,3744,2093.8,3771.1,2111.3,3775L2111.3,3775z"/>
		</g>
	</g>
	<g display="inline">
		<g>
			<path d="M1417.7,3563.5c-217.7-54.7-434.8-110-651.9-165.8c-17.5-4.5-24.8,22.6-7.3,27.1c217.1,55.8,434.8,111.1,651.9,165.8
				C1427.8,3595.7,1435.2,3568,1417.7,3563.5L1417.7,3563.5z"/>
		</g>
	</g>
	<g display="inline">
		<g>
			<path d="M1302.6,3612c-193.4-9.6-387.4-18.6-580.8-28.2c-18-1.1-18,27.1,0,28.2c193.4,9.6,387.4,18.6,580.8,28.2
				C1320.7,3641.4,1320.7,3613.2,1302.6,3612L1302.6,3612z"/>
		</g>
	</g>
	<g display="inline">
		<g>
			<path d="M1325.2,3659.4c-148.3,11.3-294.9,37.2-438.2,77.8c-17.5,5.1-10.2,32.1,7.3,27.1c141-39.5,284.8-65.4,430.8-76.7
				C1343.2,3685.9,1343.2,3657.7,1325.2,3659.4L1325.2,3659.4z"/>
		</g>
	</g>
</g>
<g id="Слой_2" display="none">
	<path display="inline" fill="#959188" d="M2304.7,2449.2c0,0,455.6-1189.8,69.9-1189.8s-432,266.7-432,266.7
		s-53.6,748.3-53.6,1271.6s403.8,435.9,421.8,435.9s431.4-73.9,431.4-435.9S2304.7,2449.2,2304.7,2449.2z M2091,1745.5
		c0-138.2,49.1-233.5,120.1-233.5s129.1,77.8,98.1,195.1c-31,117.3-214.3,693-214.3,693S2091,1883.6,2091,1745.5z M2281,2990.6
		c-94.7,0-172-77.3-172-172s77.3-172,172-172s172,77.3,172,172S2375.8,2990.6,2281,2990.6z"/>
	<path display="inline" fill="#959188" d="M1801.1,2770.1c-9.6-1.7-18-7.9-21.4-19.7c-19.7-71.1-49.6-133.1-86.8-196.2
		c-20.3-34.4-35.5-71.1-60.3-102.1c-14.7-18.6-28.2-36.7-37.8-57c0,3.9,0,5.6,0,5.6s-183.3-575.2-214.3-693
		c-31-117.3,27.1-195.1,98.1-195.1c62.6,0,108.3,73.9,118.4,185.5c17.5,27.1,25.9,102.6,41.2,130.8
		c59.8,178.8,104.9,385.7,143.8,403.2c-10.2-173.7-33.8-706-33.8-706s-46.8-266.7-432.5-266.7s69.9,1189.8,69.9,1189.8
		s-437.6-13-437.6,348.5s412.8,435.9,431.4,435.9s421.8,87.4,421.8-435.9C1801.1,2788.7,1801.1,2779.1,1801.1,2770.1z
		 M1409.2,2990.6c-94.7,0-172-77.3-172-172s76.7-172,172-172s172,77.3,172,172S1503.9,2990.6,1409.2,2990.6z"/>
	<polygon display="inline" fill="#959188" points="1967.5,3338 1686.7,3322.7 1813,3518.4 	"/>
	<path display="inline" fill="#959188" d="M282,1211.5l-353-1.7L-672.7,3113l371.6-0.6l234.6-711.1h261.7l214.3,719.5l277.4-22.6
		L282,1211.5z M-43.4,2095.7l125.2-483.8L216,2122.2C216,2122.7-30.5,2097.9-43.4,2095.7z"/>
</g>
<g id="Слой_3">
	<g>
		<g>
			<path fill="#FFFFFF" d="M2454.1,1550.9c0,18-2.8,9,2.8-15.2c-1.1,5.1-1.7,10.7-3.4,16.4c-3.4,13.5-7.3,27.1-11.8,40
				c-5.6,16.9-11.8,33.3-18,49.6c-3.9,9.6-7.3,18.6-11.3,27.6c-7.9,19.2,10.7-25.4,3.9-9.6c-2.3,5.6-4.5,10.7-6.8,16.4
				c-42.3,97-89.7,192.3-138.2,287c-98.7,192.9-202.4,383.5-308.5,572.4c-23.7,42.3-47.4,84-71.1,125.8
				c69.9,19.2,139.8,37.8,210.3,57c0-201.9,0-404.3,0-606.2c0-136.5,0-273.5,0-410c0-43.4,0-86.8,0-130.3c0-6.2,0-13,0-19.2
				c0-8.5,0.6-16.9,1.1-25.4c0.6-22.6,0,7.3-1.1,7.3c-0.6,0,3.9-19.2,4.5-22c0.6-2.3,9-35.5,11.3-35.5c1.1,0-13,25.9-2.8,6.8
				c2.3-4.5,4.5-9,6.8-13c5.1-9.6,13-18.6,17.5-28.2c6.2-13.5-18,20.3-2.3,2.8c5.1-5.6,9.6-10.7,14.7-16.4
				c2.3-2.3,24.2-25.9,27.1-24.2c1.7,1.1-20.3,13.5-5.1,4.5c6.2-3.9,12.4-7.9,18.6-11.8c4.5-2.3,8.5-4.5,13-6.8
				c24.8-12.4,0-1.7,0-0.6c-0.6-2.3,36.7-11.3,39.5-11.8c1.7-0.6,18.6-4.5,18.6-3.4c0,0-28.8,2.8-3.4,1.1c14.7-1.1,28.2,0,42.9,0
				c10.2,0,13,6.2-7.3-1.1c6.2,2.3,15.2,2.8,22,4.5c4.5,1.1,35.5,8.5,35.5,11.3c0,1.7-22-10.7-6.8-2.8c6.2,3.4,13,6.8,19.7,10.2
				c5.1,2.8,10.2,6.8,15.8,9.6c21.4,12.4-5.6-6.8,0.6-0.6c9.6,9.6,20.3,17.5,29.3,27.1c3.4,3.4,6.2,7.3,9.6,10.7
				c14.7,15.8-11.8-19.7,0,0.6c6.2,10.7,13,20.3,18.6,31.6c-0.6-1.1,6.8,13,6.2,13.5c-6.2-15.8-7.3-18-3.4-6.2
				c0.6,2.3,1.7,4.5,2.3,6.8c3.9,11.8,6.2,24.2,9,36.1c6.2,24.8-1.1-19.7-0.6-3.4C2453.6,1532.9,2454.1,1541.9,2454.1,1550.9
				c0.6,59.2,51.3,115.6,112.8,112.8c60.3-2.8,113.3-49.6,112.8-112.8c-1.7-126.3-59.2-241.9-159-319.2
				c-99.2-76.7-234.6-102.6-355.3-66.5c-122.4,36.7-216,127.4-262.8,244.7c-25.4,64.3-25.9,132.5-25.9,200.8c0,282,0,564.5,0,846.4
				c0,86.8,0,174.2,0,261.1c0,111.1,154.5,154.5,210.3,57c67.7-117.9,133.1-236.3,197.9-355.3c109.4-200.8,218.8-402.1,311.3-611.3
				c35-78.4,82.9-169.7,84-258.3c0.6-59.2-52.4-115.6-112.8-112.8C2505.5,1441,2455.3,1487.8,2454.1,1550.9z"/>
		</g>
	</g>
	<g>
		<path fill="#FFFFFF" d="M2278.2,3222.9c-221.6,0-401.5-180.5-401.5-401.5c0-221.1,180.5-401.5,401.5-401.5
			c221.1,0,401.5,180.5,401.5,401.5C2679.7,3042.5,2499.8,3222.9,2278.2,3222.9z M2278.2,2645.5c-97,0-175.9,78.9-175.9,175.9
			s78.9,175.9,175.9,175.9s175.9-78.9,175.9-175.9C2454.1,2724.4,2375.2,2645.5,2278.2,2645.5z"/>
	</g>
	<g>
		<g>
			<path fill="#FFFFFF" d="M1809.6,1547.6c0,0-4.5-57-6.8-76.1c-13.5-116.7-95.3-223.9-197.4-281.4
				c-123.5-68.8-279.1-68.8-400.9,3.4c-122.4,72.2-196.2,204.7-197.9,346.2c0,3.4,0,6.8,0.6,10.2c3.9,75,41.2,150,69.9,217.1
				c41.7,98.1,89.7,193.4,137.6,288.7c99.8,196.2,205.3,389.1,313,580.8c23.7,42.9,47.9,85.2,72.2,127.4
				c55.8,97.6,210.3,54.1,210.3-57l-257.7-493.4c-91.4-169.2-181.6-339.5-260.5-514.8c-5.6-11.8-10.7-23.7-15.8-36.1
				c-0.6-1.7-1.7-3.4-2.3-5.1c2.3,5.1,2.3,6.2-1.7-3.9c-1.1-2.8-2.3-6.2-3.9-9c1.1,2.3,2.3,4.5,2.8,6.8
				c-7.9-19.2-15.8-38.9-22.6-58.6c-5.6-15.2-10.7-31-14.7-46.8c-0.6-2.8-1.1-5.6-1.7-8.5c0-6.2,0-11.8,0.6-18
				c0-2.8,0.6-4.5,0.6-6.2c1.7-7.9,4.5-18.6,5.1-20.3c1.1-5.1,2.8-9.6,4.5-14.1c0.6-2.3,1.7-4.5,2.3-6.8c0-0.6,0-0.6,0.6-1.1
				c1.1-1.7,1.7-3.9,2.8-5.6c3.4-6.8,6.8-13,10.7-19.2c2.3-3.9,5.6-7.9,7.9-12.4c1.1-2.3,2.3-3.4,2.8-4.5
				c6.2-6.2,13.5-13.5,14.1-14.7c0.6-0.6,7.9-8.5,14.1-14.1c0.6-0.6,2.3-1.1,5.1-2.8c6.2-3.9,12.4-7.9,18.6-11.8
				c5.1-2.8,10.7-5.6,16.4-8.5c0.6,0,1.1-0.6,1.7-0.6c1.1-0.6,1.7-0.6,2.8-1.1l0,0l0,0c2.3-0.6,3.9-1.7,6.2-2.3
				c4.5-1.7,9.6-2.8,14.1-4.5c5.1-1.1,9.6-2.3,14.7-3.4c2.8-0.6,21.4-2.3,12.4-1.7c1.1,0,2.3,0,2.8,0c7.9-0.6,15.8-0.6,23.7-0.6
				c3.9,0,7.3,0.6,11.3,0.6c-1.1-0.6-1.7-0.6-2.8-1.1c1.1,0.6,2.3,0.6,3.9,1.1c1.1,0,2.3,0,3.4,0c5.1,0,8.5,1.7,7.3,2.3
				c6.2,1.1,12.4,2.3,18.6,3.9c5.1,1.7,10.2,3.4,14.7,4.5c-2.3-1.1-3.9-1.7-3.4-2.3c0.6-0.6,5.1,1.7,10.7,4.5
				c1.7,0.6,1.7,0.6,0.6,0.6c8.5,4.5,19.7,11.3,20.9,12.4c3.9,2.3,7.9,5.6,12.4,7.9l0,0c6.8,6.8,14.7,12.4,21.4,19.7
				c3.4,3.4,6.8,6.8,10.2,10.7c1.1,1.1,1.7,2.3,2.8,2.8c2.3,2.8,3.9,6.2,6.2,9c3.4,5.1,6.2,10.2,9.6,15.8
				c17.5,31.6,19.2,97.6,21.4,102.1 M1297.6,1401.5c4.5-4.5,9-7.9,10.2-7.9C1308.8,1394.7,1299.2,1400.4,1297.6,1401.5z
				 M1268.2,1431.4c-2.3,3.9-6.2,9.6-6.8,9C1260.9,1439.3,1264.3,1435.9,1268.2,1431.4z M1232.1,1519.4c0,2.8-0.6,4.5-0.6,4.5
				C1231,1524.4,1231.6,1522.2,1232.1,1519.4z M1232.1,1548.7c-0.6-1.1-0.6-2.8-0.6-3.9C1232.7,1549.2,1233.3,1552.1,1232.1,1548.7z
				"/>
		</g>
		<g>
			<path fill="#FFFFFF" d="M1272.2,1665.4c0.6,1.1,1.1,2.8,1.7,3.9c-0.6-1.7-1.7-3.9-2.8-6.2c0,0,0,0.6,0.6,0.6
				C1271.6,1664.8,1271.6,1664.8,1272.2,1665.4z"/>
		</g>
		<g>
			<path fill="#FFFFFF" d="M1475.2,1387.4c-1.1-0.6-1.7-0.6-2.8-1.1"/>
		</g>
		<g>
			<path fill="#FFFFFF" d="M1428.4,1375.6h-0.6"/>
		</g>
	</g>
	<g>
		<path fill="#FFFFFF" d="M1408.1,3222.9c-221.6,0-401.5-180.5-401.5-401.5c0-221.1,180.5-401.5,401.5-401.5
			c221.6,0,401.5,180.5,401.5,401.5C1809.6,3042.5,1629.7,3222.9,1408.1,3222.9z M1408.1,2645.5c-97,0-175.9,78.9-175.9,175.9
			s78.9,175.9,175.9,175.9s175.9-78.9,175.9-175.9S1505.6,2645.5,1408.1,2645.5z"/>
	</g>
	<g>
		<path fill="#FFFFFF" d="M539.7,3222.9c-221.6,0-401.5-180.5-401.5-401.5c0-221.1,180.5-401.5,401.5-401.5
			c221.6,0,401.5,180.5,401.5,401.5C941.2,3042.5,761.3,3222.9,539.7,3222.9z M539.7,2645.5c-97,0-175.9,78.9-175.9,175.9
			s78.9,175.9,175.9,175.9s175.9-78.9,175.9-175.9S637.2,2645.5,539.7,2645.5z"/>
	</g>
	<g>
		<path fill="#FFFFFF" d="M1921.8,3331.8c25.4-38.9,17.5-70.5-17.5-70.5s-91.4,0.6-126.3,0s-42.3,31-17.5,70.5l34.4,53.6
			c25.4,38.9,45.7,71.1,46.2,71.1s20.9-32.1,46.2-71.1L1921.8,3331.8z"/>
	</g>
	<g>
		<g>
			<path fill="#FFFFFF" d="M941.7,3110.7c0-168.6,0-336.7,0-505.3c0-24.2,0-47.9,0-72.2c0-59.2-51.9-115.6-112.8-112.8
				c-60.9,2.8-112.8,49.6-112.8,112.8c0,168.6,0,336.7,0,505.3c0,24.2,0,47.9,0,72.2c0,59.2,51.9,115.6,112.8,112.8
				S941.7,3173.9,941.7,3110.7L941.7,3110.7z"/>
		</g>
	</g>
	<g>
		<circle fill="#FFFFFF" cx="1697.4" cy="1552.6" r="112.8"/>
	</g>
	<g>
		<g>
			<path fill="#FFFFFF" d="M1813.5,3502.6c0.6,5.6,0.6,10.7,0.6,16.4c0,130.3-106,236.3-236.3,236.3s-236.3-106-236.3-236.3
				c0-64.8,26.5-124.1,69.4-166.9c-18-8.5-36.7-15.8-55.8-22.6c-43.4,51.3-69.9,117.3-69.9,189.5c0,161.3,131.4,292.7,292.7,292.7
				s292.7-131.4,292.7-292.7c0-5.6,0-11.8-0.6-17.5C1851.3,3501.5,1832.7,3502.1,1813.5,3502.6z"/>
		</g>
	</g>
	<g>
		<line fill="#FFFFFF" x1="952.4" y1="3621.1" x2="1312.2" y2="3543.8"/>
		
			<rect x="1112.8" y="3398.4" transform="matrix(0.2101 0.9777 -0.9777 0.2101 4396.8789 1722.3265)" fill="#FFFFFF" width="39.5" height="367.7"/>
	</g>
	<g>
		<line fill="#FFFFFF" x1="783.8" y1="3447.9" x2="1312.2" y2="3482.3"/>
		
			<rect x="783.3" y="3445.1" transform="matrix(0.9979 6.538010e-002 -6.538010e-002 0.9979 228.7722 -61.1093)" fill="#FFFFFF" width="529.5" height="39.5"/>
	</g>
	<g>
		<line fill="#FFFFFF" x1="858.8" y1="3290.6" x2="1312.2" y2="3429.3"/>
		
			<rect x="848.4" y="3340.1" transform="matrix(0.9563 0.2924 -0.2924 0.9563 1029.8666 -170.5561)" fill="#FFFFFF" width="474.2" height="39.5"/>
	</g>
	<g>
		<g>
			<path fill="#FFFFFF" d="M1869.9,3502.6c-0.6,5.6-0.6,10.7-0.6,16.4c0,130.3,106,236.3,236.3,236.3s236.3-106,236.3-236.3
				c0-64.8-26.5-124.1-69.4-166.9c18-8.5,36.7-15.8,55.8-22.6c43.4,51.3,69.9,117.3,69.9,189.5c0,161.3-131.4,292.7-292.7,292.7
				s-292.7-131.4-292.7-292.7c0-5.6,0-11.8,0.6-17.5C1832.1,3501.5,1851.3,3502.1,1869.9,3502.6z"/>
		</g>
	</g>
	<g>
		<path fill="#FFFFFF" d="M1982.7,3757c-38.3,27.6-85.7,43.4-136.5,43.4c-51.3,0-99.2-16.4-137.6-44.5
			c-16.4,9.6-31.6,22.6-45.7,36.1c50.2,40.6,113.9,64.8,183.3,64.8c65.4,0,126.3-22,174.8-58.1
			C2008.1,3785.2,1994.5,3771.6,1982.7,3757z"/>
	</g>
	<g>
		<line fill="#FFFFFF" x1="2731" y1="3621.1" x2="2371.8" y2="3543.8"/>
		
			<rect x="2367.3" y="3562.3" transform="matrix(0.9777 0.2101 -0.2101 0.9777 809.5137 -456.046)" fill="#FFFFFF" width="367.7" height="39.5"/>
	</g>
	<g>
		<line fill="#FFFFFF" x1="2899.6" y1="3447.9" x2="2371.8" y2="3482.3"/>
		
			<rect x="2615.8" y="3200.3" transform="matrix(6.542080e-002 0.9979 -0.9979 6.542080e-002 5920.7627 608.431)" fill="#FFFFFF" width="39.5" height="529.5"/>
	</g>
	<g>
		<line fill="#FFFFFF" x1="2825.2" y1="3290.6" x2="2371.8" y2="3429.3"/>
		
			<rect x="2578.5" y="3123.2" transform="matrix(0.2924 0.9563 -0.9563 0.2924 5051.981 -106.9396)" fill="#FFFFFF" width="39.5" height="474.2"/>
	</g>
</g>
</svg>
