<?xml version="1.0" encoding="utf-8"?>
<!-- Generator: Adobe Illustrator 21.1.0, SVG Export Plug-In . SVG Version: 6.00 Build 0)  -->
<svg version="1.1" id="Слой_1" xmlns="http://www.w3.org/2000/svg" xmlns:xlink="http://www.w3.org/1999/xlink" x="0px" y="0px"
	 viewBox="0 0 1203 1635" style="enable-background:new 0 0 1203 1635;" xml:space="preserve">
<style type="text/css">
	.st0{fill:#828282;}
</style>
<path class="st0" d="M1132.9,683.3c0,8.9,0.2,17.5,0,26.2c-0.6,25.7-1,51.3-2,77c-1.2,31.5-11.4,59.5-34.6,81.5
	c-14.7,14-29.9,27.6-45.3,40.7c-16,13.6-35.2,20.5-55.8,23.6c-25.7,3.9-51.4,8.1-77.5,6.4c-18.4-1.2-36.8-3.6-55.2-5.2
	c-7.3-0.7-14.6-1.1-22-1.2c-2.1,0-5.5,0.9-5.9,2.2c-0.7,2.2-0.3,6,1.2,7.3c3.6,3.3,7.8,6.7,12.3,7.9c11.4,3.1,23,5.6,34.6,7.2
	c18.3,2.5,36.8,3.9,55.1,6c7.9,0.9,9.1,2.8,5.3,9.6c-24.6,43.4-53.5,83-99.5,106.4c-26.8,13.6-55.5,21.6-85.1,25.8
	c-19.2,2.7-36-2.8-49.5-17.1c-9.6-10.2-18.8-20.7-28.3-31c-7.8-8.6-8.4-8.6-18.2-2.3c-3.1,2-6.2,4-8.9,6.4
	c-15.4,13.6-33.9,18-53.7,17.9c-15.8-0.1-31.1-3.1-45.6-9.8c-3.6-1.7-7-3.8-10.4-6c-7.7-5-12-11.8-11.1-21.3
	c2-22.7,3.8-45.4,5.7-68.1c2.4-28.4,10.6-56,11.4-84.5c0.6-20,1.4-40,1.6-60c0.6-51.3,1.5-102.6,1.4-154
	c-0.1-38-9.1-74.3-26.2-108.2c-6.1-12.1-13.6-24-22.8-33.8c-36.4-38.4-76.2-73.1-120.5-102.3c-31.5-20.8-66.5-28.1-103.8-25.5
	c-4.1,0.3-8.3,1.5-12,3.1c-5.4,2.4-6.3,7.7-2,11.8c2.9,2.8,6.6,5.3,10.3,6.7c8.1,3,16.3,6.2,24.7,7.7c30,5.3,55.4,19.4,78.1,39
	c21.8,18.9,43.6,37.7,64.9,57.2c6,5.5,11.2,12.4,15.3,19.6c9.8,17.4,18.8,35.2,28,53c0.9,1.8,1.3,4.1,1.3,6.2
	c-0.7,41.3-0.4,82.7-2.6,123.9c-1.4,25.3-6.4,50.5-10.2,75.7c-1.9,12.8-5.2,25.4-7.3,38.3c-3.4,21.4-16,36.1-33.8,47
	c-4.3,2.6-8.6,5.1-12.9,7.7c-18.9,11.4-27.9,27.9-26.6,50c1.4,23.3,10.7,42,30.6,54.9c2.1,1.3,4.4,2.5,6.8,3c6.2,1.3,10-1.5,9.7-7.8
	c-0.8-18.9,5.7-35.2,16.5-50.3c3.2-4.5,5.7-9.5,9.2-13.6c1.8-2.2,5.2-4.4,7.7-4.2c2,0.2,5,3.9,5.3,6.2c1.1,9.5,2.2,19.2,1.7,28.8
	c-0.8,13.9-2.8,27.8-4.5,41.7c-0.6,5,0.8,9.2,4.2,12.8c3.6,3.7,6.9,7.7,10.8,11.1c12.9,11.3,8.9,23.5,1,32.3
	c-19.6,21.9-43,30.3-71.9,21c-36.1-11.6-71-25.9-103.5-45.6c-29.4-17.8-50.3-43.7-67.7-72.9c-2.7-4.6-5.3-9.2-7.5-14.1
	c-2.3-5.1-0.9-7.7,4.6-8.3c6.4-0.7,13-1.1,19.4-0.9c35.1,1.2,68.7-7.2,102.4-15.5c3.9-1,7.9-2.9,11.1-5.3c1.8-1.4,2-4.8,2.9-7.3
	c-2-0.7-4.1-2.3-6.1-2.1c-21.1,1.4-42.2,2.7-63.3,4.7c-33.7,3.1-67.5,5-101.3,2.4c-15.3-1.2-28-9.1-40.6-17
	c-23.1-14.7-39.1-35.9-53.5-58.6c-20-31.5-34.5-65.6-45.7-101.1c-0.6-1.9-0.7-3.9-0.6-5.9c0.8-55,1.2-110,2.5-165
	c1.5-64.2,5.8-128.2,15.9-191.6c7.3-45.7,15.4-91.3,29.9-135.4c8.6-26.1,20-50.8,38.3-71.8c19-21.8,43.2-36.4,69.1-48.3
	c39.8-18.2,81.8-29,124.5-37.2c59-11.4,118.6-17.4,178.5-21.3c43.1-2.8,86.2-5.2,129.4-2.6c37.5,2.3,75.1,5.6,112.5,9.8
	c44.9,5.1,89.1,13.8,132.9,25c27.8,7.1,54.8,16.2,81.1,27.9c51.5,22.9,85.1,61.1,102,114.9c12.4,39.7,21,80.1,26.9,121.2
	c7.9,56.2,11,112.7,13.1,169.3c1.5,39.6,2.7,79.3,3.7,118.9c0.4,14.1-1,15.2-14.3,11.4c-11.3-3.3-22.2-8-33.4-11.7
	c-9.6-3.2-19.3-6.3-29.1-8.8c-8-2-14.4-5.7-19.2-12.4c-24.7-34.8-60.5-50.8-100.9-57.5c-32.8-5.4-65.8-4.2-98.1,4.8
	c-7.3,2-14.5,5-21.1,8.8c-20.3,11.4-40.4,23.3-60.4,35.2c-9.3,5.6-16.2,13.7-22.2,22.7c-2.9,4.3-3.3,8.1,0.9,11.9
	c5.1,4.7,9.8,10,15,14.6c8.7,7.8,19,11.3,30.7,10.9c25.3-0.8,50.6-1.8,75.9-2.4c43.1-1,86.3-1.8,129.4-2.8c17.5-0.4,34.8-1.4,52-5.4
	c9.8-2.3,20.8-0.8,31.2,0.5C1090.5,676.6,1111.5,680.1,1132.9,683.3z M474.3,649.1c-0.9-1.9-1.9-6-4.4-8.8
	c-4.8-5.2-9.9-10.6-15.9-14.2c-20.2-12-40.4-23.8-61.4-34.3c-12.1-6-25.2-10.6-38.4-13.6c-26.2-5.9-52.9-5.5-79.5-2.1
	c-42.7,5.4-79.3,21.9-105.3,57.8c-3.9,5.3-9.1,8.6-15.6,10.1c-6.6,1.6-13.2,3.5-19.8,5.3c-3.6,1-5.4,3-4,7c2,6,4.4,11.9,5.6,18.1
	c0.9,4.5,0.7,9.4,0.1,14c-0.5,3.5-2.6,6.8-3.7,10.3c-1.7,5.2-3.4,10.5-4.5,15.8c-0.4,1.8,0.8,4,1.3,6.1c2-0.5,4-0.8,5.8-1.6
	c3.4-1.6,6.5-4.2,10-5.3c24.7-8,50-14.5,76-16.3c45.5-3.1,91.2-4.8,136.7-7.5c24.8-1.5,49.5-3.7,74.2-6c13.9-1.3,26.1-6.6,35.6-17.2
	C470.9,662.3,473.9,657.4,474.3,649.1z M1064.3,456.2c0.6-0.4,1.1-0.8,1.7-1.3c-2.3-4.7-4.2-9.6-6.8-14.1
	C1022.5,377,947.8,329,853.7,345.4c-37.8,6.6-72.3,21.1-104.8,41c-24.1,14.8-44.3,33.9-63,55c-14.4,16.2-11.5,43.2-4,55.4
	c6.8,10.9,16.4,13.9,27.7,7.9c6-3.2,11.7-7.1,17.1-11.2c13.4-10.2,26.4-20.8,39.7-31.2c22.8-17.7,46.3-34.3,72.2-47.2
	c36.2-18,74.7-23.2,114.6-20.8c25.3,1.5,48.1,10.3,68,25.9c9.8,7.7,19.1,16.1,28.6,24.2C1054.6,448.4,1059.5,452.3,1064.3,456.2z
	 M142,457.3c0.6,0.3,1.2,0.6,1.8,0.8c1.4-1.1,2.9-2.2,4.2-3.4c9.6-9,19.1-18.1,28.8-27c12.5-11.4,25.9-21.7,42.4-26.7
	c33.5-10.2,67.6-10.6,101.2-2.2c48,12,91.3,33.7,127.5,68.4c12.2,11.7,25.1,23,38.7,33.2c19.8,14.8,39.4,6.8,44.7-17.2
	c0.3-1.5,0.6-2.9,0.7-4.4c1.9-15.8-3.8-29.6-14-40.8c-11.3-12.5-23.3-24.9-36.6-35.3c-51.8-40.7-111.4-57.9-177.1-56
	c-47.2,1.4-88,17.9-122.3,50.1c-15.7,14.7-28.3,31.8-37.4,51.4C143.3,451.1,142.9,454.3,142,457.3z M681.9,585.8
	c-0.5,0.2-1,0.3-1.5,0.5c1.6,3.9,2.1,9,4.9,11.3c3.6,3,12-0.3,16.1-4.9c0.6-0.6,1.1-1.3,1.6-1.9c1.1-1.3,2.2-2.5,3.3-3.7
	c43.4-45.3,90.1-87,139.2-126c11.5-9.2,24.5-15.2,38.6-19.2c13-3.7,25.9-7.6,38.6-12c5.4-1.9,10.8-4.6,15.3-8.1
	c2.5-1.9,4.7-6.3,4.3-9.1c-0.4-2.5-4.3-5.4-7.3-6.3c-5-1.5-10.5-2.1-15.7-2.2c-32.4-1.1-62.2,7.6-90,23.8
	c-32.5,18.9-60.8,43.1-88.2,68.5c-19.3,18-37,37.4-51,59.9C684.5,565.6,681.7,575.2,681.9,585.8z M761.1,985.2
	c8.7-6,11.8-13.3,11.1-22.2c-2.5-32.4-27.4-56.4-54.8-67.8c-5.4-2.3-11,1.8-13.2,8.3c-2.2,6.3-0.4,11.2,5.3,13.6
	c4.3,1.8,8.7,3.3,13.1,4.6c9.8,2.8,17.6,8,21.7,17.6c4.5,10.3,8.6,20.8,12.6,31.4C758.7,975.1,759.6,979.8,761.1,985.2z"/>
<path class="st0" d="M183.5,945.6c1.8,2,4,3.8,5.4,6.1c7.8,13.3,15.7,26.7,23.1,40.3c8.3,15.2,16.5,30.5,24.1,46
	c17.5,35.6,44.2,62.6,77.4,83.6c47.3,29.8,98.5,49.9,153.2,60.7c13.6,2.7,27.8,2.6,41.8,3.4c6.9,0.4,12.9,2.2,19.2,5.4
	c8.1,4.1,17.6,6.1,26.7,7.4c29.1,4,58.3,6.9,87.7,5.4c14.4-0.7,28.6-4.6,42.9-6.7c20.3-2.9,40.7-4.7,60.9-8.2
	c60.7-10.5,116.1-32.8,162.2-75c14.4-13.2,25.4-29,35.2-45.8c17.5-29.9,35.1-59.7,52.9-89.4c3.6-6,8-11.5,12.2-17
	c1.5-2,3.7-3.5,5.6-5.3c0.5,0.2,1,0.4,1.5,0.5c0.2,2.3,0.7,4.7,0.7,7c-0.6,33-10.6,63.1-28.8,90.6c-16.9,25.5-37,48.4-57,71.5
	c-12.5,14.5-25.2,28.9-37.7,43.4c-1.2,1.4-2.2,3.1-2.9,5.1c11.7-3.5,18.6-14,29.3-19.3c3.1,4,2.5,8.1,1.4,12c-0.8,3-2.1,6-3.7,8.7
	c-21.5,36.4-43,72.8-64.6,109.2c-12.1,20.5-24.4,40.8-36.5,61.4c-2.2,3.7-3.5,7.9-4.7,12c-0.4,1.5,0.3,4.7,1.2,4.9
	c1.7,0.5,4.4,0.1,5.6-1.1c3-2.8,5.7-6.1,8-9.5c16.5-23.8,33.1-47.6,49.3-71.6c38.4-56.7,77.1-113.1,112.4-171.8
	c33.8-56.2,60.1-115.7,81.7-177.4c2.9-8.4,7.6-16.2,11.7-24.1c1.3-2.5,3.2-4.7,5.3-6.5c1.5-1.3,3.7-1.6,5.7-2.4
	c0.6,1.8,2,3.7,1.8,5.3c-1.6,12.7-3,25.5-5.4,38c-14.9,76.9-46.2,147.5-85.8,214.5c-63.2,107-130.2,211.6-201.8,313.2
	c-21.8,30.9-46.2,59.4-76.3,82.8c-22.5,17.5-47.5,29.3-75.2,35.4c-7.2,1.6-10.7-0.4-10.2-7.8c0.8-12.1,2-24.2,4.5-36
	c4.4-20.8,10.3-41.3,14.6-62.2c4.3-20.9,4.1-42.2,1.6-63.2c-1.2-9.9-5.7-19.4-9.3-28.8c-5.9-15.5-8.4-31.2-4.6-47.5
	c2.5-11,9.1-19.9,15.3-28.9c5.2-7.5,10.6-15,15.8-22.5c1-1.5,1.7-3.2,3.2-5.9c-2.9,0-5-0.3-6.9,0.1c-5.7,1.2-10.2-0.5-14.9-3.8
	c-3.5-2.5-8-4.6-12.1-4.8c-17.1-0.8-34.3-0.9-51.5-1c-32.9-0.2-65.7-0.8-97.8-9.2c-32.9-8.5-65.5-18.2-94.7-36.4
	c-19-11.9-35.7-26.7-51.9-42.1c-34.2-32.5-68.5-64.9-99.3-100.7c-31.9-37.1-55.8-78.6-67.6-126.5c-1.2-4.7-1.5-9.7-2.2-14.5
	C182.1,946.3,182.8,945.9,183.5,945.6z"/>
<path class="st0" d="M548.3,1584.6c-5.7-0.7-11.5-0.9-17-2.2c-27.5-6.1-48.4-22.7-67.4-42.4c-16.7-17.4-30.2-37.2-43.9-56.9
	c-16.8-24.4-32.6-49.7-51.2-72.7c-22.7-28.1-42.6-58-61.5-88.5c-49.2-79.2-97.5-159-139.8-242.2C136.8,1019.2,110,957.1,90.7,892
	c-1.6-5.2-2.7-10.7-3.3-16.1c-0.2-2.2,1-5.8,2.6-6.7c1.7-1,5.5-0.3,7.1,1.1c4,3.4,8.1,7.2,10.7,11.7c7.7,13.6,16.2,27,21.6,41.5
	c20.5,54.7,50.5,104.1,82.1,152.7c35,53.9,69.8,107.9,100.9,164.3c21.6,39.2,41.7,79.2,59.6,120.3c3.5,8,8.7,15.3,13.6,22.6
	c1.4,2.1,4.8,2.8,7.3,4.1c1.2-2.6,3.7-5.4,3.4-7.7c-1.2-8.9-2.8-17.7-5.1-26.3c-3.6-13.2-8.5-25.9-7.7-40c0.5-8.1,0.7-16.3,0.7-24.5
	c0-11.8-0.2-23.7-0.5-35.5c-0.2-7.8,2.1-10.6,9.7-8.5c13.3,3.7,26.5,7.8,39.3,12.9c23.5,9.3,47.2,18,71.6,24.9
	c28.9,8.1,44.2,28.9,45.6,59.2c0.5,11.8-1.4,22.8-6.5,33.4c-3.5,7.2-6.2,14.8-9.8,21.9c-10.3,20.3-11.3,41.7-7,63.4
	c5.8,29.4,12.7,58.5,18.6,87.9c2.3,11.4,3.1,23,4.6,34.5C549.4,1583.5,548.8,1584.1,548.3,1584.6z"/>
<path class="st0" d="M657.5,1184.8c-41.1,1-82.1-0.7-124.3-4.8c2.2-3.9,3.2-6.7,5-9c13.8-17.3,27.4-34.8,41.7-51.7
	c8.8-10.4,13.2-10.6,22.4-1.1c16.9,17.4,33.3,35.4,49.6,53.4c2.8,3.1,4.4,7.2,6.6,10.9C658.2,1183.2,657.9,1184,657.5,1184.8z"/>
</svg>
