<svg id="Слой_1" data-name="Слой 1" xmlns="http://www.w3.org/2000/svg" viewBox="0 0 738.13 239.71"><defs><style>.cls-1{opacity:0.24;}.cls-2{fill:#fff;}.cls-3{opacity:0.04;}.cls-4{opacity:0.11;}.cls-5{opacity:0.45;}.cls-6{opacity:0.35;}</style></defs><title>Безымянный-3</title><g class="cls-1"><path class="cls-2" d="M695.26,241l.88-.53-.11-.45-2.44.24c-.92-1.17-2.63-.54-4.17-.74-.87-.11-2.16.26-2.63-1.18-.06-.18-1-1.52-1.89-.37-.11.13-.7-.12-1.06-.19,0-.23.1-.45.2-.85l-2.76.61c-.42-.89-1-2-1.73-3.61a4.2,4.2,0,0,0-1.08-1.34c-1.91-1.19-3.47-3.12-6-3.05a1.55,1.55,0,0,1-1.11-.42c-2.09-2.33-5-1.73-7.55-2-1.7-.14-3-.52-3.94-1.87a6.39,6.39,0,0,1-.41-2.08,9.33,9.33,0,0,0-1.25.88,5.32,5.32,0,0,1-1.61,1.37c-.26.79-.53,1.57-.79,2.36l-.65.1a39.51,39.51,0,0,0,3.51,4.19c1.21,1.11,2.43,2.35,3.54,3.44s2.84,1.7,3.59,3.19a11.28,11.28,0,0,1,.59,2l1.79-.68.25.63a17.25,17.25,0,0,1-2.36.36q-14.7,0-29.39,0-19.14,0-38.27,0c-.81,0-1.62,0-2.43-.05-1.1,0-1.85-.4-2-1.67,0-.44-.47-.85-.73-1.28l-.46.22c0,.55-.09,1.11-.13,1.67l.24-.16a45.88,45.88,0,0,1-2.3-4.6,14.47,14.47,0,0,1-.66-3.78,12.87,12.87,0,0,1,.23-2.43l.84.68,1.92-3.11-.32-.21-1,.9v-2c2,.28,1.17-1.3,1.46-2.19a4.8,4.8,0,0,1,.39-.9c.86-1.52,2.52-1.6,3.95-2l-2.11-.71,3.44-8.08-.35-.23,1.57-.53c-.09-.77-.18-1.48-.3-2.5l2,.77c-.14-.72-.3-1.5-.48-2.36l1-.21a3,3,0,0,1-.27-1A5.33,5.33,0,0,1,606.2,201c3.26-.39,6.51-.87,9.78-1.14a3.29,3.29,0,0,1,2.36.86c1,1,2,1.22,2.91.43,1.75-1.57,3.91-1.5,5.89-1.57,4.21-.15,8.06-1.61,12.07-2.51,1.47-.33,3.12.15,4.69.28.28,0,.58.34.8.27,2-.56,2.27,2,3.85,2.28.35.07.55.93.82,1.43a10,10,0,0,0,1.79-1.76c1-1.64,1.79-3.38,2.77-5.29-5.79-1.73-10.45-4.59-15-7.68a9.59,9.59,0,0,0-4.62-1.11,9.37,9.37,0,0,1-8.42-6.53c-1-2.94-2.49-5.73-3.23-8.71-1-4.17-1.6-8.46-2.3-12.71a43.58,43.58,0,0,1-.66-5.67c-.17-5.86,2-10.92,5.49-15.5.59-.77,1.29-1.46,1.82-2.26a6.41,6.41,0,0,0,.37-1.88c-3,.57-5.64.91-8.22,1.61a67.53,67.53,0,0,0-8.29,2.84A27,27,0,0,0,598,148.11c-5,8.38-5.44,17.71-5.25,27.11a78.23,78.23,0,0,0,1,10.1,15.64,15.64,0,0,1-1.19,8c-.8,2.15-1.28,4.41-1.91,6.61l.53.25,1.06-.89.44.31-7.82,12-.35-.12.12-1.51-.29-.25c-.41.44-1.06.84-1.16,1.34-.07.33.66.82,1.6,1.45l-10.7,11.35c-.71-2.73,1-3.7,2-5,.6-.76,1.34-1.41,2.24-2.34l-2.79.88c-1.12.33-2.51-.46-3.43.84-.08.12-.63-.1-1-.13a3.46,3.46,0,0,0-1.45-.09c-1.29.51-3.65-.05-4.23-1.27-.15-.3.25-1,.55-1.35,1.28-1.62,2.68-3.13,3.88-4.79.35-.5.2-1.39.22-2.1a17.33,17.33,0,0,1,1.34-6.25c1.28-3.06,2.69-6.34,2-9.89a6.74,6.74,0,0,0-.87-2c-1.83-3.27-.85-6.47,1-9a46.69,46.69,0,0,0,6-11.4l7.62-20.23c1.34-3.57,2.61-7.15,4-10.68,1.22-3,2.79-5.92,3.86-9,1.25-3.59,2.08-7.32,3.18-11a41.36,41.36,0,0,1,1.75-4.52c1.43-3.27.6-6-2.23-8.18-1-.74-1.52-2-2.28-3.07-.21-.27-.46-.61-.75-.69s-.57.22-.76.44c-.67.81-1.3,1.65-1.94,2.47l-.62-.09a14.88,14.88,0,0,1-.51-2.27c-.13-1.8-.16-3.61-.24-5.41-.07-1.53-.87-1.42-1.85-.79a3.13,3.13,0,0,0-.76.69,25.83,25.83,0,0,1-2.36,3.17,24.25,24.25,0,0,1-3.23,2.32,1.72,1.72,0,0,1-.48-2.77c2.47-3.12,5-6.2,7.45-9.32a5.78,5.78,0,0,0,.52-1.13l-1.47.29c.28-2.82,3.76-4.65,2.17-7.82,2.07-.41,2.31-1,1.23-3-1.41.73-2.85,1.42-4.22,2.24-.27.17-.28.84-.33,1.28a4.07,4.07,0,0,1-3,3.75c-.36.12-1,.35-1,.58-.22,2.07-1.88,1.62-2.89,1.36-.8-.21-1.54-1.24-2-2.08-.88-1.68-.28-3.41.38-5,.19-.45.94-.77,1.5-1q4.1-1.31,8.24-2.48c1-.27,2-.23,3-.55a4.55,4.55,0,0,0,1.83-1.28,4,4,0,0,0,.11-5c-1.59-1.86-1.09-3.92-.63-5.92.26-1.13,3.48-1.6,4.38-.72.56.55,1,1.2,1.53,1.79s1,1.09,1.68,1.82c1.61-2.41,3.76-2.15,6-.8,1.06-2.69-2.81-13.23-5.42-14.79-.24.43-.49.85-.71,1.28a2.51,2.51,0,0,1-4.12.85,2.3,2.3,0,0,1-.41-2.1,3.43,3.43,0,0,0-.13-3.22,44.21,44.21,0,0,1-2.1-6.91,5.21,5.21,0,0,0,5.32.32c1.39-.66,2.09.3,2.54,1.31s.39,2.07.81,3a8.27,8.27,0,0,0,1.79,2.49,1.61,1.61,0,0,0,1.55,0,1.9,1.9,0,0,0,.74-1.52c-.28-1.76-.88-3.47-1.14-5.23-.53-3.65-1-7.31-1.35-11-.27-2.92-.78-5.66-2.87-7.95a6.93,6.93,0,0,1-1-2.83,5.78,5.78,0,0,1,0-1.38c0-3.13-.57-3.53-3.17-2.45-.74-1.49.51-4.05,2.31-4.58s3.35-.89,5-1.27c1.52-.35,3,.62,2.59,1.83-.22.71-1.24,1.15-1.88,1.69,1.61.56,3.53,1.18,5.41,1.89,3.07,1.15,3.93,3.52,3,6.65-1.19,3.91-2,7.92-3,11.88a1.63,1.63,0,0,0,1.55,2.28c.17,0,.38,0,.51.09,2.07,1.49,4,1.13,6.28.17,1.54-.64,3.63,0,5.48.15,4.09.23,8.2.33,12.26.75a15.62,15.62,0,0,1,5,1.71c.56.28.85,1.42,1,2.2.23,1.64.25,3.3,2.33,3.77.25.05.47.33.67.54.87.87,1.54,2.44,3.08.74.17-.19.73,0,1.05,0,.14-1,.28-1.85.48-3.19,1.55,1.58,2.75,2.75,3.88,4a3.14,3.14,0,0,1,.52,1.24c.39,1.35.72,2.72,1.13,4.07s.83,2.47,1.29,3.69a11.48,11.48,0,0,0,.77,1.42l.55-.08c.11-1.57.31-3.13.3-4.69,0-2.53-.06-5.06-.32-7.57-.32-3-.9-6-1.35-9-.12-.8-.16-1.6-.31-2.39s-.43-1.66-.75-2.85l-1.29,2.17A14.63,14.63,0,0,1,653.1,33c-.84-1.3-1.62-2.65-2.43-4-.09-.15-.27-.27-.29-.42-.4-2.76-2.2-4.78-3.81-6.89l.31-.55,3.65,1.43c.06-.78.1-1.38.17-2.28,1.62.55,3.21,1,4.72,1.62,5.58,2.33,11.45,4.2,16.61,7.24a173,173,0,0,1,18.65,13.13c7.73,6.07,12.77,14.41,17.54,22.8a201.51,201.51,0,0,1,9.17,18.22,56.85,56.85,0,0,1,4.1,13,44.57,44.57,0,0,0,2,7.18c1.36,3.9.63,7.83-.88,11.8-1.12,2.93-2.85,6-1.89,9.45a3.59,3.59,0,0,1-.36,2.15,2.32,2.32,0,0,0,.54,2.79,23.31,23.31,0,0,1,1.76,3.05c1.85,3,3.57,6.07,5.62,8.91,2.78,3.83,5.93,7.39,8.72,11.21,4.1,5.61,3.18,11.52-2.39,15.62-1.65,1.21-3.63,1.95-5.35,3.08a2.82,2.82,0,0,0-1.07,1.94,40.29,40.29,0,0,0-.06,6.77,6.28,6.28,0,0,0,1.52,3.19c2.53,3,2.2,9-.87,11.33-.93.7-2.22.91-3.18,1.59-1.64,1.15-1.66,2.17-.55,3.75,2.73,3.87,3.11,6.31.68,10.21a5.22,5.22,0,0,0-.72,2.29c-.43,5-.55,10,.87,14.94A14.28,14.28,0,0,1,724,240.1a2.54,2.54,0,0,1-1.74,1c-8.06,0-16.12,0-24.18-.05Zm-58.49-77c-.32,1.58,1.6,3.25,3.52,4s4.1,1.44,6.17,2.1c1.4.45,3.35-.12,3.83-1.14.78-1.65-.21-2.5-1.46-3.36a4,4,0,0,1-1.57-1.94c-.64-2.35-1.06-4.75-1.55-7.14-.32-1.57-1-2-2.38-1s-2.15,2.17-3.45,2.79C637.35,159.52,637.21,161.81,636.77,164ZM609.28,61.78a7.11,7.11,0,0,0,.15-1.27c-.46-2.47-.86-5-1.48-7.39-.1-.42-1.12-.6-1.72-.89-.25.54-.82,1.15-.71,1.61a26.06,26.06,0,0,0,1.53,4.75A21.51,21.51,0,0,0,609.28,61.78Zm0,28.76c-.91.11-2.28-.05-3.26.49-.75.42-1.12,1.69-1.43,2.65-.11.34.46.89.72,1.35.67-.46,1.38-.87,2-1.38a3.42,3.42,0,0,0,.63-1ZM597.67,43.72c-.07,1.15-.2,2.17-.16,3.18,0,.42.34,1.16.61,1.19.72.11,1.77.2,2.19-.21.77-.74.22-2.43-.73-3Zm52.76,5.91-.59.19c.27.86.29,2,.88,2.52a1.65,1.65,0,0,0,2.67-.68Zm-10,89.59c.4-2-.77-2.42-2-2.47-.42,0-.87.65-1.56,1.22Z" transform="translate(-1.42 -1.41)"/><path class="cls-2" d="M533.22,112.92c-1.86,5.59-1.06,11.16-1.06,16.67,0,3.62.13,7.24.05,10.85,0,1.62-.47,3.22-.65,4.83a8.94,8.94,0,0,0,.28,1.48,8.61,8.61,0,0,1,0,2.48c-.21,1-.87,1.93.65,2.4a.78.78,0,0,1,.41.52c.64,3.64,2.66,7,2,10.91a18.06,18.06,0,0,1-.51,2.88,2.13,2.13,0,0,1-2.68,1.6,3.42,3.42,0,0,0-1.47.18c-2.68.67-5.36,1.37-7.72,2a32.27,32.27,0,0,0-1.67-3.76c-.57-.91-1.46-.91-2.41-.3-2.82,1.81-3.76,1.52-5.39-1.4-.88-1.59-2-3.08-2.73-4.71a1.56,1.56,0,0,0-1.79-1.09c-1,0-2.49-2.81-1.8-3.45.42-.38,1.49-.07,2-.07.62-.72,1.2-1.42,1.88-2.22l1.63,2.7.48-.15a23.21,23.21,0,0,1,.22-2.5c.13-.68.26-1.58.73-1.92s1.33,0,1.9.28c1.56.8,2.21.59,2-1.12a39.86,39.86,0,0,0-1.31-6.19c-.23-.86-1-1.3-1.61-.26-1,1.74-2,3.37-4.19,3.81-4.06-3.6-4.76-14.61-.8-18.21l2.26,3c.73-.58,1.42-1.09,2.07-1.64a3,3,0,0,0-.48-4.32c-.46-.26-1-.8-1.07-1.26a44.51,44.51,0,0,1-.2-6,15.69,15.69,0,0,1,1-3.37c.61,3.54,1.17,6.82,1.76,10.23,1.1-.21,1.77.5,2.32,1.75a10.57,10.57,0,0,0,2.14,2.34c.19-.47.34-.65.3-.75-1.11-2.4-.43-5-.8-7.44s-1.11-5.06-1.66-7.59a1.87,1.87,0,0,0-2.26-1.75c-.83,0-1.7-1-2.55-1.57l.23-.41-3.35-.17c-.23-.89-.49-1.94-.76-3l-.59.22-.17-.23a4.33,4.33,0,0,1,.95-.72c1.34-.52,2.88-.74,4-1.54a4.22,4.22,0,0,0,1.22-2.79c.32-2.78.41-5.58,1-8.48a11.39,11.39,0,0,0,.47,1.85c.33.79.78,1.52,1.19,2.28.77-.78,2.09-1.48,2.22-2.36a74.24,74.24,0,0,0,.54-8.18,16,16,0,0,0-.1-1.63h-2c-.1-1.18-.18-2.25-.28-3.52-1,0-1.92,0-2.88,0-3.06.15-6.11.43-9.16.43-.78,0-1.56-.83-2.54-1.4l-5.41,4.48a36.14,36.14,0,0,0-4-1.33,2,2,0,0,0-1.74.66c-2.09,3.37-4.41,6.65-6,10.26-3.63,8.35-4.05,16.89-.16,25.34,1,2.28,2.3,4.46,3.46,6.68l.45-.15V114.31l-1.49,1.19a18.68,18.68,0,0,1-.87-2c-.29-1,0-1.69,1.14-1.58,1.69.17,1.81-.85,1.93-2.14.31-3.5.68-7,1.14-10.48a23.05,23.05,0,0,1,1.07-3.53,2.26,2.26,0,0,1,1.69,2.8c-.33,1.76-.62,3.53-1.09,5.25a32.41,32.41,0,0,0-.56,10.8,31.77,31.77,0,0,1,0,4.78c-.29,3.52-.69,7-1.07,10.87l-1.78-1.43c-1.35,1.51-2.6,1.35-3.86-.52a42.1,42.1,0,0,1-6.9-18.85,27.4,27.4,0,0,1,1.19-9.71,41.35,41.35,0,0,1,7.26-14.86c.67-.86,1.59-1.55,2.19-2.45a12.34,12.34,0,0,0,1.7-3.43c.56-2,1.83-1.72,3.33-1.1.54-2.8,2.73-3.05,4.77-3.22a2,2,0,0,0,2-1.45,5.19,5.19,0,0,1,4-3.87c.66-.14,1.15-1,1.72-1.61l-.34-.46a4.13,4.13,0,0,0-1.16,0c-2.55.69-5.06,1.55-7.63,2.12-2.8.63-5.64,1.07-8.49,1.44-.84.11-1.51-.41-1.81-1.46-.95-3.21-.38-4.1,2.71-5.31a29.47,29.47,0,0,1,9.32-1.71,33.78,33.78,0,0,0,5.95-1.07c2.8-.65,5.55-1.5,8.36-2.1a8.09,8.09,0,0,1,3.24.18c.25,0,.61,1.21.4,1.52a10.18,10.18,0,0,1-1.89,1.74,26.12,26.12,0,0,1-2.27,1.94,7.79,7.79,0,0,1-2.35,1.11c-1.23.31-2.1.62-2.07,2.23,0,.85-.77,1.71-1.33,2.86a5.94,5.94,0,0,0,1.94-.18,10.24,10.24,0,0,1,5.88-1,5,5,0,0,0,2.54-.38c2.35-1.24,4.74-.63,7-.19,1,.2,1.85,1.35,3,2.27,3.54-1.77,8-1.64,12.35-1.7-.34-2.4-1-2.65-4-1.81-.15-1,.62-1.82,1.79-2.24a4.58,4.58,0,0,0,1.85-1.31c.88-1.06,1.7-1.88,3.2-1.08.28.14.78-.12,1.16-.23s.94-.32,1.42-.45A6.9,6.9,0,0,1,547.3,62a16.93,16.93,0,0,1,2.47.4l1.38-.63a9.18,9.18,0,0,1,.71,1.69,16.79,16.79,0,0,1,.18,2.25c.13,2,1.38,2.68,3.22,1.89a2.65,2.65,0,0,1,.78-.34c.79-.05,1.7-.27,1.84,1s-.5,1.64-1.49,1.7c-1.4.09-2.83,0-4.21.14-.55.07-1.1.68-1.52,1.15-.54.62-.46,2-1.87,1.54-.06,0-.24.1-.25.17-.33,2.74-2.77,1.93-4.33,2.51-1.06.4-1.72,0-1.81-1.34a16.8,16.8,0,0,0-.69-2.82l-.67.08a14,14,0,0,0-.13,1.93,2.58,2.58,0,0,1-2.25,2.82,29,29,0,0,1-5.94,1.08c-1.54.06-3.1-.56-5-.94,0,1-.08,1.83-.12,2.73,1.17.19,2.19.33,3.2.54.42.09,1.06.26,1.17.56.57,1.49,1.74,1.49,3,1.42,1.73-.1,3.46-.23,5.19-.25a6,6,0,0,1,1.67.52,4.78,4.78,0,0,1-.9,1.49,7.87,7.87,0,0,1-2.67,1.56c-1.73.45-1.63,1.49-.95,2.56.85,1.34.6,2.5.19,3.92a42,42,0,0,0-.8,5.54c-.1.61-.64,1.25-.52,1.78a5.93,5.93,0,0,0,1.26,3,7,7,0,0,1,2.27,6.39,4.67,4.67,0,0,1-.14.5c-.25,1,.85,2.48-1,3-1.15.33-2.28.71-3.43,1C534.53,112.74,533.84,112.81,533.22,112.92Zm-7.94,50.63.32.44c.57-.66,1.5-1.25,1.64-2,.3-1.56,1.18-3.27-.09-4.79a1.05,1.05,0,0,0-1.84.75C525.2,159.82,525.28,161.69,525.28,163.55ZM512.9,132.92c0,1.92-.06,3.65,0,5.36,0,.35.64.67,1,1,.29-.33.71-.62.85-1C515.5,136.18,514.84,134.48,512.9,132.92Zm5.94,25.52-1.32-2.27a5.58,5.58,0,0,0-.82,2,5.91,5.91,0,0,0,.81,2Zm31-90.84.92-.11L550,63.74l-.51.08Z" transform="translate(-1.42 -1.41)"/><path class="cls-2" d="M498.75,154.88a10.46,10.46,0,0,1,2.21,1.83c1.44,2.08,2.58,4.36,4.08,6.39,2.18,3,4.46,5.89,6.89,8.67,4.59,5.25,9.32,10.38,14,15.57a2.18,2.18,0,0,1,.62,1c.19,1.31.75,1.7,2.14,1.57.86-.08,1.8.67,2.82,1.09.09-.17.37-.45.37-.73,0-2.77-.15-5.53-.17-8.3,0-1.51-.5-3,1.07-4.38,1-.87.93-2.88,1.29-4.39,1.49-6.25,4.33-11.94,7.43-17.5,2.26-4,4.72-8,7-12,.86-1.48,2.08-1.85,3.88-1.58a7.07,7.07,0,0,1-.33,1.66c-1.24,2.65-2.08,5.69-3.94,7.82-2.24,2.56-2.77,5.73-4.29,8.5a73.12,73.12,0,0,0-4.21,8.74,72.26,72.26,0,0,0-2.44,8.64,33.18,33.18,0,0,0-1.15,12c.32,2.73,1.05,5.41,1.58,8.12a8,8,0,0,1,.35,2.53c-.23,1.69,0,3,1.65,3.89a1.85,1.85,0,0,1,.75,1.54c-.28-.21-.56-.41-.82-.62-1.85-1.55-3.66-3.15-5.57-4.62-.85-.65-1.91-1.07-2.37.59-.09.31-.53.52-.86.84a35.51,35.51,0,0,0-1.65-4.74,30.61,30.61,0,0,0-2.89-4.22c-.59-.79-1.75-1.3-1.13-2.6a7.86,7.86,0,0,0-1.2-.51c-.68-.16-1.54,0-2-.38-3.49-2.55-7-5-10.3-7.85-2.83-2.44-5.32-5.27-8-7.94-.8-.8-1.54-1.69-2.41-2.42a23.47,23.47,0,0,1-6.84-10c-.83-2.2-1.52-4.46-2.2-6.72-.4-1.33.32-1.66,1.38-1.08a3.83,3.83,0,0,1,1.65,1.61c.68,1.64,1.05,3.41,1.71,5.07a18.7,18.7,0,0,0,1.86,3.47c1.74,2.58,3.46,5.19,5.4,7.62a51.92,51.92,0,0,0,4.73,4.77c2.43,2.33,4.89,4.65,7.37,6.93.27.25.79.24,1.2.35.07-.41.34-.94.18-1.2a48.43,48.43,0,0,0-3.12-4.74c-4.39-5.62-8.89-11.15-13.25-16.8a44.7,44.7,0,0,1-3-5Z" transform="translate(-1.42 -1.41)"/><path class="cls-2" d="M557.68,174.66c2.57-.24,5.14-.56,7.72-.68a3,3,0,0,1,2,.82,3.66,3.66,0,0,1,1.09,3.22,4.21,4.21,0,0,0-.13,1.78,5.38,5.38,0,0,1-1.57,5.77c-.81.72-1.52,1.56-2.29,2.32-.21.2-.46.46-.71.48-2.67.25-2.43,2.32-2.82,4.17-.51,2.48-1.33,4.9-2,7.35-.52,1.85-.9,3.76-1.59,5.54a27.87,27.87,0,0,1-2.32,4.25,1.58,1.58,0,0,1-1.07.67c-.22,0-.67-.46-.72-.77a40.88,40.88,0,0,1-.89-7c0-2,1-4,1.25-6,.5-3.57.88-7.17,1.15-10.76.08-1-.16-2.17-1.58-2.29-2.21-.17-2.85-1.55-2.44-3.43a13.72,13.72,0,0,1,1.64-4.34C553.66,173.88,555.84,174.66,557.68,174.66Zm-3.36,6.2c0,2.24.57,3,2.09,3.07s1.89-1,1.92-2.27c0-1.86-.93-3.18-2.25-3.15C554.39,178.54,554.59,180,554.32,180.86Z" transform="translate(-1.42 -1.41)"/><path class="cls-2" d="M503.69,37.43A13.92,13.92,0,0,1,502.36,39a26.44,26.44,0,0,1-2.57,1.88,2.34,2.34,0,0,1-1.26.44c-2.09-.12-2.69,1.24-2.81,2.88-.34,4.43-.57,8.86-.83,13.3,0,.46,0,.93,0,1.39-.05,1.07.1,2.4-1.36,2.56a2.91,2.91,0,0,1-2.95-2.65,28.58,28.58,0,0,1,0-4.34c.2-2.48.55-4.94.79-7.41.1-1,.08-2.12.14-3.18,0-.17.2-.34.48-.77.14.81.23,1.29.26,1.48.38-.89.92-2,1.31-3.1.65-1.9,2.52-1.48,3.84-2.08,1.93-.87,3.92-1.6,5.88-2.4Z" transform="translate(-1.42 -1.41)"/><path class="cls-2" d="M552.92,41.86c-1.15,2.63-2.11,5-3.26,7.27-.21.41-1.53.77-1.79.54a26.12,26.12,0,0,1-4.71-4.87c-1.34-2.06.3-3.77,1.58-5.36a6.92,6.92,0,0,0,1.14-1.68c.5-1.21,2.47-2.18,3.27-1.28A55.72,55.72,0,0,1,552.92,41.86Z" transform="translate(-1.42 -1.41)"/><path class="cls-2" d="M538.51,21.76c-1.31.36-2.51.33-3,.89-.81,1-.21,2.19.46,3.32,1.25,2.11,1.14,4.5.74,6.84,0,.23-1.12.6-1.32.43-2.21-1.89-4.35-3.8-5.65-6.54-1-2.13-1.06-2.84.53-4.58a2.51,2.51,0,0,0,.33-1.4,3.67,3.67,0,0,1,3.21-3.5c.75-.07,1.79-.11,1.6,1.16-.22,1.49.7,2.05,1.82,2.55A8.63,8.63,0,0,1,538.51,21.76Z" transform="translate(-1.42 -1.41)"/><path class="cls-2" d="M579.26,102.14C575.36,109.7,568.7,115.33,565,123c-1.53-.75-1.92-2.08-.74-4,1.56-2.49,3.24-4.91,5-7.29,1.86-2.54,3.85-5,5.78-7.49A5.45,5.45,0,0,1,579.26,102.14Z" transform="translate(-1.42 -1.41)"/><path class="cls-2" d="M569.3,27.3a6.74,6.74,0,0,1-1.5,6c-1.85,2.29-3.87,4.44-5.67,6.77a46.79,46.79,0,0,0-2.66,4.43c-.38.62-.8,1.22-1.18,1.79-1.38-.37-1.46-1.28-1-2.08a83.9,83.9,0,0,1,4.76-7.76c2-2.78,4.9-4.94,6.1-8.34a1.88,1.88,0,0,1,.55-.65C568.81,27.35,569,27.36,569.3,27.3Z" transform="translate(-1.42 -1.41)"/><path class="cls-2" d="M583.61,57.33c2.73,5.52-.66,15.71-5.79,17.13-.79-1.44.09-2.57.85-3.55a19.62,19.62,0,0,0,3.72-10.08c.14-1.21.46-2.39.71-3.59Z" transform="translate(-1.42 -1.41)"/><path class="cls-2" d="M469.6,68.92a8.94,8.94,0,0,1,1.78.48c-.11,1.1-.08,2.75-.76,3.17a22.11,22.11,0,0,1-6,2.51c-1.34.35-2.21-1-2.63-3-.32-1.51.68-1.8,1.7-2C465.55,69.65,467.47,69.33,469.6,68.92Z" transform="translate(-1.42 -1.41)"/><path class="cls-2" d="M554.7,137.4c-1.75-.17-2.32-1-1.68-2.05q2.81-4.65,5.9-9.09c.29-.43,1.29-.37,2-.53.09.67.5,1.51.24,2-1.65,3-3.41,5.85-5.21,8.72A3.9,3.9,0,0,1,554.7,137.4Z" transform="translate(-1.42 -1.41)"/><path class="cls-2" d="M616,37a18.64,18.64,0,0,1,.08-3.62,1.9,1.9,0,0,1,1.51-1.07c3.07.08,6.15.29,9.21.58.38,0,.7.79,1.05,1.22-.46.34-1.1,1.07-1.34,1-3.53-1.65-6.35.47-9.35,1.61C616.9,36.77,616.63,36.82,616,37Z" transform="translate(-1.42 -1.41)"/><path class="cls-2" d="M489.21,135a15.64,15.64,0,0,1,1.08,1.3c.93,1.47,1.91,2.93,2.73,4.48a12.51,12.51,0,0,1,1.3,3.41c.29,1.49-1.18,1.84-2.09,2a2.42,2.42,0,0,1-1.93-1.36,22.22,22.22,0,0,1-.7-4.56C489.44,138.72,489.36,137.09,489.21,135Z" transform="translate(-1.42 -1.41)"/><path class="cls-2" d="M602.24,1.41c.33.36.48.44.47.52-.09,1.83,1,3,2.13,4.26A1.68,1.68,0,0,1,605,7.76c-.55.89-4.41,1.62-5.44,1.17A1.1,1.1,0,0,1,599.14,7c1.4-1.12,1.68-2.64,2.1-4.19C601.37,2.32,601.85,1.94,602.24,1.41Z" transform="translate(-1.42 -1.41)"/><path class="cls-2" d="M596.06,56.4l1.41.54a30.79,30.79,0,0,0,3.38,1.28c1.27.33,1.75.9,1.37,2.22a1.53,1.53,0,0,1-2.49,1.05,38.15,38.15,0,0,1-4.37-3.26c-.2-.16-.18-.77-.05-1.09S595.82,56.62,596.06,56.4Z" transform="translate(-1.42 -1.41)"/><path class="cls-2" d="M496.45,134.6c.15-.19.39-.77.82-1a29.14,29.14,0,0,1,3.62-1.58c.32-.11,1.05.09,1.11.29.13.42.11,1.15-.16,1.37a35.88,35.88,0,0,1-3.77,2.7C497.18,136.93,496.44,136.24,496.45,134.6Z" transform="translate(-1.42 -1.41)"/><path class="cls-2" d="M632.38,21c-.14,1.32-.19,2.42-.41,3.48a1.33,1.33,0,0,1-.92.8,1.11,1.11,0,0,1-.87-.65,41.66,41.66,0,0,1-.27-5.11c0-.43.74-.85,1.14-1.27a8,8,0,0,1,1.14,1.47A3.88,3.88,0,0,1,632.38,21Z" transform="translate(-1.42 -1.41)"/><path class="cls-2" d="M480.72,80.11c.16.29.47.59.45.86-.22,2.5-.47,5-.79,7.48,0,.22-.82.61-1,.5-.36-.21-.81-.77-.75-1.1.46-2.58,1-5.14,1.57-7.7Z" transform="translate(-1.42 -1.41)"/><path class="cls-2" d="M546.64,208.33c1.34,2,2.73,3.88,4,5.89.18.29-.25.95-.46,1.62-2.55-2-4.13-4.12-4.17-7.13Z" transform="translate(-1.42 -1.41)"/><path class="cls-2" d="M587.91,20.82c-.64,1.58-1.15,2.86-1.83,4.55a12.67,12.67,0,0,1-1.14-1.54,11.56,11.56,0,0,0-3.53-4.58c-.33-.23-.32-.94-.47-1.43l.54-.21a18.37,18.37,0,0,1,2.79,3.3c.82,1.63,1.49,1.67,2.58.39C587,21.12,587.32,21.08,587.91,20.82Z" transform="translate(-1.42 -1.41)"/><path class="cls-2" d="M516.26,36.65c3.65,1.26,5.17,3.58,5,7.75Z" transform="translate(-1.42 -1.41)"/><path class="cls-2" d="M554.27,19.89l-1.33-.78c.41-.55.71-1.36,1.25-1.59a22.17,22.17,0,0,1,3.8-1,1.07,1.07,0,0,1,.83.39.79.79,0,0,1-.17.74c-1.13.76-2.3,1.47-3.46,2.17C555.05,19.88,554.85,19.84,554.27,19.89Z" transform="translate(-1.42 -1.41)"/><path class="cls-2" d="M583,24.11c-1.65-.21-3.3-.4-4.94-.67-.18,0-.38-.53-.38-.82a.72.72,0,0,1,.51-.53,21.91,21.91,0,0,1,3.89.13c.46.07.82.82,1.23,1.26Z" transform="translate(-1.42 -1.41)"/><path class="cls-2" d="M583.62,7.62c.5-1.67,1-3.34,1.47-5,.83.7,1.55,3.1.9,4a7.93,7.93,0,0,1-2.11,1.5Z" transform="translate(-1.42 -1.41)"/><path class="cls-2" d="M596.35,28.39l-1.26,1.82a24.45,24.45,0,0,1-1.57-2.59c-.08-.17.54-1,.81-.95C595.22,26.73,596.27,26.85,596.35,28.39Z" transform="translate(-1.42 -1.41)"/><path class="cls-2" d="M590.7,36l1.06-1.46a20.11,20.11,0,0,1,1.53,2.6c.08.19-.62.72-1,1.09C591.81,37.5,591.28,36.79,590.7,36Z" transform="translate(-1.42 -1.41)"/><path class="cls-2" d="M590.09,7.64l1.7-1.87c.45.6,1.26,1.21,1.23,1.79s-.93,1.07-1.57,1.37C591.28,9,590.7,8.23,590.09,7.64Z" transform="translate(-1.42 -1.41)"/><path class="cls-2" d="M480.84,70.55l1-4.23a3,3,0,0,1-.39,4.37Z" transform="translate(-1.42 -1.41)"/><path class="cls-2" d="M549.17,195.9c-.21-.9-.46-1.88-.63-2.87a2.18,2.18,0,0,1,.18-1.05,1.07,1.07,0,0,1,.72.11C550.29,192.81,550,195.29,549.17,195.9Z" transform="translate(-1.42 -1.41)"/><path class="cls-2" d="M580.3,7l2.19,1,0,.68c-.55.12-1.2.47-1.61.29s-.7-.92-1-1.4Z" transform="translate(-1.42 -1.41)"/><path class="cls-2" d="M500,142.36c-.58.18-1.16.58-1.5.43a1.73,1.73,0,0,1-.82-1.29c0-.42.49-.87.77-1.3Z" transform="translate(-1.42 -1.41)"/><path class="cls-2" d="M550.67,13.45c-.25,1.71-1.12,2-2.19,1.82-.22,0-.4-.4-.59-.62Z" transform="translate(-1.42 -1.41)"/><path d="M549.85,67.6l-.34-3.78.51-.08.75,3.75Z" transform="translate(-1.42 -1.41)"/></g><g class="cls-3"><path class="cls-2" d="M391.77,35.55q8.06,24.93,16.14,50l.35-.06V35.54h24.86V150.15h-26l-15-50.53-.35,0v50.49H366.86V35.55Z" transform="translate(-1.42 -1.41)"/><path class="cls-2" d="M361.85,150.16H331.43c-.53-6.79-1.07-13.52-1.61-20.34H319.16c-.59,6.72-1.19,13.44-1.79,20.3H286.62q7.59-57.34,15.18-114.61h42.95Q353.3,92.8,361.85,150.16ZM329,109.44l-4.51-47-.33,0c-1.9,15.68-3.79,31.35-5.69,47.1Z" transform="translate(-1.42 -1.41)"/><path class="cls-2" d="M224.11,85.13H194.25V83.24c0-7.19,0-14.38-.05-21.57a34.83,34.83,0,0,0-.57-5.86c-.42-2.3-1.75-3.24-4.2-3.32-2.75-.09-4.57.82-5,3a51.74,51.74,0,0,0-.91,8.95q-.12,27.74,0,55.48a74.69,74.69,0,0,0,.6,8.83c.36,3,1.83,4.26,4.64,4.35s4.44-1.15,4.84-4.12a78.93,78.93,0,0,0,.63-9.35c.1-5.15,0-10.3,0-15.58h29.83c0,2.88.17,5.71,0,8.52-.42,5.95-.86,11.9-1.63,17.8s-4,10.37-8.52,14.09a34.51,34.51,0,0,1-19.14,7.86,52.08,52.08,0,0,1-20.63-1.75C162.9,147.2,156.26,139.79,155,128a166.56,166.56,0,0,1-1.15-17c-.12-15,0-29.91.11-44.86a52.47,52.47,0,0,1,.86-9.86c2-9.93,8-16.78,17.31-20.38a45.68,45.68,0,0,1,34.72.41c9.65,4,15.15,11.28,16.37,21.89C224.19,67.15,224,76,224.11,85.13Z" transform="translate(-1.42 -1.41)"/><path class="cls-2" d="M117.37,70.18H89.43c0-.66,0-1.27,0-1.88-.09-3.76-.09-7.53-.31-11.29-.16-2.93-1.37-4.25-3.65-4.5a4.66,4.66,0,0,0-5.28,3.56,19.38,19.38,0,0,0,.67,13.26,11,11,0,0,0,3.69,4.25c3.72,2.65,7.73,4.9,11.49,7.5q6.49,4.48,12.75,9.32a25.52,25.52,0,0,1,9.65,16.73,76.3,76.3,0,0,1,0,26.79,18.37,18.37,0,0,1-8.19,12.2,37.36,37.36,0,0,1-16.12,6,50.12,50.12,0,0,1-22.18-1.57C60.62,147,53.83,139.65,53,127.51c-.4-6-.54-12-.8-18.19H80.12c0,.58,0,1.2,0,1.81.1,5.56.11,11.13.32,16.68.14,3.61,1.51,5.05,4.48,5.33,2.82.26,5-1.27,5.72-4.46a28.93,28.93,0,0,0-1-15.91,7.65,7.65,0,0,0-2.48-3.27c-3.64-2.86-7.39-5.58-11.16-8.27S68.17,95.7,64.18,93c-7-4.73-10.9-11.39-12.06-19.67a62,62,0,0,1,.68-21.61c1.85-8.74,7.79-13.67,15.79-16.5,6.9-2.44,14.06-2.61,21.27-2a42.29,42.29,0,0,1,13.88,3.51c7.27,3.25,12,8.43,12.58,16.66C116.73,58.93,117,64.46,117.37,70.18Z" transform="translate(-1.42 -1.41)"/><path class="cls-2" d="M234.7,35.48h29.68v91.73h18v22.92H234.7Z" transform="translate(-1.42 -1.41)"/><path class="cls-2" d="M1.42,150.25V130.16c.67,0,1.27.11,1.87.09A29.36,29.36,0,0,0,7.6,130a5.57,5.57,0,0,0,4.7-5.11c.25-3.4.32-6.83.33-10.24q0-38.5,0-77V35.53H42.4c0,.5.1,1,.1,1.5q0,44.07-.07,88.15A75.12,75.12,0,0,1,42,135.25c-1.1,8.1-6.43,13.4-14.73,14.22-6.44.63-12.94.56-19.42.77C5.77,150.3,3.69,150.25,1.42,150.25Z" transform="translate(-1.42 -1.41)"/></g><g class="cls-4"><path class="cls-2" d="M216,144.54c-2.57-2.58-4.77-4.81-7-7-1.71-1.71-1.69-1.68-3.35,0-2.76,2.75-5.75,5.17-9.71,5.95-7.95,1.56-15.36.76-21.27-5.44a16.14,16.14,0,0,1-4.6-10.89c-.35-20.56-.48-41.12-.67-61.69a39.35,39.35,0,0,1,.29-4.33c.11-1.06-.24-1.62-1.34-1.76-3.54-.45-7.07-1-10.62-1.39-1.23-.14-1.7-.31-1.36-1.78,2.43-10.37,9.23-16.51,18.92-20,6.32-2.28,12.88-2.45,19.42-2,7.27.5,14.09,2.57,20,7.18A23.35,23.35,0,0,1,224,56.53a153.13,153.13,0,0,1,1.31,29.66c-.58-.53-1-.92-1.44-1.33-4.42-4.35-8.85-8.68-13.23-13.06a2.53,2.53,0,0,1-.5-1.53c-.26-3.63-.38-7.28-.71-10.9-.69-7.37-7.21-13.92-14.55-14.91a26.63,26.63,0,0,0-10.6.41,43.48,43.48,0,0,0-5.12,2.06c.46.61.69,1,1,1.29.85.88,1.72,1.73,2.58,2.59,1.18,1.2,2.93,2.23,3.36,3.65s-.73,3.11-.91,4.73a71.42,71.42,0,0,0-.45,7.6q0,27.3,0,54.61a78.62,78.62,0,0,0,.71,8.93c.3,2.43,1.74,3.56,4.48,3.91a4.7,4.7,0,0,0,4.72-2.8,2.31,2.31,0,0,1,2.69-1.72c3.36.08,6.73,0,10.09,0,1.08,0,1.75-.25,1.82-1.5.16-2.53.48-5.06.57-7.59a2.83,2.83,0,0,0-.94-1.72q-6-6.14-12.18-12.17a6.14,6.14,0,0,0-1.75-.82l.67-.79h29.52c0,4.44,0,8.87,0,13.3,0,2.3-.2,4.61-.42,6.9-.52,5.28-1.36,10.48-4.63,14.88A56.94,56.94,0,0,1,216,144.54Z" transform="translate(-1.42 -1.41)"/><path class="cls-2" d="M66.74,55.86c-3.63-.23-7.12-.49-10.63-.64-2.2-.1-2.18,0-1.85-2.17,1-6.65,4.78-11.27,10.51-14.49a34.55,34.55,0,0,1,13.82-4.18c8.61-.82,17.09-.51,25.2,2.86,4.9,2,9.48,4.72,11.76,9.79a28.23,28.23,0,0,1,2.22,8.38c.5,4.58.52,9.2.71,13.81a17,17,0,0,1-.23,2.12c-.64-.59-1.06-1-1.46-1.36-3.82-3.71-7.63-7.45-11.48-11.12a5.79,5.79,0,0,1-1.78-3.38c-.75-3.94-3.41-6.6-6.69-8.6a19.28,19.28,0,0,0-13.92-2.41,57.87,57.87,0,0,0-6.24,1.74A7.79,7.79,0,0,0,75.2,47l7.39,7.31c-2.62,5.79-2.74,11.34-.1,16.56,1.11,2.18,3.53,3.86,5.65,5.34,4.69,3.25,9.65,6.11,14.35,9.36,4.86,3.36,9.66,6.83,13.14,11.78a26.12,26.12,0,0,1,4.22,11.47,93.17,93.17,0,0,1,1,14.44c-.07,5.19-.34,10.44-2.34,15.38a13.11,13.11,0,0,1-4.73,6.11c-2.55-2.56-5.14-5-7.59-7.66-1.13-1.2-1.86-1.26-3,0A20.85,20.85,0,0,1,88.48,144a21.61,21.61,0,0,1-12.24-2.44,16.09,16.09,0,0,1-8.45-12.27,39.32,39.32,0,0,0-.4-3.93A5.42,5.42,0,0,0,66,123c-3.69-3.69-7.45-7.29-11.18-11a16.77,16.77,0,0,1-1.3-1.64H81.33V112c0,4.29-.06,8.59,0,12.87,0,1.88.46,3.75.62,5.62.21,2.49,1.9,3.41,4,3.69a5.41,5.41,0,0,0,4.91-1.93,1.4,1.4,0,0,0,.3-.61c.61-3.14,2.82-3.3,5.42-3.12s5.22,0,7.83.05c1.13,0,1.51-.49,1.65-1.51.66-5.1-.1-10.1-.82-15.12-.8-5.56-4.15-9.43-8.41-12.52-6.46-4.66-13.19-8.94-19.66-13.6a39.19,39.19,0,0,1-7-6.42C67.76,76.43,67,72.64,66.8,68.91,66.55,64.79,66.74,60.64,66.74,55.86Z" transform="translate(-1.42 -1.41)"/><path class="cls-2" d="M302.62,36.58H346c5.69,38.12,11.39,76.29,17.14,114.89-1.48-1.22-2.68-2.18-3.84-3.18-4.33-3.74-8.73-7.39-12.87-11.32-.85-.8-.74-2.63-1-4-.83-3.85-1.64-7.71-2.46-11.56-.2-1-.82-1.18-1.77-1.14-8.26.27-16.52.48-24.78.76-1.65,0-3.3.28-5.46.47,2.34,2.28,4.35,4.41,6.54,6.32s3.16,3.74,2.62,6.86c-.81,4.68-.82,9.49-1.2,14.25a18.42,18.42,0,0,1-.48,2.28l-9.3-10.08c-1.33-1.44-2.7-2.86-4-4.37a2.76,2.76,0,0,1-.71-1.92c.76-4.17,1.68-8.32,2.5-12.48A5.29,5.29,0,0,0,307,120c-1.42-4.9-1-9.85-.44-14.8.49-4.36,1.06-8.7,1.62-13,.77-5.94,1.53-11.89,2.34-17.82.69-5,1.35-10,2.23-15a32.17,32.17,0,0,1,2-6.38,2,2,0,0,0-.42-2.44q-5.11-5.79-10.17-11.64C303.69,38.23,303.27,37.51,302.62,36.58Zm17.41,74c.75,0,1.38,0,2,0,2.94-.07,5.88-.22,8.81-.2,3.69,0,7.38.19,11.08.31,1.16,0,1.52-.43,1.33-1.59q-.74-4.5-1.29-9c-.74-6.1-1.4-12.21-2.13-18.31-.78-6.56-1.47-13.13-2.47-19.65a52.12,52.12,0,0,0-2.53-9.39c-.34-1-1.67-1.81-2.73-2.28a12.23,12.23,0,0,0-3.7-.65A23.12,23.12,0,0,0,315.84,52c.46.52.82,1,1.22,1.35,2.37,2.38,4.66,4.85,7.16,7.1a4,4,0,0,1,1.31,3.84c-.91,6.58-1.9,13.14-2.72,19.73-.9,7.11-1.66,14.23-2.45,21.35C320.18,107,320.14,108.74,320,110.6Z" transform="translate(-1.42 -1.41)"/><path class="cls-2" d="M434.37,151.4c-5.1-5.11-10-9.8-14.58-14.8-1-1.13-1-3.3-1.28-5-.84-5.27-1.59-10.55-2.37-15.83-.39-2.66-.69-5.35-1.18-8a3.06,3.06,0,0,0-1.26-2A30.06,30.06,0,0,1,402.52,96c-2.14-3.13-4-6.53-7-8.88-2.36-1.8-4.92-3.34-7.32-5.09a3.37,3.37,0,0,1-1.32-1.89C385.5,72.2,384.26,64.25,383,56.3c-.24-1.47-.38-3-.74-4.41a4.45,4.45,0,0,0-1.2-1.84c-3.95-4-7.94-8-11.91-11.94-.4-.4-.77-.82-1.35-1.44.71-.08,1.13-.16,1.55-.16,7.42,0,14.84,0,22.26,0a1.58,1.58,0,0,1,1.84,1.26Q401.2,62,409.11,86.19a2.46,2.46,0,0,0,1.71,1.49c3.51.15,7,.07,10.8.07v-2q0-17.49,0-35A3.44,3.44,0,0,0,420.53,48c-3.29-3.19-6.51-6.45-9.73-9.7-.46-.47-.84-1-1.44-1.75h25Z" transform="translate(-1.42 -1.41)"/><path class="cls-2" d="M13.5,36.57H43.76v1.92c0,30.09,0,60.17-.07,90.26,0,3.75.21,7.65-1.38,11.19-1,2.16-2.34,4.13-3.73,6.54-3.48-3.65-6.6-6.82-9.6-10.12-1-1.15-1.78-1.41-3.19-.5a34,34,0,0,1-11,4.74,3.89,3.89,0,0,1-2.9-.32c-3-2.49-5.86-5.19-8.75-7.85a4.87,4.87,0,0,1-.67-1.24,19.83,19.83,0,0,1,2.59,0c4,.56,6.2-.5,8.34-3.89a2,2,0,0,1,1.46-.74q5.73-.08,11.48,0c1.3,0,1.81-.35,1.82-1.77.05-17.85.18-35.69.27-53.54,0-6.09,0-12.17,0-18.26a3.8,3.8,0,0,0-1-2.37c-4.08-4.2-8.25-8.32-12.39-12.46C14.62,37.77,14.21,37.32,13.5,36.57Z" transform="translate(-1.42 -1.41)"/><path class="cls-2" d="M265.66,128.37h18v22.84c-.55-.49-.93-.8-1.28-1.15a61.43,61.43,0,0,1-5-5.07,12.15,12.15,0,0,0-11.15-5A23.14,23.14,0,0,1,252,135.82c-.73-.49-1-1.93-1.14-3-.25-2.75-.39-5.53-.4-8.3q0-35.46,0-70.93a4.26,4.26,0,0,0-1.36-3.36c-4.11-4-8.14-8.1-12.19-12.16-.39-.39-.76-.81-1.35-1.46h30.1Z" transform="translate(-1.42 -1.41)"/><path class="cls-2" d="M393,151.25c-.59-.5-.94-.77-1.25-1.07-3.72-3.64-7.45-7.28-11.13-11a2.13,2.13,0,0,1-.43-1.38c0-12.8-.08-25.6,0-38.41a23,23,0,0,1,2.48-10.36c2.34,2.35,4.41,4.78,6.84,6.77,2.82,2.31,3.6,5,3.56,8.59-.2,14.89-.09,29.78-.09,44.67Z" transform="translate(-1.42 -1.41)"/></g><g class="cls-5"><path class="cls-2" d="M367.76,37.08h24.86l5.68,17.59c3.48,10.78,6.93,21.56,10.44,32.32A5.47,5.47,0,0,0,410,89.2c2.74,2.74,5.57,5.4,8.38,8.09a8.06,8.06,0,0,0,.78.54A23,23,0,0,0,421,93.38a52.6,52.6,0,0,0,.76-8.3c.08-11.19,0-22.38.06-33.57a4.07,4.07,0,0,0-1.32-3.21c-3.29-3.18-6.5-6.45-9.74-9.69-.39-.4-.75-.83-1.33-1.45H434V151.05a10.53,10.53,0,0,1-1.1-.81c-4.27-4.26-8.55-8.5-12.77-12.81a4.33,4.33,0,0,1-1.09-2.25c-1.35-8.83-2.62-17.66-3.89-26.5a3,3,0,0,0-1.59-2.67,30.6,30.6,0,0,1-13-12.39,27.2,27.2,0,0,0-11.75-10.75,3.69,3.69,0,0,1-2.22-3.17c-1.27-8.54-2.69-17.06-4-25.6a6.82,6.82,0,0,0-2.09-4.21c-3.83-3.71-7.57-7.52-11.33-11.3C368.77,38.2,368.4,37.77,367.76,37.08Z" transform="translate(-1.42 -1.41)"/><path class="cls-2" d="M161.17,46.76a23.13,23.13,0,0,1,9.26-8c7.66-4,15.89-4.69,24.32-4a38.27,38.27,0,0,1,17.19,5.35,23.88,23.88,0,0,1,12,19.47c.61,8.42.71,16.89,1,25.33a11.21,11.21,0,0,1-.11,1.16c-.61-.53-1-.86-1.42-1.24-4.07-4-8.17-8.06-12.17-12.17a4.35,4.35,0,0,1-1.1-2.53c-.25-2.77-.2-5.57-.44-8.34-.6-7.14-3.95-12.61-10.53-15.61s-17.31-3-23.62,3.79c-1.12,1.19-1.09,1.69.39,2.45,2.58,1.32,5.18,2.62,7.78,3.89a1.75,1.75,0,0,1,1.15,2,79.75,79.75,0,0,0-.54,8.31q-.07,27.84,0,55.66c0,2.66.37,5.31.6,8,.39,4.5,4.65,5.26,7.45,3.92a1.87,1.87,0,0,1,2.55.45c1.71,1.81,3.49,3.56,5.29,5.29,1,.92.76,1.48-.34,2.08-6.69,3.7-18.69,3.64-25.13-3.48a17.52,17.52,0,0,1-4.57-11c-.29-5.38-.53-10.77-.55-16.15-.05-14.73-.05-29.46.12-44.18A75,75,0,0,1,171,56.36c.26-1.57-.65-2.18-1.61-2.94C166.71,51.25,164,49.07,161.17,46.76Z" transform="translate(-1.42 -1.41)"/><path class="cls-2" d="M117.37,71.05c-1.56-1.62-3.1-3.26-4.69-4.85s-3.37-3.36-5.14-5A14.51,14.51,0,0,1,103,54.59c-1.61-5.05-5.8-7.88-10.75-9.28a21.67,21.67,0,0,0-15.94,1.14,31.32,31.32,0,0,0-5.78,4.36c-1,.82-.61,1.58.49,2.12,2.71,1.32,5.37,2.74,8.1,4,1.21.56,1.44,1.31,1.41,2.59a65.54,65.54,0,0,0,.26,8.64c.34,3.19,2.3,5.53,4.9,7.26,5.16,3.41,10.48,6.58,15.53,10.13a125.14,125.14,0,0,1,11,8.78c4.5,4,6.4,9.42,7.26,15.19a74.06,74.06,0,0,1-.26,25.59c-.45,2.24-.71,2.25-2.74,1.44-3-1.2-6-2.29-9.13-3.24-1.42-.43-1.82-1-1.55-2.48,1.23-6.56.53-13-.72-19.52a16.27,16.27,0,0,0-6.37-9.88c-5-3.89-10.41-7.35-15.55-11.11-4-2.94-7.95-6-11.77-9.15-2.36-2-3.28-4.85-3.94-7.78a40.69,40.69,0,0,1,.18-18.27,2.69,2.69,0,0,0-1-3C64,49.84,61.51,47.38,59,45c-.88-.85-.07-1.36.42-1.86A25.24,25.24,0,0,1,70,36.73c6.77-2.23,13.72-2.49,20.77-1.87a42.69,42.69,0,0,1,14.79,3.93c6.93,3.31,11.08,8.58,11.61,16.39.36,5.18.63,10.37.93,15.56Z" transform="translate(-1.42 -1.41)"/><path class="cls-2" d="M235.64,37.14h29.65v91.7h17.94v22.41c-.68-.63-1.1-1-1.48-1.38a74.88,74.88,0,0,1-5.74-5.81c-2.39-3-5.21-3.94-9-3.84-3.39.08-6.85-.83-10.21-1.62a20.29,20.29,0,0,1-4.84-2.32,2,2,0,0,1-.81-1.37c-.27-2.77-.62-5.54-.63-8.31q-.08-36.16,0-72.33a4.81,4.81,0,0,0-1.6-3.8c-4-3.91-8-7.92-11.94-11.9C236.56,38.17,236.2,37.75,235.64,37.14Z" transform="translate(-1.42 -1.41)"/><path class="cls-2" d="M362.1,151.05l-9.82-8.53a42.1,42.1,0,0,0-3.95-3.39c-2-1.37-2.66-3.22-2.89-5.54-.45-4.49-1-9-3.19-13.08a2.59,2.59,0,0,1,0-1.82,24.09,24.09,0,0,0,.71-11c-1.78-14.73-3.52-29.46-5.47-44.17A74.42,74.42,0,0,0,335,53.5a4,4,0,0,0-3.53-2.93c-4.69-.81-9.35-.91-13.87.78a2.61,2.61,0,0,1-3.42-.91c-3.45-4.14-7-8.17-10.56-12.25-.21-.25-.38-.55-.69-1h42.71l16.95,113.68Z" transform="translate(-1.42 -1.41)"/><path class="cls-2" d="M14.07,37.13H43.35v2.59q0,42.27-.1,84.54c0,4.4-.37,8.79-.6,13.19-.08,1.41-.51,2-2.2,1.42-3.62-1.21-7.34-2.17-11.05-3.09-1.7-.43-2.16-1-2-3,.58-6.45,1-12.94,1.09-19.42.13-19.77,0-39.54.07-59.31a4.29,4.29,0,0,0-1.36-3.37c-4-3.93-8-7.94-12-11.9a11.06,11.06,0,0,0-1.58-1.09Z" transform="translate(-1.42 -1.41)"/><path class="cls-2" d="M319.52,111.14c3.23,0,6.12-.09,9,0a4.83,4.83,0,0,1,2.94,1.06c2.73,2.64,5.27,5.46,8,8.3-1.87.16-3.79.43-5.72.48-5,.15-10,.17-14.94.29-3.12.08-6.25.19-9.36.39a1.87,1.87,0,0,1-2.33-1.64c-1.11-4.53-.84-9.06-.25-13.62,1.75-13.61,3.45-27.23,5.24-40.83.36-2.73,1-5.42,1.64-8.51l4.14,2c1.81.9,3.61,1.84,5.44,2.71a2.51,2.51,0,0,1,1.61,2.91c-.8,6-1.6,12-2.32,18-.92,7.74-1.76,15.5-2.61,23.26C319.78,107.68,319.68,109.29,319.52,111.14Z" transform="translate(-1.42 -1.41)"/><path class="cls-2" d="M81,111c0,4.87,0,9.62,0,14.37a45.63,45.63,0,0,0,.35,4.67c.51,4.22,4.3,6.17,8,4a1.74,1.74,0,0,1,2.62.35c1.67,1.77,3.43,3.44,5.14,5.18,1.26,1.28,1.19,1.73-.39,2.54a22.25,22.25,0,0,1-11.45,2.37,19.21,19.21,0,0,1-11-3.64,16.19,16.19,0,0,1-6.6-13,7.15,7.15,0,0,0-2.52-5.37c-3.85-3.66-7.51-7.54-11.36-11.46Z" transform="translate(-1.42 -1.41)"/><path class="cls-2" d="M381.12,94.68c.82.33,1.35.51,1.85.75,2.65,1.31,5.27,2.68,7.94,3.95a2.34,2.34,0,0,1,1.55,2.4c0,5.91.05,11.82.06,17.73q0,14.6,0,29.2v2.5c-.75-.65-1.18-1-1.56-1.37-3.24-3.23-6.51-6.44-9.68-9.74a3.83,3.83,0,0,1-1-2.38q-.09-18,0-36A61.45,61.45,0,0,1,381.12,94.68Z" transform="translate(-1.42 -1.41)"/><path class="cls-2" d="M195.73,105.62h29.19c0,2.22.14,4.41,0,6.58-.5,6.56-1,13.14-1.74,19.68-.42,3.58-.66,3.48-3.84,2-2.88-1.34-5.85-2.46-8.72-3.8a2.07,2.07,0,0,1-1-1.61c0-2,.22-3.93.43-5.89a3.84,3.84,0,0,0-1.29-3.39c-4-3.92-8-7.94-12-11.89a9,9,0,0,0-1.58-1Z" transform="translate(-1.42 -1.41)"/><path class="cls-2" d="M318.18,151.24l-7.95-8.63c-1.53-1.67-3.12-3.28-4.53-5a3.9,3.9,0,0,1-.85-2.59c.39-3.19,1-6.36,1.58-9.83,1.08.49,1.86.82,2.61,1.19,3.27,1.62,6.56,3.21,9.8,4.89a1.9,1.9,0,0,1,.93,1.38C319.31,138.66,318.76,144.71,318.18,151.24Z" transform="translate(-1.42 -1.41)"/><path class="cls-2" d="M2.57,131.77a44.52,44.52,0,0,0,5.56-.06,8.4,8.4,0,0,0,3.29-1.37c.81-.52,1.44-.7,2.14,0,2.37,2.29,4.74,4.58,7,7a1.63,1.63,0,0,1-.32,1.46c-2.25.88-4.55,1.65-6.87,2.37a1.6,1.6,0,0,1-1.27-.36C9,138,5.9,135.23,2.81,132.46,2.7,132.36,2.7,132.16,2.57,131.77Z" transform="translate(-1.42 -1.41)"/></g><path class="cls-2" d="M362.65,150.46c-2.95-2.55-5.62-4.83-8.27-7.15-2.27-2-4.56-3.94-6.75-6a3.72,3.72,0,0,1-1.07-2c-.74-5-1.11-10-3.32-14.68a2.32,2.32,0,0,1-.08-1.52c1.41-5.11.8-10.21.13-15.34-1.29-9.94-2.46-19.89-3.71-29.82-.64-5-1.28-10-2.08-15a46.73,46.73,0,0,0-1.59-5.31c-.66-2.24-2.29-3.18-4.46-3.54a28.86,28.86,0,0,0-14.08.89,2.39,2.39,0,0,1-2.09-.43c-3.83-4.28-7.56-8.64-11.31-13a2,2,0,0,1-.21-.55h42C351.35,74.7,357,112.39,362.65,150.46Z" transform="translate(-1.42 -1.41)"/><path class="cls-2" d="M417.27,103c.9-1.52,1.62-2.77,2.35-4l.54.33c-1.26,2.09-2.5,4.2-3.79,6.27-.58.92-1.27.56-2.09.16A30.88,30.88,0,0,1,400.89,93a25.49,25.49,0,0,0-11-10.26,4.46,4.46,0,0,1-2.69-3.83c-1.24-8.43-2.63-16.84-3.91-25.26a6.51,6.51,0,0,0-2-3.91c-3.83-3.72-7.57-7.52-11.34-11.3-.39-.39-.75-.82-1.38-1.5H370c7.13,0,14.26,0,21.39,0a1.59,1.59,0,0,1,1.84,1.29Q401,62.29,408.75,86.3a47.24,47.24,0,0,0,2.93,6.09q2.16,4.36,4.36,8.71C416.34,101.68,416.75,102.2,417.27,103Z" transform="translate(-1.42 -1.41)"/><path class="cls-2" d="M113.28,113.4c-1.68,0-3.36,0-5,0a2,2,0,0,1-2.28-1.67c-1.08-5.19-4.29-9-8.37-12C91.52,95.31,85.13,91.29,79,86.89a52.37,52.37,0,0,1-7.8-6.84C68,76.57,67.73,72,67.53,67.5c0-.45.87-1.33,1.36-1.35,3.47-.12,7-.13,10.43,0a2.2,2.2,0,0,1,1.48,1.48,11,11,0,0,0,4.9,7.49c3.6,2.43,7.37,4.61,10.93,7.09,4.65,3.24,9.24,6.58,13.72,10.05,6.46,5,8.89,12,9.61,19.88.09,1-.25,1.27-1.11,1.26Z" transform="translate(-1.42 -1.41)"/><path class="cls-2" d="M175.59,49.26c-1.63-3.26-3.21-6.34-4.66-9.48-.13-.29.5-1.27.94-1.42,3.61-1.19,7.2-2.69,10.92-3.28a46.52,46.52,0,0,1,23.8,2.18,30.88,30.88,0,0,1,11,7.11c4.51,4.48,5.93,10.19,6.6,16.23.12,1.08-.33,1.65-1.45,1.65H212.32c-1.33,0-1.67-.74-1.93-1.94-1.42-6.66-4.69-12.19-11.26-14.65-7.92-3-15.71-2.58-22.65,3C176.3,48.81,176.1,48.92,175.59,49.26Z" transform="translate(-1.42 -1.41)"/><path class="cls-2" d="M111.25,57.39h-4.53a2.25,2.25,0,0,1-2.36-1.66c-2.82-8.3-11.3-12.31-19.9-11.66-4.49.34-8.68,1.5-12.16,4.52-1,.85-1.64.61-2.17-.46-1.32-2.64-2.62-5.3-4-7.92-.6-1.16-.12-1.8.91-2.11,3.48-1.05,6.92-2.43,10.48-3a49.58,49.58,0,0,1,25,2.19,41.63,41.63,0,0,1,6.07,3c5.83,3.32,8.24,8.67,8.8,15.09.13,1.4-.35,2.08-1.82,2S112.69,57.39,111.25,57.39Z" transform="translate(-1.42 -1.41)"/><path class="cls-2" d="M283.82,128.8a19.66,19.66,0,0,1-1.39,1.83c-2.77,2.81-5.53,5.63-8.39,8.33a3.76,3.76,0,0,1-2.4.93q-4.77,0-9.54-.38c-3.43-.25-6.46-1.75-9.38-3.44a2.17,2.17,0,0,1-.85-1.35c-.27-1.48-.34-3-.6-4.47s.3-1.91,1.66-1.86c4.56.16,9.12.33,13.68.39,4.92.07,9.85,0,14.77,0Z" transform="translate(-1.42 -1.41)"/><path class="cls-2" d="M335.3,120.48c-2.65.11-4.77.24-6.88.29-6.14.14-12.28.21-18.41.4-1.39,0-2.26-.3-2.39-1.78-.21-2.47-.45-5-.54-7.42,0-.34.77-1,1.19-1q10.58,0,21.16.13a1.92,1.92,0,0,1,1.39.82C332.29,114.59,333.66,117.32,335.3,120.48Z" transform="translate(-1.42 -1.41)"/><path class="cls-2" d="M184.72,128.69c.07.4.15.78.23,1.17.75,3.78,2.71,5.26,6.5,4.74a1.7,1.7,0,0,1,2.09,1c1,2,2,3.93,2.94,5.9.52,1,.25,1.64-.91,1.86-6.93,1.3-13.5.94-19.11-4a17.74,17.74,0,0,1-5.13-9.07c-.36-1.34.46-1.59,1.55-1.59Z" transform="translate(-1.42 -1.41)"/><path class="cls-2" d="M74.91,129c1.62,0,3.25,0,4.87,0a1.61,1.61,0,0,1,1.82,1.42c.85,3.42,2.82,4.71,6.42,4.13a1.62,1.62,0,0,1,2,1c1,2,1.94,3.95,3,5.91.53,1,.36,1.61-.84,1.84-7.1,1.36-13.76.85-19.27-4.51a16.5,16.5,0,0,1-4.25-8c-.33-1.26.26-1.83,1.56-1.79C71.78,129.07,73.35,129,74.91,129Z" transform="translate(-1.42 -1.41)"/><path class="cls-2" d="M265.66,37.07a20.07,20.07,0,0,1-1.34,1.73c-4,4-7.95,7.94-11.9,11.93-.74.74-1.28,1.18-2.25.19-4.34-4.43-8.74-8.78-13.12-13.17a6.27,6.27,0,0,1-.52-.68Z" transform="translate(-1.42 -1.41)"/><path class="cls-2" d="M14.53,37H43.74a18.58,18.58,0,0,1-1.37,1.78c-3.91,3.94-7.87,7.83-11.75,11.8-1,1-1.65,1.06-2.65,0-4.22-4.3-8.5-8.52-12.75-12.78C15,37.66,14.86,37.44,14.53,37Z" transform="translate(-1.42 -1.41)"/><path class="cls-2" d="M196.21,105.57h29.06A13.26,13.26,0,0,1,224,107.3q-6,5.9-12.06,11.76c-.73.72-1.33,1.19-2.29.21-4.3-4.37-8.66-8.69-13-13A6.54,6.54,0,0,1,196.21,105.57Z" transform="translate(-1.42 -1.41)"/><path class="cls-2" d="M54.41,110.79H81.46a17.91,17.91,0,0,1-1.31,1.62C76.6,116,73,119.52,69.48,123.13c-1,1.07-1.73,1.15-2.82,0-3.73-3.81-7.55-7.52-11.33-11.28C55.05,111.62,54.83,111.29,54.41,110.79Z" transform="translate(-1.42 -1.41)"/><path class="cls-2" d="M410.43,37h24.11a15.08,15.08,0,0,1-1.12,1.48c-3.26,3.29-6.54,6.55-9.81,9.83-.6.61-1.11,1.15-2,.26-3.61-3.67-7.27-7.29-10.9-10.94A2.86,2.86,0,0,1,410.43,37Z" transform="translate(-1.42 -1.41)"/><path class="cls-2" d="M3.53,132.05c2.11-.18,4.11-.38,6.11-.46a1.52,1.52,0,0,1,1.16.69c1.19,2.24,2.32,4.52,3.4,6.81.17.34,0,.84,0,1.26a3.92,3.92,0,0,1-1.46,0C10.62,139.36,5,134.27,3.53,132.05Z" transform="translate(-1.42 -1.41)"/><g class="cls-6"><path class="cls-2" d="M719.65,103c4,.68,4.36,1,4.48,4.44a16.52,16.52,0,0,1-1.7,8.22,45.45,45.45,0,0,0-2.43,7.4c-.15.51.15,1.12.16,1.69,0,.92,0,1.85,0,2.78,0,.66-.28,1.47,0,2a118.43,118.43,0,0,0,6.25,10.32c3.44,4.8,7.25,9.33,10.82,14,2.81,3.71,3.26,8,.56,11.07a30.16,30.16,0,0,1-7.31,5.62c-1.36.82-2.19,1.5-2.22,3.1,0,2.08-.12,4.17-.24,6.25a6.92,6.92,0,0,0,1.87,4.9c2.88,3.52,1.67,8.13-2.41,10.18a8.55,8.55,0,0,0-3.14,3.28,2.9,2.9,0,0,0,.5,2.63c2.56,3,2.9,6.05,1,9.45a5.38,5.38,0,0,0-.56,1.81,41.21,41.21,0,0,0,.58,16.21c.56,2.27.21,4.8,0,7.2a2.24,2.24,0,0,1-3,2.22c-2.66-.58-5.58-.54-7.4-3.06-2.59.85-2.53.81-4.26-1.56a11.54,11.54,0,0,0-2.12-1.57,23.36,23.36,0,0,0-3-2.51,10.07,10.07,0,0,0-4.34-1.69c-2.69-.06-4.38-1.51-6.17-3.37l-.95,1.38c-.07-.46-.12-.78-.15-1-2.92-1.2-6.48.69-9.05-2-2.13,1-2.54.84-4.53-.89a11.61,11.61,0,0,0-3.21-1.45c-1.59-.67-2.81-1.63-2.73-3.69l-1.94.24v-2.19c-2.25.78-3.16-1-4-2.15-1.54-2.16-3-4.43-3.24-7.31,0-.7-1.39-1.31-2.28-1.82-.52-1.12-.83-2.3-2.54-2.62-.64-.12-1.2-1.29-1.57-2.09a13.68,13.68,0,0,1-.85-3A2.69,2.69,0,0,0,656,193c-3.62.16-6.16-2.13-9.06-3.58-2.36-1.19-4.47-2.9-6.86-4a14.62,14.62,0,0,0-5.09-.91c-3.69-.21-5.69-1.64-6.93-5.16-1.37-3.85-3.26-7.59-4.08-11.55-1.55-7.53-2.74-15.15-.68-22.87a21.17,21.17,0,0,1,6.49-10.45,25.62,25.62,0,0,0,2.33-2.33,1.62,1.62,0,0,0,.38-1.36,1.56,1.56,0,0,0-1.3-.54c-2.12.24-4.22.61-6.33.91-.72.11-1.45.17-2.18.23-.52,0-1.14-.13-1.53.1a7.12,7.12,0,0,1-5.17.74c-.38-.07-.83.25-1.25.38-.7-1.24,1.17-3.13-.91-3.82,1.81-1.49,3.67-2.87,5.32-4.45s3.33-3.68,5.08-5.44a23.34,23.34,0,0,0,6.18-10.55c-1.92-1.23-2.09-1.19-2.91.92-.25.64-.34,1.34-.56,2-.16.47-.35,1.24-.65,1.31-2.38.56-2.75,3-4.24,4.36l-3.71,3.36a9.31,9.31,0,0,0-1.61,1.52c-1.29,1.91-3.43,2.36-5.33,3.22a7.72,7.72,0,0,0-2.15,1,9,9,0,0,1-5.1,2.23c-.66.08-1.23.88-1.87,1.36-.15-.17-.29-.28-.28-.34.75-2.17.07-3.83-.93-5.92-.84-1.74.27-4.51.85-6.74.11-.43,1.79-.76,2.66-.62a17.8,17.8,0,0,1,3.48,1.26c2.36-2.13.81-4,0-5.65-.63-1.28-2.25-2-3.28-3.18-1.85-2-3.59-4.11-5.36-6.19-.26-.3-.35-.85-.65-1-1.91-.82-1.82-2.43-1.82-4.09a3.88,3.88,0,0,0-3.18-3.74c-.64,0-1.36.63-2,1-1,.55-1.92,1.13-2.88,1.7l-.6-.6c.42-.81.78-1.67,1.28-2.44,1.25-1.95,2.59-3.84,3.85-5.78.54-.84.63-1.58-1-1.55a9.58,9.58,0,0,1,1.28-2.43,5.35,5.35,0,0,0,1.59-4.56,10.16,10.16,0,0,1,.6-2.85,3.42,3.42,0,0,0,.25-1.18c-.29-1.82-.28-3.14,2.25-2.23.44.16,1.23-.52,1.8-.89,1.69-1.11,2.41-.76,2.8,1.28a19.78,19.78,0,0,0,.94,2.71l.73-.22c-.31-1.35-.62-2.69-.94-4a4.16,4.16,0,0,1-.31-1.17,15.34,15.34,0,0,1,.53-2.07,7.32,7.32,0,0,1,1.81,1c1,1,1.9,2.17,2.84,3.27l.66-.3L607,61l3.44,3a13,13,0,0,0,.11-2.34c-.37-2.23-.94-4.43-1.18-6.67a16.14,16.14,0,0,1,.46-3.47,2.31,2.31,0,0,0-.11-1.4A22.64,22.64,0,0,1,605.61,38a56.26,56.26,0,0,1,.65-9.68c.15-1.37-.14-2.31-1.34-2.85-2.75-1.24-3.83-3.28-3.51-6.27.13-1.23-.33-2.51-.29-3.76,0-.63.55-1.24.85-1.85a12.87,12.87,0,0,0,1,1.07,6.74,6.74,0,0,0,1.76,1.23c2,.72,4,1.28,5.94,2,2.83,1,3.55,2.83,2.69,5.74-1.22,4.09-2.31,8.23-3.21,12.41-.27,1.27.22,2.72.45,4.07.18,1,.62,1.81,1.91,1.84.38,0,.9.54,1.1,1a1.66,1.66,0,0,0,2.32.9A2.7,2.7,0,0,0,617.07,42c.4-2.39,1.34-3.33,3.68-3.18,5.38.36,10.75.71,16.11,1.21a16.25,16.25,0,0,1,4.49,1.25,2.09,2.09,0,0,1,.93,1.63c.06,2.1.22,4,2.34,5.23a2.27,2.27,0,0,1,1,1.58c0,1.56.21,2.86,2,3.31.18.05.2.77.28,1.12,1.34-.14,2.64-.38,3.94-.39,2.71,0,3.93,1.94,4.67,4.1a34.71,34.71,0,0,1,.94,5.25l.63,3.75h.6a3.53,3.53,0,0,0,.41-1,21.65,21.65,0,0,1,.2-3.8c1.39-5.37-.29-10.71,0-16.07.13-2.66-.74-5.37-1.07-8.07-.08-.63,0-1.69.32-1.89,2-1.11,1.21-2.71.47-3.83s-1.21-2.2-.48-3.51c.09-.18,0-.45,0-.71l-1.67.65c.14-2.21,1.4-3,3.14-2.28.1,0,.21.16.3.15,2.81-.28,5.06,1.36,7.48,2.3a56.37,56.37,0,0,1,7.19,3.64q4.29,2.46,8.41,5.17c10.23,6.66,17.88,15.68,23.77,26.27,3.07,5.51,6.4,10.91,9,16.65,2.22,5,3.58,10.39,5.21,15.65a3.74,3.74,0,0,1-.43,2.43c-1.53,3.19-3.32,6.28-4.73,9.52a28,28,0,0,0-1.43,5.72c-.07.37.32.85.5,1.28.35-.25.84-.42,1-.76,1-1.75,1.76-3.59,2.78-5.3S721.05,105.39,719.65,103Zm-74.94,49.5c.1-.89.14-1.42.22-1.94.64-4,.61-7.93-1.23-11.78a5.78,5.78,0,0,0-6.27-2.87c-.7.2-1.84.81-1.82,1.19a3.81,3.81,0,0,0,1.09,2.6,35.34,35.34,0,0,0,4.8,3c2.56,1.46,3.08,2.92,1.57,5.39-1.3,2.11-2.76,4.13-4.25,6.11-1.81,2.41-3.9,4.66-4.13,7.87a4.63,4.63,0,0,0,.36,2.14c.69,1.58,1.52,3.1,2.43,4.92h-3.14c.08,1.52.6,2.56,2.17,2.71,4.82.48,9.64.92,14.46,1.4a1.74,1.74,0,0,0,2.11-1.25,4.67,4.67,0,0,0-.88-5.29c-3.13-3.59-5.29-7.57-4.78-12.57a13.73,13.73,0,0,0-.25-2.66Zm-30.5-40.71a12.49,12.49,0,0,0-1.81-1.55,8.6,8.6,0,0,1-4.37-5.87c-.52-2.72.24-5.69.54-8.54,0-.37.64-.86,1.06-1,1.67-.46,3.4-.69,5-1.25A2.62,2.62,0,0,0,616.24,92c.17-1.18-2.52-2.91-3.72-2.64-1.63.38-3.26.75-4.91,1a4.31,4.31,0,0,0-3.41,6.07,4.28,4.28,0,0,1,.3,2.16,9,9,0,0,0,2,7.58,23.26,23.26,0,0,1,2.82,5.19c.84,2,.71,2.09,2.7,1.24C612.54,112.4,613.14,112.2,614.21,111.81ZM642.13,60.5a48.3,48.3,0,0,0,4,2.78,2.44,2.44,0,0,0,2-.25c.26-.14.25-1.08.12-1.6-.37-1.56-.91-3.09-1.3-4.65s-1.22-1.83-2.58-1.37a3.09,3.09,0,0,1-.95.17c-.59-1.61-1.68-.45-2.53-.47-1.65,0-3.32.12-5,0s-2.71.41-3.41,2.33c1.38.25,2.79.88,4,.63s2.33-.81,3.07.84c.15.34,1,.39,1.51.58l.27-2,.69,0Zm-.85,2.07.12-.49a9,9,0,0,0-1.51-1c-2.53-1-5.26-1.61-7.56-3-2-1.15-3.47-.49-5.19,0-1.06.3-1.1,1-.55,1.72A3.17,3.17,0,0,0,628.25,61c3.91.72,7.84,1.33,11.77,1.93A3.42,3.42,0,0,0,641.28,62.57Zm-23.57,46.89.88.3a36,36,0,0,0,3.08-4.27c.74-1.38.13-2-1.44-1.95a8,8,0,0,1-2.74.08c-1.41-.46-3.41.59-4.23-1.12-1-2.06.94-3.21,2-4.58a9.35,9.35,0,0,0,.67-1.25c-.53-.15-1.1-.49-1.57-.39a3.48,3.48,0,0,0-1.75,1c-1.59,1.74-1.67,3.82-1.16,6,.3,1.28.65,2,2.21,1.25a2.74,2.74,0,0,1,3.78,2.5C617.5,107.82,617.62,108.64,617.71,109.46Zm40-27.62a4.23,4.23,0,0,0,1.52-3.73,19.07,19.07,0,0,1,.42-2.53c.23-2.27.44-4.55.56-6.83,0-.33-.44-.69-.68-1a5.63,5.63,0,0,0-.88.88,1.89,1.89,0,0,0-.12.84C658.26,73.62,658,77.79,657.72,81.84Z" transform="translate(-1.42 -1.41)"/><path class="cls-2" d="M525.34,153.19c-.69-2.52-1.69-4.52-1.46-7.06a6.58,6.58,0,0,0-1.65-4.85c-1.92-1.73-1.24-3.52-1.41-5.34l.59-.24a32.09,32.09,0,0,0,1.45,2.94c.33.54.88,1.22,1.42,1.3a1.89,1.89,0,0,0,2.16-1.58c.71-2.41-.82-5.52-3.25-6.09a2.35,2.35,0,0,1-2-2.23c-.33-2.35-.55-4.72-1-7-.66-3.47-1.56-6.89-2.18-10.36a46.23,46.23,0,0,1-.48-6,43,43,0,0,1,.05-4.68,6.58,6.58,0,0,1,.66-2.61c.23-.41,1.07-.48,1.63-.71a9.82,9.82,0,0,1,.38,1.67,26.29,26.29,0,0,0,.29,4.18c.15.65,1.14,1.1,1.76,1.64l.58-.37c0-.89,0-1.77,0-2.66,0-1.87-.5-3.94,1.75-5a5.73,5.73,0,0,1,6.57,1.22c.25.28.44,1,.27,1.2a2.66,2.66,0,0,1-1.5.91,3.83,3.83,0,0,1-1.62-.54c-1.21-.5-2.48-.83-3.05.75a1.91,1.91,0,0,0,1.58,2.72c2.07-1.66,2.22-1.71,3.86-.18a1.91,1.91,0,0,1,.57,1.54c-1.86,5.86-1.11,11.66.1,17.5a17,17,0,0,1,.11,4.84c-.26,3.46-.53,6.93-1.06,10.36a10.21,10.21,0,0,1-1.71,4.05,5.93,5.93,0,0,0-1,5c.21,1.07-.74,2.4-1.23,3.58A23.8,23.8,0,0,1,525.34,153.19Z" transform="translate(-1.42 -1.41)"/><path class="cls-2" d="M503.89,77.54c-.36.73-.65,1.22-.85,1.75a6.06,6.06,0,0,1-5.34,4.13.92.92,0,0,0-.64.46c-.75,1.48-1.61,1-2.67.32a18.65,18.65,0,0,0-2.91-1.3c.14-.84.27-2,.55-3.17s1-1,1.92-.75a1.68,1.68,0,0,0,1.44-.43c.47-.5.58-1.65,1.05-1.79a9.6,9.6,0,0,1,4.31-.5c1.43.28,1.72-.1,1.93-1.31.53-3,1.82-3.82,4.87-3.31a4.81,4.81,0,0,0,1.56-.06c3.88-.56,7.76-1.22,11.66-1.65.81-.09,1.71.68,2.83,1.16,2.72-3.09,2.73,1.52,4.22,2.25,2.45-2.93,5.87-2.37,9-2.86.39-.07.81.06,1.21,0,1.33-.14,2.52-.26,2.78,1.63.3,2.22,0,2.79-1.87,3.61-3,1.33-6.19.91-9.25.77-1.62-.07-2.2.16-2.48,1.62a2.12,2.12,0,0,1-.63,1.2c-.58.42-1.41,1-1.9.86a2.91,2.91,0,0,1-1.37-1.75,14.11,14.11,0,0,1-.39-2.79l-.45,0c-.33,1-.67,2-1,3a3.92,3.92,0,0,1-3.56,2.87c-2.64.3-5.29.63-7.94.89-3.23.33-4.51-.58-5.4-3.68A6.8,6.8,0,0,0,503.89,77.54Z" transform="translate(-1.42 -1.41)"/><path class="cls-2" d="M601,136.38l3.35-3,1.81,2.49c-1.48,1.19-3.07,2.37-4.52,3.7a14.92,14.92,0,0,0-1.56,2.22c-1.25,1.62-2.68,3.12-3.8,4.82-1.33,2-2.36,4.2-3.63,6.25a2.61,2.61,0,0,1-1.55,1c-1.54.31-2,1.15-1.32,2.58a13.69,13.69,0,0,1,.57,2.65l-1.57-.14c.11.69.21,1.24.28,1.66l-1.59,1c-2-1.65-1.2-3.52-.42-5.6q2.46-6.57,4.5-13.27c1-3.09,4.9-6.76,8.11-7C600.1,135.69,600.57,136.16,601,136.38Z" transform="translate(-1.42 -1.41)"/><path class="cls-2" d="M512.83,61.61a9.47,9.47,0,0,1-1.94,2c-2.21,1.23-4.43,2.72-6.84,3.27a55.59,55.59,0,0,0-7.18,2.57,15.51,15.51,0,0,1-6.1.42A2.46,2.46,0,0,1,489.22,68a3.75,3.75,0,0,1,1.43-2.48,10.29,10.29,0,0,1,7.75-1.91c3.15.54,5.61-.81,8.35-1.49,1.88-.47,3.8-.78,5.7-1.16Z" transform="translate(-1.42 -1.41)"/><path class="cls-2" d="M544.76,68.7a20.31,20.31,0,0,1-.33-3.19,8.17,8.17,0,0,1,.71-2.18l2,.8a2.24,2.24,0,0,1,.38-.78c.25-.28.7-.64.94-.57a1.41,1.41,0,0,1,.91.87c.23,1,.2,2.07.42,3.08a13.22,13.22,0,0,0,.89,2.1l.84-.21c-.19-1.88-.37-3.76-.56-5.64l.67-.07a19.84,19.84,0,0,0,.36,3.2,11.16,11.16,0,0,0,1.27,2.38c.26.46.58.9.87,1.35a10.9,10.9,0,0,1-1.5.1,3.2,3.2,0,0,1-1-.35l-1.43,2.32-1.42-.51-1.59,2.73L545.6,73a6.52,6.52,0,0,1-.57,1.11c-.64.82-1.35.78-1.69-.2-.84-2.39-1.58-4.82-2.34-7.24a1.31,1.31,0,0,1,0-.85c.34-.73.77-1.42,1.17-2.13.55.58,1.34,1.06,1.6,1.74a17,17,0,0,1,.61,3.3Z" transform="translate(-1.42 -1.41)"/><path class="cls-2" d="M534.66,182.44l-1.25-.26a23.23,23.23,0,0,0,1.12-2.33c.64-1.84,1.14-3.72,1.8-5.54.45-1.27,1.14-2.45,1.56-3.73a5.91,5.91,0,0,0,0-2.14c-.07-.8-.56-1.75-.27-2.35,1.38-2.85,2.9-5.64,4.48-8.39a2.07,2.07,0,0,1,3.07-1c-.82,1.74-1.55,3.53-2.48,5.21a56.06,56.06,0,0,0-6.87,23.12c-.19,2.7.16,5.43.24,8.15a10,10,0,0,1-.05,1.73c0,.24-.29.63-.46.63s-.77-.17-.84-.38a8.73,8.73,0,0,1-.68-2.83C534.17,189.07,534.44,185.8,534.66,182.44Z" transform="translate(-1.42 -1.41)"/><path class="cls-2" d="M552.63,42.17c-.92,2.23-1.68,4.27-2.61,6.22-.62,1.31-1.79,1.32-2.71.39a23.58,23.58,0,0,1-3.24-4,2.63,2.63,0,0,1,.19-2.22,38.16,38.16,0,0,1,2.55-3.71c.68-.95,2.4-1.38,3.18-.53A33.07,33.07,0,0,1,552.63,42.17Z" transform="translate(-1.42 -1.41)"/><path class="cls-2" d="M481.64,114.51a29.45,29.45,0,0,1-1.23-4.87,29.94,29.94,0,0,1,2.41-13.54,83.9,83.9,0,0,1,4.09-8.36,32.4,32.4,0,0,1,3-3.85,4,4,0,0,1-.43,4.19,77.55,77.55,0,0,0-4.62,8.29c-2,4.86-2.47,10.07-2.32,15.32,0,.89,0,1.79,0,2.68Z" transform="translate(-1.42 -1.41)"/><path class="cls-2" d="M540.14,83.32a24.2,24.2,0,0,1-2.67,1.39c-2.31.87-4.64,1.7-7,2.41a3.94,3.94,0,0,1-2.45,0c-.4-.16-.69-1.22-.6-1.8a2.13,2.13,0,0,1,1.19-1.47A49.87,49.87,0,0,1,535,82.65a45.19,45.19,0,0,1,4.94,0Z" transform="translate(-1.42 -1.41)"/><path class="cls-2" d="M582.2,84.45a11.9,11.9,0,0,1-.38,2.2,7.15,7.15,0,0,1-1,1.4c-.38-.39-.92-.71-1.1-1.17-1-2.55.25-4.75,3-5.28.73-.14,1.45-.37,2.18-.53,1.18-.26,2.06.05,2.38,1.34.26,1.07.24,2-1.16,2.18-.16,0-.41.08-.46.2C584.6,86.91,583.5,86.31,582.2,84.45Z" transform="translate(-1.42 -1.41)"/><path class="cls-2" d="M535.22,28.88c-1.62-1-2.81-2.1-2.44-4.11a8.32,8.32,0,0,0-.51-2.64c-.13-.72-.52-1.68-.21-2.14a8,8,0,0,1,2.22-1.62c.24.58.72,1.18.69,1.74-.07,1.12-.47,2.21-.62,3.33a6.26,6.26,0,0,0,.1,1.88C534.67,26.52,535,27.7,535.22,28.88Z" transform="translate(-1.42 -1.41)"/><path class="cls-2" d="M558,45.3a11.43,11.43,0,0,1,1-2.75c2.28-3.12,4.69-6.16,7-9.22.89-1.16,1.77-2.33,2.93-3.86a6,6,0,0,1-1.75,4.39c-2.34,2.93-4.72,5.82-7,8.8a17.39,17.39,0,0,0-1.5,3Z" transform="translate(-1.42 -1.41)"/><path class="cls-2" d="M483,115.79c1,2.45,2,4.9,3.06,7.33.55,1.27,1.22,2.48,1.73,3.77.13.31-.15.8-.25,1.2-.34-.16-.83-.22-1-.48C484.2,124,482.24,120.33,483,115.79Z" transform="translate(-1.42 -1.41)"/><path class="cls-2" d="M526.23,166.37l4-6.87a3.07,3.07,0,0,1,1,4.09C530.07,166.38,529.37,166.77,526.23,166.37Z" transform="translate(-1.42 -1.41)"/><path class="cls-2" d="M583.91,61.27c.8,5-1.19,8.72-4.5,11.86Z" transform="translate(-1.42 -1.41)"/><path class="cls-2" d="M593.44,66.88c.12-.91.41-1.79,1.84-1.36a1.38,1.38,0,0,0,1,0c1-.61,1.4-.11,1.62.76s.26,1.76-1,1.9a4.68,4.68,0,0,0-1.16.34C594.21,69.08,593.47,68.6,593.44,66.88Z" transform="translate(-1.42 -1.41)"/><path class="cls-2" d="M611.36,129.33c-.09,1.45,1,2.66-.71,3.35-.09,0,.05.65,0,.59l-2.88,2.15C606.91,132.36,609.71,131.43,611.36,129.33Z" transform="translate(-1.42 -1.41)"/><path class="cls-2" d="M524.48,159.31a6.53,6.53,0,0,1-.08,5.32c-.08.22-.68.5-.78.42-.38-.29-.91-.72-.92-1.11A5.85,5.85,0,0,1,524.48,159.31Z" transform="translate(-1.42 -1.41)"/><path class="cls-2" d="M587.61,96.81c-.4,2.44-2,4.21-4.5,4.2q2-2.31,4-4.6Z" transform="translate(-1.42 -1.41)"/><path class="cls-2" d="M603.06,3.49c-.09,1.71-.16,3.42-.31,5.12,0,.23-.55.63-.71.57s-.77-.51-.75-.74c.22-1.69.54-3.37.83-5Z" transform="translate(-1.42 -1.41)"/><path class="cls-2" d="M632.05,22.39a14.72,14.72,0,0,1,0,1.88c0,.26-.36.48-.55.72-.19-.18-.53-.35-.54-.54-.11-1.42-.21-2.85-.19-4.27,0-.31.5-.62.76-.93.2.3.54.59.57.91a18.44,18.44,0,0,1,0,2.23Z" transform="translate(-1.42 -1.41)"/><path class="cls-2" d="M495,47.45c-1.3-2.05-1.17-3.91.29-5.3C495.93,44,495.52,45.5,495,47.45Z" transform="translate(-1.42 -1.41)"/><path class="cls-2" d="M621.64,34.23c-1.11.44-2.2.94-3.34,1.27-.31.08-.77-.38-1.15-.59.28-.43.53-1.17.87-1.21a27.54,27.54,0,0,1,3.52-.06Z" transform="translate(-1.42 -1.41)"/><path class="cls-2" d="M603.62,13.93c.9-1.51,1.93-1.47,3-.87.13.07,0,.57,0,.87Z" transform="translate(-1.42 -1.41)"/><path class="cls-2" d="M558.52,68.91a8.88,8.88,0,0,1-2,1.12c-.22,0-.59-.61-.9-.94a4.73,4.73,0,0,1,1.31-1C557.17,67.94,557.64,68.41,558.52,68.91Z" transform="translate(-1.42 -1.41)"/></g><path class="cls-2" d="M651.31,63.77c-1-2.29-1.81-4.18-2.65-6.06-.43-1-1.41-2-.29-3a3.63,3.63,0,0,1,4-.85c3.47,1.51,4.46,4.56,4.94,7.92q.52,3.6.93,7.21a14.79,14.79,0,0,1,0,2.4c0,.78-.13,1.55-.19,2.32-.1,1.39-.2,2.78-.32,4.5L656,77.09c-1.3,2,.32,4.77-1.76,6.48-2.58-2.06-2-4.51-.83-7.79a6.61,6.61,0,0,0-.14-5c-.17-.41-1-.93-1.38-.81a7.51,7.51,0,0,0-4.35,3.47,9.34,9.34,0,0,1-3.18,3c-1.38.92-2.89,1.45-3.37,3.41-.26,1.06-1.48,1.87-2.19,2.84a2.25,2.25,0,0,0-.53,1.45c0,.28.85.65,1.26.59,1.38-.21,2.72-.68,4.09-.88a7,7,0,0,1,2.63.11c.32.08.7.82.66,1.23a1.69,1.69,0,0,1-.87,1.14,11.68,11.68,0,0,0-6.21,6.17c-1,2.37-2.21,4.54-4.56,5.93-.71.42-1.06,1.46-1.52,2.25s-.73,1.58-1.18,2.31c-1.11,1.76-1.33,1.77-2.85.39-1.28,1.1-2.43,1-3.31-1-1.25,1.82-1,3.51-.77,5.18.06.45.32,1,.18,1.33s-1,.6-1,.58a10.11,10.11,0,0,1-1.53-2.92,17.74,17.74,0,0,1,.13-3.55c0-1.4,0-2.8,0-4.2a1.35,1.35,0,0,0-.07-.68c-1.25-1.81-2.53-3.59-4-5.62l-1.18,1.7-.29-.08a7.55,7.55,0,0,0,.07-1.06c0-.66.1-1.59-.27-1.94a32.81,32.81,0,0,0-4.39-3.49c-.34-.23-1.17.21-1.74.43s-1.24.86-1.84.84c-2.9-.09-5,1.49-7.13,3.12s-2.55,1.67-4.43-.38a7.16,7.16,0,0,1-.88-1.29c-1-1.74-1.6-1.68-2.87,0a33.24,33.24,0,0,1-3.06,3.11l-.59-.4a9.2,9.2,0,0,1,.77-1.61,28.94,28.94,0,0,0,5-9.83,3.8,3.8,0,0,0,.23-2c-.56-1.61-.08-3,.34-4.53.52-2,1.84-2.09,3.36-2.3s2,.76,2.59,1.82a7.94,7.94,0,0,0,1.65,2c.32.28.91.26,1.38.38a4.17,4.17,0,0,0,.24-1.4c-.25-1.33-.62-2.64-.95-4l.37-.3,4.17,2.36.59-.28c-.4-2.6-.79-5.19-1.19-7.77.39-.13.57-.25.71-.22,2.22.45,2.53.19,2.19-2.16q-.55-3.86-1.28-7.7c-.27-1.48-.13-2.48,1.55-3.11,1.91-.72,1.92-1.16.54-2.74-.83-1-1.81-1.81-2.62-2.8a8,8,0,0,1-1.45-2.35,26.54,26.54,0,0,1-1.51-11.88c.17-1.37.61-2.71.82-4.08.65-4.32.44-4.62-3.36-6.68a3.75,3.75,0,0,1-1.7-1.78c-1-2.87-.13-3.95,2.81-3.31a46.06,46.06,0,0,1,5.49,1.63c1.83.64,2.41,2.19,1.88,4.06-1.27,4.51-2.45,9-3.68,13.56-.13.49-.35,1-.49,1.46s-.36,1-.21,1.28c.54,1.13,1.23,3.12,1.86,3.12,1.92,0,2.45,1.53,3.65,2.27A2.33,2.33,0,0,0,618,42.22c.18-3.11,1.77-3.16,4.1-2.83,3.26.45,6.56.58,9.85.82,2.13.16,4.27.22,6.4.41,3.08.27,3.83,1.41,3,4.31-.12.42,0,.91-.06,1.34a12.08,12.08,0,0,1-.51,1.78,10,10,0,0,0-1,2.54c-.14,2.1-.53,2.55-2.67,2.81-4.22.52-8.41,1.16-12.63,1.68-.84.11-1.72-.16-2.58-.12-.52,0-1.27.16-1.47.51a1.6,1.6,0,0,0,.18,1.55c1.14.88,1.62,2.88,3.67,2.35.13,0,.33.11.46.21,3.49,2.79,7.76,2.76,11.87,3.22,2.52.29,5.08.2,7.62.39,1.6.12,3.18.49,4.78.69A18,18,0,0,0,651.31,63.77Z" transform="translate(-1.42 -1.41)"/><path class="cls-2" d="M691.71,98.87c-.82-.74-1.68-1.31-1.6-1.48a13.57,13.57,0,0,1,1.63-2.3l1.11,2.63L695.36,96c.12,1,.22,1.9.33,2.76l.58.11c.15-.67.29-1.34.45-2,.19-.83.39-1.65.59-2.47,0-.16.19-.34.16-.47-.65-2.67,1.17-3.75,3-4.8.79-.44,1.1-2.57.38-3.08-.25-.18-.92,0-1.27.21a19.26,19.26,0,0,0-1.81,1.46l-.49-.27a26,26,0,0,0,.87-2.94,23.92,23.92,0,0,0,.46-4.76c0-.52-1-1.2-1.62-1.45A2,2,0,0,1,695.45,76c0-.83-.84-1.65-1.12-2.52a2,2,0,0,1,.16-1.57c.17-.25.92-.2,1.38-.13a7.91,7.91,0,0,1,1.54.5c.11-.49.42-1,.28-1.44s-.74-1.34-1.08-1.32c-2.11.15-2.22-1.6-2.69-2.8-.63-1.63,1.42-1.66,2-2.63.17-.26,1.25-.13,1.83.07a36.61,36.61,0,0,1,4,1.66c1,.48,1.93,1.12,2.89,1.69.39.24.76.7,1.15.71,3.81.07,5.45,2.85,7,5.65a65.09,65.09,0,0,1,3.8,8.17c1,2.68,1.51,5.54,2.31,8.29A12.33,12.33,0,0,0,720,92.68c1.27,2.41.35,4.55-.75,6.7-1.41,2.77-2.93,5.5-4.17,8.35a48.47,48.47,0,0,0-1.69,5.77c-.18.6-.2,1.38-.6,1.77-2,2-1.85,4.19-.76,6.6.41.9.17,2.07.41,3.07a8.43,8.43,0,0,0,1.12,2.83c1,1.48,2.44,1.33,3.44-.16a9.56,9.56,0,0,1,1.28-1.34c.84,1.79,1.65,3.28,2.24,4.85A34.93,34.93,0,0,0,726,140a3.34,3.34,0,0,1,.16,4,2.91,2.91,0,0,0,.19,3.65c1.4,1.79.77,4.11.87,6.2.18,4.06.39,8.14.24,12.19-.07,2,.1,4.25-1.19,6l-.58,0c-.26-1.65-1-3.42-.66-4.95.59-2.71-.5-5-1.13-7.36a6.32,6.32,0,0,1-.36-1.68c0-1.89-.16-3.6-2.48-4.11a1.33,1.33,0,0,1-.87-.78c-.52-1.75-1.1-3.41-2.84-4.37-.12-.07.06-.79.2-1.17a2.48,2.48,0,0,0,.25-1.47l-2.9,2c-.15-.83-.61-1.93-.34-2.16,2-1.66.12-2.64-.73-3.39s-2.21-1.15-2.3-2.73c0-.29-.87-.48-1.25-.81-1-.89-2-1.84-3.07-2.85l-1,1.39c-1.41-.86-1.41-.86-1.47-4a6.09,6.09,0,0,0-.88.39c-1.11.7-1.85.28-2-.87-.23-1.47-.57-2.46-2.36-2.85-.75-.17-1.16-1.91-1.82-3.11L694.51,129v-3c-.75-2.25-1.41-4.2-2.13-6.34-1.69,1.52-2.85.58-3.9-.6-3.19,1.91-4.58.85-5.46-3.86-1-.11-2-.2-2.92-.33a.54.54,0,0,1-.35-.34c0-1.29.1-2.59,0-3.87a3,3,0,0,1,1.85-3.34c.81-.38.79-1,.28-1.71a7.59,7.59,0,0,1-.68-1.74l.41-.25c1.08,1,2.14,2,3.27,3a1.34,1.34,0,0,0,1.11.16,4,4,0,0,0,1.65-.91,11.79,11.79,0,0,0,1.27-2c-.7-.23-1.41-.46-2.11-.71-.45-.16-1.17-.23-1.29-.53s.16-1,.42-1.38a6.46,6.46,0,0,1,1.49-1.85,4.49,4.49,0,0,1,2-.51A20.71,20.71,0,0,1,691.71,98.87Zm8.56-2.52c.09-.58.14-.8.15-1,.05-.64.09-1.28.13-1.92-.39,0-1-.17-1.11,0a4.2,4.2,0,0,0-.68,2c0,1.5-.94,3.37,1.25,4.25.07,0,.11.21.1.32-.29,2.44,1.26,2.86,3.22,3a11.39,11.39,0,0,0,.66-1.61,23.68,23.68,0,0,0,.84-4.3c0-.43-1-1.25-1.55-1.3A10.9,10.9,0,0,0,700.27,96.35Z" transform="translate(-1.42 -1.41)"/><path class="cls-2" d="M509.57,81.35a2.46,2.46,0,0,1-2.92-2.12,40.27,40.27,0,0,1-.76-5.12c-.1-1.39.61-2.13,2.16-2.29,4.14-.44,8.25-1.07,12.37-1.6,1.71-.22,2.27.33,1.93,2.06a27.21,27.21,0,0,1-1.53,5.85A4.49,4.49,0,0,1,518,80.24C515.22,80.82,512.38,81,509.57,81.35Z" transform="translate(-1.42 -1.41)"/><path class="cls-2" d="M529.06,128.7c-1.34-.1-2.3-.1-3.23-.27a2,2,0,0,1-1-.81c-.79-1.05-1.54-2.15-2.3-3.23-.13-.18-.37-.38-.36-.56.13-4.85-2.71-9-3.08-13.76-.12-1.49.95-2.86,2.42-2.52a6.93,6.93,0,0,1,5.16,4.36,41.67,41.67,0,0,1,3,12A20.07,20.07,0,0,1,529.06,128.7Z" transform="translate(-1.42 -1.41)"/><path class="cls-2" d="M634.15,152.82c1.23-.81,2.82-1.1,3.29-2.95.13-.51,1.09-.91,1.74-1.15a1.25,1.25,0,0,1,1.16.4,1.35,1.35,0,0,1-.28,1.18,25.16,25.16,0,0,1-3,3.24c-1.92,1.6-1.95,4.08-3.07,6-.27.47-.5,1-.76,1.44l-.49,0c-.24-.79-.53-1.57-.7-2.37-.56-2.77-1-5.54.06-8.33a3.65,3.65,0,0,0-.2-1.78c-.23-1.14-.58-2.26-.71-3.41a7.94,7.94,0,0,1,.21-2.42,5.8,5.8,0,0,1,.74-2.25,2.11,2.11,0,0,1,1.73-.79,2,2,0,0,1,.94,1.6c-.18,2.41-.56,4.79-.83,7.19-.16,1.39-.25,2.8-.37,4.19Z" transform="translate(-1.42 -1.41)"/><path class="cls-2" d="M650.12,181.93c3.24-.54,2.13-3.14,2.5-5.17,1.08.89,2,1.69,1.88,3.2a3.44,3.44,0,0,0,.68,1.95c1.25,1.82,2.45,3.67,2.23,6a2.43,2.43,0,0,1-1.06,1.7,3.25,3.25,0,0,1-2-.18,5,5,0,0,1-3.95-4C650.25,184.34,650.23,183.26,650.12,181.93Z" transform="translate(-1.42 -1.41)"/><path class="cls-2" d="M537,70.43a11.59,11.59,0,0,0,1.56,0c1.46-.2,1.91.66,2.16,1.87s0,2-1.24,2.28c-1.77.38-3.58.66-5.38.92-1,.14-2.06.06-3.08.21-1.63.23-2.16-.41-1.94-2A2.65,2.65,0,0,1,531.88,71c1.72-.14,3.41-.52,5.12-.8Z" transform="translate(-1.42 -1.41)"/><path class="cls-2" d="M545.76,43.67c0-2.72,1.52-5,3.41-5.25a2.24,2.24,0,0,1,1.76.61c1.76,2.1,1.32,4.49-.95,6a4.59,4.59,0,0,0-.79.67c-.48.48-.93,1-1.4,1.48-.65-.84-1.36-1.65-1.94-2.54C545.65,44.34,545.77,43.84,545.76,43.67Z" transform="translate(-1.42 -1.41)"/><path class="cls-2" d="M626.39,144c.06,7.49.82,15,.63,22.9C624.18,164.12,623.91,147.51,626.39,144Z" transform="translate(-1.42 -1.41)"/><path class="cls-2" d="M662.82,127.63a18.63,18.63,0,0,1,0-2.48c.13-1,0-1.5-1.16-1.6-1.69-.16-2.87-1.46-4.27-2.19-1.79-.93-1.66-2.09-1.67-3.47,0-.4.36-.81.76-1.67a10,10,0,0,0,.87,2c.69.86,1.54,1.63,2.71.79s1.65,0,2.07.73a48.17,48.17,0,0,1,3.06,5.76c.67,1.6-1.16,1.55-1.82,2.29Z" transform="translate(-1.42 -1.41)"/><path class="cls-2" d="M690.78,91.11l-1.26,2.39c-.79-1.49-1.53-2.26-.82-3.58.39-.73.14-1.8.23-2.7a6.5,6.5,0,0,1,.34-1.22c.45.18,1.06.23,1.31.56.79,1,1.43,2.15,2.08,3.14a12.78,12.78,0,0,1,2.75.08c.26.06.61,1.22.41,1.57a19.65,19.65,0,0,1-2.2,2.82c-.77.89-1.35.68-1.75-.38C691.61,93.07,691.3,92.37,690.78,91.11Z" transform="translate(-1.42 -1.41)"/><path class="cls-2" d="M723.28,106.22c1.58,4.13-1.2,7-2.64,10.43-.8-.69-2.36-.62-1.14-2.24.17-.23-.45-1-.46-1.46C719,111.28,721.44,107.38,723.28,106.22Z" transform="translate(-1.42 -1.41)"/><path class="cls-2" d="M494.22,69.22c-.75-.66-1.92-1.18-2.16-2-.4-1.3.59-2.31,1.86-2.67a18,18,0,0,1,3.59-.58c1.18-.08,1.65.59,1.45,1.78C498.63,67.68,497,68.85,494.22,69.22Z" transform="translate(-1.42 -1.41)"/><path class="cls-2" d="M737.05,155.1c1,.46,2.39,3.13,2,4.53a2.41,2.41,0,0,1-.74.87c-.92.87-1.94,1.64-2.77,2.58-.61.68-1.1,1.56-2.07.79a1.74,1.74,0,0,1-.16-2.75c.61-.68,1.59-1.09,2-1.85A33.93,33.93,0,0,0,737.05,155.1Z" transform="translate(-1.42 -1.41)"/><path class="cls-2" d="M725.34,173.52c.46,1.78.82,3.32,1.27,4.83s.82,3-.56,4.47c-.71.75-.87,2-1.32,3.15-1.38-1.27-1.54-2.31-.42-3.15a1.63,1.63,0,0,0,.6-2.09c-.45-1.43-.92-2.85-1.33-4.29C722.9,174,723.19,173.64,725.34,173.52Z" transform="translate(-1.42 -1.41)"/><path class="cls-2" d="M724.73,203.61a18,18,0,0,1,.55,4.07,29.72,29.72,0,0,1-1.11,4.44c-.14.58,0,1.23-.17,1.8a4.68,4.68,0,0,1-.77,1.16,4.74,4.74,0,0,1-.81-1,2.64,2.64,0,0,1-.13-1.19c.09-2.09.1-4.19.39-6.26a14.37,14.37,0,0,1,1.2-3.14Z" transform="translate(-1.42 -1.41)"/><path class="cls-2" d="M619.54,99.7a13.47,13.47,0,0,1-2.08,1.87,7.41,7.41,0,0,1-2.34.62c-1.13.21-2-.73-1.3-1.6a10.65,10.65,0,0,1,3.45-2.89C618.41,97.13,619.24,98,619.54,99.7Z" transform="translate(-1.42 -1.41)"/><path class="cls-2" d="M647.88,142.19l-4.67-9.11a5,5,0,0,1,1.28.36,11.57,11.57,0,0,1,4.47,6.79c.15.61-.38,1.39-.6,2.09Z" transform="translate(-1.42 -1.41)"/><path class="cls-2" d="M547.34,72.66c-2.22-2.5-2-5.47-2.23-8.32a1.47,1.47,0,0,1,.55-1c.09-.08.77.21.8.4.45,2.79,2.25,5.39,1.3,8.39C547.71,72.3,547.55,72.41,547.34,72.66Z" transform="translate(-1.42 -1.41)"/><path class="cls-2" d="M525.63,70.88c.83,1.22,2.09,2.27,2.16,3.38s-1,2.52-1.55,3.85C524.2,76.52,524,73.05,525.63,70.88Z" transform="translate(-1.42 -1.41)"/><path class="cls-2" d="M634.51,133a5.56,5.56,0,0,1,3.81-2.06,8.39,8.39,0,0,1,2.9.37c.42.13.78.77.93,1.25.05.15-.64.79-1,.79C639,133.34,636.87,134.13,634.51,133Z" transform="translate(-1.42 -1.41)"/><path class="cls-2" d="M544.67,73A12.69,12.69,0,0,1,542,64.67c0-.3.36-.65.64-.88.08-.06.59.18.66.37A34.08,34.08,0,0,1,544.67,73Z" transform="translate(-1.42 -1.41)"/><path class="cls-2" d="M547.68,64.18c.31-.49.65-1,1-1.52.32.49.84.94.92,1.47.24,1.63,0,3.35,1.26,4.76.17.2-.28,1-.44,1.45-.5-.3-1.31-.5-1.44-.91C548.44,67.79,548.12,66.08,547.68,64.18Z" transform="translate(-1.42 -1.41)"/><path class="cls-2" d="M493.76,79.81c1.44.19,2.79.2,3-1.85l.55.05,1.7,3-.67-.11a20.65,20.65,0,0,1-2.15,1.32c-.39.18-1.11.29-1.33.07a14,14,0,0,1-1.49-2.11Z" transform="translate(-1.42 -1.41)"/><path class="cls-2" d="M622.25,111.09a18,18,0,0,1,.68,1.86,3.18,3.18,0,0,1-.12,1.09c-.34-.11-.78-.12-1-.34a8,8,0,0,1-1.51-1.88,1.63,1.63,0,0,1,.1-1.48,2.64,2.64,0,0,1,1.66-.62c.18,0,.4.78.6,1.2Z" transform="translate(-1.42 -1.41)"/><path class="cls-2" d="M648,81l2.31,3.16c-.82,1-1.53.81-2.35.1C646.82,83.23,647.16,82.28,648,81Z" transform="translate(-1.42 -1.41)"/><path class="cls-2" d="M501.4,80.38c-.42-.65-.81-1-.88-1.41a14.2,14.2,0,0,1,0-2.26c.41.11,1.06.11,1.19.37a6.77,6.77,0,0,1,.61,2.26C502.3,79.59,501.82,79.9,501.4,80.38Z" transform="translate(-1.42 -1.41)"/><path class="cls-2" d="M586.91,83l-2.52,1.61c-.51-1-.11-2.86.81-3,.62-.08,1.32.49,2,.78Z" transform="translate(-1.42 -1.41)"/><path class="cls-2" d="M609.4,101.07a4.71,4.71,0,0,1-.33-1.42,9.6,9.6,0,0,1,.55-2.07,1.39,1.39,0,0,1,.73,0,8.84,8.84,0,0,1,.28,2.28c0,.42-.46.83-.71,1.24Z" transform="translate(-1.42 -1.41)"/><path class="cls-2" d="M530.93,83.69l4-.75.2,1-3.93.83Z" transform="translate(-1.42 -1.41)"/><path class="cls-2" d="M653.64,114.54c-.31.26-.67.58-.68.57-.68-.72-1.35-1.45-2-2.23a9.92,9.92,0,0,1,.75-.75Z" transform="translate(-1.42 -1.41)"/><path class="cls-2" d="M729.93,146.4c-2.22,0-2.63-.65-2.22-3.25Z" transform="translate(-1.42 -1.41)"/><path class="cls-2" d="M603.15,4.55c-.12,1.17-.24,2.33-.37,3.5L602,8l.47-3.51Z" transform="translate(-1.42 -1.41)"/><path class="cls-2" d="M635.26,175c-2-.07-2.17-1-1.25-2.48C634.42,173.38,634.84,174.2,635.26,175Z" transform="translate(-1.42 -1.41)"/><path class="cls-2" d="M651.51,160.07a19.63,19.63,0,0,1-1.32-1.86c-.16-.27,0-.69,0-1.05.34.09.91.09,1,.28.31.82.48,1.7.71,2.56Z" transform="translate(-1.42 -1.41)"/><path class="cls-2" d="M684,88.87l-1.55,2.71-.86-1.78Z" transform="translate(-1.42 -1.41)"/></svg>