<svg id="Слой_2" data-name="Слой 2" xmlns="http://www.w3.org/2000/svg" viewBox="0 0 724.38 925.3"><title>Лого-Чугайстер</title><rect x="134.87" y="39.56" width="161.54" height="10"/><polygon points="175.19 133.08 142.76 133.08 119.34 110.82 126.22 103.57 146.75 123.08 171.47 123.08 266.76 40.78 273.3 48.34 175.19 133.08"/><polygon points="195.91 196.81 121.11 196.81 103.53 183.63 67.39 183.63 50.91 196.81 15.09 196.81 15.09 186.81 47.4 186.81 63.88 173.63 106.86 173.63 124.45 186.81 185.91 186.81 185.91 112.89 195.91 112.89 195.91 196.81"/><polygon points="124.65 289.12 72.23 289.12 72.23 279.12 120.91 279.12 179.16 228.57 233.47 228.57 282.92 272.53 329.37 272.53 329.37 282.53 279.12 282.53 229.67 238.57 182.89 238.57 124.65 289.12"/><polygon points="205.2 427.58 172.22 427.58 145.79 398.51 175.42 363.74 332.07 363.74 339.4 351.83 347.92 357.07 337.66 373.74 180.03 373.74 159.11 398.3 176.64 417.58 205.2 417.58 205.2 427.58"/><rect x="145.43" y="396.06" width="10" height="43.97" transform="translate(-291.2 537.79) rotate(-88.57)"/><polygon points="231.01 372.92 202.28 338.06 232.01 317.38 237.72 325.59 216.9 340.07 238.73 366.56 231.01 372.92"/><polygon points="361.49 344.07 313.89 344.07 213.37 292.97 217.9 284.06 316.29 334.07 358.8 334.07 374.13 325.19 374.13 306.1 384.13 306.1 384.13 330.96 361.49 344.07"/><polygon points="293.13 505.09 288.7 496.12 321.53 479.89 329.26 454.49 374.13 434.71 374.13 361.04 384.13 361.04 384.13 441.23 337.49 461.79 329.83 486.94 293.13 505.09"/><polygon points="142.51 603.41 108.5 603.41 108.5 593.41 138.22 593.41 159.09 571.43 191.41 571.43 191.41 528.68 163.15 528.68 142.27 547.36 108.5 547.36 108.5 537.36 138.45 537.36 159.33 518.68 201.41 518.68 201.41 581.43 163.39 581.43 142.51 603.41"/><polygon points="343.66 5 317.29 44.56 351.35 200.6 453.55 277.53 607.4 258.85 621.68 277.53 613.99 368.74 681.02 452.25 716.19 452.25 675.53 354.45 701.9 239.62 662.34 185.22 495.31 169.84 465.64 140.16 486.52 33.57 457.94 5 343.66 5"/><path d="M743.63,477.44H698.58L628.79,390.5l7.7-91.28-11.38-14.88-153,18.58L366.82,223.67,331.9,63.74l29-43.55H480l31.92,31.92L491,158.7l26.51,26.51L685,200.64l42.23,58.07L700.71,374.2Zm-40.26-10h25.27l-38.4-92.36L716.47,260.9l-36.89-50.72L513,194.84,480.17,162,501.05,55.41,475.83,30.19H366.29L342.58,65.76,375.8,217.91l99.11,74.6,154.68-18.78,17.19,22.49-7.69,91.14Z" transform="translate(-19.95 -20.19)"/><polygon points="406.1 570.93 406.1 507.2 358.85 486.32 242.36 552.25 178.63 673.13 211.59 789.62 146.76 917.09 211.59 897.31 276.43 798.41 257.75 675.33 299.38 598.41 406.1 570.93"/><path d="M156.93,945.49,226.2,809.28l-33-116.52,65.35-123.94,119.95-67.89,52.53,23.21V595L322.7,622.89l-39.8,73.53,18.72,123.31-66.88,102Zm47-251.61,33,116.44L176.5,929.06l51.86-15.82,62.79-95.79L272.51,694.61,316,614.3l105.07-27.05v-56.6l-42-18.55-113,64Z" transform="translate(-19.95 -20.19)"/><polygon points="406.1 712.69 386.32 732.47 307.2 732.47 286.32 712.69 280.43 677.53 298.41 658.85 319.29 674.23 357.75 673.13 375.33 658.85 375.33 608.3 381.13 598.41 406.1 598.41 406.1 712.69"/><path d="M408.34,757.66H325.16l-23.54-22.3L295,696.06l22.76-23.65,23,17,35-1,14.42-11.72V627.13l7.94-13.53h32.83V735Zm-79.2-10H404.2l16.85-16.85V623.6H404l-3.67,6.25v51.57l-20.75,16.86-41.88,1.2-18.74-13.81-13.19,13.71,5.2,31Z" transform="translate(-19.95 -20.19)"/><polygon points="370.54 615.5 356.78 615.5 346.66 607.9 352.66 599.9 360.12 605.5 370.54 605.5 370.54 615.5"/><rect x="111" y="32.08" width="24.18" height="24.18"/><rect x="111" y="93.08" width="24.18" height="24.18"/><rect y="179.08" width="24.18" height="24.18"/><rect x="58" y="273.08" width="24.18" height="24.18"/><rect x="88" y="386.08" width="24.18" height="24.18"/><rect x="88" y="531.08" width="24.18" height="24.18"/><rect x="88" y="587.08" width="24.18" height="24.18"/><rect x="270" y="487.08" width="24.18" height="24.18"/><rect x="323" y="266.08" width="24.18" height="24.18"/><rect x="367" y="287.08" width="24.18" height="24.18"/><rect x="515.97" y="39.56" width="161.54" height="10"/><polygon points="669.61 133.08 637.19 133.08 539.08 48.34 545.61 40.78 640.91 123.08 665.62 123.08 686.15 103.57 693.04 110.82 669.61 133.08"/><polygon points="580.65 373.74 474.71 373.74 464.46 357.07 472.97 351.83 480.3 363.74 580.65 363.74 580.65 373.74"/><polygon points="580.36 373.93 572.66 367.54 595.46 340.06 574.65 325.59 580.36 317.38 610.11 338.07 580.36 373.93"/><polygon points="498.49 344.07 450.89 344.07 428.25 330.96 428.25 306.1 438.25 306.1 438.25 325.19 453.58 334.07 496.09 334.07 594.47 284.06 599 292.97 498.49 344.07"/><polygon points="519.25 505.09 482.54 486.94 474.89 461.79 428.25 441.23 428.25 361.04 438.25 361.04 438.25 434.71 483.12 454.49 490.85 479.89 523.68 496.12 519.25 505.09"/><polygon points="703.88 603.41 669.87 603.41 648.99 581.43 610.97 581.43 610.97 518.68 653.04 518.68 673.92 537.36 703.88 537.36 703.88 547.36 670.1 547.36 649.22 528.68 620.97 528.68 620.97 571.43 653.28 571.43 674.16 593.41 703.88 593.41 703.88 603.41"/><polygon points="406.28 570.93 406.28 507.2 453.53 486.32 570.01 552.25 633.75 673.13 600.78 789.62 665.62 917.09 600.78 897.31 535.95 798.41 554.63 675.33 512.99 598.41 406.28 570.93"/><path d="M695.36,945.49l-77.81-23.74-66.88-102,18.72-123.31-39.8-73.53L421.23,595V524.13l52.53-23.21,119.95,67.89,65.35,123.94-33,116.52Zm-71.43-32.25,51.86,15.82L615.39,810.33l33-116.44L586.23,576.07l-113-64-42,18.55v56.6L536.3,614.3l43.47,80.31L561.13,817.45Z" transform="translate(-19.95 -20.19)"/><polygon points="406.28 712.69 426.06 732.47 505.18 732.47 526.06 712.69 530.95 677.53 513.97 658.85 493.09 674.23 454.63 673.13 437.05 658.85 437.05 608.3 431.24 598.41 406.28 598.41 406.28 712.69"/><path d="M527.13,757.66H443.94L421.23,735V613.6h32.83L462,627.13v49.53l14.42,11.72,35,1,23.12-17,21.59,23.75-5.45,39.22Zm-79-10h75.06l18.16-17.2,4.33-31.11-12.37-13.61-18.63,13.73-41.88-1.2L452,681.41V629.84l-3.67-6.25h-17.1V730.81Z" transform="translate(-19.95 -20.19)"/><polygon points="455.59 615.5 441.84 615.5 441.84 605.5 452.26 605.5 459.72 599.9 465.72 607.9 455.59 615.5"/><rect x="697.15" y="52.27" width="24.18" height="24.18" transform="translate(1398.53 108.52) rotate(-180)"/><rect x="697.15" y="113.27" width="24.18" height="24.18" transform="translate(1398.53 230.52) rotate(-180)"/><rect x="584.42" y="381.43" width="24.18" height="24.18"/><rect x="720.15" y="551.27" width="24.18" height="24.18" transform="translate(1444.53 1106.52) rotate(-180)"/><rect x="720.15" y="607.27" width="24.18" height="24.18" transform="translate(1444.53 1218.52) rotate(-180)"/><rect x="538.15" y="507.27" width="24.18" height="24.18" transform="translate(1080.53 1018.52) rotate(-180)"/><rect x="441.15" y="307.27" width="24.18" height="24.18" transform="translate(886.53 618.52) rotate(-180)"/><polygon points="586.13 398.52 548.66 398.52 508.93 372.94 514.34 364.53 551.6 388.52 586.13 388.52 586.13 398.52"/></svg>