<?xml version="1.0" encoding="utf-8"?>
<!-- Generator: Adobe Illustrator 22.0.0, SVG Export Plug-In . SVG Version: 6.00 Build 0)  -->
<svg version="1.1" id="Слой_1" xmlns="http://www.w3.org/2000/svg" xmlns:xlink="http://www.w3.org/1999/xlink" x="0px" y="0px"
	 viewBox="0 0 580 315" style="enable-background:new 0 0 580 315;" xml:space="preserve">
<style type="text/css">
	.st0{fill:#42210B;}
	.st1{fill:#FBB03B;}
	.st2{opacity:0.48;}
	.st3{fill:#8C6239;}
	.st4{fill:#FFFFFF;}
	.st5{fill:#006837;}
	.st6{fill:#CCCCCC;}
</style>
<g>
	<path class="st0" d="M97.2,201c0,0-39.5-4.2-58.9-11.1c-19.4-6.9-26.5-15.4-26.5-15.4s4-0.2,2.8-1.6c-1.2-1.4-4.7,0.4-6.6-0.8
		c-1.9-1.2-8.6-5.5-7-2.4s8.1,6.5,8.1,6.5s18.5,12.3,30.8,16.8c12.4,4.5,56.3,10.1,56.3,10.1L97.2,201z"/>
</g>
<g>
	<path class="st1" d="M385.7,7.3V205c0,29.6-0.3,48.6-0.9,57.1c-0.6,8.5-3.4,16.1-8.3,22.9c-5,6.8-11.7,11.5-20.1,14.2
		c-8.5,2.6-21.2,3.9-38.2,3.9h-38.5v-51.7c4.6,0.4,8,0.5,10,0.5c5.5,0,9.8-1.3,13-4c3.2-2.7,5-6,5.5-9.9c0.5-3.9,0.7-11.4,0.7-22.7
		V7.3H385.7z"/>
	<path class="st1" d="M559.8,96.8h-71.4V74.9c0-10.2-0.9-16.7-2.7-19.5c-1.8-2.8-4.9-4.2-9.1-4.2c-4.6,0-8.1,1.9-10.5,5.7
		c-2.4,3.8-3.6,9.5-3.6,17.2c0,9.9,1.3,17.3,4,22.3c2.5,5,9.8,11,21.7,18.1c34.2,20.3,55.8,37,64.7,50c8.9,13,13.3,34,13.3,63
		c0,21.1-2.5,36.6-7.4,46.6c-4.9,10-14.5,18.4-28.6,25.1c-14.1,6.8-30.6,10.1-49.3,10.1c-20.6,0-38.2-3.9-52.7-11.7
		c-14.6-7.8-24.1-17.7-28.6-29.8c-4.5-12.1-6.8-29.2-6.8-51.3v-19.4h71.4v36c0,11.1,1,18.2,3,21.4c2,3.2,5.6,4.8,10.7,4.8
		c5.1,0,8.9-2,11.4-6c2.5-4,3.7-10,3.7-17.9c0-17.4-2.4-28.8-7.1-34.2c-4.9-5.4-16.9-14.3-36-26.9c-19.1-12.7-31.8-21.9-38-27.6
		c-6.2-5.7-11.4-13.6-15.4-23.8c-4.1-10.1-6.1-23-6.1-38.7c0-22.7,2.9-39.2,8.7-49.7c5.8-10.5,15.1-18.7,28-24.6
		C440,4,455.6,1.1,473.9,1.1c20,0,37,3.2,51.1,9.7c14.1,6.5,23.4,14.6,28,24.4c4.6,9.8,6.9,26.5,6.9,50V96.8z"/>
</g>
<g class="st2">
	<rect x="268" y="156" class="st1" width="312" height="159"/>
</g>
<g>
	<path class="st3" d="M102.3,93.3c-19.4,19.8-75,80.4-28.7,134.3c36.9,33.9,95.9,10.9,126.4-23.6c18.5-19.4,52.8-60.2,52.8-60.2
		l-60.3,14.6l39.4-47.9l-64.4,14.6l32.2-52.4l-61.2,24.1c0,0,25.9-52.3,26.2-52.1S121.7,73.6,102.3,93.3z"/>
</g>
<g>
	<g>
		<path class="st0" d="M101.2,92.3c-32.9,33.5-66.1,85.1-33.6,130.2c16.5,22.9,47.6,26.9,73.3,20.1c14.1-3.7,27.4-10.3,39.2-18.8
			c10.8-7.7,19.7-17.1,28.5-26.9c15.5-17,30.4-34.4,45.2-52c0.9-1.1,0.1-2.9-1.5-2.5c-20.1,4.9-40.2,9.8-60.3,14.6
			c0.5,0.8,1,1.7,1.5,2.5c13.1-16,26.3-31.9,39.4-47.9c0.9-1.1,0.1-2.9-1.5-2.5c-21.5,4.9-42.9,9.7-64.4,14.6
			c0.6,0.7,1.1,1.5,1.7,2.2c10.7-17.5,21.5-34.9,32.2-52.4c0.6-1-0.4-2.7-1.7-2.2c-20.4,8-40.8,16.1-61.2,24.1
			c0.6,0.7,1.1,1.5,1.7,2.2c8.7-17.4,17.4-34.7,26.2-52.1c0.6-1.2-0.7-2.9-2.1-2.1C142.2,58.1,119.8,73.6,101.2,92.3
			c-1.4,1.4,0.8,3.5,2.1,2.1c18.4-18.5,42.2-30.3,42.2-30.3L146,70c0,0,0,8.7-8.7,26.1c-0.5,1,0.4,2.7,1.7,2.2
			c20.4-8,42-13.3,42-13.3v7c0,0-4,14.9-14.7,32.4c-0.7,1.2,0.5,2.5,1.7,2.2c21.5-4.9,44.4-6.6,44.4-6.6l0.5,7.5
			c0,0-8.3,13.9-21.4,29.9c-0.9,1.1-0.1,2.9,1.5,2.5c20.1-4.9,42.3-8.6,42.3-8.6l-1.5,9.5c0,0-4.8,8.9-16.5,22.1
			c-17.2,19.5-34.2,38.5-58.2,49.9c-24.6,11.7-55.3,15.2-78.6-1.5c-12.2-8.8-20.1-24.4-22.5-39c-2.1-12.9,0-26,4.4-38.1
			c8.3-22.9,24.1-42.5,41-59.7C104.7,93,102.6,90.9,101.2,92.3z"/>
	</g>
</g>
<g>
	<circle class="st4" cx="79.4" cy="168.4" r="17.9"/>
	<path class="st0" d="M79.4,187.8c-10.7,0-19.4-8.7-19.4-19.4S68.7,149,79.4,149s19.4,8.7,19.4,19.4S90,187.8,79.4,187.8z M79.4,152
		c-9,0-16.4,7.3-16.4,16.4s7.3,16.4,16.4,16.4s16.4-7.3,16.4-16.4S88.4,152,79.4,152z"/>
</g>
<g>
	<circle class="st4" cx="126.1" cy="168.4" r="17.9"/>
	<path class="st0" d="M126.1,187.8c-10.7,0-19.4-8.7-19.4-19.4s8.7-19.4,19.4-19.4s19.4,8.7,19.4,19.4S136.8,187.8,126.1,187.8z
		 M126.1,152c-9,0-16.4,7.3-16.4,16.4s7.3,16.4,16.4,16.4s16.4-7.3,16.4-16.4S135.1,152,126.1,152z"/>
</g>
<g>
	<circle cx="80.9" cy="165.9" r="7.3"/>
	<path class="st5" d="M80.9,174.8c-3.7,0-7.2-2.4-8.4-6.2c-1.5-4.6,1.1-9.6,5.7-11.1c2.2-0.7,4.6-0.5,6.7,0.6
		c2.1,1.1,3.6,2.9,4.4,5.2l0,0c0.7,2.2,0.5,4.6-0.6,6.7c-1.1,2.1-2.9,3.6-5.2,4.4C82.7,174.6,81.8,174.8,80.9,174.8z M80.9,160.1
		c-0.6,0-1.2,0.1-1.8,0.3c-3.1,1-4.8,4.3-3.8,7.3c1,3.1,4.3,4.8,7.3,3.8c3.1-1,4.8-4.3,3.8-7.3l0,0c-0.5-1.5-1.5-2.7-2.9-3.4
		C82.7,160.3,81.8,160.1,80.9,160.1z"/>
</g>
<g>
	<circle cx="127.6" cy="165.9" r="7.3"/>
	<path class="st5" d="M127.6,174.8c-4.9,0-8.8-4-8.8-8.8s4-8.8,8.8-8.8c4.9,0,8.8,4,8.8,8.8S132.5,174.8,127.6,174.8z M127.6,160.1
		c-3.2,0-5.8,2.6-5.8,5.8c0,3.2,2.6,5.8,5.8,5.8c3.2,0,5.8-2.6,5.8-5.8C133.5,162.7,130.9,160.1,127.6,160.1z"/>
</g>
<g>
	<path class="st3" d="M76.7,196.3c0,0-34,51.3-28.4,54.1c5.6,2.8,63.8-35.7,63.8-35.7L76.7,196.3z"/>
</g>
<g>
	<g>
		<path class="st0" d="M107.4,215.7c-14.6,9.6-33.7,20.8-33.7,20.8l-13.2-10.4c0,0,12.4-20.7,16.4-26.7c-0.5-0.3-1.1-0.6-1.6-1
			c0,0-0.2-0.2-0.4-0.3c-0.1,0-0.2-0.1-0.2-0.1c-0.3-0.1-0.6-0.2-0.9-0.4c-4,6-7.8,12.1-11.6,18.3c-5.7,9.4-12.5,19.2-15.7,29.6
			c-2,6.6,2.6,7.4,8.7,4.9c11.8-4.9,22.4-11.9,33-18.5c7.7-4.8,15.3-9.6,22.9-14.6C109.8,216.8,108.6,216.2,107.4,215.7z"/>
	</g>
</g>
<g>
	<g>
		<path class="st0" d="M104.5,219.5c1.9-1.3,40.6-20.3,40.6-20.3s4.4,17.1-6.3,20.3s-24.1,0-27.9,0S104.5,219.5,104.5,219.5z"/>
	</g>
	<g>
		<g>
			<path class="st0" d="M105.2,220.8c6.6-4.1,14.1-7.2,21-10.6c6.5-3.2,13.1-6.5,19.6-9.7c-0.7-0.3-1.5-0.6-2.2-0.9
				c1.7,6.6,1.8,16.4-6.1,18.7c-10.6,3.1-22.3-0.3-33.1-0.3c-1.9,0-1.9,3,0,3c5.8,0,11.2,0.6,17,1.1c6.4,0.5,15.4,1.2,20.9-2.7
				c6.2-4.4,5.8-14,4.2-20.6c-0.3-1-1.4-1.3-2.2-0.9c-6.5,3.2-13.1,6.4-19.6,9.7c-7,3.4-14.4,6.5-21,10.6
				C102.1,219.2,103.6,221.8,105.2,220.8z"/>
		</g>
	</g>
</g>
<g>
	<path class="st0" d="M64,147.3c5.6-5.2,12-11.6,12-11.6l16.4,3.2l-2.7,3.6L77.9,140L64,147.3z"/>
</g>
<g>
	<path class="st0" d="M145.2,146.8c-5.7-5.4-12.3-12.1-12.3-12.1l-17.3,2.6l2.7,3.7l12.4-2L145.2,146.8z"/>
</g>
<g>
	<path class="st0" d="M162.8,192.3c0,0,35.1-1.5,52.8-6.8s24.7-12.7,24.7-12.7s-3.5-0.4-2.3-1.7c1.2-1.2,4.1,0.6,5.9-0.4
		s8.1-4.6,6.4-1.8c-1.7,2.7-7.7,5.5-7.7,5.5s-17.4,10.4-28.7,13.8c-11.3,3.4-50.4,6-50.4,6L162.8,192.3z"/>
	<path class="st0" d="M163.2,194.7l-1.1-2.9l0.7,0c0.4,0,35.3-1.6,52.7-6.8c14.3-4.3,21.6-10,23.8-11.9c-0.8-0.2-1.7-0.5-1.9-1.2
		c-0.1-0.2-0.1-0.7,0.3-1.2c0.8-0.8,2-0.6,3.2-0.4c1,0.2,2.1,0.4,2.8-0.1c5.3-3,6.7-3.2,7.2-2.7c0.5,0.5,0,1.3-0.2,1.5
		c-1.8,2.8-7.7,5.6-8,5.7c-0.1,0.1-17.5,10.4-28.8,13.8c-11.2,3.4-48.9,5.9-50.5,6L163.2,194.7z M163.5,192.7l0.4,0.9
		c4-0.3,39.4-2.8,49.9-6c11.1-3.4,28.4-13.6,28.6-13.7c0.1-0.1,6-2.8,7.6-5.4c0.1-0.1,0.1-0.2,0.1-0.2c-0.5,0.1-2,0.6-5.9,2.8
		c-1,0.6-2.3,0.4-3.4,0.2c-1-0.2-1.9-0.3-2.3,0.1c-0.1,0.1-0.1,0.2-0.1,0.2c0.1,0.2,1.1,0.5,2.1,0.7l1,0.1l-0.7,0.7
		c-0.3,0.3-7.3,7.6-24.9,12.9C199.6,190.8,168.5,192.5,163.5,192.7z"/>
</g>
<g>
	<path d="M59.1,226.9l13.1,11.4c0,0-19.5,13.5-22.8,10.9C46,246.6,59.1,226.9,59.1,226.9z"/>
</g>
<g>
	<path class="st0" d="M161,235l4.9,74l16.1,2c0,0,0-5-6.2-5c-6.2,0-6.2,0-6.2,0l-6.2-72L161,235z"/>
</g>
<g>
	<path class="st0" d="M122,245.8l-4.9,59.6L101,307c0,0,0-4,6.2-4c6.2,0,6.2,0,6.2,0l6.2-58L122,245.8z"/>
</g>
<g>
	<path class="st0" d="M332.4,183.4c-2.4,0-4.5-0.9-6.2-2.6s-2.6-3.8-2.6-6.2c0-2.4,0.9-4.5,2.6-6.2c1.7-1.7,3.8-2.6,6.2-2.6
		c2.4,0,4.5,0.9,6.2,2.6c1.7,1.7,2.6,3.8,2.6,6.2c0,2.4-0.9,4.5-2.6,6.2C336.8,182.5,334.8,183.4,332.4,183.4z M332.4,278
		c-2.4,0-4.5-0.9-6.2-2.6s-2.6-3.8-2.6-6.2v-68.9c0-2.4,0.9-4.5,2.6-6.2s3.8-2.6,6.2-2.6c2.4,0,4.5,0.9,6.2,2.6
		c1.7,1.7,2.6,3.8,2.6,6.2v68.9c0,2.4-0.9,4.5-2.6,6.2C336.8,277.1,334.8,278,332.4,278z"/>
	<path class="st0" d="M324.7,294.9c6.7-0.2,12.4-2.7,17.2-7.5c4.9-5,7.4-11,7.4-18.1v-69.1c0-2.4,0.9-4.5,2.6-6.2s3.8-2.6,6.2-2.6
		c2.4,0,4.5,0.9,6.2,2.6c1.7,1.7,2.6,3.8,2.6,6.2v68.9c0,0.5,0,0.9-0.1,1.4c-0.3,11.4-4.5,21.2-12.6,29.3
		c-8.4,8.4-18.5,12.6-30.4,12.6h-0.3c-2.4,0-4.5-0.9-6.2-2.6c-1.7-1.7-2.6-3.8-2.6-6.2c0-2.4,0.9-4.5,2.6-6.2
		c1.7-1.7,3.8-2.6,6.2-2.6C323.9,294.9,324.3,294.9,324.7,294.9z M358.1,183.4c-2.4,0-4.5-0.9-6.2-2.6s-2.6-3.8-2.6-6.2
		c0-2.4,0.9-4.5,2.6-6.2c1.7-1.7,3.8-2.6,6.2-2.6c2.4,0,4.5,0.9,6.2,2.6c1.7,1.7,2.6,3.8,2.6,6.2c0,2.4-0.9,4.5-2.6,6.2
		C362.6,182.5,360.5,183.4,358.1,183.4z"/>
	<path class="st0" d="M463.3,269.5c0,3.3-0.9,5.6-2.6,6.7c-1.7,1.1-3.8,1.7-6.2,1.7s-4.5-0.6-6.2-1.7c-1.7-1.1-2.6-3.3-2.6-6.5
		c-7.4,5.5-15.8,8.3-25.4,8.3c-11.9,0-22-4.2-30.4-12.6c-8.4-8.4-12.6-18.5-12.6-30.4c0-11.9,4.2-22,12.6-30.4
		c8.4-8.4,18.5-12.6,30.4-12.6s22,4.2,30.4,12.6c8.3,8.3,12.5,18.3,12.6,30V269.5z M438.4,216.9c-5-5-11-7.5-18.1-7.5
		s-13.1,2.5-18,7.5c-5,5-7.5,11-7.5,18c0,7.1,2.5,13.1,7.5,18.1s11,7.5,18,7.5s13.1-2.5,18.1-7.5c4.2-4.2,6.7-9.2,7.3-15v-3.3
		c0-0.5,0-1,0.1-1.6C445.5,226.9,443,221.4,438.4,216.9z"/>
	<path class="st0" d="M489.6,246.4v22.8c0,2.4-0.9,4.5-2.6,6.2c-1.7,1.7-3.8,2.6-6.2,2.6s-4.5-0.9-6.2-2.6s-2.6-3.8-2.6-6.2v-93.9
		c0-2.4,0.9-4.5,2.6-6.2c1.7-1.7,3.8-2.6,6.2-2.6s4.5,0.9,6.2,2.6c1.7,1.7,2.6,3.8,2.6,6.2v48.2l37.3-29.8c1.6-1.3,3.4-1.9,5.4-1.9
		c2.4,0,4.4,0.8,6.1,2.5c1.7,1.7,2.5,3.7,2.5,6.1c0,2.4-0.8,4.5-2.5,6.1c-0.5,0.5-1.1,0.9-1.6,1.3l-33.6,26.9l34.8,27.8l-0.2,0.2
		c0.2,0.2,0.4,0.3,0.6,0.5c1.7,1.7,2.5,3.8,2.5,6.1c0,2.4-0.8,4.5-2.5,6.1c-1.7,1.7-3.7,2.5-6.1,2.5c-2,0-3.8-0.6-5.3-1.8l-0.1,0.1
		L489.6,246.4z"/>
</g>
<g>
	<circle class="st0" cx="69.5" cy="220.5" r="1.5"/>
</g>
<g>
	<circle class="st0" cx="76.5" cy="209.5" r="1.5"/>
</g>
<g>
	<circle class="st0" cx="92.5" cy="220.5" r="1.5"/>
</g>
<g>
	<circle class="st0" cx="81.5" cy="221.5" r="1.5"/>
</g>
<g>
	<circle class="st0" cx="74.5" cy="230.5" r="1.5"/>
</g>
<g>
	<path class="st6" d="M61.6,232.9l-3.7,6.5c-0.5,0.9-1.6,1.2-2.5,0.7h0c-0.9-0.5-1.2-1.6-0.7-2.5l3.7-6.5c0.5-0.9,1.6-1.2,2.5-0.7
		l0,0C61.9,230.9,62.2,232,61.6,232.9z"/>
</g>
<g>
	<circle class="st6" cx="80.5" cy="163.5" r="1.5"/>
</g>
<g>
	<circle class="st6" cx="127.5" cy="163.5" r="1.5"/>
</g>
</svg>
