<?xml version="1.0" encoding="utf-8"?>
<!-- Generator: Adobe Illustrator 22.0.0, SVG Export Plug-In . SVG Version: 6.00 Build 0)  -->
<svg version="1.1" id="Слой_1" xmlns="http://www.w3.org/2000/svg" xmlns:xlink="http://www.w3.org/1999/xlink" x="0px" y="0px"
	 viewBox="0 0 598 315" style="enable-background:new 0 0 598 315;" xml:space="preserve">
<style type="text/css">
	.st0{fill:#4C2311;}
	.st1{fill:#FBB03B;}
	.st2{opacity:0.48;}
	.st3{fill:#8E3F21;}
	.st4{fill:#FFFFFF;}
	.st5{fill:#42210B;}
	.st6{fill:#006837;}
	.st7{fill:#CCCCCC;}
	.st8{fill:#997059;}
</style>
<g>
	<path class="st0" d="M107.4,190.7c0,0-43.2-4.6-64.4-12.1c-21.2-7.5-29-16.8-29-16.8s4.4-0.2,3.1-1.8c-1.3-1.5-5.1,0.4-7.2-0.9
		s-9.4-6-7.7-2.6c1.8,3.4,8.9,7.1,8.9,7.1s20.2,13.5,33.7,18.4c13.6,4.9,61.6,11.1,61.6,11.1L107.4,190.7z"/>
</g>
<g>
	<path class="st1" d="M403.1,7.3V205c0,29.6-0.3,48.6-0.9,57.1s-3.4,16.1-8.3,22.9c-5,6.8-11.7,11.5-20.1,14.2
		c-8.5,2.6-21.2,3.9-38.2,3.9h-38.5v-51.7c4.6,0.4,8,0.5,10,0.5c5.5,0,9.8-1.3,13-4s5-6,5.5-9.9s0.7-11.4,0.7-22.7V7.3H403.1z"/>
	<path class="st1" d="M577.2,96.8h-71.4V74.9c0-10.2-0.9-16.7-2.7-19.5c-1.8-2.8-4.9-4.2-9.1-4.2c-4.6,0-8.1,1.9-10.5,5.7
		s-3.6,9.5-3.6,17.2c0,9.9,1.3,17.3,4,22.3c2.5,5,9.8,11,21.7,18.1c34.2,20.3,55.8,37,64.7,50c8.9,13,13.3,34,13.3,63
		c0,21.1-2.5,36.6-7.4,46.6s-14.5,18.4-28.6,25.1c-14.1,6.8-30.6,10.1-49.3,10.1c-20.6,0-38.2-3.9-52.7-11.7
		c-14.6-7.8-24.1-17.7-28.6-29.8c-4.5-12.1-6.8-29.2-6.8-51.3v-19.4h71.4v36c0,11.1,1,18.2,3,21.4s5.6,4.8,10.7,4.8s8.9-2,11.4-6
		s3.7-10,3.7-17.9c0-17.4-2.4-28.8-7.1-34.2c-4.9-5.4-16.9-14.3-36-26.9c-19.1-12.7-31.8-21.9-38-27.6c-6.2-5.7-11.4-13.6-15.4-23.8
		c-4.1-10.1-6.1-23-6.1-38.7c0-22.7,2.9-39.2,8.7-49.7c5.8-10.5,15.1-18.7,28-24.6C457.4,4,473,1.1,491.3,1.1c20,0,37,3.2,51.1,9.7
		c14.1,6.5,23.4,14.6,28,24.4s6.9,26.5,6.9,50v11.6H577.2z"/>
</g>
<g class="st2">
	<rect x="285.4" y="156" class="st1" width="312" height="159"/>
</g>
<g>
	<g>
		<path class="st3" d="M113,72.8c-21.2,21.7-82.1,88-31.4,146.9c40.4,37.1,104.9,11.9,138.3-25.8c20.2-21.2,57.8-65.9,57.8-65.9
			l-66,16l43.1-52.4l-70.5,16l35.2-57.3l-67,26.4c0,0,28.3-57.2,28.7-57C181.6,19.9,134.3,51.3,113,72.8z"/>
	</g>
</g>
<g>
	<g>
		<g>
			<path class="st0" d="M111.8,71.7c-36,36.7-72.3,93.1-36.8,142.4c18.1,25.1,52.1,29.4,80.2,22c15.4-4,30-11.3,42.9-20.6
				c11.8-8.4,21.6-18.7,31.2-29.4c17-18.6,33.3-37.6,49.5-56.9c1-1.2,0.1-3.2-1.6-2.7c-22,5.4-44,10.7-66,16
				c0.5,0.9,1.1,1.9,1.6,2.7c14.3-17.5,28.8-34.9,43.1-52.4c1-1.2,0.1-3.2-1.6-2.7c-23.5,5.4-46.9,10.6-70.5,16
				c0.7,0.8,1.2,1.6,1.9,2.4c11.7-19.1,23.5-38.2,35.2-57.3c0.7-1.1-0.4-3-1.9-2.4c-22.3,8.8-44.6,17.6-67,26.4
				c0.7,0.8,1.2,1.6,1.9,2.4c9.5-19,19-38,28.7-57c0.7-1.3-0.8-3.2-2.3-2.3C156.7,34.3,132.2,51.3,111.8,71.7
				c-1.5,1.5,0.9,3.8,2.3,2.3c20.1-20.2,46.2-33.2,46.2-33.2l0.5,6.5c0,0,0,9.5-9.5,28.6c-0.5,1.1,0.4,3,1.9,2.4
				c22.3-8.8,46-14.6,46-14.6v7.7c0,0-4.4,16.3-16.1,35.4c-0.8,1.3,0.5,2.7,1.9,2.4c23.5-5.4,48.6-7.2,48.6-7.2l0.5,8.2
				c0,0-9.1,15.2-23.4,32.7c-1,1.2-0.1,3.2,1.6,2.7c22-5.4,46.3-9.4,46.3-9.4l-1.6,10.4c0,0-5.3,9.7-18.1,24.2
				c-18.8,21.3-37.4,42.1-63.7,54.6c-26.9,12.8-60.5,16.6-86-1.6c-13.3-9.6-22-26.7-24.6-42.7c-2.3-14.1,0-28.4,4.8-41.7
				c9.1-25.1,26.4-46.5,44.9-65.3C115.7,72.5,113.4,70.2,111.8,71.7z"/>
		</g>
	</g>
</g>
<g>
	<circle class="st4" cx="88" cy="155" r="19.6"/>
	<path class="st5" d="M88,176.2c-11.7,0-21.2-9.5-21.2-21.2s9.5-21.2,21.2-21.2s21.2,9.5,21.2,21.2C109.2,166.7,99.6,176.2,88,176.2
		z M88,137C78.1,137,70,145,70,155c0,10,8,17.9,17.9,17.9s17.9-8,17.9-17.9C105.9,145,97.8,137,88,137z"/>
</g>
<g>
	<circle class="st4" cx="139.1" cy="155" r="19.6"/>
	<path class="st5" d="M139.1,176.2c-11.7,0-21.2-9.5-21.2-21.2s9.5-21.2,21.2-21.2s21.2,9.5,21.2,21.2S150.8,176.2,139.1,176.2z
		 M139.1,137c-9.8,0-17.9,8-17.9,17.9c0,10,8,17.9,17.9,17.9s17.9-8,17.9-17.9C157,145,148.9,137,139.1,137z"/>
</g>
<g>
	<circle cx="89.6" cy="152.2" r="8"/>
	<path class="st6" d="M89.6,162c-4,0-7.9-2.6-9.2-6.8c-1.6-5,1.2-10.5,6.2-12.1c2.4-0.8,5-0.5,7.3,0.7s3.9,3.2,4.8,5.7l0,0
		c0.8,2.4,0.5,5-0.7,7.3c-1.2,2.3-3.2,3.9-5.7,4.8C91.6,161.8,90.6,162,89.6,162z M89.6,145.9c-0.7,0-1.3,0.1-2,0.3
		c-3.4,1.1-5.3,4.7-4.2,8c1.1,3.4,4.7,5.3,8,4.2c3.4-1.1,5.3-4.7,4.2-8l0,0c-0.5-1.6-1.6-3-3.2-3.7
		C91.6,146.1,90.6,145.9,89.6,145.9z"/>
</g>
<g>
	<circle cx="140.7" cy="152.2" r="8"/>
	<path class="st6" d="M140.7,162c-5.4,0-9.6-4.4-9.6-9.6s4.4-9.6,9.6-9.6c5.4,0,9.6,4.4,9.6,9.6S146.1,162,140.7,162z M140.7,145.9
		c-3.5,0-6.3,2.8-6.3,6.3s2.8,6.3,6.3,6.3s6.3-2.8,6.3-6.3C147.2,148.7,144.3,145.9,140.7,145.9z"/>
</g>
<g>
	<path class="st3" d="M85,185.5c0,0-37.2,56.1-31.1,59.2s69.8-39.1,69.8-39.1L85,185.5z"/>
</g>
<g>
	<g>
		<path class="st0" d="M118.6,206.7c-16,10.5-36.9,22.8-36.9,22.8l-14.4-11.4c0,0,13.6-22.6,17.9-29.2c-0.5-0.3-1.2-0.7-1.8-1.1
			c0,0-0.2-0.2-0.4-0.3c-0.1,0-0.2-0.1-0.2-0.1c-0.3-0.1-0.7-0.2-1-0.4c-4.4,6.6-8.5,13.2-12.7,20c-6.2,10.3-13.7,21-17.2,32.4
			c-2.2,7.2,2.8,8.1,9.5,5.4c12.9-5.4,24.5-13,36.1-20.2c8.4-5.3,16.7-10.5,25.1-16C121.2,207.9,119.9,207.3,118.6,206.7z"/>
	</g>
</g>
<g>
	<g>
		<path class="st0" d="M115.4,210.9c2.1-1.4,44.4-22.2,44.4-22.2s4.8,18.7-6.9,22.2c-11.7,3.5-26.4,0-30.5,0
			C118.3,210.9,115.4,210.9,115.4,210.9z"/>
	</g>
	<g>
		<g>
			<path class="st0" d="M116.2,212.3c7.2-4.5,15.4-7.9,23-11.6c7.1-3.5,14.3-7.1,21.4-10.6c-0.8-0.3-1.6-0.7-2.4-1
				c1.9,7.2,2,17.9-6.7,20.5c-11.6,3.4-24.4-0.3-36.2-0.3c-2.1,0-2.1,3.3,0,3.3c6.3,0,12.3,0.7,18.6,1.2c7,0.5,16.8,1.3,22.9-3
				c6.8-4.8,6.3-15.3,4.6-22.5c-0.3-1.1-1.5-1.4-2.4-1c-7.1,3.5-14.3,7-21.4,10.6c-7.7,3.7-15.8,7.1-23,11.6
				C112.8,210.6,114.4,213.4,116.2,212.3z"/>
		</g>
	</g>
</g>
<g>
	<path class="st5" d="M71.1,131.9c6.1-5.7,13.1-12.7,13.1-12.7l17.9,3.5l-3,3.9l-12.9-2.7L71.1,131.9z"/>
</g>
<g>
	<path class="st5" d="M160,131.4c-6.2-5.9-13.5-13.2-13.5-13.2l-18.9,2.8l3,4l13.6-2.2L160,131.4z"/>
</g>
<g>
	<path class="st0" d="M179.2,181.1c0,0,38.4-1.6,57.8-7.4c19.4-5.8,27-13.9,27-13.9s-3.8-0.4-2.5-1.9c1.3-1.3,4.5,0.7,6.5-0.4
		c2-1.1,8.9-5,7-2c-1.9,3-8.4,6-8.4,6s-19,11.4-31.4,15.1c-12.4,3.7-55.1,6.6-55.1,6.6L179.2,181.1z"/>
	<path class="st0" d="M179.7,183.8l-1.2-3.2h0.8c0.4,0,38.6-1.8,57.7-7.4c15.6-4.7,23.6-10.9,26-13c-0.9-0.2-1.9-0.5-2.1-1.3
		c-0.1-0.2-0.1-0.8,0.3-1.3c0.9-0.9,2.2-0.7,3.5-0.4c1.1,0.2,2.3,0.4,3.1-0.1c5.8-3.3,7.3-3.5,7.9-3c0.5,0.5,0,1.4-0.2,1.6
		c-2,3.1-8.4,6.1-8.8,6.2c-0.1,0.1-19.1,11.4-31.5,15.1c-12.3,3.7-53.5,6.5-55.3,6.6L179.7,183.8z M180,181.6l0.4,1
		c4.4-0.3,43.1-3.1,54.6-6.6c12.1-3.7,31.1-14.9,31.3-15c0.1-0.1,6.6-3.1,8.3-5.9c0.1-0.1,0.1-0.2,0.1-0.2c-0.5,0.1-2.2,0.7-6.5,3.1
		c-1.1,0.7-2.5,0.4-3.7,0.2c-1.1-0.2-2.1-0.3-2.5,0.1c-0.1,0.1-0.1,0.2-0.1,0.2c0.1,0.2,1.2,0.5,2.3,0.8l1.1,0.1l-0.8,0.8
		c-0.3,0.3-8,8.3-27.2,14.1C219.5,179.5,185.5,181.4,180,181.6z"/>
</g>
<g>
	<path d="M65.8,219l14.3,12.5c0,0-21.3,14.8-24.9,11.9C51.4,240.5,65.8,219,65.8,219z"/>
</g>
<g>
	<path class="st0" d="M177.2,227.9l5.4,81l17.6,2.2c0,0,0-5.5-6.8-5.5s-6.8,0-6.8,0l-6.8-78.8L177.2,227.9z"/>
</g>
<g>
	<path class="st0" d="M134.6,239.7l-5.4,65.2l-17.6,1.8c0,0,0-4.4,6.8-4.4c6.8,0,6.8,0,6.8,0l6.8-63.5L134.6,239.7z"/>
</g>
<path class="st0" d="M336.8,184.4c-2.4,0-4.5-0.9-6.2-2.6s-2.6-3.8-2.6-6.2s0.9-4.5,2.6-6.2s3.8-2.6,6.2-2.6c2.4,0,4.5,0.9,6.2,2.6
	c1.7,1.7,2.6,3.8,2.6,6.2s-0.9,4.5-2.6,6.2C341.2,183.5,339.2,184.4,336.8,184.4z"/>
<path class="st0" d="M349.8,278c-2.4,0-4.5-0.9-6.2-2.6s-2.6-3.8-2.6-6.2v-68.9c0-2.4,0.9-4.5,2.6-6.2s3.8-2.6,6.2-2.6
	c2.4,0,4.5,0.9,6.2,2.6c1.7,1.7,2.6,3.8,2.6,6.2v68.9c0,2.4-0.9,4.5-2.6,6.2C354.2,277.1,352.2,278,349.8,278z"/>
<path class="st0" d="M343.1,294.9c6.7-0.2,12.4-2.7,17.2-7.5c4.9-5,7.4-11,7.4-18.1v-69.1c0-2.4,0.9-4.5,2.6-6.2s3.8-2.6,6.2-2.6
	c2.4,0,4.5,0.9,6.2,2.6c1.7,1.7,2.6,3.8,2.6,6.2v68.9c0,0.5,0,0.9-0.1,1.4c-0.3,11.4-4.5,21.2-12.6,29.3
	c-8.4,8.4-18.5,12.6-30.4,12.6h-0.3c-2.4,0-4.5-0.9-6.2-2.6s-2.6-3.8-2.6-6.2c0-2.4,0.9-4.5,2.6-6.2s3.8-2.6,6.2-2.6
	C342.3,294.9,342.7,294.9,343.1,294.9z"/>
<path class="st0" d="M363.5,184.4c-2.4,0-4.5-0.9-6.2-2.6s-2.6-3.8-2.6-6.2s0.9-4.5,2.6-6.2s3.8-2.6,6.2-2.6c2.4,0,4.5,0.9,6.2,2.6
	c1.7,1.7,2.6,3.8,2.6,6.2s-0.9,4.5-2.6,6.2C368,183.5,365.9,184.4,363.5,184.4z"/>
<path class="st0" d="M479.7,269.5c0,3.3-0.9,5.6-2.6,6.7s-3.8,1.7-6.2,1.7s-4.5-0.6-6.2-1.7s-2.6-3.3-2.6-6.5
	c-7.4,5.5-15.8,8.3-25.4,8.3c-11.9,0-22-4.2-30.4-12.6s-12.6-18.5-12.6-30.4s4.2-22,12.6-30.4s18.5-12.6,30.4-12.6s22,4.2,30.4,12.6
	c8.3,8.3,12.5,18.3,12.6,30L479.7,269.5L479.7,269.5z M454.8,216.9c-5-5-11-7.5-18.1-7.5s-13.1,2.5-18,7.5c-5,5-7.5,11-7.5,18
	c0,7.1,2.5,13.1,7.5,18.1s11,7.5,18,7.5s13.1-2.5,18.1-7.5c4.2-4.2,6.7-9.2,7.3-15v-3.3c0-0.5,0-1,0.1-1.6
	C461.9,226.9,459.4,221.4,454.8,216.9z"/>
<path class="st0" d="M507,246.4v22.8c0,2.4-0.9,4.5-2.6,6.2s-3.8,2.6-6.2,2.6s-4.5-0.9-6.2-2.6s-2.6-3.8-2.6-6.2v-93.9
	c0-2.4,0.9-4.5,2.6-6.2s3.8-2.6,6.2-2.6s4.5,0.9,6.2,2.6c1.7,1.7,2.6,3.8,2.6,6.2v48.2l37.3-29.8c1.6-1.3,3.4-1.9,5.4-1.9
	c2.4,0,4.4,0.8,6.1,2.5c1.7,1.7,2.5,3.7,2.5,6.1c0,2.4-0.8,4.5-2.5,6.1c-0.5,0.5-1.1,0.9-1.6,1.3l-33.6,26.9l34.8,27.8l-0.2,0.2
	c0.2,0.2,0.4,0.3,0.6,0.5c1.7,1.7,2.5,3.8,2.5,6.1c0,2.4-0.8,4.5-2.5,6.1c-1.7,1.7-3.7,2.5-6.1,2.5c-2,0-3.8-0.6-5.3-1.8l-0.1,0.1
	L507,246.4z"/>
<g>
	<circle class="st5" cx="77.1" cy="212" r="1.6"/>
</g>
<g>
	<circle class="st5" cx="84.8" cy="200" r="1.6"/>
</g>
<g>
	<circle class="st5" cx="102.3" cy="212" r="1.6"/>
</g>
<g>
	<circle class="st5" cx="90.3" cy="213.1" r="1.6"/>
</g>
<g>
	<circle class="st5" cx="82.6" cy="222.9" r="1.6"/>
</g>
<g>
	<path class="st7" d="M68.5,225.6l-4,7.1c-0.5,1-1.8,1.3-2.7,0.8l0,0c-1-0.5-1.3-1.8-0.8-2.7l4-7.1c0.5-1,1.8-1.3,2.7-0.8l0,0
		C68.8,223.4,69.2,224.6,68.5,225.6z"/>
</g>
<g>
	<circle class="st7" cx="89.2" cy="149.6" r="1.6"/>
</g>
<g>
	<circle class="st7" cx="140.6" cy="149.6" r="1.6"/>
</g>
<path class="st8" d="M159.1,42c-17.3,10.6-30.4,19.7-40.6,29.9s-13.8,15.7-13.8,15.7s7.8-11.1,27.2-22.8S159.1,42,159.1,42z"/>
<path class="st8" d="M154.9,80.4c0,0,16.8-7.2,24.7-9.2s16.1-3.4,16.1-3.4l-24.7,12.6H154.9z"/>
<polygon class="st8" points="191.5,109.4 228.5,104.2 203,111.6 "/>
<polygon class="st8" points="215.1,146.9 256.6,138.1 228.5,148.5 "/>
</svg>
