<?xml version="1.0" encoding="utf-8"?>
<!-- Generator: Adobe Illustrator 22.0.0, SVG Export Plug-In . SVG Version: 6.00 Build 0)  -->
<svg version="1.1" id="Слой_1" xmlns="http://www.w3.org/2000/svg" xmlns:xlink="http://www.w3.org/1999/xlink" x="0px" y="0px"
	 viewBox="0 0 988 576.5" style="enable-background:new 0 0 988 576.5;" xml:space="preserve">
<style type="text/css">
	.st0{fill:#B5B5B5;}
	.st1{fill:#333333;}
	.st2{opacity:0.53;}
	.st3{fill:#1A2535;}
	.st4{fill:#F2F2F2;}
	.st5{fill:#999999;}
	.st6{fill:#3FA9F5;}
	.st7{fill:#FF931E;}
	.st8{fill:#A67C52;}
	.st9{fill:#B5D7EA;}
</style>
<g>
	<g>
		<path class="st0" d="M508.5,567.8H217.4c-10.6,0-19.3-8.7-19.3-19.3V26.9c0-10.6,8.7-19.3,19.3-19.3h348.9
			c10.6,0,19.3,8.7,19.3,19.3v457.3L508.5,567.8z"/>
	</g>
	<g>
		<path class="st1" d="M511.3,574.2H217.4c-14.2,0-25.7-11.5-25.7-25.7V26.9c0-14.2,11.5-25.7,25.7-25.7h348.9
			c14.2,0,25.7,11.5,25.7,25.7v459.8L511.3,574.2z M217.4,14.1c-7.1,0-12.9,5.8-12.9,12.9v521.6c0,7.1,5.8,12.9,12.9,12.9h288.2
			l73.5-79.6V26.9c0-7.1-5.8-12.9-12.9-12.9H217.4z"/>
	</g>
</g>
<g class="st2">
	<g>
		<g>
			<polygon points="212.9,464.1 213.4,465.9 218.1,465.8 217.2,464.1 			"/>
		</g>
		<g>
			<polygon points="206.4,464.1 206.4,465.9 211.1,465.9 210.7,464.1 			"/>
		</g>
		<g>
			<rect x="199.7" y="464.1" width="4.5" height="1.8"/>
		</g>
		<g>
			<rect x="193" y="464.1" width="4.5" height="1.8"/>
		</g>
		<g>
			<rect x="186.2" y="464.1" width="4.5" height="1.8"/>
		</g>
		<g>
			<polygon points="179.7,464.1 179.4,465.9 184,465.9 184,464.1 			"/>
		</g>
		<g>
			<polygon points="173.2,464.1 172.4,465.8 177.1,465.9 177.5,464.1 			"/>
		</g>
	</g>
	<g>
		<g>
			<path d="M166.9,462.9l-1.2,1.6c1.4,0.7,2.9,1.2,4.4,1.3l0.9-1.7C169.6,463.9,168.2,463.5,166.9,462.9z"/>
		</g>
		<g>
			<path d="M162.2,458.5l-1.5,1.2c0.8,1.3,1.9,2.5,3.1,3.4l1.3-1.5C164,460.9,163,459.8,162.2,458.5z"/>
		</g>
		<g>
			<path d="M160.5,452.4l-1.7,0.8c0,1.5,0.3,3.1,0.9,4.5l1.6-1.1C160.8,455.3,160.5,453.8,160.5,452.4z"/>
		</g>
		<g>
			<polygon points="160.5,445.9 158.8,446.3 158.8,451 160.5,450.3 			"/>
		</g>
		<g>
			<polygon points="160.5,439.4 158.8,439.4 158.8,444 160.5,443.8 			"/>
		</g>
		<g>
			<rect x="158.8" y="432.7" width="1.8" height="4.5"/>
		</g>
		<g>
			<rect x="158.8" y="425.9" width="1.8" height="4.5"/>
		</g>
	</g>
	<g>
		<g>
			<rect x="158.8" y="419.2" width="1.8" height="4.5"/>
		</g>
		<g>
			<rect x="158.8" y="412.5" width="1.8" height="4.5"/>
		</g>
		<g>
			<rect x="158.8" y="405.8" width="1.8" height="4.5"/>
		</g>
		<g>
			<rect x="158.8" y="399" width="1.8" height="4.5"/>
		</g>
		<g>
			<rect x="158.8" y="392.3" width="1.8" height="4.5"/>
		</g>
		<g>
			<rect x="158.8" y="385.6" width="1.8" height="4.5"/>
		</g>
		<g>
			<rect x="158.8" y="378.9" width="1.8" height="4.5"/>
		</g>
	</g>
	<g>
		<g>
			<rect x="158.8" y="372.1" width="1.8" height="4.5"/>
		</g>
		<g>
			<rect x="158.8" y="365.4" width="1.8" height="4.5"/>
		</g>
		<g>
			<rect x="158.8" y="358.7" width="1.8" height="4.5"/>
		</g>
		<g>
			<rect x="158.8" y="352" width="1.8" height="4.5"/>
		</g>
		<g>
			<rect x="158.8" y="345.2" width="1.8" height="4.5"/>
		</g>
		<g>
			<rect x="158.8" y="338.5" width="1.8" height="4.5"/>
		</g>
		<g>
			<rect x="158.8" y="331.8" width="1.8" height="4.5"/>
		</g>
	</g>
	<g>
		<g>
			<rect x="158.8" y="325" width="1.8" height="4.5"/>
		</g>
		<g>
			<rect x="158.8" y="318.3" width="1.8" height="4.5"/>
		</g>
		<g>
			<rect x="158.8" y="311.6" width="1.8" height="4.5"/>
		</g>
		<g>
			<rect x="158.8" y="304.9" width="1.8" height="4.5"/>
		</g>
		<g>
			<rect x="158.8" y="298.1" width="1.8" height="4.5"/>
		</g>
		<g>
			<rect x="158.8" y="291.4" width="1.8" height="4.5"/>
		</g>
		<g>
			<rect x="158.8" y="284.7" width="1.8" height="4.5"/>
		</g>
	</g>
	<g>
		<g>
			<rect x="158.8" y="278" width="1.8" height="4.5"/>
		</g>
		<g>
			<rect x="158.8" y="271.2" width="1.8" height="4.5"/>
		</g>
		<g>
			<rect x="158.8" y="264.5" width="1.8" height="4.5"/>
		</g>
		<g>
			<rect x="158.8" y="257.8" width="1.8" height="4.5"/>
		</g>
		<g>
			<rect x="158.8" y="251.1" width="1.8" height="4.5"/>
		</g>
		<g>
			<rect x="158.8" y="244.3" width="1.8" height="4.5"/>
		</g>
		<g>
			<rect x="158.8" y="237.6" width="1.8" height="4.5"/>
		</g>
	</g>
	<g>
		<g>
			<rect x="158.8" y="230.9" width="1.8" height="4.5"/>
		</g>
		<g>
			<rect x="158.8" y="224.2" width="1.8" height="4.5"/>
		</g>
		<g>
			<rect x="158.8" y="217.4" width="1.8" height="4.5"/>
		</g>
		<g>
			<rect x="158.8" y="210.7" width="1.8" height="4.5"/>
		</g>
		<g>
			<rect x="158.8" y="204" width="1.8" height="4.5"/>
		</g>
		<g>
			<rect x="158.8" y="197.3" width="1.8" height="4.5"/>
		</g>
		<g>
			<rect x="158.8" y="190.5" width="1.8" height="4.5"/>
		</g>
	</g>
	<g>
		<g>
			<rect x="158.8" y="183.8" width="1.8" height="4.5"/>
		</g>
		<g>
			<rect x="158.8" y="177.1" width="1.8" height="4.5"/>
		</g>
		<g>
			<rect x="158.8" y="170.4" width="1.8" height="4.5"/>
		</g>
		<g>
			<rect x="158.8" y="163.6" width="1.8" height="4.5"/>
		</g>
		<g>
			<rect x="158.8" y="156.9" width="1.8" height="4.5"/>
		</g>
		<g>
			<rect x="158.8" y="150.2" width="1.8" height="4.5"/>
		</g>
		<g>
			<rect x="158.8" y="143.5" width="1.8" height="4.5"/>
		</g>
	</g>
	<g>
		<g>
			<rect x="158.8" y="136.7" width="1.8" height="4.5"/>
		</g>
		<g>
			<rect x="158.8" y="130" width="1.8" height="4.5"/>
		</g>
		<g>
			<polygon points="160.5,123.3 158.8,123.2 158.8,127.8 160.5,127.8 			"/>
		</g>
		<g>
			<polygon points="160.5,116.9 158.8,116.3 158.8,120.9 160.5,121.2 			"/>
		</g>
		<g>
			<path d="M160.9,110.4l-1.6-1c-0.4,1.5-0.5,3-0.5,4.6l1.7,0.8C160.5,113.3,160.5,111.8,160.9,110.4z"/>
		</g>
		<g>
			<path d="M164.3,105l-1.4-1.4c-1.1,1.1-2.1,2.3-2.8,3.7l1.6,1.2C162.3,107.2,163.2,106,164.3,105z"/>
		</g>
		<g>
			<path d="M170,102.1l-1-1.7c-1.5,0.3-3,0.9-4.3,1.7l1.2,1.5C167.2,102.9,168.5,102.4,170,102.1z"/>
		</g>
	</g>
	<g>
		<g>
			<polygon points="176.4,101.9 175.9,100.1 171.2,100.2 172.1,101.9 			"/>
		</g>
		<g>
			<polygon points="182.9,101.9 182.8,100.1 178.2,100.1 178.5,101.9 			"/>
		</g>
		<g>
			<rect x="185.1" y="100.1" width="4.5" height="1.8"/>
		</g>
		<g>
			<rect x="191.8" y="100.1" width="4.5" height="1.8"/>
		</g>
		<g>
			<rect x="198.5" y="100.1" width="4.5" height="1.8"/>
		</g>
		<g>
			<polygon points="209.6,101.9 209.9,100.1 205.2,100.1 205.2,101.9 			"/>
		</g>
		<g>
			<polygon points="216.1,101.9 216.8,100.2 212.2,100.1 211.7,101.9 			"/>
		</g>
	</g>
	<g>
		<g>
			<path d="M222.4,103.1l1.2-1.6c-1.4-0.7-2.9-1.2-4.4-1.3l-0.9,1.7C219.6,102.1,221.1,102.5,222.4,103.1z"/>
		</g>
		<g>
			<path d="M227.1,107.5l1.5-1.2c-0.8-1.3-1.9-2.5-3.1-3.4l-1.3,1.5C225.3,105.1,226.3,106.2,227.1,107.5z"/>
		</g>
		<g>
			<path d="M228.8,113.6l1.7-0.8c0-1.5-0.3-3.1-0.9-4.5l-1.6,1.1C228.5,110.7,228.8,112.2,228.8,113.6z"/>
		</g>
		<g>
			<polygon points="228.8,120.1 230.5,119.7 230.5,115 228.8,115.7 			"/>
		</g>
		<g>
			<polygon points="228.8,126.6 230.5,126.6 230.5,122 228.8,122.2 			"/>
		</g>
		<g>
			<rect x="228.8" y="128.8" width="1.8" height="4.5"/>
		</g>
		<g>
			<rect x="228.8" y="135.6" width="1.8" height="4.5"/>
		</g>
	</g>
	<g>
		<g>
			<rect x="228.8" y="142.3" width="1.8" height="4.5"/>
		</g>
		<g>
			<rect x="228.8" y="149" width="1.8" height="4.5"/>
		</g>
		<g>
			<rect x="228.8" y="155.7" width="1.8" height="4.5"/>
		</g>
		<g>
			<rect x="228.8" y="162.5" width="1.8" height="4.5"/>
		</g>
		<g>
			<rect x="228.8" y="169.2" width="1.8" height="4.5"/>
		</g>
		<g>
			<rect x="228.8" y="175.9" width="1.8" height="4.5"/>
		</g>
		<g>
			<rect x="228.8" y="182.6" width="1.8" height="4.5"/>
		</g>
	</g>
	<g>
		<g>
			<rect x="228.8" y="189.4" width="1.8" height="4.5"/>
		</g>
		<g>
			<rect x="228.8" y="196.1" width="1.8" height="4.5"/>
		</g>
		<g>
			<rect x="228.8" y="202.8" width="1.8" height="4.5"/>
		</g>
		<g>
			<rect x="228.8" y="209.5" width="1.8" height="4.5"/>
		</g>
		<g>
			<rect x="228.8" y="216.3" width="1.8" height="4.5"/>
		</g>
		<g>
			<rect x="228.8" y="223" width="1.8" height="4.5"/>
		</g>
		<g>
			<rect x="228.8" y="229.7" width="1.8" height="4.5"/>
		</g>
	</g>
	<g>
		<g>
			<rect x="228.8" y="236.4" width="1.8" height="4.5"/>
		</g>
		<g>
			<rect x="228.8" y="243.2" width="1.8" height="4.5"/>
		</g>
		<g>
			<rect x="228.8" y="249.9" width="1.8" height="4.5"/>
		</g>
		<g>
			<rect x="228.8" y="256.6" width="1.8" height="4.5"/>
		</g>
		<g>
			<rect x="228.8" y="263.3" width="1.8" height="4.5"/>
		</g>
		<g>
			<rect x="228.8" y="270.1" width="1.8" height="4.5"/>
		</g>
		<g>
			<rect x="228.8" y="276.8" width="1.8" height="4.5"/>
		</g>
	</g>
	<g>
		<g>
			<rect x="228.8" y="283.5" width="1.8" height="4.5"/>
		</g>
		<g>
			<rect x="228.8" y="290.2" width="1.8" height="4.5"/>
		</g>
		<g>
			<rect x="228.8" y="297" width="1.8" height="4.5"/>
		</g>
		<g>
			<rect x="228.8" y="303.7" width="1.8" height="4.5"/>
		</g>
		<g>
			<rect x="228.8" y="310.4" width="1.8" height="4.5"/>
		</g>
		<g>
			<rect x="228.8" y="317.1" width="1.8" height="4.5"/>
		</g>
		<g>
			<rect x="228.8" y="323.9" width="1.8" height="4.5"/>
		</g>
	</g>
	<g>
		<g>
			<rect x="228.8" y="330.6" width="1.8" height="4.5"/>
		</g>
		<g>
			<rect x="228.8" y="337.3" width="1.8" height="4.5"/>
		</g>
		<g>
			<rect x="228.8" y="344" width="1.8" height="4.5"/>
		</g>
		<g>
			<rect x="228.8" y="350.8" width="1.8" height="4.5"/>
		</g>
		<g>
			<rect x="228.8" y="357.5" width="1.8" height="4.5"/>
		</g>
		<g>
			<rect x="228.8" y="364.2" width="1.8" height="4.5"/>
		</g>
		<g>
			<rect x="228.8" y="370.9" width="1.8" height="4.5"/>
		</g>
	</g>
	<g>
		<g>
			<rect x="228.8" y="377.7" width="1.8" height="4.5"/>
		</g>
		<g>
			<rect x="228.8" y="384.4" width="1.8" height="4.5"/>
		</g>
		<g>
			<rect x="228.8" y="391.1" width="1.8" height="4.5"/>
		</g>
		<g>
			<rect x="228.8" y="397.9" width="1.8" height="4.5"/>
		</g>
		<g>
			<rect x="228.8" y="404.6" width="1.8" height="4.5"/>
		</g>
		<g>
			<rect x="228.8" y="411.3" width="1.8" height="4.5"/>
		</g>
		<g>
			<rect x="228.8" y="418" width="1.8" height="4.5"/>
		</g>
	</g>
	<g>
		<g>
			<rect x="228.8" y="424.8" width="1.8" height="4.5"/>
		</g>
		<g>
			<rect x="228.8" y="431.5" width="1.8" height="4.5"/>
		</g>
		<g>
			<polygon points="228.8,442.7 230.5,442.8 230.5,438.2 228.8,438.2 			"/>
		</g>
		<g>
			<polygon points="228.8,449.1 230.5,449.7 230.5,445.1 228.8,444.8 			"/>
		</g>
		<g>
			<path d="M228.3,455.6l1.6,1c0.4-1.5,0.5-3,0.5-4.6l-1.7-0.8C228.8,452.7,228.7,454.2,228.3,455.6z"/>
		</g>
		<g>
			<path d="M225,461l1.4,1.4c1.1-1.1,2.1-2.3,2.8-3.7l-1.6-1.2C227,458.8,226.1,460,225,461z"/>
		</g>
		<g>
			<path d="M219.3,463.9l1,1.7c1.5-0.3,3-0.9,4.3-1.7l-1.2-1.5C222.1,463.1,220.8,463.6,219.3,463.9z"/>
		</g>
	</g>
</g>
<g>
	<g>
		<path class="st3" d="M496.4,546H237.8c-9.4,0-17.1-8-17.1-17.7V50.1c0-9.7,7.7-17.7,17.1-17.7h310c9.4,0,17.1,8,17.1,17.7v419.3
			L496.4,546z"/>
	</g>
</g>
<g>
	<g>
		<path class="st0" d="M516.8,552.9l55.7-57.9h-40.7c-12.1,0-22,9.9-22,22v14.5C509.8,543.7,504.7,552.9,516.8,552.9z"/>
	</g>
</g>
<g>
	<g>
		<path class="st0" d="M530,487.3c-8.7,0-15.7,7-15.7,15.7v53l64.7-68.7H530z"/>
	</g>
</g>
<g>
	<g>
		<path class="st1" d="M504.8,567.8v-59.9c0-14.2,11.5-25.7,25.7-25.7h56.9L504.8,567.8z M530.5,495c-7.1,0-12.9,5.8-12.9,12.9v43.4
			l53-56.3H530.5z"/>
	</g>
</g>
<g>
	<path class="st4" d="M244.6,69l9.7-5v1.4l-8.2,4.1v0l8.2,4.1v1.4l-9.7-5V69z"/>
	<path class="st4" d="M256.9,74c0-0.8,0.5-1.3,1.2-1.3c0.8,0,1.2,0.5,1.2,1.3c0,0.7-0.5,1.3-1.2,1.3C257.4,75.3,256.9,74.8,256.9,74
		z M257.4,71L257.1,61h2L258.8,71H257.4z"/>
	<path class="st4" d="M262.1,61.1c1.1-0.2,2.4-0.3,3.9-0.3c2.6,0,4.5,0.6,5.7,1.8c1.3,1.2,2,2.8,2,5.1c0,2.3-0.7,4.2-2,5.5
		c-1.3,1.3-3.5,2-6.3,2c-1.3,0-2.4-0.1-3.3-0.2V61.1z M264,73.7c0.5,0.1,1.1,0.1,1.8,0.1c3.9,0,6-2.2,6-6c0-3.3-1.9-5.5-5.7-5.5
		c-0.9,0-1.7,0.1-2.1,0.2V73.7z"/>
	<path class="st4" d="M288.2,67.9c0,4.9-3,7.5-6.6,7.5c-3.7,0-6.4-2.9-6.4-7.2c0-4.5,2.8-7.4,6.6-7.4
		C285.7,60.7,288.2,63.7,288.2,67.9z M277.2,68.1c0,3,1.6,5.7,4.5,5.7c2.9,0,4.5-2.7,4.5-5.9c0-2.8-1.5-5.8-4.5-5.8
		C278.8,62.2,277.2,65,277.2,68.1z"/>
	<path class="st4" d="M300.5,74.6c-0.7,0.3-2,0.7-3.7,0.7c-4,0-7-2.5-7-7.2c0-4.4,3-7.4,7.4-7.4c1.8,0,2.9,0.4,3.4,0.6l-0.4,1.5
		c-0.7-0.3-1.7-0.6-2.9-0.6c-3.3,0-5.5,2.1-5.5,5.8c0,3.5,2,5.7,5.4,5.7c1.1,0,2.2-0.2,3-0.6L300.5,74.6z"/>
	<path class="st4" d="M306.1,62.5h-4.3V61h10.5v1.6h-4.3v12.6h-1.8V62.5z"/>
	<path class="st4" d="M317.5,75.1v-6l-4.5-8.1h2.1l2,3.9c0.5,1.1,1,1.9,1.4,2.9h0c0.4-0.9,0.9-1.8,1.4-2.9l2-3.9h2.1l-4.7,8.1v6
		H317.5z"/>
	<path class="st4" d="M325.6,61.1c0.9-0.1,2-0.3,3.5-0.3c1.8,0,3.1,0.4,4,1.2c0.8,0.7,1.2,1.7,1.2,3c0,1.3-0.4,2.3-1.1,3
		c-1,1-2.5,1.6-4.3,1.6c-0.5,0-1,0-1.5-0.1v5.7h-1.8V61.1z M327.4,67.9c0.4,0.1,0.9,0.1,1.5,0.1c2.2,0,3.5-1.1,3.5-3
		c0-1.9-1.3-2.8-3.3-2.8c-0.8,0-1.4,0.1-1.7,0.1V67.9z"/>
	<path class="st4" d="M344.1,68.5h-5.5v5.1h6.1v1.5h-8V61h7.6v1.5h-5.8V67h5.5V68.5z"/>
	<path class="st4" d="M351.5,60.2h1.8v6.3h0c0.3-0.5,0.8-1,1.3-1.3c0.5-0.3,1.2-0.5,1.9-0.5c1.4,0,3.5,0.8,3.5,4.3v6h-1.8v-5.8
		c0-1.6-0.6-3-2.4-3c-1.2,0-2.1,0.8-2.5,1.8c-0.1,0.3-0.1,0.5-0.1,0.9v6.1h-1.8V60.2z"/>
	<path class="st4" d="M365.3,62v2.9h2.6v1.4h-2.6v5.5c0,1.3,0.4,2,1.4,2c0.5,0,0.8-0.1,1.1-0.1l0.1,1.4c-0.4,0.1-0.9,0.3-1.6,0.3
		c-0.9,0-1.6-0.3-2-0.8c-0.5-0.5-0.7-1.4-0.7-2.6v-5.5h-1.6v-1.4h1.6v-2.4L365.3,62z"/>
	<path class="st4" d="M370,67.7c0-1,0-1.9-0.1-2.8h1.6l0.1,1.6h0.1c0.6-1,1.5-1.9,3.2-1.9c1.4,0,2.4,0.8,2.9,2h0
		c0.3-0.6,0.7-1,1.1-1.3c0.6-0.5,1.3-0.7,2.2-0.7c1.3,0,3.3,0.9,3.3,4.4v6h-1.8v-5.8c0-2-0.7-3.1-2.2-3.1c-1,0-1.9,0.8-2.2,1.7
		c-0.1,0.3-0.1,0.6-0.1,0.9v6.3h-1.8V69c0-1.6-0.7-2.8-2.1-2.8c-1.2,0-2,0.9-2.3,1.8c-0.1,0.3-0.1,0.6-0.1,0.9v6.1H370V67.7z"/>
	<path class="st4" d="M387.5,60.2h1.8v14.9h-1.8V60.2z"/>
	<path class="st4" d="M402.1,70.1l-9.7,5v-1.4l8.3-4.1v0l-8.3-4.1v-1.4l9.7,5V70.1z"/>
	<path class="st5" d="M244.6,119.4l9.7-5v1.4l-8.2,4.1v0l8.2,4.1v1.4l-9.7-5V119.4z"/>
	<path class="st6" d="M257.3,110.6h1.8v6.3h0c0.3-0.5,0.8-1,1.3-1.3c0.5-0.3,1.2-0.5,1.9-0.5c1.4,0,3.5,0.8,3.5,4.3v6h-1.8v-5.8
		c0-1.6-0.6-3-2.4-3c-1.2,0-2.1,0.8-2.5,1.8c-0.1,0.3-0.1,0.5-0.1,0.9v6.1h-1.8V110.6z"/>
	<path class="st6" d="M271.1,112.4v2.9h2.6v1.4h-2.6v5.5c0,1.3,0.4,2,1.4,2c0.5,0,0.8-0.1,1.1-0.1l0.1,1.4c-0.4,0.1-0.9,0.3-1.6,0.3
		c-0.9,0-1.6-0.3-2-0.8c-0.5-0.5-0.7-1.4-0.7-2.6v-5.5h-1.6v-1.4h1.6v-2.4L271.1,112.4z"/>
	<path class="st6" d="M275.8,118.1c0-1.1,0-1.9-0.1-2.8h1.6l0.1,1.6h0.1c0.6-1,1.5-1.9,3.2-1.9c1.4,0,2.4,0.8,2.9,2h0
		c0.3-0.6,0.7-1,1.1-1.3c0.6-0.5,1.3-0.7,2.2-0.7c1.3,0,3.3,0.9,3.3,4.4v6h-1.8v-5.8c0-2-0.7-3.1-2.2-3.1c-1,0-1.9,0.8-2.2,1.7
		c-0.1,0.3-0.1,0.6-0.1,0.9v6.3h-1.8v-6.1c0-1.6-0.7-2.8-2.1-2.8c-1.2,0-2,0.9-2.3,1.8c-0.1,0.3-0.1,0.6-0.1,0.9v6.1h-1.8V118.1z"/>
	<path class="st6" d="M293.3,110.6h1.8v14.9h-1.8V110.6z"/>
	<path class="st5" d="M307.8,120.5l-9.7,5v-1.4l8.3-4.1v0l-8.3-4.1v-1.4l9.7,5V120.5z"/>
	<path class="st5" d="M262.4,169.8l9.7-5v1.4l-8.2,4.1v0l8.2,4.1v1.4l-9.7-5V169.8z"/>
	<path class="st6" d="M275.1,161h1.8v6.3h0c0.3-0.5,0.8-1,1.3-1.3c0.5-0.3,1.2-0.5,1.9-0.5c1.4,0,3.5,0.8,3.5,4.3v6h-1.8v-5.8
		c0-1.6-0.6-3-2.4-3c-1.2,0-2.1,0.8-2.5,1.8c-0.1,0.3-0.1,0.5-0.1,0.9v6.1h-1.8V161z"/>
	<path class="st6" d="M287.7,171.2c0,2.5,1.6,3.5,3.5,3.5c1.3,0,2.1-0.2,2.8-0.5l0.3,1.3c-0.7,0.3-1.8,0.6-3.4,0.6
		c-3.1,0-5-2.1-5-5.1s1.8-5.5,4.8-5.5c3.3,0,4.2,2.9,4.2,4.8c0,0.4,0,0.7-0.1,0.9H287.7z M293.2,169.8c0-1.2-0.5-3-2.6-3
		c-1.9,0-2.7,1.7-2.8,3H293.2z"/>
	<path class="st6" d="M302.9,175.9l-0.1-1.3h-0.1c-0.6,0.8-1.7,1.5-3.1,1.5c-2.1,0-3.1-1.4-3.1-2.9c0-2.5,2.2-3.8,6.1-3.8v-0.2
		c0-0.8-0.2-2.4-2.3-2.4c-0.9,0-1.9,0.3-2.6,0.8l-0.4-1.2c0.8-0.5,2.1-0.9,3.3-0.9c3.1,0,3.9,2.1,3.9,4.2v3.8c0,0.9,0,1.7,0.2,2.4
		H302.9z M302.6,170.7c-2,0-4.3,0.3-4.3,2.3c0,1.2,0.8,1.8,1.7,1.8c1.3,0,2.2-0.8,2.5-1.7c0.1-0.2,0.1-0.4,0.1-0.6V170.7z"/>
	<path class="st6" d="M316.1,161v12.3c0,0.9,0,1.9,0.1,2.6h-1.7l-0.1-1.8h0c-0.6,1.1-1.8,2-3.5,2c-2.5,0-4.3-2.1-4.3-5.2
		c0-3.4,2.1-5.5,4.6-5.5c1.6,0,2.6,0.7,3.1,1.6h0V161H316.1z M314.3,169.9c0-0.2,0-0.5-0.1-0.8c-0.3-1.2-1.3-2.1-2.7-2.1
		c-1.9,0-3,1.7-3,3.9c0,2.1,1,3.8,3,3.8c1.2,0,2.4-0.8,2.7-2.2c0.1-0.3,0.1-0.5,0.1-0.8V169.9z"/>
	<path class="st5" d="M328.8,170.9l-9.7,5v-1.4l8.3-4.1v0l-8.3-4.1v-1.4l9.7,5V170.9z"/>
	<path class="st5" d="M280.2,195l9.7-5v1.4l-8.2,4.1v0l8.2,4.1v1.4l-9.7-5V195z"/>
	<path class="st6" d="M295.1,188v2.9h2.6v1.4h-2.6v5.5c0,1.3,0.4,2,1.4,2c0.5,0,0.8-0.1,1.1-0.1l0.1,1.4c-0.4,0.1-0.9,0.3-1.6,0.3
		c-0.9,0-1.6-0.3-2-0.8c-0.5-0.5-0.7-1.4-0.7-2.6v-5.5h-1.6v-1.4h1.6v-2.4L295.1,188z"/>
	<path class="st6" d="M301.9,188.1c0,0.6-0.4,1.1-1.2,1.1c-0.7,0-1.1-0.5-1.1-1.1c0-0.7,0.5-1.2,1.2-1.2
		C301.4,186.9,301.9,187.4,301.9,188.1z M299.8,201.1v-10.2h1.8v10.2H299.8z"/>
	<path class="st6" d="M307,188v2.9h2.6v1.4H307v5.5c0,1.3,0.4,2,1.4,2c0.5,0,0.8-0.1,1.1-0.1l0.1,1.4c-0.4,0.1-0.9,0.3-1.6,0.3
		c-0.9,0-1.6-0.3-2-0.8c-0.5-0.5-0.7-1.4-0.7-2.6v-5.5h-1.6v-1.4h1.6v-2.4L307,188z"/>
	<path class="st6" d="M311.7,186.2h1.8v14.9h-1.8V186.2z"/>
	<path class="st6" d="M317.7,196.4c0,2.5,1.6,3.5,3.5,3.5c1.3,0,2.1-0.2,2.8-0.5l0.3,1.3c-0.7,0.3-1.8,0.6-3.4,0.6
		c-3.1,0-5-2.1-5-5.1s1.8-5.5,4.8-5.5c3.3,0,4.2,2.9,4.2,4.8c0,0.4,0,0.7-0.1,0.9H317.7z M323.1,195c0-1.2-0.5-3-2.6-3
		c-1.9,0-2.7,1.7-2.8,3H323.1z"/>
	<path class="st5" d="M336.8,196.1l-9.7,5v-1.4l8.3-4.1v0l-8.3-4.1v-1.4l9.7,5V196.1z"/>
	<path class="st4" d="M341.6,187v5.9h6.8V187h1.8v14.2h-1.8v-6.6h-6.8v6.6h-1.8V187H341.6z"/>
	<path class="st4" d="M359,201.1l-0.1-1.3h-0.1c-0.6,0.8-1.7,1.5-3.1,1.5c-2.1,0-3.1-1.4-3.1-2.9c0-2.5,2.2-3.8,6.1-3.8v-0.2
		c0-0.8-0.2-2.4-2.3-2.4c-0.9,0-1.9,0.3-2.6,0.8l-0.4-1.2c0.8-0.5,2.1-0.9,3.3-0.9c3.1,0,3.9,2.1,3.9,4.2v3.8c0,0.9,0,1.7,0.2,2.4
		H359z M358.7,195.9c-2,0-4.3,0.3-4.3,2.3c0,1.2,0.8,1.8,1.7,1.8c1.3,0,2.2-0.8,2.5-1.7c0.1-0.2,0.1-0.4,0.1-0.6V195.9z"/>
	<path class="st4" d="M364.3,195.2h0.9c1.6,0,2.6-0.7,2.6-1.7c0-0.9-0.8-1.5-2-1.5c-0.8,0-1.7,0.3-2.5,0.7l-0.5-1.1
		c1-0.6,2.2-0.9,3.4-0.9c1.6,0,3.4,0.7,3.4,2.7c0,1.3-1.2,2.1-2.3,2.3v0c1.5,0.1,2.8,1,2.8,2.5c0,2.2-2.2,3-4.4,3
		c-1.2,0-2.4-0.3-3.3-0.8l0.5-1.2c0.7,0.4,1.7,0.7,2.7,0.7c1.5,0,2.5-0.7,2.5-1.7c0-1.4-1.4-1.7-3-1.7h-0.9V195.2z"/>
	<path class="st4" d="M372.5,191.1c0.7-0.1,2-0.2,3.2-0.2c1.7,0,4.5,0.3,4.5,2.5c0,1.3-1,2-2.1,2.3v0c1.5,0.2,2.6,1.1,2.6,2.5
		c0,2.7-3.4,3-5.4,3c-1.1,0-2.3-0.1-2.9-0.1V191.1z M374.2,199.9c0.5,0.1,0.9,0.1,1.5,0.1c1.2,0,3.1-0.3,3.1-1.8s-1.5-1.8-3.2-1.8
		h-1.3V199.9z M374.3,195.2h1.4c1.4,0,2.8-0.4,2.8-1.6c0-1-0.9-1.5-2.7-1.5c-0.6,0-1,0-1.4,0.1V195.2z"/>
	<path class="st4" d="M388.7,201.1l-0.1-1.3h-0.1c-0.6,0.8-1.7,1.5-3.1,1.5c-2.1,0-3.1-1.4-3.1-2.9c0-2.5,2.2-3.8,6.1-3.8v-0.2
		c0-0.8-0.2-2.4-2.3-2.4c-0.9,0-1.9,0.3-2.6,0.8l-0.4-1.2c0.8-0.5,2.1-0.9,3.3-0.9c3.1,0,3.9,2.1,3.9,4.2v3.8c0,0.9,0,1.7,0.2,2.4
		H388.7z M388.4,195.9c-2,0-4.3,0.3-4.3,2.3c0,1.2,0.8,1.8,1.7,1.8c1.3,0,2.2-0.8,2.5-1.7c0.1-0.2,0.1-0.4,0.1-0.6V195.9z"/>
	<path class="st4" d="M404.9,200.7c-0.5,0.3-1.6,0.6-2.9,0.6c-3.1,0-5.1-2.1-5.1-5.2c0-3.1,2.1-5.4,5.5-5.4c1.1,0,2.1,0.3,2.6,0.5
		l-0.4,1.4c-0.4-0.3-1.1-0.5-2.1-0.5c-2.3,0-3.6,1.7-3.6,3.8c0,2.4,1.5,3.8,3.5,3.8c1,0,1.7-0.3,2.3-0.5L404.9,200.7z"/>
	<path class="st4" d="M412.7,201.1l-0.1-1.3h-0.1c-0.6,0.8-1.7,1.5-3.1,1.5c-2.1,0-3.1-1.4-3.1-2.9c0-2.5,2.2-3.8,6.1-3.8v-0.2
		c0-0.8-0.2-2.4-2.3-2.4c-0.9,0-1.9,0.3-2.6,0.8l-0.4-1.2c0.8-0.5,2.1-0.9,3.3-0.9c3.1,0,3.9,2.1,3.9,4.2v3.8c0,0.9,0,1.7,0.2,2.4
		H412.7z M412.4,195.9c-2,0-4.3,0.3-4.3,2.3c0,1.2,0.8,1.8,1.7,1.8c1.3,0,2.2-0.8,2.5-1.7c0.1-0.2,0.1-0.4,0.1-0.6V195.9z"/>
	<path class="st4" d="M418.9,190.9v4.3c0,1.6,0,2.6-0.1,4.1l0.1,0c0.6-1.2,1-2,1.6-3.1l3.2-5.2h2.2v10.2h-1.8v-4.3
		c0-1.7,0-2.5,0.1-4.2h-0.1c-0.7,1.3-1.1,2.1-1.7,3.1c-1,1.6-2.1,3.5-3.2,5.3h-2.1v-10.2H418.9z M420.1,186.8
		c0.1,0.9,0.5,1.6,1.3,1.6c0.9,0,1.3-0.7,1.4-1.6h1.3c-0.1,1.7-1.2,2.6-2.8,2.6c-1.8,0-2.6-1.2-2.6-2.6H420.1z"/>
	<path class="st4" d="M435.6,190.9v1.5h-3.2v8.7h-1.8v-8.7h-3.2v-1.5H435.6z"/>
	<path class="st4" d="M438.4,190.9l2.2,6c0.2,0.7,0.5,1.5,0.7,2.1h0c0.2-0.6,0.4-1.4,0.7-2.1l2-6h2l-2.8,7.2
		c-1.3,3.5-2.2,5.3-3.5,6.4c-0.9,0.8-1.8,1.1-2.3,1.2l-0.5-1.6c0.5-0.1,1.1-0.4,1.6-0.9c0.5-0.4,1.1-1.1,1.6-2.1
		c0.1-0.2,0.1-0.3,0.1-0.4c0-0.1,0-0.3-0.1-0.5l-3.8-9.4H438.4z"/>
	<path class="st5" d="M447.5,195l9.7-5v1.4l-8.2,4.1v0l8.2,4.1v1.4l-9.7-5V195z"/>
	<path class="st6" d="M458.6,201.9l5.9-15.2h1.4l-5.9,15.2H458.6z"/>
	<path class="st6" d="M469.5,188v2.9h2.6v1.4h-2.6v5.5c0,1.3,0.4,2,1.4,2c0.5,0,0.8-0.1,1.1-0.1l0.1,1.4c-0.4,0.1-0.9,0.3-1.6,0.3
		c-0.9,0-1.6-0.3-2-0.8c-0.5-0.5-0.7-1.4-0.7-2.6v-5.5h-1.6v-1.4h1.6v-2.4L469.5,188z"/>
	<path class="st6" d="M476.3,188.1c0,0.6-0.4,1.1-1.2,1.1c-0.7,0-1.1-0.5-1.1-1.1c0-0.7,0.5-1.2,1.2-1.2
		C475.9,186.9,476.3,187.4,476.3,188.1z M474.3,201.1v-10.2h1.8v10.2H474.3z"/>
	<path class="st6" d="M481.4,188v2.9h2.6v1.4h-2.6v5.5c0,1.3,0.4,2,1.4,2c0.5,0,0.8-0.1,1.1-0.1l0.1,1.4c-0.4,0.1-0.9,0.3-1.6,0.3
		c-0.9,0-1.6-0.3-2-0.8c-0.5-0.5-0.7-1.4-0.7-2.6v-5.5H478v-1.4h1.6v-2.4L481.4,188z"/>
	<path class="st6" d="M486.1,186.2h1.8v14.9h-1.8V186.2z"/>
	<path class="st6" d="M492.1,196.4c0,2.5,1.6,3.5,3.5,3.5c1.3,0,2.1-0.2,2.8-0.5l0.3,1.3c-0.7,0.3-1.8,0.6-3.4,0.6
		c-3.1,0-5-2.1-5-5.1s1.8-5.5,4.8-5.5c3.3,0,4.2,2.9,4.2,4.8c0,0.4,0,0.7-0.1,0.9H492.1z M497.5,195c0-1.2-0.5-3-2.6-3
		c-1.9,0-2.7,1.7-2.8,3H497.5z"/>
	<path class="st5" d="M511.2,196.1l-9.7,5v-1.4l8.3-4.1v0l-8.3-4.1v-1.4l9.7,5V196.1z"/>
	<path class="st5" d="M262.4,220.2l9.7-5v1.4l-8.2,4.1v0l8.2,4.1v1.4l-9.7-5V220.2z"/>
	<path class="st6" d="M273.5,227.1l5.9-15.2h1.4l-5.9,15.2H273.5z"/>
	<path class="st6" d="M282.3,211.4h1.8v6.3h0c0.3-0.5,0.8-1,1.3-1.3c0.5-0.3,1.2-0.5,1.9-0.5c1.4,0,3.5,0.8,3.5,4.3v6h-1.8v-5.8
		c0-1.6-0.6-3-2.4-3c-1.2,0-2.1,0.8-2.5,1.8c-0.1,0.3-0.1,0.5-0.1,0.9v6.1h-1.8V211.4z"/>
	<path class="st6" d="M294.9,221.6c0,2.5,1.6,3.5,3.5,3.5c1.3,0,2.1-0.2,2.8-0.5l0.3,1.3c-0.7,0.3-1.8,0.6-3.4,0.6
		c-3.1,0-5-2.1-5-5.1s1.8-5.5,4.8-5.5c3.3,0,4.2,2.9,4.2,4.8c0,0.4,0,0.7-0.1,0.9H294.9z M300.4,220.2c0-1.2-0.5-3-2.6-3
		c-1.9,0-2.7,1.7-2.8,3H300.4z"/>
	<path class="st6" d="M310.1,226.3l-0.1-1.3h-0.1c-0.6,0.8-1.7,1.5-3.1,1.5c-2.1,0-3.1-1.4-3.1-2.9c0-2.5,2.2-3.8,6.1-3.8v-0.2
		c0-0.8-0.2-2.4-2.3-2.4c-0.9,0-1.9,0.3-2.6,0.8l-0.4-1.2c0.8-0.5,2.1-0.9,3.3-0.9c3.1,0,3.9,2.1,3.9,4.2v3.8c0,0.9,0,1.7,0.2,2.4
		H310.1z M309.8,221.1c-2,0-4.3,0.3-4.3,2.3c0,1.2,0.8,1.8,1.7,1.8c1.3,0,2.2-0.8,2.5-1.7c0.1-0.2,0.1-0.4,0.1-0.6V221.1z"/>
	<path class="st6" d="M323.3,211.4v12.3c0,0.9,0,1.9,0.1,2.6h-1.7l-0.1-1.8h0c-0.6,1.1-1.8,2-3.5,2c-2.5,0-4.3-2.1-4.3-5.2
		c0-3.4,2.1-5.5,4.6-5.5c1.6,0,2.6,0.7,3.1,1.6h0v-6.1H323.3z M321.5,220.3c0-0.2,0-0.5-0.1-0.8c-0.3-1.2-1.3-2.1-2.7-2.1
		c-1.9,0-3,1.7-3,3.9c0,2.1,1,3.8,3,3.8c1.2,0,2.4-0.8,2.7-2.2c0.1-0.3,0.1-0.5,0.1-0.8V220.3z"/>
	<path class="st5" d="M336,221.3l-9.7,5v-1.4l8.3-4.1v0l-8.3-4.1v-1.4l9.7,5V221.3z"/>
	<path class="st5" d="M262.4,270.6l9.7-5v1.4l-8.2,4.1v0l8.2,4.1v1.4l-9.7-5V270.6z"/>
	<path class="st6" d="M275,276.7c0-0.7,0.1-1.7,0.1-2.6v-12.3h1.8v6.4h0c0.7-1.1,1.8-1.9,3.5-1.9c2.5,0,4.3,2.1,4.3,5.2
		c0,3.6-2.3,5.4-4.6,5.4c-1.5,0-2.6-0.6-3.4-1.9h-0.1l-0.1,1.7H275z M276.9,272.6c0,0.2,0,0.5,0.1,0.7c0.4,1.3,1.4,2.2,2.8,2.2
		c1.9,0,3.1-1.6,3.1-3.9c0-2-1-3.8-3-3.8c-1.3,0-2.4,0.9-2.8,2.3c0,0.2-0.1,0.5-0.1,0.8V272.6z"/>
	<path class="st6" d="M296.2,271.5c0,3.8-2.6,5.4-5.1,5.4c-2.8,0-4.9-2-4.9-5.2c0-3.4,2.2-5.4,5-5.4
		C294.2,266.3,296.2,268.4,296.2,271.5z M288.1,271.6c0,2.2,1.3,3.9,3.1,3.9c1.8,0,3.1-1.7,3.1-3.9c0-1.7-0.9-3.9-3-3.9
		S288.1,269.7,288.1,271.6z"/>
	<path class="st6" d="M307.3,261.8v12.3c0,0.9,0,1.9,0.1,2.6h-1.7l-0.1-1.8h0c-0.6,1.1-1.8,2-3.5,2c-2.5,0-4.3-2.1-4.3-5.2
		c0-3.4,2.1-5.5,4.6-5.5c1.6,0,2.6,0.7,3.1,1.6h0v-6.1H307.3z M305.5,270.7c0-0.2,0-0.5-0.1-0.8c-0.3-1.2-1.3-2.1-2.7-2.1
		c-1.9,0-3,1.7-3,3.9c0,2.1,1,3.8,3,3.8c1.2,0,2.4-0.8,2.7-2.2c0.1-0.3,0.1-0.5,0.1-0.8V270.7z"/>
	<path class="st6" d="M311.1,266.5l2.2,6c0.2,0.7,0.5,1.5,0.7,2.1h0c0.2-0.6,0.4-1.4,0.7-2.1l2-6h2l-2.8,7.2
		c-1.3,3.5-2.2,5.3-3.5,6.4c-0.9,0.8-1.8,1.1-2.3,1.2l-0.5-1.6c0.5-0.1,1.1-0.4,1.6-0.9c0.5-0.4,1.1-1.1,1.6-2.1
		c0.1-0.2,0.1-0.3,0.1-0.4c0-0.1,0-0.3-0.1-0.5l-3.8-9.4H311.1z"/>
	<path class="st5" d="M329.9,271.7l-9.7,5v-1.4l8.3-4.1v0l-8.3-4.1v-1.4l9.7,5V271.7z"/>
	<path class="st5" d="M280.2,295.8l9.7-5v1.4l-8.2,4.1v0l8.2,4.1v1.4l-9.7-5V295.8z"/>
	<path class="st6" d="M292.9,287h1.8v6.3h0c0.3-0.5,0.8-1,1.3-1.3c0.5-0.3,1.2-0.5,1.9-0.5c1.4,0,3.5,0.8,3.5,4.3v6h-1.8v-5.8
		c0-1.6-0.6-3-2.4-3c-1.2,0-2.1,0.8-2.5,1.8c-0.1,0.3-0.1,0.5-0.1,0.9v6.1h-1.8V287z"/>
	<path class="st6" d="M307.9,290L307.9,290l-2.4,1.3l-0.4-1.4l3-1.6h1.6v13.6h-1.8V290z"/>
	<path class="st5" d="M324.9,296.9l-9.7,5v-1.4l8.3-4.1v0l-8.3-4.1v-1.4l9.7,5V296.9z"/>
	<path class="st4" d="M339.8,295.7c-0.1-2-0.2-4.3-0.2-6.1h-0.1c-0.5,1.7-1.1,3.4-1.8,5.4l-2.5,6.9h-1.4l-2.3-6.7
		c-0.7-2-1.2-3.8-1.6-5.5h0c0,1.8-0.1,4.1-0.3,6.3l-0.4,6.1h-1.7l1-14.2h2.3l2.4,6.8c0.6,1.7,1.1,3.3,1.4,4.8h0.1
		c0.4-1.4,0.9-3,1.5-4.8l2.5-6.8h2.3l0.9,14.2h-1.8L339.8,295.7z"/>
	<path class="st4" d="M346.8,288.9c0,0.6-0.4,1.1-1.2,1.1c-0.7,0-1.1-0.5-1.1-1.1c0-0.7,0.5-1.2,1.2-1.2
		C346.3,287.7,346.8,288.2,346.8,288.9z M344.7,301.9v-10.2h1.8v10.2H344.7z"/>
	<path class="st4" d="M351.3,291.7v4.3c0,1.6,0,2.6-0.1,4.1l0.1,0c0.6-1.2,1-2,1.6-3.1l3.2-5.2h2.2v10.2h-1.8v-4.3
		c0-1.7,0-2.5,0.1-4.2h-0.1c-0.7,1.3-1.1,2.1-1.7,3.2c-1,1.6-2.1,3.5-3.2,5.3h-2.1v-10.2H351.3z M352.5,287.6
		c0.1,0.9,0.5,1.6,1.3,1.6c0.9,0,1.3-0.7,1.4-1.6h1.3c-0.1,1.7-1.2,2.6-2.8,2.6c-1.8,0-2.6-1.2-2.6-2.6H352.5z"/>
	<path class="st4" d="M374.1,291.7v10.2h-1.8v-8.7h-4.7v8.7h-1.8v-10.2H374.1z"/>
	<path class="st4" d="M378.1,297.2c0,2.5,1.6,3.5,3.5,3.5c1.3,0,2.1-0.2,2.8-0.5l0.3,1.3c-0.7,0.3-1.8,0.6-3.4,0.6
		c-3.1,0-5-2.1-5-5.1s1.8-5.5,4.8-5.5c3.3,0,4.2,2.9,4.2,4.8c0,0.4,0,0.7-0.1,0.9H378.1z M383.5,295.8c0-1.2-0.5-3-2.6-3
		c-1.9,0-2.7,1.7-2.8,3H383.5z"/>
	<path class="st4" d="M387.6,295.1c0-1.3,0-2.4-0.1-3.3h1.7l0.1,1.7h0c0.8-1.2,2-2,3.6-2c2.5,0,4.3,2.1,4.3,5.2
		c0,3.7-2.2,5.5-4.6,5.5c-1.3,0-2.5-0.6-3.1-1.6h0v5.5h-1.8V295.1z M389.4,297.8c0,0.3,0,0.5,0.1,0.8c0.3,1.3,1.4,2.2,2.8,2.2
		c2,0,3.1-1.6,3.1-3.9c0-2-1.1-3.8-3-3.8c-1.3,0-2.4,0.9-2.8,2.3c-0.1,0.2-0.1,0.5-0.1,0.8V297.8z"/>
	<path class="st4" d="M401.3,291.7v8.7h3.5v-8.7h1.8v8.7h3.5v-8.7h1.8v10.2h-12.5v-10.2H401.3z"/>
	<path class="st4" d="M416.7,291.7v4.3c0,1.6,0,2.6-0.1,4.1l0.1,0c0.6-1.2,1-2,1.6-3.1l3.2-5.2h2.2v10.2h-1.8v-4.3
		c0-1.7,0-2.5,0.1-4.2H422c-0.7,1.3-1.1,2.1-1.7,3.2c-1,1.6-2.1,3.5-3.2,5.3H415v-10.2H416.7z"/>
	<path class="st4" d="M428.4,291.7v4.3c0,1.6,0,2.6-0.1,4.1l0.1,0c0.6-1.2,1-2,1.6-3.1l3.2-5.2h2.2v10.2h-1.8v-4.3
		c0-1.7,0-2.5,0.1-4.2h-0.1c-0.7,1.3-1.1,2.1-1.7,3.2c-1,1.6-2.1,3.5-3.2,5.3h-2.1v-10.2H428.4z M429.6,287.6
		c0.1,0.9,0.5,1.6,1.3,1.6c0.9,0,1.3-0.7,1.4-1.6h1.3c-0.1,1.7-1.2,2.6-2.8,2.6c-1.8,0-2.6-1.2-2.6-2.6H429.6z"/>
	<path class="st4" d="M450,301.5c-0.5,0.3-1.6,0.6-2.9,0.6c-3.1,0-5.1-2.1-5.1-5.2c0-3.1,2.1-5.4,5.5-5.4c1.1,0,2.1,0.3,2.6,0.5
		l-0.4,1.4c-0.4-0.3-1.1-0.5-2.1-0.5c-2.3,0-3.6,1.7-3.6,3.8c0,2.4,1.5,3.8,3.5,3.8c1,0,1.7-0.3,2.3-0.5L450,301.5z"/>
	<path class="st4" d="M457.8,301.9l-0.1-1.3h-0.1c-0.6,0.8-1.7,1.5-3.1,1.5c-2.1,0-3.1-1.4-3.1-2.9c0-2.5,2.2-3.8,6.1-3.8v-0.2
		c0-0.8-0.2-2.4-2.3-2.4c-0.9,0-1.9,0.3-2.6,0.8l-0.4-1.2c0.8-0.5,2.1-0.9,3.3-0.9c3.1,0,3.9,2.1,3.9,4.2v3.8c0,0.9,0,1.7,0.2,2.4
		H457.8z M457.6,296.7c-2,0-4.3,0.3-4.3,2.3c0,1.2,0.8,1.8,1.7,1.8c1.3,0,2.2-0.8,2.5-1.7c0.1-0.2,0.1-0.4,0.1-0.6V296.7z"/>
	<path class="st4" d="M464,291.7v4.3c0,1.6,0,2.6-0.1,4.1l0.1,0c0.6-1.2,1-2,1.6-3.1l3.2-5.2h2.2v10.2h-1.8v-4.3
		c0-1.7,0-2.5,0.1-4.2h-0.1c-0.7,1.3-1.1,2.1-1.7,3.2c-1,1.6-2.1,3.5-3.2,5.3h-2.1v-10.2H464z M465.2,287.6c0.1,0.9,0.5,1.6,1.3,1.6
		c0.9,0,1.3-0.7,1.4-1.6h1.3c-0.1,1.7-1.2,2.6-2.8,2.6c-1.8,0-2.6-1.2-2.6-2.6H465.2z"/>
	<path class="st4" d="M480.8,291.7v1.5h-3.2v8.7h-1.8v-8.7h-3.2v-1.5H480.8z"/>
	<path class="st5" d="M482.4,295.8l9.7-5v1.4l-8.2,4.1v0l8.2,4.1v1.4l-9.7-5V295.8z"/>
	<path class="st6" d="M493.5,302.7l5.9-15.2h1.4l-5.9,15.2H493.5z"/>
	<path class="st6" d="M502.3,287h1.8v6.3h0c0.3-0.5,0.8-1,1.3-1.3c0.5-0.3,1.2-0.5,1.9-0.5c1.4,0,3.5,0.8,3.5,4.3v6h-1.8v-5.8
		c0-1.6-0.6-3-2.4-3c-1.2,0-2.1,0.8-2.5,1.8c-0.1,0.3-0.1,0.5-0.1,0.9v6.1h-1.8V287z"/>
	<path class="st6" d="M517.3,290L517.3,290l-2.4,1.3l-0.4-1.4l3-1.6h1.6v13.6h-1.8V290z"/>
	<path class="st5" d="M534.3,296.9l-9.7,5v-1.4l8.3-4.1v0l-8.3-4.1v-1.4l9.7,5V296.9z"/>
	<path class="st7" d="M280.2,321l9.7-5v1.4l-8.2,4.1v0l8.2,4.1v1.4l-9.7-5V321z"/>
	<path class="st7" d="M292.6,325.2c0.5,0.4,1.5,0.7,2.4,0.7c1.3,0,2-0.7,2-1.5c0-0.9-0.5-1.4-1.9-1.9c-1.8-0.7-2.7-1.7-2.7-2.9
		c0-1.6,1.3-3,3.5-3c1,0,1.9,0.3,2.5,0.6l-0.5,1.3c-0.4-0.3-1.1-0.6-2.1-0.6c-1.1,0-1.7,0.6-1.7,1.4c0,0.8,0.6,1.2,1.9,1.7
		c1.8,0.7,2.7,1.6,2.7,3.1c0,1.8-1.4,3-3.8,3c-1.1,0-2.1-0.3-2.9-0.7L292.6,325.2z"/>
	<path class="st7" d="M308.4,326.7c-0.5,0.3-1.6,0.6-2.9,0.6c-3.1,0-5.1-2.1-5.1-5.2c0-3.1,2.1-5.4,5.5-5.4c1.1,0,2.1,0.3,2.6,0.5
		l-0.4,1.4c-0.4-0.3-1.1-0.5-2.1-0.5c-2.3,0-3.6,1.7-3.6,3.8c0,2.4,1.5,3.8,3.5,3.8c1.1,0,1.7-0.3,2.3-0.5L308.4,326.7z"/>
	<path class="st7" d="M310.6,320.1c0-1.2,0-2.2-0.1-3.2h1.6l0.1,2h0.1c0.5-1.4,1.6-2.2,2.8-2.2c0.2,0,0.4,0,0.5,0.1v1.7
		c-0.2,0-0.4-0.1-0.6-0.1c-1.3,0-2.2,1-2.5,2.4c0,0.3-0.1,0.5-0.1,0.9v5.4h-1.8V320.1z"/>
	<path class="st7" d="M319.6,314.1c0,0.6-0.4,1.1-1.2,1.1c-0.7,0-1.1-0.5-1.1-1.1c0-0.7,0.5-1.2,1.2-1.2
		C319.2,312.9,319.6,313.4,319.6,314.1z M317.5,327.1v-10.2h1.8v10.2H317.5z"/>
	<path class="st7" d="M322.5,320.3c0-1.3,0-2.4-0.1-3.3h1.7l0.1,1.7h0c0.8-1.2,2-2,3.6-2c2.5,0,4.3,2.1,4.3,5.2
		c0,3.7-2.2,5.5-4.6,5.5c-1.3,0-2.5-0.6-3.1-1.6h0v5.5h-1.8V320.3z M324.3,323c0,0.3,0,0.5,0.1,0.8c0.3,1.3,1.4,2.2,2.8,2.2
		c2,0,3.1-1.6,3.1-3.9c0-2-1.1-3.8-3-3.8c-1.3,0-2.4,0.9-2.8,2.3c-0.1,0.2-0.1,0.5-0.1,0.8V323z"/>
	<path class="st7" d="M336.6,314v2.9h2.6v1.4h-2.6v5.5c0,1.3,0.4,2,1.4,2c0.5,0,0.8-0.1,1.1-0.1l0.1,1.4c-0.4,0.1-0.9,0.3-1.6,0.3
		c-0.9,0-1.6-0.3-2-0.8c-0.5-0.5-0.7-1.4-0.7-2.6v-5.5h-1.6v-1.4h1.6v-2.4L336.6,314z"/>
	<path class="st7" d="M351,322.1l-9.7,5v-1.4l8.3-4.1v0l-8.3-4.1v-1.4l9.7,5V322.1z"/>
	<path class="st7" d="M322.4,352.3l-0.1-1.3h-0.1c-0.6,0.8-1.7,1.5-3.1,1.5c-2.1,0-3.1-1.4-3.1-2.9c0-2.5,2.2-3.8,6.1-3.8v-0.2
		c0-0.8-0.2-2.4-2.3-2.4c-0.9,0-1.9,0.3-2.6,0.8l-0.4-1.2c0.8-0.5,2.1-0.9,3.3-0.9c3.1,0,3.9,2.1,3.9,4.2v3.8c0,0.9,0,1.7,0.2,2.4
		H322.4z M322.1,347.1c-2,0-4.3,0.3-4.3,2.3c0,1.2,0.8,1.8,1.7,1.8c1.3,0,2.2-0.8,2.5-1.7c0.1-0.2,0.1-0.4,0.1-0.6V347.1z"/>
	<path class="st7" d="M326.9,337.4h1.8v14.9h-1.8V337.4z"/>
	<path class="st7" d="M332.8,347.6c0,2.5,1.6,3.5,3.5,3.5c1.3,0,2.1-0.2,2.8-0.5l0.3,1.3c-0.7,0.3-1.8,0.6-3.4,0.6
		c-3.1,0-5-2.1-5-5.1s1.8-5.5,4.8-5.5c3.3,0,4.2,2.9,4.2,4.8c0,0.4,0,0.7-0.1,0.9H332.8z M338.3,346.2c0-1.2-0.5-3-2.6-3
		c-1.9,0-2.7,1.7-2.8,3H338.3z"/>
	<path class="st7" d="M342.3,345.3c0-1.2,0-2.2-0.1-3.2h1.6l0.1,2h0.1c0.5-1.4,1.6-2.2,2.8-2.2c0.2,0,0.4,0,0.5,0.1v1.7
		c-0.2,0-0.4-0.1-0.6-0.1c-1.3,0-2.2,1-2.5,2.4c0,0.3-0.1,0.5-0.1,0.9v5.4h-1.8V345.3z"/>
	<path class="st7" d="M351.9,339.2v2.9h2.6v1.4h-2.6v5.5c0,1.3,0.4,2,1.4,2c0.5,0,0.8-0.1,1.1-0.1l0.1,1.4c-0.4,0.1-0.9,0.3-1.6,0.3
		c-0.9,0-1.6-0.3-2-0.8c-0.5-0.5-0.7-1.4-0.7-2.6v-5.5h-1.6v-1.4h1.6v-2.4L351.9,339.2z"/>
	<path class="st4" d="M360.7,337.7c-1.5,2.1-2.6,4.8-2.6,8.6c0,3.7,1.2,6.4,2.6,8.5h-1.4c-1.3-1.7-2.8-4.4-2.8-8.5
		c0-4.1,1.4-6.8,2.8-8.6H360.7z"/>
	<path class="st8" d="M365,337.9c-0.5,1.8-1.4,4-2,5l-1.2,0.1c0.5-1.2,1-3.4,1.2-4.9L365,337.9z"/>
	<path class="st8" d="M377.3,338.2v14.2h-1.8v-12.6h-6.6v12.6H367v-14.2H377.3z"/>
	<path class="st8" d="M380.4,345.5c0-1.3,0-2.4-0.1-3.3h1.7l0.1,1.7h0c0.8-1.2,2-2,3.6-2c2.5,0,4.3,2.1,4.3,5.2
		c0,3.7-2.2,5.5-4.6,5.5c-1.3,0-2.5-0.6-3.1-1.6h0v5.5h-1.8V345.5z M382.2,348.2c0,0.3,0,0.5,0.1,0.8c0.3,1.3,1.4,2.2,2.8,2.2
		c2,0,3.1-1.6,3.1-3.9c0-2-1.1-3.8-3-3.8c-1.3,0-2.4,0.9-2.8,2.3c-0.1,0.2-0.1,0.5-0.1,0.8V348.2z"/>
	<path class="st8" d="M394,342.1v4.3c0,1.6,0,2.6-0.1,4.1l0.1,0c0.6-1.2,1-2,1.6-3.1l3.2-5.2h2.2v10.2h-1.8V348c0-1.7,0-2.5,0.1-4.2
		h-0.1c-0.7,1.3-1.1,2.1-1.7,3.1c-1,1.6-2.1,3.5-3.2,5.3h-2.1v-10.2H394z"/>
	<path class="st8" d="M403.9,342.3c0.7-0.1,2-0.2,3.2-0.2c1.7,0,4.5,0.3,4.5,2.5c0,1.3-1,2-2.1,2.3v0c1.5,0.2,2.6,1.1,2.6,2.5
		c0,2.7-3.4,3-5.4,3c-1.1,0-2.3-0.1-2.9-0.1V342.3z M405.7,351.1c0.5,0.1,0.9,0.1,1.5,0.1c1.2,0,3.1-0.3,3.1-1.8s-1.5-1.8-3.2-1.8
		h-1.3V351.1z M405.7,346.4h1.4c1.4,0,2.8-0.4,2.8-1.6c0-1-0.9-1.5-2.7-1.5c-0.6,0-1,0-1.4,0.1V346.4z"/>
	<path class="st8" d="M416.5,339.3c0,0.6-0.4,1.1-1.2,1.1c-0.7,0-1.1-0.5-1.1-1.1c0-0.7,0.5-1.2,1.2-1.2
		C416.1,338.1,416.5,338.6,416.5,339.3z M414.5,352.3v-10.2h1.8v10.2H414.5z"/>
	<path class="st8" d="M426.2,342.1v1.5H423v8.7h-1.8v-8.7H418v-1.5H426.2z"/>
	<path class="st8" d="M427.6,351.2c0-0.8,0.5-1.3,1.2-1.3c0.8,0,1.2,0.5,1.2,1.3c0,0.7-0.5,1.3-1.2,1.3
		C428.1,352.5,427.6,352,427.6,351.2z M428.1,348.2l-0.3-10.1h2l-0.3,10.1H428.1z"/>
	<path class="st8" d="M435.1,337.9c-0.5,1.8-1.4,4-2,5L432,343c0.5-1.2,1-3.4,1.2-4.9L435.1,337.9z"/>
	<path class="st4" d="M436,354.8c1.5-2.1,2.6-4.8,2.6-8.6c0-3.8-1.1-6.4-2.6-8.5h1.4c1.3,1.7,2.8,4.4,2.8,8.5c0,4.1-1.4,6.8-2.8,8.6
		H436z"/>
	<path class="st7" d="M280.2,371.4l9.7-5v1.4l-8.2,4.1v0l8.2,4.1v1.4l-9.7-5V371.4z"/>
	<path class="st7" d="M291.3,378.3l5.9-15.2h1.4l-5.9,15.2H291.3z"/>
	<path class="st7" d="M299.8,375.6c0.5,0.4,1.5,0.7,2.4,0.7c1.3,0,2-0.7,2-1.5c0-0.9-0.5-1.4-1.9-1.9c-1.8-0.7-2.7-1.7-2.7-2.9
		c0-1.6,1.3-3,3.5-3c1,0,1.9,0.3,2.5,0.6l-0.5,1.3c-0.4-0.3-1.1-0.6-2.1-0.6c-1.1,0-1.7,0.6-1.7,1.4c0,0.8,0.6,1.2,1.9,1.7
		c1.8,0.7,2.7,1.6,2.7,3.1c0,1.8-1.4,3-3.8,3c-1.1,0-2.1-0.3-2.9-0.7L299.8,375.6z"/>
	<path class="st7" d="M315.6,377.1c-0.5,0.3-1.6,0.6-2.9,0.6c-3.1,0-5.1-2.1-5.1-5.2c0-3.1,2.1-5.4,5.5-5.4c1.1,0,2.1,0.3,2.6,0.5
		l-0.4,1.4c-0.4-0.3-1.1-0.5-2.1-0.5c-2.3,0-3.6,1.7-3.6,3.8c0,2.4,1.5,3.8,3.5,3.8c1.1,0,1.7-0.3,2.3-0.5L315.6,377.1z"/>
	<path class="st7" d="M317.8,370.5c0-1.2,0-2.2-0.1-3.2h1.6l0.1,2h0.1c0.5-1.4,1.6-2.2,2.8-2.2c0.2,0,0.4,0,0.5,0.1v1.7
		c-0.2,0-0.4-0.1-0.6-0.1c-1.3,0-2.2,1-2.5,2.4c0,0.3-0.1,0.5-0.1,0.9v5.4h-1.8V370.5z"/>
	<path class="st7" d="M326.8,364.5c0,0.6-0.4,1.1-1.2,1.1c-0.7,0-1.1-0.5-1.1-1.1c0-0.7,0.5-1.2,1.2-1.2
		C326.4,363.3,326.8,363.8,326.8,364.5z M324.8,377.5v-10.2h1.8v10.2H324.8z"/>
	<path class="st7" d="M329.7,370.7c0-1.3,0-2.4-0.1-3.3h1.7l0.1,1.7h0c0.8-1.2,2-2,3.6-2c2.5,0,4.3,2.1,4.3,5.2
		c0,3.7-2.2,5.5-4.6,5.5c-1.3,0-2.5-0.6-3.1-1.6h0v5.5h-1.8V370.7z M331.5,373.4c0,0.3,0,0.5,0.1,0.8c0.3,1.3,1.4,2.2,2.8,2.2
		c2,0,3.1-1.6,3.1-3.9c0-2-1.1-3.8-3-3.8c-1.3,0-2.4,0.9-2.8,2.3c-0.1,0.2-0.1,0.5-0.1,0.8V373.4z"/>
	<path class="st7" d="M343.8,364.4v2.9h2.6v1.4h-2.6v5.5c0,1.3,0.4,2,1.4,2c0.5,0,0.8-0.1,1.1-0.1l0.1,1.4c-0.4,0.1-0.9,0.3-1.6,0.3
		c-0.9,0-1.6-0.3-2-0.8c-0.5-0.5-0.7-1.4-0.7-2.6v-5.5h-1.6v-1.4h1.6v-2.4L343.8,364.4z"/>
	<path class="st7" d="M358.2,372.5l-9.7,5v-1.4l8.3-4.1v0l-8.3-4.1v-1.4l9.7,5V372.5z"/>
	<path class="st5" d="M262.4,396.6l9.7-5v1.4l-8.2,4.1v0l8.2,4.1v1.4l-9.7-5V396.6z"/>
	<path class="st6" d="M273.5,403.5l5.9-15.2h1.4l-5.9,15.2H273.5z"/>
	<path class="st6" d="M282.2,402.7c0-0.7,0.1-1.7,0.1-2.6v-12.3h1.8v6.4h0c0.7-1.1,1.8-1.9,3.5-1.9c2.5,0,4.3,2.1,4.3,5.2
		c0,3.6-2.3,5.4-4.6,5.4c-1.5,0-2.6-0.6-3.4-1.9h-0.1l-0.1,1.7H282.2z M284.1,398.6c0,0.2,0,0.5,0.1,0.7c0.4,1.3,1.4,2.2,2.8,2.2
		c1.9,0,3.1-1.6,3.1-3.9c0-2-1-3.8-3-3.8c-1.3,0-2.4,0.9-2.8,2.3c0,0.2-0.1,0.5-0.1,0.8V398.6z"/>
	<path class="st6" d="M303.4,397.5c0,3.8-2.6,5.4-5.1,5.4c-2.8,0-4.9-2-4.9-5.2c0-3.4,2.2-5.4,5-5.4
		C301.4,392.3,303.4,394.4,303.4,397.5z M295.3,397.6c0,2.2,1.3,3.9,3.1,3.9c1.8,0,3.1-1.7,3.1-3.9c0-1.7-0.9-3.9-3-3.9
		S295.3,395.7,295.3,397.6z"/>
	<path class="st6" d="M314.5,387.8v12.3c0,0.9,0,1.9,0.1,2.6h-1.7l-0.1-1.8h0c-0.6,1.1-1.8,2-3.5,2c-2.5,0-4.3-2.1-4.3-5.2
		c0-3.4,2.1-5.5,4.6-5.5c1.6,0,2.6,0.7,3.1,1.6h0v-6.1H314.5z M312.7,396.7c0-0.2,0-0.5-0.1-0.8c-0.3-1.2-1.3-2.1-2.7-2.1
		c-1.9,0-3,1.7-3,3.9c0,2.1,1,3.8,3,3.8c1.2,0,2.4-0.8,2.7-2.2c0.1-0.3,0.1-0.5,0.1-0.8V396.7z"/>
	<path class="st6" d="M318.3,392.5l2.2,6c0.2,0.7,0.5,1.5,0.7,2.1h0c0.2-0.6,0.4-1.4,0.7-2.1l2-6h2l-2.8,7.2
		c-1.3,3.5-2.2,5.3-3.5,6.4c-0.9,0.8-1.8,1.1-2.3,1.2l-0.5-1.6c0.5-0.1,1.1-0.4,1.6-0.9c0.5-0.4,1.1-1.1,1.6-2.1
		c0.1-0.2,0.1-0.3,0.1-0.4c0-0.1,0-0.3-0.1-0.5l-3.8-9.4H318.3z"/>
	<path class="st5" d="M337.1,397.7l-9.7,5v-1.4l8.3-4.1v0l-8.3-4.1v-1.4l9.7,5V397.7z"/>
	<path class="st5" d="M244.6,447l9.7-5v1.4l-8.2,4.1v0l8.2,4.1v1.4l-9.7-5V447z"/>
	<path class="st6" d="M255.7,453.9l5.9-15.2h1.4l-5.9,15.2H255.7z"/>
	<path class="st6" d="M264.5,438.2h1.8v6.3h0c0.3-0.5,0.8-1,1.3-1.3c0.5-0.3,1.2-0.5,1.9-0.5c1.4,0,3.5,0.8,3.5,4.3v6h-1.8v-5.8
		c0-1.6-0.6-3-2.4-3c-1.2,0-2.1,0.8-2.5,1.8c-0.1,0.3-0.1,0.5-0.1,0.9v6.1h-1.8V438.2z"/>
	<path class="st6" d="M278.3,440v2.9h2.6v1.4h-2.6v5.5c0,1.3,0.4,2,1.4,2c0.5,0,0.8-0.1,1.1-0.1l0.1,1.4c-0.4,0.1-0.9,0.3-1.6,0.3
		c-0.9,0-1.6-0.3-2-0.8c-0.5-0.5-0.7-1.4-0.7-2.6v-5.5h-1.6v-1.4h1.6v-2.4L278.3,440z"/>
	<path class="st6" d="M283,445.7c0-1,0-1.9-0.1-2.8h1.6l0.1,1.6h0.1c0.6-1,1.5-1.9,3.2-1.9c1.4,0,2.4,0.8,2.9,2h0
		c0.3-0.6,0.7-1,1.1-1.3c0.6-0.5,1.3-0.7,2.2-0.7c1.3,0,3.3,0.9,3.3,4.4v6h-1.8v-5.8c0-2-0.7-3.1-2.2-3.1c-1,0-1.9,0.8-2.2,1.7
		c-0.1,0.3-0.1,0.6-0.1,0.9v6.3h-1.8V447c0-1.6-0.7-2.8-2.1-2.8c-1.2,0-2,0.9-2.3,1.8c-0.1,0.3-0.1,0.6-0.1,0.9v6.1H283V445.7z"/>
	<path class="st6" d="M300.5,438.2h1.8v14.9h-1.8V438.2z"/>
	<path class="st5" d="M315,448.1l-9.7,5v-1.4l8.3-4.1v0l-8.3-4.1v-1.4l9.7,5V448.1z"/>
</g>
<g>
	<g>
		<g>
			<rect x="538.6" y="82.6" width="4.4" height="1.8"/>
		</g>
		<g>
			<rect x="532.1" y="82.6" width="4.4" height="1.8"/>
		</g>
		<g>
			<rect x="525.5" y="82.6" width="4.4" height="1.8"/>
		</g>
		<g>
			<rect x="519" y="82.6" width="4.4" height="1.8"/>
		</g>
		<g>
			<rect x="512.4" y="82.6" width="4.4" height="1.8"/>
		</g>
		<g>
			<rect x="505.9" y="82.6" width="4.4" height="1.8"/>
		</g>
		<g>
			<rect x="499.3" y="82.6" width="4.4" height="1.8"/>
		</g>
	</g>
	<g>
		<g>
			<rect x="492.8" y="82.6" width="4.4" height="1.8"/>
		</g>
		<g>
			<rect x="486.3" y="82.6" width="4.4" height="1.8"/>
		</g>
		<g>
			<rect x="479.7" y="82.6" width="4.4" height="1.8"/>
		</g>
		<g>
			<rect x="473.2" y="82.6" width="4.4" height="1.8"/>
		</g>
		<g>
			<rect x="466.6" y="82.6" width="4.4" height="1.8"/>
		</g>
		<g>
			<rect x="460.1" y="82.6" width="4.4" height="1.8"/>
		</g>
		<g>
			<rect x="453.5" y="82.6" width="4.4" height="1.8"/>
		</g>
	</g>
	<g>
		<g>
			<rect x="447" y="82.6" width="4.4" height="1.8"/>
		</g>
		<g>
			<rect x="440.4" y="82.6" width="4.4" height="1.8"/>
		</g>
		<g>
			<rect x="433.9" y="82.6" width="4.4" height="1.8"/>
		</g>
		<g>
			<rect x="427.4" y="82.6" width="4.4" height="1.8"/>
		</g>
		<g>
			<rect x="420.8" y="82.6" width="4.4" height="1.8"/>
		</g>
		<g>
			<rect x="414.3" y="82.6" width="4.4" height="1.8"/>
		</g>
		<g>
			<rect x="407.7" y="82.6" width="4.4" height="1.8"/>
		</g>
	</g>
	<g>
		<g>
			<rect x="401.2" y="82.6" width="4.4" height="1.8"/>
		</g>
		<g>
			<rect x="394.6" y="82.6" width="4.4" height="1.8"/>
		</g>
		<g>
			<rect x="388.1" y="82.6" width="4.4" height="1.8"/>
		</g>
		<g>
			<rect x="381.6" y="82.6" width="4.4" height="1.8"/>
		</g>
		<g>
			<rect x="375" y="82.6" width="4.4" height="1.8"/>
		</g>
		<g>
			<rect x="368.5" y="82.6" width="4.4" height="1.8"/>
		</g>
		<g>
			<rect x="361.9" y="82.6" width="4.4" height="1.8"/>
		</g>
	</g>
	<g>
		<g>
			<rect x="355.4" y="82.6" width="4.4" height="1.8"/>
		</g>
		<g>
			<rect x="348.8" y="82.6" width="4.4" height="1.8"/>
		</g>
		<g>
			<rect x="342.3" y="82.6" width="4.4" height="1.8"/>
		</g>
		<g>
			<rect x="335.7" y="82.6" width="4.4" height="1.8"/>
		</g>
		<g>
			<rect x="329.2" y="82.6" width="4.4" height="1.8"/>
		</g>
		<g>
			<rect x="322.7" y="82.6" width="4.4" height="1.8"/>
		</g>
		<g>
			<rect x="316.1" y="82.6" width="4.4" height="1.8"/>
		</g>
	</g>
	<g>
		<g>
			<rect x="309.6" y="82.6" width="4.4" height="1.8"/>
		</g>
		<g>
			<rect x="303" y="82.6" width="4.4" height="1.8"/>
		</g>
		<g>
			<rect x="296.5" y="82.6" width="4.4" height="1.8"/>
		</g>
		<g>
			<rect x="289.9" y="82.6" width="4.4" height="1.8"/>
		</g>
		<g>
			<rect x="283.4" y="82.6" width="4.4" height="1.8"/>
		</g>
		<g>
			<rect x="276.9" y="82.6" width="4.4" height="1.8"/>
		</g>
		<g>
			<rect x="270.3" y="82.6" width="4.4" height="1.8"/>
		</g>
	</g>
	<g>
		<g>
			<rect x="263.8" y="82.6" width="4.4" height="1.8"/>
		</g>
		<g>
			<rect x="257.2" y="82.6" width="4.4" height="1.8"/>
		</g>
		<g>
			<rect x="250.7" y="82.6" width="4.4" height="1.8"/>
		</g>
		<g>
			<rect x="244.1" y="82.6" width="4.4" height="1.8"/>
		</g>
		<g>
			<path d="M238.3,81.2l-0.9,1.6c1.4,0.8,2.9,1.3,4.4,1.5l0.2-1.8C240.8,82.3,239.5,81.9,238.3,81.2z"/>
		</g>
		<g>
			<path d="M234,77l-1.5,0.9c0.8,1.4,1.8,2.6,3,3.6l1.1-1.4C235.6,79.2,234.7,78.2,234,77z"/>
		</g>
		<g>
			<path d="M232.5,71.2h-1.8c0,1.5,0.2,3.1,0.8,4.6l1.7-0.6C232.7,73.9,232.5,72.6,232.5,71.2z"/>
		</g>
	</g>
	<g>
		<g>
			<path d="M232.5,64.7l-1.8,0c0,1.5,0,2.9,0,4.4h1.8C232.5,67.6,232.5,66.1,232.5,64.7z"/>
		</g>
		<g>
			<path d="M234.3,59l-1.5-1c-0.9,1.3-1.5,2.8-1.8,4.3l1.7,0.4C233,61.4,233.6,60.1,234.3,59z"/>
		</g>
		<g>
			<path d="M238.8,55l-0.8-1.6c-1.4,0.7-2.7,1.6-3.8,2.8l1.3,1.2C236.5,56.5,237.6,55.6,238.8,55z"/>
		</g>
		<g>
			<path d="M244.7,53.9v-1.8h-1.1l-1.2,0.1c-0.8,0.1-1.6,0.2-2.3,0.4l0.5,1.7c0.6-0.2,1.3-0.3,2-0.4l1-0.1H244.7z"/>
		</g>
		<g>
			<rect x="246.9" y="52.1" width="4.4" height="1.8"/>
		</g>
		<g>
			<rect x="253.4" y="52.1" width="4.4" height="1.8"/>
		</g>
		<g>
			<rect x="260" y="52.1" width="4.4" height="1.8"/>
		</g>
	</g>
	<g>
		<g>
			<rect x="266.5" y="52.1" width="4.4" height="1.8"/>
		</g>
		<g>
			<rect x="273.1" y="52.1" width="4.4" height="1.8"/>
		</g>
		<g>
			<rect x="279.6" y="52.1" width="4.4" height="1.8"/>
		</g>
		<g>
			<rect x="286.2" y="52.1" width="4.4" height="1.8"/>
		</g>
		<g>
			<rect x="292.7" y="52.1" width="4.4" height="1.8"/>
		</g>
		<g>
			<rect x="299.2" y="52.1" width="4.4" height="1.8"/>
		</g>
		<g>
			<rect x="305.8" y="52.1" width="4.4" height="1.8"/>
		</g>
	</g>
	<g>
		<g>
			<rect x="312.3" y="52.1" width="4.4" height="1.8"/>
		</g>
		<g>
			<rect x="318.9" y="52.1" width="4.4" height="1.8"/>
		</g>
		<g>
			<rect x="325.4" y="52.1" width="4.4" height="1.8"/>
		</g>
		<g>
			<rect x="332" y="52.1" width="4.4" height="1.8"/>
		</g>
		<g>
			<rect x="338.5" y="52.1" width="4.4" height="1.8"/>
		</g>
		<g>
			<rect x="345" y="52.1" width="4.4" height="1.8"/>
		</g>
		<g>
			<rect x="351.6" y="52.1" width="4.4" height="1.8"/>
		</g>
	</g>
	<g>
		<g>
			<rect x="358.1" y="52.1" width="4.4" height="1.8"/>
		</g>
		<g>
			<rect x="364.7" y="52.1" width="4.4" height="1.8"/>
		</g>
		<g>
			<rect x="371.2" y="52.1" width="4.4" height="1.8"/>
		</g>
		<g>
			<rect x="377.8" y="52.1" width="4.4" height="1.8"/>
		</g>
		<g>
			<rect x="384.3" y="52.1" width="4.4" height="1.8"/>
		</g>
		<g>
			<rect x="390.9" y="52.1" width="4.4" height="1.8"/>
		</g>
		<g>
			<rect x="397.4" y="52.1" width="4.4" height="1.8"/>
		</g>
	</g>
	<g>
		<g>
			<rect x="403.9" y="52.1" width="4.4" height="1.8"/>
		</g>
		<g>
			<rect x="410.5" y="52.1" width="4.4" height="1.8"/>
		</g>
		<g>
			<rect x="417" y="52.1" width="4.4" height="1.8"/>
		</g>
		<g>
			<rect x="423.6" y="52.1" width="4.4" height="1.8"/>
		</g>
		<g>
			<rect x="430.1" y="52.1" width="4.4" height="1.8"/>
		</g>
		<g>
			<rect x="436.7" y="52.1" width="4.4" height="1.8"/>
		</g>
		<g>
			<rect x="443.2" y="52.1" width="4.4" height="1.8"/>
		</g>
	</g>
	<g>
		<g>
			<rect x="449.7" y="52.1" width="4.4" height="1.8"/>
		</g>
		<g>
			<rect x="456.3" y="52.1" width="4.4" height="1.8"/>
		</g>
		<g>
			<rect x="462.8" y="52.1" width="4.4" height="1.8"/>
		</g>
		<g>
			<rect x="469.4" y="52.1" width="4.4" height="1.8"/>
		</g>
		<g>
			<rect x="475.9" y="52.1" width="4.4" height="1.8"/>
		</g>
		<g>
			<rect x="482.5" y="52.1" width="4.4" height="1.8"/>
		</g>
		<g>
			<rect x="489" y="52.1" width="4.4" height="1.8"/>
		</g>
	</g>
	<g>
		<g>
			<rect x="495.6" y="52.1" width="4.4" height="1.8"/>
		</g>
		<g>
			<rect x="502.1" y="52.1" width="4.4" height="1.8"/>
		</g>
		<g>
			<rect x="508.6" y="52.1" width="4.4" height="1.8"/>
		</g>
		<g>
			<rect x="515.2" y="52.1" width="4.4" height="1.8"/>
		</g>
		<g>
			<rect x="521.7" y="52.1" width="4.4" height="1.8"/>
		</g>
		<g>
			<rect x="528.3" y="52.1" width="4.4" height="1.8"/>
		</g>
		<g>
			<rect x="534.8" y="52.1" width="4.4" height="1.8"/>
		</g>
	</g>
	<g>
		<g>
			<path d="M545.5,54.2l0.4-1.7c-1.5-0.4-3.1-0.4-4.6-0.3v1.8C542.9,53.9,544.2,53.9,545.5,54.2z"/>
		</g>
		<g>
			<path d="M550.7,57.1l1.2-1.3c-1.1-1.1-2.4-2-3.9-2.6l-0.7,1.6C548.6,55.4,549.8,56.1,550.7,57.1z"/>
		</g>
		<g>
			<path d="M553.7,62.3l1.7-0.4c-0.4-1.5-1.1-3-2-4.2l-1.4,1C552.8,59.7,553.4,61,553.7,62.3z"/>
		</g>
		<g>
			<path d="M554.1,68.6h1.8v-2.2c0-0.7,0-1.5,0-2.3l-1.8,0.1c0,0.7,0,1.4,0,2.1V68.6z"/>
		</g>
		<g>
			<path d="M553.6,74.8l1.7,0.5l0.3-1.1c0.1-0.4,0.1-0.8,0.2-1.2c0.1-0.8,0.1-1.6,0.1-2.3h-1.8c0,0.8,0,1.4-0.1,2.1
				c-0.1,0.3-0.1,0.7-0.2,1L553.6,74.8z"/>
		</g>
		<g>
			<path d="M550.3,79.8l1.2,1.3c1.2-1,2.2-2.3,2.9-3.7l-1.6-0.8C552.2,77.8,551.3,78.9,550.3,79.8z"/>
		</g>
		<g>
			<path d="M545,82.4l0.3,1.7c1.5-0.3,3-0.9,4.4-1.7l-0.9-1.5C547.6,81.7,546.3,82.2,545,82.4z"/>
		</g>
	</g>
</g>
<g>
	<g>
		<g>
			<polygon points="538.2,237.6 538.7,239.4 543.4,239.3 542.5,237.6 			"/>
		</g>
		<g>
			<polygon points="531.7,237.6 531.7,239.4 536.4,239.4 536.1,237.6 			"/>
		</g>
		<g>
			<rect x="525" y="237.6" width="4.5" height="1.8"/>
		</g>
		<g>
			<rect x="518.3" y="237.6" width="4.5" height="1.8"/>
		</g>
		<g>
			<rect x="511.5" y="237.6" width="4.5" height="1.8"/>
		</g>
		<g>
			<rect x="504.8" y="237.6" width="4.5" height="1.8"/>
		</g>
		<g>
			<rect x="498" y="237.6" width="4.5" height="1.8"/>
		</g>
	</g>
	<g>
		<g>
			<rect x="491.3" y="237.6" width="4.5" height="1.8"/>
		</g>
		<g>
			<rect x="484.6" y="237.6" width="4.5" height="1.8"/>
		</g>
		<g>
			<rect x="477.8" y="237.6" width="4.5" height="1.8"/>
		</g>
		<g>
			<rect x="471.1" y="237.6" width="4.5" height="1.8"/>
		</g>
		<g>
			<rect x="464.3" y="237.6" width="4.5" height="1.8"/>
		</g>
		<g>
			<rect x="457.6" y="237.6" width="4.5" height="1.8"/>
		</g>
		<g>
			<rect x="450.9" y="237.6" width="4.5" height="1.8"/>
		</g>
	</g>
	<g>
		<g>
			<rect x="444.1" y="237.6" width="4.5" height="1.8"/>
		</g>
		<g>
			<rect x="437.4" y="237.6" width="4.5" height="1.8"/>
		</g>
		<g>
			<rect x="430.6" y="237.6" width="4.5" height="1.8"/>
		</g>
		<g>
			<rect x="423.9" y="237.6" width="4.5" height="1.8"/>
		</g>
		<g>
			<rect x="417.1" y="237.6" width="4.5" height="1.8"/>
		</g>
		<g>
			<rect x="410.4" y="237.6" width="4.5" height="1.8"/>
		</g>
		<g>
			<rect x="403.7" y="237.6" width="4.5" height="1.8"/>
		</g>
	</g>
	<g>
		<g>
			<rect x="396.9" y="237.6" width="4.5" height="1.8"/>
		</g>
		<g>
			<rect x="390.2" y="237.6" width="4.5" height="1.8"/>
		</g>
		<g>
			<rect x="383.4" y="237.6" width="4.5" height="1.8"/>
		</g>
		<g>
			<rect x="376.7" y="237.6" width="4.5" height="1.8"/>
		</g>
		<g>
			<rect x="370" y="237.6" width="4.5" height="1.8"/>
		</g>
		<g>
			<rect x="363.2" y="237.6" width="4.5" height="1.8"/>
		</g>
		<g>
			<rect x="356.5" y="237.6" width="4.5" height="1.8"/>
		</g>
	</g>
	<g>
		<g>
			<rect x="349.7" y="237.6" width="4.5" height="1.8"/>
		</g>
		<g>
			<rect x="343" y="237.6" width="4.5" height="1.8"/>
		</g>
		<g>
			<rect x="336.3" y="237.6" width="4.5" height="1.8"/>
		</g>
		<g>
			<rect x="329.5" y="237.6" width="4.5" height="1.8"/>
		</g>
		<g>
			<rect x="322.8" y="237.6" width="4.5" height="1.8"/>
		</g>
		<g>
			<rect x="316" y="237.6" width="4.5" height="1.8"/>
		</g>
		<g>
			<rect x="309.3" y="237.6" width="4.5" height="1.8"/>
		</g>
	</g>
	<g>
		<g>
			<rect x="302.6" y="237.6" width="4.5" height="1.8"/>
		</g>
		<g>
			<rect x="295.8" y="237.6" width="4.5" height="1.8"/>
		</g>
		<g>
			<rect x="289.1" y="237.6" width="4.5" height="1.8"/>
		</g>
		<g>
			<rect x="282.3" y="237.6" width="4.5" height="1.8"/>
		</g>
		<g>
			<rect x="275.6" y="237.6" width="4.5" height="1.8"/>
		</g>
		<g>
			<rect x="268.9" y="237.6" width="4.5" height="1.8"/>
		</g>
		<g>
			<rect x="262.1" y="237.6" width="4.5" height="1.8"/>
		</g>
	</g>
	<g>
		<g>
			<rect x="255.4" y="237.6" width="4.5" height="1.8"/>
		</g>
		<g>
			<polygon points="248.9,237.6 248.4,239.4 253.1,239.4 253.2,237.6 			"/>
		</g>
		<g>
			<path d="M242.4,237.5l-1,1.7c1.5,0.2,3.1,0.2,4.6,0.2l0.7-1.8C245.3,237.6,243.9,237.7,242.4,237.5z"/>
		</g>
		<g>
			<path d="M236.6,234.8l-1.3,1.4c1.2,1,2.5,1.8,4,2.3l1.1-1.6C239,236.5,237.7,235.8,236.6,234.8z"/>
		</g>
		<g>
			<path d="M233.1,229.5l-1.6,1.1c0.5,1.5,1.2,2.9,2.2,4.1l1.4-1.3C234.2,232.2,233.5,230.9,233.1,229.5z"/>
		</g>
		<g>
			<path d="M232.5,223.1l-1.8,0.6c0,1.6,0,3.1,0.2,4.6l1.7-0.9C232.5,226,232.6,224.5,232.5,223.1z"/>
		</g>
		<g>
			<polygon points="232.5,216.6 230.8,216.7 230.8,221.4 232.5,220.9 			"/>
		</g>
	</g>
	<g>
		<g>
			<rect x="230.8" y="209.9" width="1.8" height="4.5"/>
		</g>
		<g>
			<rect x="230.8" y="203.2" width="1.8" height="4.5"/>
		</g>
		<g>
			<rect x="230.8" y="196.4" width="1.8" height="4.5"/>
		</g>
		<g>
			<rect x="230.8" y="189.7" width="1.8" height="4.5"/>
		</g>
		<g>
			<rect x="230.8" y="183" width="1.8" height="4.5"/>
		</g>
		<g>
			<rect x="230.8" y="176.2" width="1.8" height="4.5"/>
		</g>
		<g>
			<polygon points="232.5,169.7 230.8,169.3 230.8,174 232.5,174 			"/>
		</g>
	</g>
	<g>
		<g>
			<polygon points="232.5,163.2 230.8,162.3 230.8,167 232.5,167.5 			"/>
		</g>
		<g>
			<path d="M234.2,157l-1.5-1.2c-0.8,1.3-1.4,2.8-1.7,4.3l1.7,1C232.9,159.6,233.5,158.2,234.2,157z"/>
		</g>
		<g>
			<path d="M238.9,152.7l-1.2-1.6c-1.4,0.7-2.6,1.7-3.7,2.8l1.4,1.4C236.4,154.2,237.6,153.3,238.9,152.7z"/>
		</g>
		<g>
			<path d="M245.2,151.4l-0.8-1.7c-1.5,0-3.1,0.1-4.6,0.6l1.1,1.6C242.3,151.4,243.7,151.4,245.2,151.4z"/>
		</g>
		<g>
			<polygon points="251.7,151.4 251.4,149.6 246.7,149.6 247.3,151.4 			"/>
		</g>
		<g>
			<polygon points="258.3,151.4 258.3,149.6 253.7,149.6 253.8,151.4 			"/>
		</g>
		<g>
			<rect x="260.5" y="149.6" width="4.5" height="1.8"/>
		</g>
	</g>
	<g>
		<g>
			<rect x="267.2" y="149.6" width="4.5" height="1.8"/>
		</g>
		<g>
			<rect x="273.9" y="149.6" width="4.5" height="1.8"/>
		</g>
		<g>
			<rect x="280.7" y="149.6" width="4.5" height="1.8"/>
		</g>
		<g>
			<rect x="287.4" y="149.6" width="4.5" height="1.8"/>
		</g>
		<g>
			<rect x="294.2" y="149.6" width="4.5" height="1.8"/>
		</g>
		<g>
			<rect x="300.9" y="149.6" width="4.5" height="1.8"/>
		</g>
		<g>
			<rect x="307.6" y="149.6" width="4.5" height="1.8"/>
		</g>
	</g>
	<g>
		<g>
			<rect x="314.4" y="149.6" width="4.5" height="1.8"/>
		</g>
		<g>
			<rect x="321.1" y="149.6" width="4.5" height="1.8"/>
		</g>
		<g>
			<rect x="327.9" y="149.6" width="4.5" height="1.8"/>
		</g>
		<g>
			<rect x="334.6" y="149.6" width="4.5" height="1.8"/>
		</g>
		<g>
			<rect x="341.4" y="149.6" width="4.5" height="1.8"/>
		</g>
		<g>
			<rect x="348.1" y="149.6" width="4.5" height="1.8"/>
		</g>
		<g>
			<rect x="354.8" y="149.6" width="4.5" height="1.8"/>
		</g>
	</g>
	<g>
		<g>
			<rect x="361.6" y="149.6" width="4.5" height="1.8"/>
		</g>
		<g>
			<rect x="368.3" y="149.6" width="4.5" height="1.8"/>
		</g>
		<g>
			<rect x="375.1" y="149.6" width="4.5" height="1.8"/>
		</g>
		<g>
			<rect x="381.8" y="149.6" width="4.5" height="1.8"/>
		</g>
		<g>
			<rect x="388.5" y="149.6" width="4.5" height="1.8"/>
		</g>
		<g>
			<rect x="395.3" y="149.6" width="4.5" height="1.8"/>
		</g>
		<g>
			<rect x="402" y="149.6" width="4.5" height="1.8"/>
		</g>
	</g>
	<g>
		<g>
			<rect x="408.8" y="149.6" width="4.5" height="1.8"/>
		</g>
		<g>
			<rect x="415.5" y="149.6" width="4.5" height="1.8"/>
		</g>
		<g>
			<rect x="422.2" y="149.6" width="4.5" height="1.8"/>
		</g>
		<g>
			<rect x="429" y="149.6" width="4.5" height="1.8"/>
		</g>
		<g>
			<rect x="435.7" y="149.6" width="4.5" height="1.8"/>
		</g>
		<g>
			<rect x="442.5" y="149.6" width="4.5" height="1.8"/>
		</g>
		<g>
			<rect x="449.2" y="149.6" width="4.5" height="1.8"/>
		</g>
	</g>
	<g>
		<g>
			<rect x="455.9" y="149.6" width="4.5" height="1.8"/>
		</g>
		<g>
			<rect x="462.7" y="149.6" width="4.5" height="1.8"/>
		</g>
		<g>
			<rect x="469.4" y="149.6" width="4.5" height="1.8"/>
		</g>
		<g>
			<rect x="476.2" y="149.6" width="4.5" height="1.8"/>
		</g>
		<g>
			<rect x="482.9" y="149.6" width="4.5" height="1.8"/>
		</g>
		<g>
			<rect x="489.6" y="149.6" width="4.5" height="1.8"/>
		</g>
		<g>
			<rect x="496.4" y="149.6" width="4.5" height="1.8"/>
		</g>
	</g>
	<g>
		<g>
			<rect x="503.1" y="149.6" width="4.5" height="1.8"/>
		</g>
		<g>
			<rect x="509.9" y="149.6" width="4.5" height="1.8"/>
		</g>
		<g>
			<rect x="516.6" y="149.6" width="4.5" height="1.8"/>
		</g>
		<g>
			<rect x="523.3" y="149.6" width="4.5" height="1.8"/>
		</g>
		<g>
			<polygon points="534.5,151.4 534.7,149.6 530.1,149.6 530.1,151.4 			"/>
		</g>
		<g>
			<polygon points="541,151.4 541.7,149.7 537,149.6 536.6,151.4 			"/>
		</g>
		<g>
			<path d="M547.3,152.4l1.2-1.6c-1.4-0.7-2.9-1-4.5-1.1l-0.9,1.7C544.5,151.5,546,151.8,547.3,152.4z"/>
		</g>
	</g>
	<g>
		<g>
			<path d="M552.2,156.6l1.5-1.3c-0.9-1.3-2-2.4-3.2-3.3l-1.3,1.5C550.3,154.3,551.4,155.4,552.2,156.6z"/>
		</g>
		<g>
			<path d="M554.1,162.7l1.7-0.9c-0.1-1.5-0.4-3.1-1-4.5l-1.6,1.1C553.7,159.8,554,161.2,554.1,162.7z"/>
		</g>
		<g>
			<polygon points="554.1,169.2 555.9,168.8 555.8,164.1 554.1,164.8 			"/>
		</g>
		<g>
			<polygon points="554.1,175.7 555.9,175.7 555.9,171.1 554.1,171.3 			"/>
		</g>
		<g>
			<rect x="554.1" y="177.9" width="1.8" height="4.5"/>
		</g>
		<g>
			<rect x="554.1" y="184.7" width="1.8" height="4.5"/>
		</g>
		<g>
			<rect x="554.1" y="191.4" width="1.8" height="4.5"/>
		</g>
	</g>
	<g>
		<g>
			<rect x="554.1" y="198.2" width="1.8" height="4.5"/>
		</g>
		<g>
			<rect x="554.1" y="204.9" width="1.8" height="4.5"/>
		</g>
		<g>
			<polygon points="554.1,216.1 555.9,216.2 555.9,211.6 554.1,211.6 			"/>
		</g>
		<g>
			<polygon points="554.1,222.6 555.9,223.2 555.9,218.5 554.1,218.2 			"/>
		</g>
		<g>
			<path d="M553.7,229l1.6,1c0.4-1.5,0.5-3.1,0.5-4.6l-1.7-0.8C554.1,226.2,554.1,227.6,553.7,229z"/>
		</g>
		<g>
			<path d="M550.4,234.5l1.4,1.4c1.1-1.1,2.1-2.3,2.8-3.7l-1.6-1.2C552.3,232.3,551.4,233.5,550.4,234.5z"/>
		</g>
		<g>
			<path d="M544.7,237.4l1,1.7c1.5-0.3,3-0.9,4.3-1.7l-1.2-1.5C547.5,236.6,546.1,237.1,544.7,237.4z"/>
		</g>
	</g>
</g>
<g>
	<g>
		<g>
			<polygon points="538.2,416.1 538.7,417.9 543.4,417.8 542.5,416.1 			"/>
		</g>
		<g>
			<polygon points="531.6,416.1 531.6,417.9 536.4,417.9 536,416.1 			"/>
		</g>
		<g>
			<rect x="524.8" y="416.1" width="4.6" height="1.8"/>
		</g>
		<g>
			<rect x="518" y="416.1" width="4.6" height="1.8"/>
		</g>
		<g>
			<rect x="511.2" y="416.1" width="4.6" height="1.8"/>
		</g>
		<g>
			<rect x="504.4" y="416.1" width="4.6" height="1.8"/>
		</g>
		<g>
			<rect x="497.6" y="416.1" width="4.6" height="1.8"/>
		</g>
	</g>
	<g>
		<g>
			<rect x="490.8" y="416.1" width="4.6" height="1.8"/>
		</g>
		<g>
			<rect x="484" y="416.1" width="4.6" height="1.8"/>
		</g>
		<g>
			<rect x="477.2" y="416.1" width="4.6" height="1.8"/>
		</g>
		<g>
			<rect x="470.4" y="416.1" width="4.6" height="1.8"/>
		</g>
		<g>
			<rect x="463.6" y="416.1" width="4.6" height="1.8"/>
		</g>
		<g>
			<rect x="456.8" y="416.1" width="4.6" height="1.8"/>
		</g>
		<g>
			<rect x="450.1" y="416.1" width="4.6" height="1.8"/>
		</g>
	</g>
	<g>
		<g>
			<rect x="443.3" y="416.1" width="4.6" height="1.8"/>
		</g>
		<g>
			<rect x="436.5" y="416.1" width="4.6" height="1.8"/>
		</g>
		<g>
			<rect x="429.7" y="416.1" width="4.6" height="1.8"/>
		</g>
		<g>
			<rect x="422.9" y="416.1" width="4.6" height="1.8"/>
		</g>
		<g>
			<rect x="416.1" y="416.1" width="4.6" height="1.8"/>
		</g>
		<g>
			<rect x="409.3" y="416.1" width="4.6" height="1.8"/>
		</g>
		<g>
			<rect x="402.5" y="416.1" width="4.6" height="1.8"/>
		</g>
	</g>
	<g>
		<g>
			<rect x="395.7" y="416.1" width="4.6" height="1.8"/>
		</g>
		<g>
			<rect x="388.9" y="416.1" width="4.6" height="1.8"/>
		</g>
		<g>
			<rect x="382.1" y="416.1" width="4.6" height="1.8"/>
		</g>
		<g>
			<rect x="375.3" y="416.1" width="4.6" height="1.8"/>
		</g>
		<g>
			<rect x="368.5" y="416.1" width="4.6" height="1.8"/>
		</g>
		<g>
			<rect x="361.7" y="416.1" width="4.6" height="1.8"/>
		</g>
		<g>
			<rect x="354.9" y="416.1" width="4.6" height="1.8"/>
		</g>
	</g>
	<g>
		<g>
			<rect x="348.1" y="416.1" width="4.6" height="1.8"/>
		</g>
		<g>
			<rect x="341.3" y="416.1" width="4.6" height="1.8"/>
		</g>
		<g>
			<rect x="334.5" y="416.1" width="4.6" height="1.8"/>
		</g>
		<g>
			<rect x="327.7" y="416.1" width="4.6" height="1.8"/>
		</g>
		<g>
			<rect x="320.9" y="416.1" width="4.6" height="1.8"/>
		</g>
		<g>
			<rect x="314.1" y="416.1" width="4.6" height="1.8"/>
		</g>
		<g>
			<rect x="307.3" y="416.1" width="4.6" height="1.8"/>
		</g>
	</g>
	<g>
		<g>
			<rect x="300.5" y="416.1" width="4.6" height="1.8"/>
		</g>
		<g>
			<rect x="293.7" y="416.1" width="4.6" height="1.8"/>
		</g>
		<g>
			<rect x="286.9" y="416.1" width="4.6" height="1.8"/>
		</g>
		<g>
			<rect x="280.1" y="416.1" width="4.6" height="1.8"/>
		</g>
		<g>
			<rect x="273.3" y="416.1" width="4.6" height="1.8"/>
		</g>
		<g>
			<rect x="266.5" y="416.1" width="4.6" height="1.8"/>
		</g>
		<g>
			<rect x="259.7" y="416.1" width="4.6" height="1.8"/>
		</g>
	</g>
	<g>
		<g>
			<polygon points="253,416.1 252.8,417.9 257.4,417.9 257.4,416.1 			"/>
		</g>
		<g>
			<polygon points="246.4,416.1 245.8,417.8 250.5,417.9 250.8,416.1 			"/>
		</g>
		<g>
			<path d="M240,415.3l-1.1,1.6c1.5,0.6,3,0.9,4.6,0.9l0.8-1.7C242.8,416.1,241.4,415.9,240,415.3z"/>
		</g>
		<g>
			<path d="M234.8,411.4l-1.5,1.3c0.9,1.2,2.1,2.3,3.5,3.1l1.2-1.5C236.8,413.6,235.7,412.6,234.8,411.4z"/>
		</g>
		<g>
			<path d="M232.6,405.4l-1.7,0.9c0.1,1.6,0.6,3.1,1.3,4.5l1.6-1.2C233.1,408.3,232.7,406.9,232.6,405.4z"/>
		</g>
		<g>
			<polygon points="232.5,398.9 230.8,399.3 230.8,404 232.5,403.3 			"/>
		</g>
		<g>
			<polygon points="232.5,392.3 230.8,392.3 230.8,397 232.5,396.7 			"/>
		</g>
	</g>
	<g>
		<g>
			<rect x="230.8" y="385.5" width="1.8" height="4.6"/>
		</g>
		<g>
			<rect x="230.8" y="378.7" width="1.8" height="4.6"/>
		</g>
		<g>
			<rect x="230.8" y="371.9" width="1.8" height="4.6"/>
		</g>
		<g>
			<rect x="230.8" y="365.1" width="1.8" height="4.6"/>
		</g>
		<g>
			<rect x="230.8" y="358.3" width="1.8" height="4.6"/>
		</g>
		<g>
			<rect x="230.8" y="351.5" width="1.8" height="4.6"/>
		</g>
		<g>
			<rect x="230.8" y="344.7" width="1.8" height="4.6"/>
		</g>
	</g>
	<g>
		<g>
			<rect x="230.8" y="337.9" width="1.8" height="4.6"/>
		</g>
		<g>
			<rect x="230.8" y="331.1" width="1.8" height="4.6"/>
		</g>
		<g>
			<rect x="230.8" y="324.3" width="1.8" height="4.6"/>
		</g>
		<g>
			<rect x="230.8" y="317.5" width="1.8" height="4.6"/>
		</g>
		<g>
			<rect x="230.8" y="310.7" width="1.8" height="4.6"/>
		</g>
		<g>
			<rect x="230.8" y="303.9" width="1.8" height="4.6"/>
		</g>
		<g>
			<rect x="230.8" y="297.1" width="1.8" height="4.6"/>
		</g>
	</g>
	<g>
		<g>
			<rect x="230.8" y="290.3" width="1.8" height="4.6"/>
		</g>
		<g>
			<rect x="230.8" y="283.5" width="1.8" height="4.6"/>
		</g>
		<g>
			<polygon points="232.5,276.8 230.8,276.7 230.8,281.3 232.5,281.3 			"/>
		</g>
		<g>
			<polygon points="232.5,270.2 230.8,269.6 230.8,274.4 232.5,274.6 			"/>
		</g>
		<g>
			<path d="M232.9,263.7l-1.6-1c-0.4,1.5-0.5,3.1-0.5,4.6l1.7,0.7C232.5,266.6,232.5,265.1,232.9,263.7z"/>
		</g>
		<g>
			<path d="M236.2,258.2l-1.4-1.4c-1.1,1.1-2.1,2.4-2.8,3.8l1.6,1.2C234.2,260.4,235.1,259.2,236.2,258.2z"/>
		</g>
		<g>
			<path d="M241.9,255.2l-1-1.7c-1.5,0.3-3,0.9-4.3,1.8l1.3,1.5C239.1,256.1,240.5,255.5,241.9,255.2z"/>
		</g>
	</g>
	<g>
		<g>
			<polygon points="248.5,255 247.9,253.3 243.2,253.3 244.1,255 			"/>
		</g>
		<g>
			<polygon points="255,255 255,253.3 250.2,253.3 250.6,255 			"/>
		</g>
		<g>
			<rect x="257.2" y="253.3" width="4.6" height="1.8"/>
		</g>
		<g>
			<rect x="264" y="253.3" width="4.6" height="1.8"/>
		</g>
		<g>
			<rect x="270.8" y="253.3" width="4.6" height="1.8"/>
		</g>
		<g>
			<rect x="277.6" y="253.3" width="4.6" height="1.8"/>
		</g>
		<g>
			<rect x="284.4" y="253.3" width="4.6" height="1.8"/>
		</g>
	</g>
	<g>
		<g>
			<rect x="291.2" y="253.3" width="4.6" height="1.8"/>
		</g>
		<g>
			<rect x="298" y="253.3" width="4.6" height="1.8"/>
		</g>
		<g>
			<rect x="304.8" y="253.3" width="4.6" height="1.8"/>
		</g>
		<g>
			<rect x="311.6" y="253.3" width="4.6" height="1.8"/>
		</g>
		<g>
			<rect x="318.4" y="253.3" width="4.6" height="1.8"/>
		</g>
		<g>
			<rect x="325.2" y="253.3" width="4.6" height="1.8"/>
		</g>
		<g>
			<rect x="332" y="253.3" width="4.6" height="1.8"/>
		</g>
	</g>
	<g>
		<g>
			<rect x="338.8" y="253.3" width="4.6" height="1.8"/>
		</g>
		<g>
			<rect x="345.6" y="253.3" width="4.6" height="1.8"/>
		</g>
		<g>
			<rect x="352.4" y="253.3" width="4.6" height="1.8"/>
		</g>
		<g>
			<rect x="359.2" y="253.3" width="4.6" height="1.8"/>
		</g>
		<g>
			<rect x="366" y="253.3" width="4.6" height="1.8"/>
		</g>
		<g>
			<rect x="372.8" y="253.3" width="4.6" height="1.8"/>
		</g>
		<g>
			<rect x="379.6" y="253.3" width="4.6" height="1.8"/>
		</g>
	</g>
	<g>
		<g>
			<rect x="386.4" y="253.3" width="4.6" height="1.8"/>
		</g>
		<g>
			<rect x="393.2" y="253.3" width="4.6" height="1.8"/>
		</g>
		<g>
			<rect x="400" y="253.3" width="4.6" height="1.8"/>
		</g>
		<g>
			<rect x="406.8" y="253.3" width="4.6" height="1.8"/>
		</g>
		<g>
			<rect x="413.6" y="253.3" width="4.6" height="1.8"/>
		</g>
		<g>
			<rect x="420.4" y="253.3" width="4.6" height="1.8"/>
		</g>
		<g>
			<rect x="427.2" y="253.3" width="4.6" height="1.8"/>
		</g>
	</g>
	<g>
		<g>
			<rect x="434" y="253.3" width="4.6" height="1.8"/>
		</g>
		<g>
			<rect x="440.8" y="253.3" width="4.6" height="1.8"/>
		</g>
		<g>
			<rect x="447.6" y="253.3" width="4.6" height="1.8"/>
		</g>
		<g>
			<rect x="454.4" y="253.3" width="4.6" height="1.8"/>
		</g>
		<g>
			<rect x="461.2" y="253.3" width="4.6" height="1.8"/>
		</g>
		<g>
			<rect x="468" y="253.3" width="4.6" height="1.8"/>
		</g>
		<g>
			<rect x="474.8" y="253.3" width="4.6" height="1.8"/>
		</g>
	</g>
	<g>
		<g>
			<rect x="481.6" y="253.3" width="4.6" height="1.8"/>
		</g>
		<g>
			<rect x="488.4" y="253.3" width="4.6" height="1.8"/>
		</g>
		<g>
			<rect x="495.2" y="253.3" width="4.6" height="1.8"/>
		</g>
		<g>
			<rect x="502" y="253.3" width="4.6" height="1.8"/>
		</g>
		<g>
			<rect x="508.8" y="253.3" width="4.6" height="1.8"/>
		</g>
		<g>
			<rect x="515.6" y="253.3" width="4.6" height="1.8"/>
		</g>
		<g>
			<rect x="522.4" y="253.3" width="4.6" height="1.8"/>
		</g>
	</g>
	<g>
		<g>
			<polygon points="533.6,255 533.8,253.3 529.2,253.3 529.2,255 			"/>
		</g>
		<g>
			<polygon points="540.2,255 540.9,253.3 536.1,253.3 535.8,255 			"/>
		</g>
		<g>
			<path d="M546.6,255.8l1.1-1.6c-1.5-0.6-3-0.9-4.6-0.9l-0.8,1.7C543.8,255,545.3,255.3,546.6,255.8z"/>
		</g>
		<g>
			<path d="M551.8,259.7l1.5-1.3c-0.9-1.2-2.1-2.3-3.5-3.1l-1.2,1.5C549.8,257.5,550.9,258.5,551.8,259.7z"/>
		</g>
		<g>
			<path d="M554,265.7l1.7-0.9c-0.1-1.6-0.6-3.1-1.3-4.5l-1.6,1.2C553.5,262.8,553.9,264.3,554,265.7z"/>
		</g>
		<g>
			<polygon points="554.1,272.2 555.9,271.8 555.8,267.1 554.1,267.9 			"/>
		</g>
		<g>
			<polygon points="554.1,278.8 555.9,278.8 555.9,274.1 554.1,274.4 			"/>
		</g>
	</g>
	<g>
		<g>
			<rect x="554.1" y="281.1" width="1.8" height="4.6"/>
		</g>
		<g>
			<rect x="554.1" y="287.9" width="1.8" height="4.6"/>
		</g>
		<g>
			<rect x="554.1" y="294.7" width="1.8" height="4.6"/>
		</g>
		<g>
			<rect x="554.1" y="301.5" width="1.8" height="4.6"/>
		</g>
		<g>
			<rect x="554.1" y="308.3" width="1.8" height="4.6"/>
		</g>
		<g>
			<rect x="554.1" y="315.1" width="1.8" height="4.6"/>
		</g>
		<g>
			<rect x="554.1" y="321.8" width="1.8" height="4.6"/>
		</g>
	</g>
	<g>
		<g>
			<rect x="554.1" y="328.6" width="1.8" height="4.6"/>
		</g>
		<g>
			<rect x="554.1" y="335.4" width="1.8" height="4.6"/>
		</g>
		<g>
			<rect x="554.1" y="342.2" width="1.8" height="4.6"/>
		</g>
		<g>
			<rect x="554.1" y="349" width="1.8" height="4.6"/>
		</g>
		<g>
			<rect x="554.1" y="355.8" width="1.8" height="4.6"/>
		</g>
		<g>
			<rect x="554.1" y="362.6" width="1.8" height="4.6"/>
		</g>
		<g>
			<rect x="554.1" y="369.4" width="1.8" height="4.6"/>
		</g>
	</g>
	<g>
		<g>
			<rect x="554.1" y="376.2" width="1.8" height="4.6"/>
		</g>
		<g>
			<rect x="554.1" y="383" width="1.8" height="4.6"/>
		</g>
		<g>
			<polygon points="554.1,394.4 555.9,394.4 555.9,389.8 554.1,389.8 			"/>
		</g>
		<g>
			<polygon points="554.1,400.9 555.9,401.5 555.9,396.8 554.1,396.5 			"/>
		</g>
		<g>
			<path d="M553.7,407.4l1.6,1c0.4-1.5,0.5-3.1,0.5-4.6l-1.7-0.7C554.1,404.5,554.1,406,553.7,407.4z"/>
		</g>
		<g>
			<path d="M550.4,412.9l1.4,1.4c1.1-1.1,2.1-2.4,2.8-3.8l-1.6-1.2C552.4,410.7,551.5,411.9,550.4,412.9z"/>
		</g>
		<g>
			<path d="M544.7,415.9l1,1.7c1.5-0.3,3-0.9,4.3-1.8l-1.3-1.5C547.5,415.1,546.1,415.6,544.7,415.9z"/>
		</g>
	</g>
</g>
<g>
	<g>
		<g>
			<polygon points="439.6,382.6 440.2,384.4 444.9,384.3 444,382.6 			"/>
		</g>
		<g>
			<polygon points="433.1,382.6 433.1,384.4 437.8,384.4 437.5,382.6 			"/>
		</g>
		<g>
			<rect x="426.2" y="382.6" width="4.6" height="1.8"/>
		</g>
		<g>
			<rect x="419.4" y="382.6" width="4.6" height="1.8"/>
		</g>
		<g>
			<rect x="412.6" y="382.6" width="4.6" height="1.8"/>
		</g>
		<g>
			<rect x="405.7" y="382.6" width="4.6" height="1.8"/>
		</g>
		<g>
			<rect x="398.9" y="382.6" width="4.6" height="1.8"/>
		</g>
	</g>
	<g>
		<g>
			<rect x="392.1" y="382.6" width="4.6" height="1.8"/>
		</g>
		<g>
			<rect x="385.2" y="382.6" width="4.6" height="1.8"/>
		</g>
		<g>
			<rect x="378.4" y="382.6" width="4.6" height="1.8"/>
		</g>
		<g>
			<rect x="371.6" y="382.6" width="4.6" height="1.8"/>
		</g>
		<g>
			<rect x="364.7" y="382.6" width="4.6" height="1.8"/>
		</g>
		<g>
			<rect x="357.9" y="382.6" width="4.6" height="1.8"/>
		</g>
		<g>
			<rect x="351.1" y="382.6" width="4.6" height="1.8"/>
		</g>
	</g>
	<g>
		<g>
			<rect x="344.2" y="382.6" width="4.6" height="1.8"/>
		</g>
		<g>
			<rect x="337.4" y="382.6" width="4.6" height="1.8"/>
		</g>
		<g>
			<rect x="330.5" y="382.6" width="4.6" height="1.8"/>
		</g>
		<g>
			<rect x="323.7" y="382.6" width="4.6" height="1.8"/>
		</g>
		<g>
			<rect x="316.9" y="382.6" width="4.6" height="1.8"/>
		</g>
		<g>
			<rect x="310" y="382.6" width="4.6" height="1.8"/>
		</g>
		<g>
			<rect x="303.2" y="382.6" width="4.6" height="1.8"/>
		</g>
	</g>
	<g>
		<g>
			<rect x="296.4" y="382.6" width="4.6" height="1.8"/>
		</g>
		<g>
			<rect x="289.5" y="382.6" width="4.6" height="1.8"/>
		</g>
		<g>
			<rect x="282.7" y="382.6" width="4.6" height="1.8"/>
		</g>
		<g>
			<polygon points="276,382.6 275.7,384.4 280.4,384.4 280.5,382.6 			"/>
		</g>
		<g>
			<polygon points="269.5,382.6 268.6,384.3 273.4,384.4 273.9,382.6 			"/>
		</g>
		<g>
			<path d="M263.3,380.8l-1.3,1.5c1.3,0.9,2.8,1.5,4.3,1.8l1-1.7C265.9,382.1,264.5,381.6,263.3,380.8z"/>
		</g>
		<g>
			<path d="M259,375.9l-1.6,1.2c0.7,1.4,1.6,2.7,2.8,3.8l1.4-1.4C260.5,378.4,259.6,377.2,259,375.9z"/>
		</g>
	</g>
	<g>
		<g>
			<path d="M257.9,369.5l-1.7,0.7c0,1.6,0,3.2,0.5,4.7l1.6-1C257.9,372.4,257.9,370.9,257.9,369.5z"/>
		</g>
		<g>
			<polygon points="257.9,362.9 256.1,363.1 256.1,367.9 257.9,367.3 			"/>
		</g>
		<g>
			<polygon points="257.9,356.2 256.1,356.2 256.1,360.8 257.9,360.7 			"/>
		</g>
		<g>
			<rect x="256.1" y="349.3" width="1.8" height="4.6"/>
		</g>
		<g>
			<rect x="256.1" y="342.5" width="1.8" height="4.6"/>
		</g>
		<g>
			<rect x="256.1" y="335.7" width="1.8" height="4.6"/>
		</g>
		<g>
			<polygon points="257.9,329 256.1,328.7 256.1,333.4 257.9,333.4 			"/>
		</g>
	</g>
	<g>
		<g>
			<polygon points="257.9,322.4 256.2,321.6 256.1,326.4 257.9,326.8 			"/>
		</g>
		<g>
			<path d="M259.5,316.1l-1.5-1.2c-0.8,1.4-1.4,2.9-1.6,4.4l1.7,1C258.3,318.8,258.8,317.4,259.5,316.1z"/>
		</g>
		<g>
			<path d="M264.2,311.7l-1.2-1.6c-1.4,0.7-2.7,1.7-3.7,2.9l1.4,1.3C261.7,313.3,262.9,312.4,264.2,311.7z"/>
		</g>
		<g>
			<path d="M270.6,310.4l-0.8-1.7c-1.6,0-3.2,0.1-4.7,0.6l1.1,1.6C267.6,310.4,269.1,310.4,270.6,310.4z"/>
		</g>
		<g>
			<polygon points="277.1,310.4 276.9,308.6 272.1,308.6 272.7,310.4 			"/>
		</g>
		<g>
			<polygon points="283.8,310.4 283.8,308.6 279.2,308.6 279.3,310.4 			"/>
		</g>
		<g>
			<rect x="286.1" y="308.6" width="4.6" height="1.8"/>
		</g>
	</g>
	<g>
		<g>
			<rect x="292.9" y="308.6" width="4.6" height="1.8"/>
		</g>
		<g>
			<rect x="299.8" y="308.6" width="4.6" height="1.8"/>
		</g>
		<g>
			<rect x="306.6" y="308.6" width="4.6" height="1.8"/>
		</g>
		<g>
			<rect x="313.4" y="308.6" width="4.6" height="1.8"/>
		</g>
		<g>
			<rect x="320.3" y="308.6" width="4.6" height="1.8"/>
		</g>
		<g>
			<rect x="327.1" y="308.6" width="4.6" height="1.8"/>
		</g>
		<g>
			<rect x="333.9" y="308.6" width="4.6" height="1.8"/>
		</g>
	</g>
	<g>
		<g>
			<rect x="340.8" y="308.6" width="4.6" height="1.8"/>
		</g>
		<g>
			<rect x="347.6" y="308.6" width="4.6" height="1.8"/>
		</g>
		<g>
			<rect x="354.4" y="308.6" width="4.6" height="1.8"/>
		</g>
		<g>
			<rect x="361.3" y="308.6" width="4.6" height="1.8"/>
		</g>
		<g>
			<rect x="368.1" y="308.6" width="4.6" height="1.8"/>
		</g>
		<g>
			<rect x="375" y="308.6" width="4.6" height="1.8"/>
		</g>
		<g>
			<rect x="381.8" y="308.6" width="4.6" height="1.8"/>
		</g>
	</g>
	<g>
		<g>
			<rect x="388.6" y="308.6" width="4.6" height="1.8"/>
		</g>
		<g>
			<rect x="395.5" y="308.6" width="4.6" height="1.8"/>
		</g>
		<g>
			<rect x="402.3" y="308.6" width="4.6" height="1.8"/>
		</g>
		<g>
			<rect x="409.1" y="308.6" width="4.6" height="1.8"/>
		</g>
		<g>
			<rect x="416" y="308.6" width="4.6" height="1.8"/>
		</g>
		<g>
			<rect x="422.8" y="308.6" width="4.6" height="1.8"/>
		</g>
		<g>
			<polygon points="434.2,310.4 434.3,308.6 429.6,308.6 429.6,310.4 			"/>
		</g>
	</g>
	<g>
		<g>
			<polygon points="440.7,310.4 441.4,308.6 436.6,308.6 436.3,310.4 			"/>
		</g>
		<g>
			<path d="M447.3,310.9l1.1-1.6c-1.5-0.5-3.1-0.6-4.7-0.6l-0.8,1.7C444.4,310.4,445.9,310.4,447.3,310.9z"/>
		</g>
		<g>
			<path d="M452.7,314.4l1.4-1.3c-1-1.2-2.3-2.2-3.7-2.9l-1.2,1.6C450.6,312.4,451.8,313.3,452.7,314.4z"/>
		</g>
		<g>
			<path d="M455.4,320.3l1.7-1c-0.3-1.5-0.8-3.1-1.6-4.4l-1.5,1.2C454.7,317.4,455.2,318.8,455.4,320.3z"/>
		</g>
		<g>
			<polygon points="455.6,326.8 457.4,326.3 457.3,321.6 455.6,322.4 			"/>
		</g>
		<g>
			<polygon points="455.6,333.4 457.4,333.4 457.4,328.7 455.6,329 			"/>
		</g>
		<g>
			<rect x="455.6" y="335.6" width="1.8" height="4.6"/>
		</g>
	</g>
	<g>
		<g>
			<rect x="455.6" y="342.5" width="1.8" height="4.6"/>
		</g>
		<g>
			<rect x="455.6" y="349.3" width="1.8" height="4.6"/>
		</g>
		<g>
			<polygon points="455.6,360.7 457.4,360.8 457.4,356.2 455.6,356.2 			"/>
		</g>
		<g>
			<polygon points="455.6,367.3 457.4,367.9 457.4,363.1 455.6,362.9 			"/>
		</g>
		<g>
			<path d="M455.2,373.8l1.6,1c0.4-1.5,0.4-3.1,0.5-4.7l-1.7-0.7C455.6,370.9,455.6,372.4,455.2,373.8z"/>
		</g>
		<g>
			<path d="M452,379.4l1.4,1.4c1.1-1.1,2.1-2.4,2.8-3.8l-1.6-1.2C453.9,377.2,453,378.4,452,379.4z"/>
		</g>
		<g>
			<path d="M446.2,382.4l1,1.7c1.5-0.3,3-0.9,4.3-1.8l-1.3-1.5C449,381.5,447.6,382.1,446.2,382.4z"/>
		</g>
	</g>
</g>
<g class="st2">
	<g>
		<g>
			<rect x="681.8" y="68.3" width="4.2" height="1.8"/>
		</g>
		<g>
			<rect x="675.5" y="68.3" width="4.2" height="1.8"/>
		</g>
		<g>
			<rect x="669.2" y="68.3" width="4.2" height="1.8"/>
		</g>
		<g>
			<rect x="662.9" y="68.3" width="4.2" height="1.8"/>
		</g>
		<g>
			<rect x="656.6" y="68.3" width="4.2" height="1.8"/>
		</g>
		<g>
			<rect x="650.4" y="68.3" width="4.2" height="1.8"/>
		</g>
		<g>
			<rect x="644.1" y="68.3" width="4.2" height="1.8"/>
		</g>
	</g>
	<g>
		<g>
			<rect x="637.8" y="68.3" width="4.2" height="1.8"/>
		</g>
		<g>
			<rect x="631.5" y="68.3" width="4.2" height="1.8"/>
		</g>
		<g>
			<rect x="625.2" y="68.3" width="4.2" height="1.8"/>
		</g>
		<g>
			<rect x="618.9" y="68.3" width="4.2" height="1.8"/>
		</g>
		<g>
			<rect x="612.6" y="68.3" width="4.2" height="1.8"/>
		</g>
		<g>
			<rect x="606.4" y="68.3" width="4.2" height="1.8"/>
		</g>
		<g>
			<rect x="600.1" y="68.3" width="4.2" height="1.8"/>
		</g>
	</g>
	<g>
		<g>
			<rect x="593.8" y="68.3" width="4.2" height="1.8"/>
		</g>
		<g>
			<rect x="587.5" y="68.3" width="4.2" height="1.8"/>
		</g>
		<g>
			<rect x="581.2" y="68.3" width="4.2" height="1.8"/>
		</g>
		<g>
			<rect x="574.9" y="68.3" width="4.2" height="1.8"/>
		</g>
		<g>
			<rect x="568.6" y="68.3" width="4.2" height="1.8"/>
		</g>
		<g>
			<rect x="562.4" y="68.3" width="4.2" height="1.8"/>
		</g>
		<g>
			<rect x="556.1" y="68.3" width="4.2" height="1.8"/>
		</g>
	</g>
</g>
<g class="st2">
	<g>
		<g>
			<rect x="681.8" y="197.4" width="4.2" height="1.8"/>
		</g>
		<g>
			<rect x="675.5" y="197.4" width="4.2" height="1.8"/>
		</g>
		<g>
			<rect x="669.2" y="197.4" width="4.2" height="1.8"/>
		</g>
		<g>
			<rect x="662.9" y="197.4" width="4.2" height="1.8"/>
		</g>
		<g>
			<rect x="656.6" y="197.4" width="4.2" height="1.8"/>
		</g>
		<g>
			<rect x="650.4" y="197.4" width="4.2" height="1.8"/>
		</g>
		<g>
			<rect x="644.1" y="197.4" width="4.2" height="1.8"/>
		</g>
	</g>
	<g>
		<g>
			<rect x="637.8" y="197.4" width="4.2" height="1.8"/>
		</g>
		<g>
			<rect x="631.5" y="197.4" width="4.2" height="1.8"/>
		</g>
		<g>
			<rect x="625.2" y="197.4" width="4.2" height="1.8"/>
		</g>
		<g>
			<rect x="618.9" y="197.4" width="4.2" height="1.8"/>
		</g>
		<g>
			<rect x="612.6" y="197.4" width="4.2" height="1.8"/>
		</g>
		<g>
			<rect x="606.4" y="197.4" width="4.2" height="1.8"/>
		</g>
		<g>
			<rect x="600.1" y="197.4" width="4.2" height="1.8"/>
		</g>
	</g>
	<g>
		<g>
			<rect x="593.8" y="197.4" width="4.2" height="1.8"/>
		</g>
		<g>
			<rect x="587.5" y="197.4" width="4.2" height="1.8"/>
		</g>
		<g>
			<rect x="581.2" y="197.4" width="4.2" height="1.8"/>
		</g>
		<g>
			<rect x="574.9" y="197.4" width="4.2" height="1.8"/>
		</g>
		<g>
			<rect x="568.6" y="197.4" width="4.2" height="1.8"/>
		</g>
		<g>
			<rect x="562.4" y="197.4" width="4.2" height="1.8"/>
		</g>
		<g>
			<rect x="556.1" y="197.4" width="4.2" height="1.8"/>
		</g>
	</g>
</g>
<g class="st2">
	<g>
		<rect x="151.4" y="275.1" width="6.6" height="1.8"/>
	</g>
	<g>
		<rect x="141.7" y="275.1" width="6.6" height="1.8"/>
	</g>
	<g>
		<rect x="131.9" y="275.1" width="6.6" height="1.8"/>
	</g>
	<g>
		<rect x="122.2" y="275.1" width="6.6" height="1.8"/>
	</g>
	<g>
		<rect x="112.4" y="275.1" width="6.6" height="1.8"/>
	</g>
	<g>
		<rect x="102.6" y="275.1" width="6.6" height="1.8"/>
	</g>
	<g>
		<rect x="92.9" y="275.1" width="6.6" height="1.8"/>
	</g>
</g>
<g class="st2">
	<g>
		<g>
			<rect x="681.6" y="364.7" width="4.4" height="1.8"/>
		</g>
		<g>
			<rect x="675" y="364.7" width="4.4" height="1.8"/>
		</g>
		<g>
			<rect x="668.5" y="364.7" width="4.4" height="1.8"/>
		</g>
		<g>
			<rect x="661.9" y="364.7" width="4.4" height="1.8"/>
		</g>
		<g>
			<rect x="655.4" y="364.7" width="4.4" height="1.8"/>
		</g>
		<g>
			<rect x="648.8" y="364.7" width="4.4" height="1.8"/>
		</g>
		<g>
			<rect x="642.3" y="364.7" width="4.4" height="1.8"/>
		</g>
	</g>
	<g>
		<g>
			<rect x="635.7" y="364.7" width="4.4" height="1.8"/>
		</g>
		<g>
			<rect x="629.1" y="364.7" width="4.4" height="1.8"/>
		</g>
		<g>
			<rect x="622.6" y="364.7" width="4.4" height="1.8"/>
		</g>
		<g>
			<rect x="616" y="364.7" width="4.4" height="1.8"/>
		</g>
		<g>
			<rect x="609.5" y="364.7" width="4.4" height="1.8"/>
		</g>
		<g>
			<rect x="602.9" y="364.7" width="4.4" height="1.8"/>
		</g>
		<g>
			<rect x="596.4" y="364.7" width="4.4" height="1.8"/>
		</g>
	</g>
	<g>
		<g>
			<rect x="589.8" y="364.7" width="4.4" height="1.8"/>
		</g>
		<g>
			<rect x="583.2" y="364.7" width="4.4" height="1.8"/>
		</g>
		<g>
			<rect x="576.7" y="364.7" width="4.4" height="1.8"/>
		</g>
		<g>
			<rect x="570.1" y="364.7" width="4.4" height="1.8"/>
		</g>
		<g>
			<rect x="563.6" y="364.7" width="4.4" height="1.8"/>
		</g>
		<g>
			<rect x="557" y="364.7" width="4.4" height="1.8"/>
		</g>
		<g>
			<rect x="550.5" y="364.7" width="4.4" height="1.8"/>
		</g>
	</g>
	<g>
		<g>
			<rect x="543.9" y="364.7" width="4.4" height="1.8"/>
		</g>
		<g>
			<rect x="537.3" y="364.7" width="4.4" height="1.8"/>
		</g>
		<g>
			<rect x="530.8" y="364.7" width="4.4" height="1.8"/>
		</g>
		<g>
			<rect x="524.2" y="364.7" width="4.4" height="1.8"/>
		</g>
		<g>
			<rect x="517.7" y="364.7" width="4.4" height="1.8"/>
		</g>
		<g>
			<rect x="511.1" y="364.7" width="4.4" height="1.8"/>
		</g>
		<g>
			<rect x="504.6" y="364.7" width="4.4" height="1.8"/>
		</g>
	</g>
	<g>
		<g>
			<rect x="498" y="364.7" width="4.4" height="1.8"/>
		</g>
		<g>
			<rect x="491.4" y="364.7" width="4.4" height="1.8"/>
		</g>
		<g>
			<rect x="484.9" y="364.7" width="4.4" height="1.8"/>
		</g>
		<g>
			<rect x="478.3" y="364.7" width="4.4" height="1.8"/>
		</g>
		<g>
			<rect x="471.8" y="364.7" width="4.4" height="1.8"/>
		</g>
		<g>
			<rect x="465.2" y="364.7" width="4.4" height="1.8"/>
		</g>
		<g>
			<rect x="458.7" y="364.7" width="4.4" height="1.8"/>
		</g>
	</g>
</g>
<g class="st2">
	<g>
		<g>
			<rect x="681.8" y="314.7" width="4.2" height="1.8"/>
		</g>
		<g>
			<rect x="675.5" y="314.7" width="4.2" height="1.8"/>
		</g>
		<g>
			<rect x="669.2" y="314.7" width="4.2" height="1.8"/>
		</g>
		<g>
			<rect x="662.9" y="314.7" width="4.2" height="1.8"/>
		</g>
		<g>
			<rect x="656.6" y="314.7" width="4.2" height="1.8"/>
		</g>
		<g>
			<rect x="650.4" y="314.7" width="4.2" height="1.8"/>
		</g>
		<g>
			<rect x="644.1" y="314.7" width="4.2" height="1.8"/>
		</g>
	</g>
	<g>
		<g>
			<rect x="637.8" y="314.7" width="4.2" height="1.8"/>
		</g>
		<g>
			<rect x="631.5" y="314.7" width="4.2" height="1.8"/>
		</g>
		<g>
			<rect x="625.2" y="314.7" width="4.2" height="1.8"/>
		</g>
		<g>
			<rect x="618.9" y="314.7" width="4.2" height="1.8"/>
		</g>
		<g>
			<rect x="612.6" y="314.7" width="4.2" height="1.8"/>
		</g>
		<g>
			<rect x="606.4" y="314.7" width="4.2" height="1.8"/>
		</g>
		<g>
			<rect x="600.1" y="314.7" width="4.2" height="1.8"/>
		</g>
	</g>
	<g>
		<g>
			<rect x="593.8" y="314.7" width="4.2" height="1.8"/>
		</g>
		<g>
			<rect x="587.5" y="314.7" width="4.2" height="1.8"/>
		</g>
		<g>
			<rect x="581.2" y="314.7" width="4.2" height="1.8"/>
		</g>
		<g>
			<rect x="574.9" y="314.7" width="4.2" height="1.8"/>
		</g>
		<g>
			<rect x="568.6" y="314.7" width="4.2" height="1.8"/>
		</g>
		<g>
			<rect x="562.4" y="314.7" width="4.2" height="1.8"/>
		</g>
		<g>
			<rect x="556.1" y="314.7" width="4.2" height="1.8"/>
		</g>
	</g>
</g>
<g>
	<path class="st9" d="M698.1,48.8v12.6h6.5V48.8h1.8v12.7l1.2,0l-0.1,4.9h-1.4l-0.1-3.4h-9.7V48.8H698.1z"/>
	<path class="st9" d="M710.8,58.2c0,2.5,1.6,3.5,3.5,3.5c1.3,0,2.1-0.2,2.8-0.5l0.3,1.3c-0.7,0.3-1.8,0.6-3.4,0.6
		c-3.1,0-5-2.1-5-5.1s1.8-5.5,4.8-5.5c3.3,0,4.2,2.9,4.2,4.8c0,0.4,0,0.7-0.1,0.9H710.8z M716.3,56.9c0-1.2-0.5-3-2.6-3
		c-1.9,0-2.7,1.7-2.8,3H716.3z"/>
	<path class="st9" d="M722,52.8v4.3c0,1.6,0,2.6-0.1,4.1l0.1,0c0.6-1.2,1-2,1.6-3.1l3.2-5.2h2.2v10.2h-1.8v-4.3c0-1.7,0-2.5,0.1-4.2
		h-0.1c-0.7,1.3-1.1,2.1-1.7,3.1c-1,1.6-2.1,3.5-3.2,5.3h-2.1V52.8H722z M723.2,48.6c0.1,0.9,0.5,1.6,1.3,1.6c0.9,0,1.3-0.7,1.4-1.6
		h1.3c-0.1,1.7-1.2,2.6-2.8,2.6c-1.8,0-2.6-1.2-2.6-2.6H723.2z"/>
	<path class="st9" d="M736.4,56.1c0-1.3,0-2.4-0.1-3.3h1.7l0.1,1.7h0c0.8-1.2,2-2,3.6-2c2.5,0,4.3,2.1,4.3,5.2
		c0,3.7-2.2,5.5-4.6,5.5c-1.3,0-2.5-0.6-3.1-1.6h0v5.5h-1.8V56.1z M738.2,58.8c0,0.3,0,0.5,0.1,0.8c0.3,1.3,1.4,2.2,2.8,2.2
		c2,0,3.1-1.6,3.1-3.9c0-2-1.1-3.8-3-3.8c-1.3,0-2.4,0.9-2.8,2.3c-0.1,0.2-0.1,0.5-0.1,0.8V58.8z"/>
	<path class="st9" d="M755.8,62.9h-1.8v-4.3h-1.4c-0.8,0-1.3,0.2-1.7,0.6c-0.8,0.6-1,1.9-1.4,2.9c-0.1,0.3-0.3,0.6-0.4,0.8h-2
		c0.2-0.3,0.4-0.7,0.6-1.2c0.4-1,0.7-2.3,1.6-3.1c0.3-0.3,0.7-0.5,1.2-0.6v-0.1c-1.3-0.1-2.7-1-2.7-2.5c0-1,0.6-1.8,1.3-2.2
		c0.8-0.5,2.1-0.7,3.4-0.7c1.2,0,2.4,0.1,3.3,0.2V62.9z M753.9,54c-0.5-0.1-0.9-0.1-1.5-0.1c-1.3,0-2.8,0.4-2.8,1.8
		c0,1.3,1.6,1.8,2.7,1.8c0.8,0,1.2,0,1.6,0V54z"/>
	<path class="st9" d="M766.6,52.8v8.8l1,0l-0.1,4.6h-1.4l-0.1-3.2h-7l-0.1,3.2h-1.4l-0.1-4.6l0.9,0c0.4-0.7,0.8-1.3,1-2.1
		c0.4-1.3,0.6-2.6,0.6-4.1v-2.6H766.6z M761.5,55.9c0,1.3-0.2,2.6-0.5,3.8c-0.2,0.7-0.5,1.3-0.8,1.9h4.7v-7.3h-3.3V55.9z"/>
	<path class="st9" d="M779,57.8c0,3.8-2.6,5.4-5.1,5.4c-2.8,0-4.9-2-4.9-5.2c0-3.4,2.2-5.4,5-5.4C777,52.5,779,54.7,779,57.8z
		 M771,57.9c0,2.2,1.3,3.9,3.1,3.9c1.8,0,3.1-1.7,3.1-3.9c0-1.7-0.9-3.9-3-3.9S771,55.9,771,57.9z"/>
	<path class="st9" d="M783.2,52.8v4.4h0.4l3.8-4.4h2.2l-4.4,4.6c1.6,0.2,2.6,1.3,3.4,3.1c0.3,0.7,0.6,1.7,1.1,2.5h-1.9
		c-0.3-0.4-0.6-1.2-0.9-2.1c-0.7-1.6-1.6-2.4-3.4-2.4h-0.4v4.5h-1.8V52.8H783.2z"/>
	<path class="st9" d="M797.7,52.8v4.4h0.4l3.8-4.4h2.2l-4.4,4.6c1.6,0.2,2.6,1.3,3.4,3.1c0.3,0.7,0.6,1.7,1.1,2.5h-1.9
		c-0.3-0.4-0.6-1.2-0.9-2.1c-0.7-1.6-1.6-2.4-3.4-2.4h-0.4v4.5h-1.8V52.8H797.7z"/>
	<path class="st9" d="M811.8,62.9l-0.1-1.3h-0.1c-0.6,0.8-1.7,1.5-3.1,1.5c-2.1,0-3.1-1.4-3.1-2.9c0-2.5,2.2-3.8,6.1-3.8v-0.2
		c0-0.8-0.2-2.4-2.3-2.4c-0.9,0-1.9,0.3-2.6,0.8l-0.4-1.2c0.8-0.5,2.1-0.9,3.3-0.9c3.1,0,3.9,2.1,3.9,4.2v3.8c0,0.9,0,1.7,0.2,2.4
		H811.8z M811.5,57.7c-2,0-4.3,0.3-4.3,2.3c0,1.2,0.8,1.8,1.7,1.8c1.3,0,2.2-0.8,2.5-1.7c0.1-0.2,0.1-0.4,0.1-0.6V57.7z"/>
	<path class="st9" d="M817.1,52.8l3.4,4.4h0.4v-4.4h1.8v4.4h0.4l3.4-4.4h2.1l-4,4.6c1.5,0.2,2.4,1.1,3,2.7c0.4,1,0.7,2.1,1.1,2.9
		h-1.8c-0.3-0.6-0.6-1.4-0.9-2.3c-0.6-1.7-1.6-2.2-2.9-2.2h-0.3v4.5h-1.8v-4.5h-0.3c-1.4,0-2.3,0.5-2.9,2.2c-0.3,0.9-0.6,1.7-1,2.3
		h-1.8c0.4-0.8,0.8-1.9,1.1-2.8c0.6-1.6,1.5-2.5,3.1-2.7l-4-4.6H817.1z"/>
	<path class="st9" d="M831.2,58.2c0,2.5,1.6,3.5,3.5,3.5c1.3,0,2.1-0.2,2.8-0.5l0.3,1.3c-0.7,0.3-1.8,0.6-3.4,0.6
		c-3.1,0-5-2.1-5-5.1s1.8-5.5,4.8-5.5c3.3,0,4.2,2.9,4.2,4.8c0,0.4,0,0.7-0.1,0.9H831.2z M836.6,56.9c0-1.2-0.5-3-2.6-3
		c-1.9,0-2.7,1.7-2.8,3H836.6z"/>
	<path class="st9" d="M852.8,49.3c-0.5,0.2-1.4,0.4-2.1,0.5c-1.6,0.3-2.8,0.8-3.6,1.9c-0.7,0.9-1,2.3-1.1,3.4h0.1
		c0.7-1.5,2.1-2.3,3.5-2.3c2.5,0,4.3,1.8,4.3,5c0,3.3-1.7,5.4-4.7,5.4c-3.6,0-4.7-3.4-4.7-6.8c0-2.3,0.5-4.2,1.6-5.6
		c1-1.4,2.4-2.1,4.4-2.4c0.8-0.1,1.8-0.3,2.5-0.5L852.8,49.3z M849.2,54.1c-1.1,0-1.9,0.6-2.3,1.4c-0.3,0.6-0.5,1.3-0.5,2.2
		c0,1.7,0.8,4.1,2.8,4.1c2,0,2.8-2,2.8-3.8C852,56.3,851.3,54.1,849.2,54.1z"/>
	<path class="st9" d="M856.2,56.1c0-1.3,0-2.4-0.1-3.3h1.7l0.1,1.7h0c0.8-1.2,2-2,3.6-2c2.5,0,4.3,2.1,4.3,5.2
		c0,3.7-2.2,5.5-4.6,5.5c-1.3,0-2.5-0.6-3.1-1.6h0v5.5h-1.8V56.1z M858,58.8c0,0.3,0,0.5,0.1,0.8c0.3,1.3,1.4,2.2,2.8,2.2
		c2,0,3.1-1.6,3.1-3.9c0-2-1.1-3.8-3-3.8c-1.3,0-2.4,0.9-2.8,2.3c-0.1,0.2-0.1,0.5-0.1,0.8V58.8z"/>
	<path class="st9" d="M873.8,62.9l-0.1-1.3h-0.1c-0.6,0.8-1.7,1.5-3.1,1.5c-2.1,0-3.1-1.4-3.1-2.9c0-2.5,2.2-3.8,6.1-3.8v-0.2
		c0-0.8-0.2-2.4-2.3-2.4c-0.9,0-1.9,0.3-2.6,0.8l-0.4-1.2c0.8-0.5,2.1-0.9,3.3-0.9c3.1,0,3.9,2.1,3.9,4.2v3.8c0,0.9,0,1.7,0.2,2.4
		H873.8z M873.5,57.7c-2,0-4.3,0.3-4.3,2.3c0,1.2,0.8,1.8,1.7,1.8c1.3,0,2.2-0.8,2.5-1.7c0.1-0.2,0.1-0.4,0.1-0.6V57.7z"/>
	<path class="st9" d="M878.7,52.8l2.2,6c0.2,0.7,0.5,1.5,0.7,2.1h0c0.2-0.6,0.4-1.4,0.7-2.1l2-6h2l-2.8,7.2
		c-1.3,3.5-2.2,5.3-3.5,6.4c-0.9,0.8-1.8,1.1-2.3,1.2l-0.5-1.6c0.5-0.1,1.1-0.4,1.6-0.9c0.5-0.4,1.1-1.1,1.6-2.1
		c0.1-0.2,0.1-0.3,0.1-0.4c0-0.1,0-0.3-0.1-0.5l-3.8-9.4H878.7z"/>
	<path class="st9" d="M888.9,57h0.9c1.6,0,2.6-0.7,2.6-1.7c0-0.9-0.8-1.5-2-1.5c-0.8,0-1.7,0.3-2.5,0.7l-0.5-1.1
		c1-0.6,2.2-0.9,3.4-0.9c1.6,0,3.4,0.7,3.4,2.7c0,1.3-1.2,2.1-2.3,2.3v0c1.5,0.1,2.8,1,2.8,2.5c0,2.2-2.2,3-4.4,3
		c-1.2,0-2.4-0.3-3.3-0.8l0.5-1.2c0.7,0.4,1.7,0.7,2.7,0.7c1.5,0,2.5-0.7,2.5-1.7c0-1.4-1.4-1.7-3-1.7h-0.9V57z"/>
	<path class="st9" d="M898.1,58.2c0,2.5,1.6,3.5,3.5,3.5c1.3,0,2.1-0.2,2.8-0.5l0.3,1.3c-0.7,0.3-1.8,0.6-3.4,0.6
		c-3.1,0-5-2.1-5-5.1s1.8-5.5,4.8-5.5c3.3,0,4.2,2.9,4.2,4.8c0,0.4,0,0.7-0.1,0.9H898.1z M903.5,56.9c0-1.2-0.5-3-2.6-3
		c-1.9,0-2.7,1.7-2.8,3H903.5z"/>
	<path class="st9" d="M907.6,56.1c0-1.3,0-2.4-0.1-3.3h1.7l0.1,1.7h0c0.8-1.2,2-2,3.6-2c2.5,0,4.3,2.1,4.3,5.2
		c0,3.7-2.2,5.5-4.6,5.5c-1.3,0-2.5-0.6-3.1-1.6h0v5.5h-1.8V56.1z M909.4,58.8c0,0.3,0,0.5,0.1,0.8c0.3,1.3,1.4,2.2,2.8,2.2
		c2,0,3.1-1.6,3.1-3.9c0-2-1.1-3.8-3-3.8c-1.3,0-2.4,0.9-2.8,2.3c-0.1,0.2-0.1,0.5-0.1,0.8V58.8z"/>
	<path class="st9" d="M920,52.8l2.2,6c0.2,0.7,0.5,1.5,0.7,2.1h0c0.2-0.6,0.4-1.4,0.7-2.1l2-6h2l-2.8,7.2c-1.3,3.5-2.2,5.3-3.5,6.4
		c-0.9,0.8-1.8,1.1-2.3,1.2l-0.5-1.6c0.5-0.1,1.1-0.4,1.6-0.9c0.5-0.4,1.1-1.1,1.6-2.1c0.1-0.2,0.1-0.3,0.1-0.4c0-0.1,0-0.3-0.1-0.5
		l-3.8-9.4H920z"/>
	<path class="st9" d="M927,65.5c0.5-1.2,1-3.5,1.3-5l2.1-0.2c-0.5,1.8-1.4,4.1-2,5.1L927,65.5z"/>
	<path class="st9" d="M698,78v8.7h3.5V78h1.8v8.7h3.5V78h1.8v8.8l1,0l-0.1,4.6h-1.4l-0.1-3.2h-11.9V78H698z"/>
	<path class="st9" d="M721.1,83c0,3.8-2.6,5.4-5.1,5.4c-2.8,0-4.9-2-4.9-5.2c0-3.4,2.2-5.4,5-5.4C719.1,77.7,721.1,79.9,721.1,83z
		 M713,83.1c0,2.2,1.3,3.9,3.1,3.9c1.8,0,3.1-1.7,3.1-3.9c0-1.7-0.9-3.9-3-3.9S713,81.1,713,83.1z"/>
	<path class="st9" d="M735.1,87.8c-0.5,0.3-1.6,0.6-2.9,0.6c-3.1,0-5.1-2.1-5.1-5.2c0-3.1,2.1-5.4,5.5-5.4c1.1,0,2.1,0.3,2.6,0.5
		l-0.4,1.4c-0.4-0.3-1.1-0.5-2.1-0.5c-2.3,0-3.6,1.7-3.6,3.8c0,2.4,1.5,3.8,3.5,3.8c1,0,1.7-0.3,2.3-0.5L735.1,87.8z"/>
	<path class="st9" d="M744.5,78v1.5h-3.2v8.7h-1.8v-8.7h-3.2V78H744.5z"/>
	<path class="st9" d="M755,83c0,3.8-2.6,5.4-5.1,5.4c-2.8,0-4.9-2-4.9-5.2c0-3.4,2.2-5.4,5-5.4C753,77.7,755,79.9,755,83z M747,83.1
		c0,2.2,1.3,3.9,3.1,3.9c1.8,0,3.1-1.7,3.1-3.9c0-1.7-0.9-3.9-3-3.9S747,81.1,747,83.1z"/>
	<path class="st9" d="M757.3,81.3c0-1.3,0-2.4-0.1-3.3h1.7l0.1,1.7h0c0.8-1.2,2-2,3.6-2c2.5,0,4.3,2.1,4.3,5.2
		c0,3.7-2.2,5.5-4.6,5.5c-1.3,0-2.5-0.6-3.1-1.6h0v5.5h-1.8V81.3z M759.2,84c0,0.3,0,0.5,0.1,0.8c0.3,1.3,1.4,2.2,2.8,2.2
		c2,0,3.1-1.6,3.1-3.9c0-2-1.1-3.8-3-3.8c-1.3,0-2.4,0.9-2.8,2.3c-0.1,0.2-0.1,0.5-0.1,0.8V84z"/>
	<path class="st9" d="M771.4,75.1c0,0.6-0.4,1.1-1.2,1.1c-0.7,0-1.1-0.5-1.1-1.1c0-0.7,0.5-1.2,1.2-1.2
		C770.9,74,771.4,74.5,771.4,75.1z M769.3,88.1V78h1.8v10.2H769.3z"/>
	<path class="st9" d="M776,78v4.1h4.8V78h1.8v10.2h-1.8v-4.6H776v4.6h-1.8V78H776z"/>
	<path class="st9" d="M787.5,78v4.4h0.4l3.8-4.4h2.2l-4.4,4.6c1.6,0.2,2.6,1.3,3.4,3.1c0.3,0.7,0.6,1.7,1.1,2.5h-1.9
		c-0.3-0.4-0.6-1.2-0.9-2.1c-0.7-1.6-1.6-2.4-3.4-2.4h-0.4v4.5h-1.8V78H787.5z"/>
	<path class="st9" d="M801.6,88.1l-0.1-1.3h-0.1c-0.6,0.8-1.7,1.5-3.1,1.5c-2.1,0-3.1-1.4-3.1-2.9c0-2.5,2.2-3.8,6.1-3.8v-0.2
		c0-0.8-0.2-2.4-2.3-2.4c-0.9,0-1.9,0.3-2.6,0.8l-0.4-1.2c0.8-0.5,2.1-0.9,3.3-0.9c3.1,0,3.9,2.1,3.9,4.2v3.8c0,0.9,0,1.7,0.2,2.4
		H801.6z M801.3,82.9c-2,0-4.3,0.3-4.3,2.3c0,1.2,0.8,1.8,1.7,1.8c1.3,0,2.2-0.8,2.5-1.7c0.1-0.2,0.1-0.4,0.1-0.6V82.9z"/>
	<path class="st9" d="M812.3,78v4.1h4.8V78h1.8v10.2h-1.8v-4.6h-4.8v4.6h-1.8V78H812.3z"/>
	<path class="st9" d="M827.6,88.1l-0.1-1.3h-0.1c-0.6,0.8-1.7,1.5-3.1,1.5c-2.1,0-3.1-1.4-3.1-2.9c0-2.5,2.2-3.8,6.1-3.8v-0.2
		c0-0.8-0.2-2.4-2.3-2.4c-0.9,0-1.9,0.3-2.6,0.8l-0.4-1.2c0.8-0.5,2.1-0.9,3.3-0.9c3.1,0,3.9,2.1,3.9,4.2v3.8c0,0.9,0,1.7,0.2,2.4
		H827.6z M827.3,82.9c-2,0-4.3,0.3-4.3,2.3c0,1.2,0.8,1.8,1.7,1.8c1.3,0,2.2-0.8,2.5-1.7c0.1-0.2,0.1-0.4,0.1-0.6V82.9z"/>
	<path class="st9" d="M840.5,78v10.2h-1.8v-8.7h-4.7v8.7h-1.8V78H840.5z"/>
	<path class="st9" d="M845.2,78v4.3c0,1.6,0,2.6-0.1,4.1l0.1,0c0.6-1.2,1-2,1.6-3.1l3.2-5.2h2.2v10.2h-1.8v-4.3c0-1.7,0-2.5,0.1-4.2
		h-0.1c-0.7,1.3-1.1,2.1-1.7,3.2c-1,1.6-2.1,3.5-3.2,5.3h-2.1V78H845.2z"/>
	<path class="st9" d="M862.3,87.8c-0.5,0.3-1.6,0.6-2.9,0.6c-3.1,0-5.1-2.1-5.1-5.2c0-3.1,2.1-5.4,5.5-5.4c1.1,0,2.1,0.3,2.6,0.5
		l-0.4,1.4c-0.4-0.3-1.1-0.5-2.1-0.5c-2.3,0-3.6,1.7-3.6,3.8c0,2.4,1.5,3.8,3.5,3.8c1,0,1.7-0.3,2.3-0.5L862.3,87.8z"/>
	<path class="st9" d="M870.2,88.1l-0.1-1.3H870c-0.6,0.8-1.7,1.5-3.1,1.5c-2.1,0-3.1-1.4-3.1-2.9c0-2.5,2.2-3.8,6.1-3.8v-0.2
		c0-0.8-0.2-2.4-2.3-2.4c-0.9,0-1.9,0.3-2.6,0.8l-0.4-1.2c0.8-0.5,2.1-0.9,3.3-0.9c3.1,0,3.9,2.1,3.9,4.2v3.8c0,0.9,0,1.7,0.2,2.4
		H870.2z M869.9,82.9c-2,0-4.3,0.3-4.3,2.3c0,1.2,0.8,1.8,1.7,1.8c1.3,0,2.2-0.8,2.5-1.7c0.1-0.2,0.1-0.4,0.1-0.6V82.9z"/>
	<path class="st9" d="M876.5,78v4.1h4.8V78h1.8v10.2h-1.8v-4.6h-4.8v4.6h-1.8V78H876.5z"/>
	<path class="st9" d="M891.8,88.1l-0.1-1.3h-0.1c-0.6,0.8-1.7,1.5-3.1,1.5c-2.1,0-3.1-1.4-3.1-2.9c0-2.5,2.2-3.8,6.1-3.8v-0.2
		c0-0.8-0.2-2.4-2.3-2.4c-0.9,0-1.9,0.3-2.6,0.8l-0.4-1.2c0.8-0.5,2.1-0.9,3.3-0.9c3.1,0,3.9,2.1,3.9,4.2v3.8c0,0.9,0,1.7,0.2,2.4
		H891.8z M891.5,82.9c-2,0-4.3,0.3-4.3,2.3c0,1.2,0.8,1.8,1.7,1.8c1.3,0,2.2-0.8,2.5-1.7c0.1-0.2,0.1-0.4,0.1-0.6V82.9z"/>
	<path class="st9" d="M902.5,78v4.1h4.8V78h1.8v10.2h-1.8v-4.6h-4.8v4.6h-1.8V78H902.5z"/>
	<path class="st9" d="M917.8,88.1l-0.1-1.3h-0.1c-0.6,0.8-1.7,1.5-3.1,1.5c-2.1,0-3.1-1.4-3.1-2.9c0-2.5,2.2-3.8,6.1-3.8v-0.2
		c0-0.8-0.2-2.4-2.3-2.4c-0.9,0-1.9,0.3-2.6,0.8l-0.4-1.2c0.8-0.5,2.1-0.9,3.3-0.9c3.1,0,3.9,2.1,3.9,4.2v3.8c0,0.9,0,1.7,0.2,2.4
		H917.8z M917.6,82.9c-2,0-4.3,0.3-4.3,2.3c0,1.2,0.8,1.8,1.7,1.8c1.3,0,2.2-0.8,2.5-1.7c0.1-0.2,0.1-0.4,0.1-0.6V82.9z"/>
	<path class="st9" d="M928.7,74v5.9h6.8V74h1.8v14.2h-1.8v-6.6h-6.8v6.6h-1.8V74H928.7z"/>
	<path class="st9" d="M943.2,75.5h-4.3V74h10.5v1.6h-4.3v12.6h-1.8V75.5z"/>
	<path class="st9" d="M962.9,81.9c-0.1-2-0.2-4.3-0.2-6.1h-0.1c-0.5,1.7-1.1,3.4-1.8,5.4l-2.5,6.9h-1.4l-2.3-6.7
		c-0.7-2-1.2-3.8-1.6-5.5h0c0,1.8-0.1,4.1-0.3,6.3l-0.4,6.1h-1.7l1-14.2h2.3l2.4,6.8c0.6,1.7,1.1,3.3,1.4,4.8h0.1
		c0.4-1.4,0.9-3,1.5-4.8l2.5-6.8h2.3l0.9,14.2h-1.8L962.9,81.9z"/>
	<path class="st9" d="M967.8,74h1.8v12.6h6v1.5h-7.9V74z"/>
	<path class="st9" d="M985.3,76H980l-0.5,3.5c0.3,0,0.6-0.1,1.1-0.1c1.1,0,2.1,0.2,2.9,0.7c1.1,0.6,2,1.8,2,3.5
		c0,2.7-2.1,4.7-5.1,4.7c-1.5,0-2.8-0.4-3.4-0.8l0.5-1.4c0.6,0.3,1.7,0.8,2.9,0.8c1.7,0,3.2-1.1,3.2-3c0-1.8-1.2-3-3.9-3
		c-0.8,0-1.4,0.1-1.9,0.1l0.9-6.6h6.5V76z"/>
</g>
<g>
	<path class="st9" d="M695.8,191.2c1-0.6,2.2-1.1,3.7-1.1c2.5,0,4.2,1.3,4.2,3.5c0,1.7-1.3,3.1-2.9,3.4v0c2,0.2,3.4,1.5,3.4,3.5
		c0,2.9-2.5,4.1-5.1,4.1c-1.3,0-2.6-0.3-3.7-0.9l0.5-1.4c0.8,0.4,2,0.9,3.2,0.9c2.1,0,3.3-1.1,3.3-2.7c0-2.1-2-2.7-3.8-2.7h-0.8
		v-1.4h0.8c1.9,0,3.3-1.2,3.3-2.6c0-1.4-1-2.2-2.5-2.2c-1.1,0-2.2,0.4-2.9,0.9L695.8,191.2z"/>
	<path class="st9" d="M712.2,204.5l-0.1-1.3H712c-0.6,0.8-1.7,1.5-3.1,1.5c-2.1,0-3.1-1.4-3.1-2.9c0-2.5,2.2-3.8,6.1-3.8v-0.2
		c0-0.8-0.2-2.4-2.3-2.4c-0.9,0-1.9,0.3-2.6,0.8l-0.4-1.2c0.8-0.5,2.1-0.9,3.3-0.9c3.1,0,3.9,2.1,3.9,4.2v3.8c0,0.9,0,1.7,0.2,2.4
		H712.2z M711.9,199.3c-2,0-4.3,0.3-4.3,2.3c0,1.2,0.8,1.8,1.7,1.8c1.3,0,2.2-0.8,2.5-1.7c0.1-0.2,0.1-0.4,0.1-0.6V199.3z"/>
	<path class="st9" d="M722.9,194.3v1.5h-4.4v8.7h-1.8v-10.2H722.9z"/>
	<path class="st9" d="M733.6,199.3c0,3.8-2.6,5.4-5.1,5.4c-2.8,0-4.9-2-4.9-5.2c0-3.4,2.2-5.4,5-5.4
		C731.6,194.1,733.6,196.2,733.6,199.3z M725.5,199.4c0,2.2,1.3,3.9,3.1,3.9c1.8,0,3.1-1.7,3.1-3.9c0-1.7-0.9-3.9-3-3.9
		S725.5,197.5,725.5,199.4z"/>
	<path class="st9" d="M743.6,194.3v10.2h-1.8v-8.7h-3.5v2.6c0,2.9-0.3,4.8-1.6,5.6c-0.5,0.4-1.1,0.6-2,0.6l-0.2-1.4
		c0.4-0.1,0.8-0.2,1-0.4c0.9-0.7,1-2.1,1-4.4v-4.1H743.6z"/>
	<path class="st9" d="M755.8,199.3c0,3.8-2.6,5.4-5.1,5.4c-2.8,0-4.9-2-4.9-5.2c0-3.4,2.2-5.4,5-5.4
		C753.8,194.1,755.8,196.2,755.8,199.3z M747.8,199.4c0,2.2,1.3,3.9,3.1,3.9c1.8,0,3.1-1.7,3.1-3.9c0-1.7-0.9-3.9-3-3.9
		S747.8,197.5,747.8,199.4z"/>
	<path class="st9" d="M758.1,194.5c0.7-0.1,2-0.2,3.2-0.2c1.7,0,4.5,0.3,4.5,2.5c0,1.3-1,2-2.1,2.3v0c1.5,0.2,2.6,1.1,2.6,2.5
		c0,2.7-3.4,3-5.4,3c-1.1,0-2.3-0.1-2.9-0.1V194.5z M759.8,203.3c0.5,0.1,0.9,0.1,1.5,0.1c1.2,0,3.1-0.3,3.1-1.8s-1.5-1.8-3.2-1.8
		h-1.3V203.3z M759.9,198.6h1.4c1.4,0,2.8-0.4,2.8-1.6c0-1-0.9-1.5-2.7-1.5c-0.6,0-1,0-1.4,0.1V198.6z"/>
	<path class="st9" d="M777.8,199.3c0,3.8-2.6,5.4-5.1,5.4c-2.8,0-4.9-2-4.9-5.2c0-3.4,2.2-5.4,5-5.4
		C775.9,194.1,777.8,196.2,777.8,199.3z M769.8,199.4c0,2.2,1.3,3.9,3.1,3.9c1.8,0,3.1-1.7,3.1-3.9c0-1.7-0.9-3.9-3-3.9
		S769.8,197.5,769.8,199.4z"/>
	<path class="st9" d="M782,194.3v4.4h0.4l3.8-4.4h2.2l-4.4,4.6c1.6,0.2,2.6,1.3,3.4,3.1c0.3,0.7,0.6,1.7,1.1,2.5h-1.9
		c-0.3-0.4-0.6-1.2-0.9-2.1c-0.7-1.6-1.6-2.4-3.4-2.4H782v4.5h-1.8v-10.2H782z"/>
</g>
<g>
	<path class="st9" d="M699,308.9h-4.3v-1.6h10.5v1.6h-4.3v12.6H699V308.9z"/>
	<path class="st9" d="M708.4,308.5c0,0.6-0.4,1.1-1.2,1.1c-0.7,0-1.1-0.5-1.1-1.1c0-0.7,0.5-1.2,1.2-1.2
		C708,307.3,708.4,307.8,708.4,308.5z M706.4,321.5v-10.2h1.8v10.2H706.4z"/>
	<path class="st9" d="M719,311.3v10.2h-1.8v-8.7h-3.5v2.6c0,2.9-0.3,4.8-1.6,5.6c-0.5,0.4-1.1,0.6-2,0.6l-0.2-1.4
		c0.4-0.1,0.8-0.2,1-0.4c0.9-0.7,1-2.1,1-4.4v-4.1H719z"/>
	<path class="st9" d="M731.2,316.3c0,3.8-2.6,5.4-5.1,5.4c-2.8,0-4.9-2-4.9-5.2c0-3.4,2.2-5.4,5-5.4
		C729.2,311.1,731.2,313.2,731.2,316.3z M723.1,316.4c0,2.2,1.3,3.9,3.1,3.9c1.8,0,3.1-1.7,3.1-3.9c0-1.7-0.9-3.9-3-3.9
		S723.1,314.5,723.1,316.4z"/>
</g>
<g>
	<path class="st7" d="M699.2,356.8h1.8v9.5c0,3.8-1.8,4.9-4.3,4.9c-0.7,0-1.5-0.1-2-0.3l0.3-1.5c0.4,0.1,0.9,0.3,1.5,0.3
		c1.6,0,2.6-0.7,2.6-3.5V356.8z"/>
	<path class="st7" d="M709.6,371l-0.1-1.3h-0.1c-0.6,0.8-1.7,1.5-3.1,1.5c-2.1,0-3.1-1.4-3.1-2.9c0-2.5,2.2-3.8,6.1-3.8v-0.2
		c0-0.8-0.2-2.4-2.3-2.4c-0.9,0-1.9,0.3-2.6,0.8l-0.4-1.2c0.8-0.5,2.1-0.9,3.3-0.9c3.1,0,3.9,2.1,3.9,4.2v3.8c0,0.9,0,1.7,0.2,2.4
		H709.6z M709.4,365.8c-2,0-4.3,0.3-4.3,2.3c0,1.2,0.8,1.8,1.7,1.8c1.3,0,2.2-0.8,2.5-1.7c0.1-0.2,0.1-0.4,0.1-0.6V365.8z"/>
	<path class="st7" d="M714.7,360.8l2,5.7c0.3,0.9,0.6,1.8,0.8,2.6h0.1c0.2-0.8,0.5-1.7,0.9-2.6l2-5.7h1.9l-4,10.2h-1.8l-3.9-10.2
		H714.7z"/>
	<path class="st7" d="M729.6,371l-0.1-1.3h-0.1c-0.6,0.8-1.7,1.5-3.1,1.5c-2.1,0-3.1-1.4-3.1-2.9c0-2.5,2.2-3.8,6.1-3.8v-0.2
		c0-0.8-0.2-2.4-2.3-2.4c-0.9,0-1.9,0.3-2.6,0.8l-0.4-1.2c0.8-0.5,2.1-0.9,3.3-0.9c3.1,0,3.9,2.1,3.9,4.2v3.8c0,0.9,0,1.7,0.2,2.4
		H729.6z M729.3,365.8c-2,0-4.3,0.3-4.3,2.3c0,1.2,0.8,1.8,1.7,1.8c1.3,0,2.2-0.8,2.5-1.7c0.1-0.2,0.1-0.4,0.1-0.6V365.8z"/>
	<path class="st7" d="M733.9,368.8c0.8,0.5,2,0.9,3.3,0.9c1.9,0,3-1,3-2.4c0-1.3-0.8-2.1-2.7-2.8c-2.3-0.8-3.7-2-3.7-4
		c0-2.2,1.8-3.8,4.6-3.8c1.4,0,2.5,0.3,3.1,0.7l-0.5,1.5c-0.5-0.3-1.4-0.7-2.7-0.7c-1.9,0-2.7,1.2-2.7,2.1c0,1.3,0.9,2,2.8,2.7
		c2.4,0.9,3.6,2.1,3.6,4.2c0,2.2-1.6,4.1-5,4.1c-1.4,0-2.9-0.4-3.6-0.9L733.9,368.8z"/>
	<path class="st7" d="M751.8,370.6c-0.5,0.3-1.6,0.6-2.9,0.6c-3.1,0-5.1-2.1-5.1-5.2c0-3.1,2.1-5.4,5.5-5.4c1.1,0,2.1,0.3,2.6,0.5
		l-0.4,1.4c-0.4-0.3-1.1-0.5-2.1-0.5c-2.3,0-3.6,1.7-3.6,3.8c0,2.4,1.5,3.8,3.5,3.8c1.1,0,1.7-0.3,2.3-0.5L751.8,370.6z"/>
	<path class="st7" d="M754,364c0-1.2,0-2.2-0.1-3.2h1.6l0.1,2h0.1c0.5-1.4,1.6-2.2,2.8-2.2c0.2,0,0.4,0,0.5,0.1v1.7
		c-0.2,0-0.4-0.1-0.6-0.1c-1.3,0-2.2,1-2.5,2.4c0,0.3-0.1,0.5-0.1,0.9v5.4H754V364z"/>
	<path class="st7" d="M763,358c0,0.6-0.4,1.1-1.2,1.1c-0.7,0-1.1-0.5-1.1-1.1c0-0.7,0.5-1.2,1.2-1.2C762.6,356.8,763,357.3,763,358z
		 M760.9,371v-10.2h1.8V371H760.9z"/>
	<path class="st7" d="M765.9,364.2c0-1.3,0-2.4-0.1-3.3h1.7l0.1,1.7h0c0.8-1.2,2-2,3.6-2c2.5,0,4.3,2.1,4.3,5.2
		c0,3.7-2.2,5.5-4.6,5.5c-1.3,0-2.5-0.6-3.1-1.6h0v5.5h-1.8V364.2z M767.7,366.9c0,0.3,0,0.5,0.1,0.8c0.3,1.3,1.4,2.2,2.8,2.2
		c2,0,3.1-1.6,3.1-3.9c0-2-1.1-3.8-3-3.8c-1.3,0-2.4,0.9-2.8,2.3c-0.1,0.2-0.1,0.5-0.1,0.8V366.9z"/>
	<path class="st7" d="M780,357.9v2.9h2.6v1.4H780v5.5c0,1.3,0.4,2,1.4,2c0.5,0,0.8-0.1,1.1-0.1l0.1,1.4c-0.4,0.1-0.9,0.3-1.6,0.3
		c-0.9,0-1.6-0.3-2-0.8c-0.5-0.5-0.7-1.4-0.7-2.6v-5.5h-1.6v-1.4h1.6v-2.4L780,357.9z"/>
	<path class="st9" d="M797.6,360.8V371h-1.8v-8.7H791v8.7h-1.8v-10.2H797.6z"/>
	<path class="st9" d="M800.6,364.2c0-1.3,0-2.4-0.1-3.3h1.7l0.1,1.7h0c0.8-1.2,2-2,3.6-2c2.5,0,4.3,2.1,4.3,5.2
		c0,3.7-2.2,5.5-4.6,5.5c-1.3,0-2.5-0.6-3.1-1.6h0v5.5h-1.8V364.2z M802.4,366.9c0,0.3,0,0.5,0.1,0.8c0.3,1.3,1.4,2.2,2.8,2.2
		c2,0,3.1-1.6,3.1-3.9c0-2-1.1-3.8-3-3.8c-1.3,0-2.4,0.9-2.8,2.3c-0.1,0.2-0.1,0.5-0.1,0.8V366.9z"/>
	<path class="st9" d="M821.7,365.8c0,3.8-2.6,5.4-5.1,5.4c-2.8,0-4.9-2-4.9-5.2c0-3.4,2.2-5.4,5-5.4
		C819.7,360.6,821.7,362.7,821.7,365.8z M813.6,365.9c0,2.2,1.3,3.9,3.1,3.9c1.8,0,3.1-1.7,3.1-3.9c0-1.7-0.9-3.9-3-3.9
		S813.6,364,813.6,365.9z"/>
	<path class="st9" d="M830.2,360.8v1.5h-4.4v8.7H824v-10.2H830.2z"/>
	<path class="st9" d="M832,364.2c0-1.3,0-2.4-0.1-3.3h1.7l0.1,1.7h0c0.8-1.2,2-2,3.6-2c2.5,0,4.3,2.1,4.3,5.2c0,3.7-2.2,5.5-4.6,5.5
		c-1.3,0-2.5-0.6-3.1-1.6h0v5.5H832V364.2z M833.8,366.9c0,0.3,0,0.5,0.1,0.8c0.3,1.3,1.4,2.2,2.8,2.2c2,0,3.1-1.6,3.1-3.9
		c0-2-1.1-3.8-3-3.8c-1.3,0-2.4,0.9-2.8,2.3c-0.1,0.2-0.1,0.5-0.1,0.8V366.9z"/>
	<path class="st9" d="M849.6,371l-0.1-1.3h-0.1c-0.6,0.8-1.7,1.5-3.1,1.5c-2.1,0-3.1-1.4-3.1-2.9c0-2.5,2.2-3.8,6.1-3.8v-0.2
		c0-0.8-0.2-2.4-2.3-2.4c-0.9,0-1.9,0.3-2.6,0.8l-0.4-1.2c0.8-0.5,2.1-0.9,3.3-0.9c3.1,0,3.9,2.1,3.9,4.2v3.8c0,0.9,0,1.7,0.2,2.4
		H849.6z M849.3,365.8c-2,0-4.3,0.3-4.3,2.3c0,1.2,0.8,1.8,1.7,1.8c1.3,0,2.2-0.8,2.5-1.7c0.1-0.2,0.1-0.4,0.1-0.6V365.8z"/>
	<path class="st9" d="M854.2,360.8h2.3l1.8,5.1c0.3,0.8,0.7,2,0.9,2.8h0c0.2-0.8,0.8-2.4,1.2-3.5l1.6-4.4h2.3l0.7,10.2h-1.8
		l-0.2-4.8c-0.1-1.1-0.1-2.4-0.2-3.6h-0.1c-0.3,0.9-0.5,1.7-1.1,3.3l-2,5.1h-1.3l-1.8-5c-0.3-1-0.8-2.4-1-3.4h-0.1
		c0,1.2-0.1,2.5-0.2,3.7l-0.3,4.8h-1.7L854.2,360.8z"/>
	<path class="st9" d="M873.1,371l-0.1-1.3h-0.1c-0.6,0.8-1.7,1.5-3.1,1.5c-2.1,0-3.1-1.4-3.1-2.9c0-2.5,2.2-3.8,6.1-3.8v-0.2
		c0-0.8-0.2-2.4-2.3-2.4c-0.9,0-1.9,0.3-2.6,0.8l-0.4-1.2c0.8-0.5,2.1-0.9,3.3-0.9c3.1,0,3.9,2.1,3.9,4.2v3.8c0,0.9,0,1.7,0.2,2.4
		H873.1z M872.8,365.8c-2,0-4.3,0.3-4.3,2.3c0,1.2,0.8,1.8,1.7,1.8c1.3,0,2.2-0.8,2.5-1.7c0.1-0.2,0.1-0.4,0.1-0.6V365.8z"/>
</g>
<g>
	<path class="st9" d="M4.6,281L1,266.8H3l1.7,7.2c0.4,1.8,0.8,3.5,1.1,4.9h0c0.2-1.4,0.7-3.1,1.2-4.9l1.9-7.1h1.9l1.7,7.2
		c0.4,1.7,0.8,3.4,1,4.8h0c0.3-1.6,0.7-3.1,1.1-4.9l1.9-7.1h1.9l-4,14.2h-1.9l-1.8-7.4c-0.4-1.8-0.7-3.2-0.9-4.6h0
		c-0.3,1.4-0.6,2.8-1.1,4.6l-2,7.4H4.6z"/>
	<path class="st9" d="M27.4,274.4h-5.5v5.1H28v1.5h-8v-14.2h7.6v1.5h-5.8v4.5h5.5V274.4z"/>
	<path class="st9" d="M30.4,267c0.8-0.2,2.1-0.3,3.3-0.3c1.8,0,3,0.3,3.9,1c0.7,0.5,1.2,1.4,1.2,2.5c0,1.4-0.9,2.6-2.4,3.1v0
		c1.3,0.3,2.9,1.4,2.9,3.5c0,1.2-0.5,2.1-1.2,2.8c-1,0.9-2.6,1.3-4.9,1.3c-1.3,0-2.2-0.1-2.8-0.2V267z M32.2,272.8h1.7
		c1.9,0,3.1-1,3.1-2.4c0-1.7-1.3-2.3-3.1-2.3c-0.8,0-1.3,0.1-1.6,0.1V272.8z M32.2,279.6c0.4,0.1,0.9,0.1,1.5,0.1
		c1.9,0,3.6-0.7,3.6-2.8c0-1.9-1.7-2.7-3.7-2.7h-1.5V279.6z"/>
	<path class="st9" d="M46.1,274.6v1.4h-5.2v-1.4H46.1z"/>
	<path class="st9" d="M55.5,280.6c-0.5,0.3-1.6,0.6-2.9,0.6c-3.1,0-5.1-2.1-5.1-5.2c0-3.1,2.1-5.4,5.5-5.4c1.1,0,2.1,0.3,2.6,0.5
		l-0.4,1.4c-0.4-0.3-1.1-0.5-2.1-0.5c-2.3,0-3.6,1.7-3.6,3.8c0,2.4,1.5,3.8,3.5,3.8c1.1,0,1.7-0.3,2.3-0.5L55.5,280.6z"/>
	<path class="st9" d="M63.4,281l-0.1-1.3h-0.1c-0.6,0.8-1.7,1.5-3.1,1.5c-2.1,0-3.1-1.4-3.1-2.9c0-2.5,2.2-3.8,6.1-3.8v-0.2
		c0-0.8-0.2-2.4-2.3-2.4c-0.9,0-1.9,0.3-2.6,0.8l-0.4-1.2c0.8-0.5,2.1-0.9,3.3-0.9c3.1,0,3.9,2.1,3.9,4.2v3.8c0,0.9,0,1.7,0.2,2.4
		H63.4z M63.1,275.8c-2,0-4.3,0.3-4.3,2.3c0,1.2,0.8,1.8,1.7,1.8c1.3,0,2.2-0.8,2.5-1.7c0.1-0.2,0.1-0.4,0.1-0.6V275.8z"/>
	<path class="st9" d="M69.6,270.8v4.3c0,1.6,0,2.6-0.1,4.1l0.1,0c0.6-1.2,1-2,1.6-3.1l3.2-5.2h2.2V281h-1.8v-4.3
		c0-1.7,0-2.5,0.1-4.2h-0.1c-0.7,1.3-1.1,2.1-1.7,3.1c-1,1.6-2.1,3.5-3.2,5.3h-2.1v-10.2H69.6z M70.8,266.7c0.1,0.9,0.5,1.6,1.3,1.6
		c0.9,0,1.3-0.7,1.4-1.6h1.3c-0.1,1.7-1.2,2.6-2.8,2.6c-1.8,0-2.6-1.2-2.6-2.6H70.8z"/>
	<path class="st9" d="M86.3,270.8v1.5h-3.2v8.7h-1.8v-8.7h-3.2v-1.5H86.3z"/>
</g>
</svg>
