<?xml version="1.0" encoding="utf-8"?>
<!-- Generator: Adobe Illustrator 22.0.0, SVG Export Plug-In . SVG Version: 6.00 Build 0)  -->
<svg version="1.1" id="Слой_1" xmlns="http://www.w3.org/2000/svg" xmlns:xlink="http://www.w3.org/1999/xlink" x="0px" y="0px"
	 viewBox="0 0 554.5 493" style="enable-background:new 0 0 554.5 493;" xml:space="preserve">
<style type="text/css">
	.st0{fill:#1A2535;}
	.st1{fill:#1C8E55;}
	.st2{fill:#2A7491;}
	.st3{fill:#738999;}
	.st4{fill:#FF931E;}
	.st5{fill:#FFC285;}
	.st6{fill:#F2F2F2;}
	.st7{fill:#EAEAEA;}
	.st8{fill:#333333;}
	.st9{fill:#FFFFFF;}
	.st10{fill:#4B637A;}
	.st11{opacity:0.15;}
	.st12{opacity:0.43;}
	.st13{opacity:0.54;}
	.st14{opacity:0.18;}
	.st15{opacity:0.44;}
	.st16{opacity:0.6;}
	.st17{opacity:0.86;}
	.st18{opacity:0.25;}
	.st19{opacity:0.11;}
	.st20{opacity:0.33;}
</style>
<g>
	<path class="st0" d="M440.3,379.7l-11.7-2.1c-0.5-0.1-11.2-2.1-16.3-6.3c-5.2-4.3-12.6-23.7-15.3-36.8c-1.5-7-5.2-16.1-8.9-24.9
		c-0.4-0.9-0.8-1.9-1.2-2.8c-3.8-6.3-7.9-11.3-12.7-13.5c-2.6,2.8-5.5,6.5-7.6,9.2c-3,3.8-6.1,7.7-8.9,10.6c-4,4.1-7.2,3.8-8.7,3.2
		c-2.3-0.9-3.9-3.3-4.1-6.4c-0.3-5.3,3-13.5,13.7-19.1c5.1-2.6,9.9-3.4,14.5-2.2c2.9-2.8,5.4-4.2,7.7-3.8c1.9,0.4,3.3,2,4,4.7
		c1.2,4.3,3.3,9.7,5.7,15.5c3.5,5.8,6.6,12.6,9.8,19.2l0.4,0.9c3.1,6.6,4.8,12.6,6.3,17.9c3.3,11.9,6,21.3,22.9,30.9L440.3,379.7z
		 M412.1,364.3c1,1.8,2,3.1,2.8,3.8c0.6,0.5,1.2,0.9,2,1.3C415,367.8,413.5,366,412.1,364.3z M368.8,291.9c-2.6,0-5.3,0.8-8.2,2.3
		c-8.4,4.4-11.9,10.8-11.6,15.3c0.1,1.5,0.7,2.6,1.5,2.9c0.8,0.3,2.4-0.1,4.4-2.3c2.7-2.8,5.7-6.6,8.6-10.3c2.4-3,4.5-5.7,6.4-7.9
		C369.6,292,369.2,291.9,368.8,291.9z M377.3,290.2c1.7,0.9,3.3,2.1,4.8,3.5c-0.4-1.1-0.7-2.2-1-3.3c-0.4-1.4-0.8-1.8-0.9-1.8
		C379.5,288.5,378.5,289.1,377.3,290.2z"/>
</g>
<g>
	<path class="st1" d="M162.7,481.8h-14c-2.2,0-4,1.8-4,4l0,0c0,2.2,1.8,4,4,4h14c2.2,0,4-1.8,4-4l0,0
		C166.7,483.6,164.9,481.8,162.7,481.8z"/>
</g>
<g>
	<path class="st1" d="M151.7,404.7v81.1c0,2.2,1.8,4,4,4l0,0c2.2,0,4-1.8,4-4v-81.1c0-2.2-1.8-4-4-4l0,0
		C153.5,400.7,151.7,402.5,151.7,404.7z"/>
</g>
<g>
	<path class="st1" d="M242.1,481.8h-14c-2.2,0-4,1.8-4,4l0,0c0,2.2,1.8,4,4,4h14c2.2,0,4-1.8,4-4l0,0
		C246.1,483.6,244.3,481.8,242.1,481.8z"/>
</g>
<g>
	<path class="st1" d="M231.1,404.7v81.1c0,2.2,1.8,4,4,4l0,0c2.2,0,4-1.8,4-4v-81.1c0-2.2-1.8-4-4-4l0,0
		C232.9,400.7,231.1,402.5,231.1,404.7z"/>
</g>
<g>
	<path class="st1" d="M193,136.2v43c0,2.2,1.8,4,4,4h0.2c2.2,0,4-1.8,4-4v-43c0-2.2-1.8-4-4-4H197C194.8,132.2,193,134,193,136.2z"
		/>
</g>
<g>
	<path class="st1" d="M382.3,283.2l-9.9,9.9c-1.6,1.6-1.6,4.1,0,5.7l0,0c1.6,1.6,4.1,1.6,5.7,0l9.9-9.9c1.6-1.6,1.6-4.1,0-5.7l0,0
		C386.4,281.6,383.9,281.6,382.3,283.2z"/>
</g>
<g>
	<path class="st1" d="M320,236.5l57.3,57.3c1.6,1.6,4.1,1.6,5.7,0l0,0c1.6-1.6,1.6-4.1,0-5.7l-57.3-57.3c-1.6-1.6-4.1-1.6-5.7,0h0
		C318.5,232.4,318.5,234.9,320,236.5z"/>
</g>
<g>
	<path class="st1" d="M18.9,292.1L9,282.2c-1.6-1.6-4.1-1.6-5.7,0l0,0c-1.6,1.6-1.6,4.1,0,5.7l9.9,9.9c1.6,1.6,4.1,1.6,5.7,0h0
		C20.5,296.2,20.5,293.6,18.9,292.1z"/>
</g>
<g>
	<path class="st1" d="M65.6,229.8L8.3,287.1c-1.6,1.6-1.6,4.1,0,5.7h0c1.6,1.6,4.1,1.6,5.7,0l57.3-57.3c1.6-1.6,1.6-4.1,0-5.7l0,0
		C69.7,228.2,67.2,228.2,65.6,229.8z"/>
</g>
<g>
	<path class="st0" d="M306.9,139.6H84.5c-6.6,0-12-5.4-12-12V26.4c0-6.6,5.4-12,12-12h222.4c6.6,0,12,5.4,12,12v101.2
		C318.9,134.2,313.5,139.6,306.9,139.6z"/>
	<path class="st2" d="M306.9,141.6H84.5c-7.7,0-14-6.3-14-14V26.4c0-7.7,6.3-14,14-14h222.4c7.7,0,14,6.3,14,14v101.2
		C320.9,135.3,314.6,141.6,306.9,141.6z M84.5,16.4c-5.5,0-10,4.5-10,10v101.2c0,5.5,4.5,10,10,10h222.4c5.5,0,10-4.5,10-10V26.4
		c0-5.5-4.5-10-10-10H84.5z"/>
</g>
<g>
	<path class="st0" d="M282.9,116.2h-175c-6.6,0-12-5.4-12-12V69.5c0-6.6,5.4-12,12-12h175c6.6,0,12,5.4,12,12v34.8
		C294.9,110.8,289.5,116.2,282.9,116.2z"/>
	<path class="st3" d="M282.9,118.2h-175c-7.7,0-14-6.3-14-14V69.5c0-7.7,6.3-14,14-14h175c7.7,0,14,6.3,14,14v34.8
		C296.9,112,290.6,118.2,282.9,118.2z M107.9,59.5c-5.5,0-10,4.5-10,10v34.8c0,5.5,4.5,10,10,10h175c5.5,0,10-4.5,10-10V69.5
		c0-5.5-4.5-10-10-10H107.9z"/>
</g>
<g>
	<path class="st0" d="M306.9,401.9H84.5c-6.6,0-12-5.4-12-12V202.3c0-6.6,5.4-12,12-12h222.4c6.6,0,12,5.4,12,12v187.5
		C318.9,396.5,313.5,401.9,306.9,401.9z"/>
	<path class="st1" d="M306.9,403.9H84.5c-7.7,0-14-6.3-14-14V202.3c0-7.7,6.3-14,14-14h222.4c7.7,0,14,6.3,14,14v187.5
		C320.9,397.6,314.6,403.9,306.9,403.9z M84.5,192.3c-5.5,0-10,4.5-10,10v187.5c0,5.5,4.5,10,10,10h222.4c5.5,0,10-4.5,10-10V202.3
		c0-5.5-4.5-10-10-10H84.5z"/>
</g>
<g>
	<path class="st0" d="M282.9,287.2h-175c-6.6,0-12-5.4-12-12v-33.5c0-6.6,5.4-12,12-12h175c6.6,0,12,5.4,12,12v33.5
		C294.9,281.8,289.5,287.2,282.9,287.2z"/>
	<path class="st3" d="M282.9,289.2h-175c-7.7,0-14-6.3-14-14v-33.5c0-7.7,6.3-14,14-14h175c7.7,0,14,6.3,14,14v33.5
		C296.9,283,290.6,289.2,282.9,289.2z M107.9,231.7c-5.5,0-10,4.5-10,10v33.5c0,5.5,4.5,10,10,10h175c5.5,0,10-4.5,10-10v-33.5
		c0-5.5-4.5-10-10-10H107.9z"/>
</g>
<g>
	<path class="st0" d="M282.9,377.9h-175c-6.6,0-12-5.4-12-12v-38.3c0-6.6,5.4-12,12-12h175c6.6,0,12,5.4,12,12v38.3
		C294.9,372.5,289.5,377.9,282.9,377.9z"/>
	<path class="st4" d="M282.9,379.9h-175c-7.7,0-14-6.3-14-14v-38.3c0-7.7,6.3-14,14-14h175c7.7,0,14,6.3,14,14v38.3
		C296.9,373.6,290.6,379.9,282.9,379.9z M107.9,317.6c-5.5,0-10,4.5-10,10v38.3c0,5.5,4.5,10,10,10h175c5.5,0,10-4.5,10-10v-38.3
		c0-5.5-4.5-10-10-10H107.9z"/>
</g>
<g>
	<path class="st0" d="M227.2,201.9h-63c-6.6,0-12-5.4-12-12v0c0-6.6,5.4-12,12-12h63c6.6,0,12,5.4,12,12v0
		C239.2,196.5,233.8,201.9,227.2,201.9z"/>
	<path class="st1" d="M227.2,203.9h-63c-7.7,0-14-6.3-14-14s6.3-14,14-14h63c7.7,0,14,6.3,14,14S234.9,203.9,227.2,203.9z
		 M164.2,179.9c-5.5,0-10,4.5-10,10s4.5,10,10,10h63c5.5,0,10-4.5,10-10s-4.5-10-10-10H164.2z"/>
</g>
<g>
	<path class="st0" d="M227.2,241.7h-63c-6.6,0-12-5.4-12-12v0c0-6.6,5.4-12,12-12h63c6.6,0,12,5.4,12,12v0
		C239.2,236.3,233.8,241.7,227.2,241.7z"/>
	<path class="st3" d="M227.2,243.7h-63c-7.7,0-14-6.3-14-14s6.3-14,14-14h63c7.7,0,14,6.3,14,14S234.9,243.7,227.2,243.7z
		 M164.2,219.7c-5.5,0-10,4.5-10,10s4.5,10,10,10h63c5.5,0,10-4.5,10-10s-4.5-10-10-10H164.2z"/>
</g>
<g>
	<path class="st0" d="M227.2,327.6h-63c-6.6,0-12-5.4-12-12v0c0-6.6,5.4-12,12-12h63c6.6,0,12,5.4,12,12v0
		C239.2,322.2,233.8,327.6,227.2,327.6z"/>
	<path class="st4" d="M227.2,329.6h-63c-7.7,0-14-6.3-14-14s6.3-14,14-14h63c7.7,0,14,6.3,14,14S234.9,329.6,227.2,329.6z
		 M164.2,305.6c-5.5,0-10,4.5-10,10s4.5,10,10,10h63c5.5,0,10-4.5,10-10s-4.5-10-10-10H164.2z"/>
</g>
<g>
	<rect x="162.2" y="209" class="st0" width="69.8" height="62.8"/>
</g>
<g>
	<rect x="162.2" y="296.1" class="st0" width="69.8" height="68.6"/>
</g>
<g>
	<path class="st1" d="M162.6,189.6l9.7-5v1.4l-8.2,4.1v0l8.2,4.1v1.4l-9.7-5V189.6z"/>
	<path class="st1" d="M175.2,195.7c0-0.7,0.1-1.7,0.1-2.6v-12.3h1.8v6.4h0c0.7-1.1,1.8-1.9,3.5-1.9c2.5,0,4.3,2.1,4.3,5.2
		c0,3.6-2.3,5.4-4.6,5.4c-1.5,0-2.6-0.6-3.4-1.9h-0.1l-0.1,1.7H175.2z M177.1,191.7c0,0.2,0,0.5,0.1,0.7c0.4,1.3,1.4,2.2,2.8,2.2
		c1.9,0,3.1-1.6,3.1-3.9c0-2-1-3.8-3-3.8c-1.3,0-2.4,0.9-2.8,2.3c0,0.2-0.1,0.5-0.1,0.8V191.7z"/>
	<path class="st1" d="M196.4,190.6c0,3.8-2.6,5.4-5.1,5.4c-2.8,0-4.9-2-4.9-5.2c0-3.4,2.2-5.4,5-5.4
		C194.4,185.4,196.4,187.5,196.4,190.6z M188.4,190.7c0,2.2,1.3,3.9,3.1,3.9c1.8,0,3.1-1.7,3.1-3.9c0-1.7-0.9-3.9-3-3.9
		S188.4,188.8,188.4,190.7z"/>
	<path class="st1" d="M207.5,180.8v12.3c0,0.9,0,1.9,0.1,2.6H206l-0.1-1.8h0c-0.6,1.1-1.8,2-3.5,2c-2.5,0-4.3-2.1-4.3-5.2
		c0-3.4,2.1-5.5,4.6-5.5c1.6,0,2.6,0.7,3.1,1.6h0v-6.1H207.5z M205.7,189.7c0-0.2,0-0.5-0.1-0.8c-0.3-1.2-1.3-2.1-2.7-2.1
		c-1.9,0-3,1.7-3,3.9c0,2.1,1,3.8,3,3.8c1.2,0,2.4-0.8,2.7-2.2c0.1-0.3,0.1-0.5,0.1-0.8V189.7z"/>
	<path class="st1" d="M211.3,185.6l2.2,6c0.2,0.7,0.5,1.5,0.7,2.1h0c0.2-0.6,0.4-1.4,0.7-2.1l2-6h2l-2.8,7.2
		c-1.3,3.5-2.2,5.3-3.5,6.4c-0.9,0.8-1.8,1.1-2.3,1.2l-0.5-1.6c0.5-0.1,1.1-0.4,1.6-0.9c0.5-0.4,1.1-1.1,1.6-2.1
		c0.1-0.2,0.1-0.3,0.1-0.4c0-0.1,0-0.3-0.1-0.5l-3.8-9.4H211.3z"/>
	<path class="st1" d="M230.1,190.8l-9.7,5v-1.4l8.3-4.1v0l-8.3-4.1v-1.4l9.7,5V190.8z"/>
</g>
<g>
	<path class="st3" d="M173.4,229.6l9.7-5v1.4l-8.2,4.1v0l8.2,4.1v1.4l-9.7-5V229.6z"/>
	<path class="st3" d="M186.1,220.8h1.8v6.3h0c0.3-0.5,0.8-1,1.3-1.3c0.5-0.3,1.2-0.5,1.9-0.5c1.4,0,3.5,0.8,3.5,4.3v6h-1.8v-5.8
		c0-1.6-0.6-3-2.4-3c-1.2,0-2.1,0.8-2.5,1.8c-0.1,0.3-0.1,0.5-0.1,0.9v6.1h-1.8V220.8z"/>
	<path class="st3" d="M201.1,223.8L201.1,223.8l-2.4,1.3l-0.4-1.4l3-1.6h1.6v13.6h-1.8V223.8z"/>
	<path class="st3" d="M218.1,230.8l-9.7,5v-1.4l8.3-4.1v0l-8.3-4.1v-1.4l9.7,5V230.8z"/>
</g>
<g>
	<path class="st4" d="M160.6,315.1l9.7-5v1.4l-8.2,4.1v0l8.2,4.1v1.4l-9.7-5V315.1z"/>
	<path class="st4" d="M173,319.4c0.5,0.4,1.5,0.7,2.4,0.7c1.3,0,2-0.7,2-1.5c0-0.9-0.5-1.4-1.9-1.9c-1.8-0.7-2.7-1.7-2.7-2.9
		c0-1.6,1.3-3,3.5-3c1,0,1.9,0.3,2.5,0.6l-0.5,1.3c-0.4-0.3-1.1-0.6-2.1-0.6c-1.1,0-1.7,0.6-1.7,1.4c0,0.8,0.6,1.2,1.9,1.7
		c1.8,0.7,2.7,1.6,2.7,3.1c0,1.8-1.4,3-3.8,3c-1.1,0-2.1-0.3-2.9-0.7L173,319.4z"/>
	<path class="st4" d="M188.8,320.9c-0.5,0.3-1.6,0.6-2.9,0.6c-3.1,0-5.1-2.1-5.1-5.2c0-3.1,2.1-5.4,5.5-5.4c1.1,0,2.1,0.3,2.6,0.5
		l-0.4,1.4c-0.4-0.3-1.1-0.5-2.1-0.5c-2.3,0-3.6,1.7-3.6,3.8c0,2.4,1.5,3.8,3.5,3.8c1.1,0,1.7-0.3,2.3-0.5L188.8,320.9z"/>
	<path class="st4" d="M191,314.3c0-1.2,0-2.2-0.1-3.2h1.6l0.1,2h0.1c0.5-1.4,1.6-2.2,2.8-2.2c0.2,0,0.4,0,0.5,0.1v1.7
		c-0.2,0-0.4-0.1-0.6-0.1c-1.3,0-2.2,1-2.5,2.4c0,0.3-0.1,0.5-0.1,0.9v5.4H191V314.3z"/>
	<path class="st4" d="M200,308.2c0,0.6-0.4,1.1-1.2,1.1c-0.7,0-1.1-0.5-1.1-1.1c0-0.7,0.5-1.2,1.2-1.2
		C199.6,307.1,200,307.6,200,308.2z M197.9,321.2v-10.2h1.8v10.2H197.9z"/>
	<path class="st4" d="M202.9,314.4c0-1.3,0-2.4-0.1-3.3h1.7l0.1,1.7h0c0.8-1.2,2-2,3.6-2c2.5,0,4.3,2.1,4.3,5.2
		c0,3.7-2.2,5.5-4.6,5.5c-1.3,0-2.5-0.6-3.1-1.6h0v5.5h-1.8V314.4z M204.7,317.1c0,0.3,0,0.5,0.1,0.8c0.3,1.3,1.4,2.2,2.8,2.2
		c2,0,3.1-1.6,3.1-3.9c0-2-1.1-3.8-3-3.8c-1.3,0-2.4,0.9-2.8,2.3c-0.1,0.2-0.1,0.5-0.1,0.8V317.1z"/>
	<path class="st4" d="M217,308.2v2.9h2.6v1.4H217v5.5c0,1.3,0.4,2,1.4,2c0.5,0,0.8-0.1,1.1-0.1l0.1,1.4c-0.4,0.1-0.9,0.3-1.6,0.3
		c-0.9,0-1.6-0.3-2-0.8c-0.5-0.5-0.7-1.4-0.7-2.6v-5.5h-1.6v-1.4h1.6v-2.4L217,308.2z"/>
	<path class="st4" d="M231.4,316.3l-9.7,5v-1.4l8.3-4.1v0l-8.3-4.1v-1.4l9.7,5V316.3z"/>
</g>
<g>
	<path class="st4" d="M177.2,356.2L177,355H177c-0.6,0.8-1.7,1.5-3.1,1.5c-2.1,0-3.1-1.4-3.1-2.9c0-2.5,2.2-3.8,6.1-3.8v-0.2
		c0-0.8-0.2-2.4-2.3-2.4c-0.9,0-1.9,0.3-2.6,0.8l-0.4-1.2c0.8-0.5,2.1-0.9,3.3-0.9c3.1,0,3.9,2.1,3.9,4.2v3.8c0,0.9,0,1.7,0.2,2.4
		H177.2z M176.9,351.1c-2,0-4.3,0.3-4.3,2.3c0,1.2,0.8,1.8,1.7,1.8c1.3,0,2.2-0.8,2.5-1.7c0.1-0.2,0.1-0.4,0.1-0.6V351.1z"/>
	<path class="st4" d="M181.7,341.3h1.8v14.9h-1.8V341.3z"/>
	<path class="st4" d="M187.6,351.5c0,2.5,1.6,3.5,3.5,3.5c1.3,0,2.1-0.2,2.8-0.5l0.3,1.3c-0.7,0.3-1.8,0.6-3.4,0.6
		c-3.1,0-5-2.1-5-5.1s1.8-5.5,4.8-5.5c3.3,0,4.2,2.9,4.2,4.8c0,0.4,0,0.7-0.1,0.9H187.6z M193.1,350.2c0-1.2-0.5-3-2.6-3
		c-1.9,0-2.7,1.7-2.8,3H193.1z"/>
	<path class="st4" d="M197.1,349.3c0-1.2,0-2.2-0.1-3.2h1.6l0.1,2h0.1c0.5-1.4,1.6-2.2,2.8-2.2c0.2,0,0.4,0,0.5,0.1v1.7
		c-0.2,0-0.4-0.1-0.6-0.1c-1.3,0-2.2,1-2.5,2.4c0,0.3-0.1,0.5-0.1,0.9v5.4h-1.8V349.3z"/>
	<path class="st4" d="M206.7,343.2v2.9h2.6v1.4h-2.6v5.5c0,1.3,0.4,2,1.4,2c0.5,0,0.8-0.1,1.1-0.1l0.1,1.4c-0.4,0.1-0.9,0.3-1.6,0.3
		c-0.9,0-1.6-0.3-2-0.8c-0.5-0.5-0.7-1.4-0.7-2.6v-5.5h-1.6v-1.4h1.6v-2.4L206.7,343.2z"/>
	<path class="st5" d="M215.5,341.7c-1.5,2.1-2.6,4.8-2.6,8.6c0,3.7,1.2,6.4,2.6,8.5H214c-1.3-1.7-2.8-4.4-2.8-8.5
		c0-4.1,1.4-6.8,2.8-8.6H215.5z"/>
	<path class="st5" d="M216.3,358.8c1.5-2.1,2.6-4.8,2.6-8.6c0-3.8-1.1-6.4-2.6-8.5h1.4c1.3,1.7,2.8,4.4,2.8,8.5
		c0,4.1-1.4,6.8-2.8,8.6H216.3z"/>
</g>
<g>
	<path class="st0" d="M227.2,27.2h-63c-6.6,0-12-5.4-12-12v0c0-6.6,5.4-12,12-12h63c6.6,0,12,5.4,12,12v0
		C239.2,21.8,233.8,27.2,227.2,27.2z"/>
	<path class="st2" d="M227.2,29.2h-63c-7.7,0-14-6.3-14-14s6.3-14,14-14h63c7.7,0,14,6.3,14,14S234.9,29.2,227.2,29.2z M164.2,5.2
		c-5.5,0-10,4.5-10,10s4.5,10,10,10h63c5.5,0,10-4.5,10-10s-4.5-10-10-10H164.2z"/>
</g>
<g>
	<path class="st2" d="M162.6,15.6l9.7-5V12l-8.2,4.1v0l8.2,4.1v1.4l-9.7-5V15.6z"/>
	<path class="st2" d="M175.3,6.8h1.8v6.3h0c0.3-0.5,0.8-1,1.3-1.3c0.5-0.3,1.2-0.5,1.9-0.5c1.4,0,3.5,0.8,3.5,4.3v6h-1.8v-5.8
		c0-1.6-0.6-3-2.4-3c-1.2,0-2.1,0.8-2.5,1.8c-0.1,0.3-0.1,0.5-0.1,0.9v6.1h-1.8V6.8z"/>
	<path class="st2" d="M188,17c0,2.5,1.6,3.5,3.5,3.5c1.3,0,2.1-0.2,2.8-0.5l0.3,1.3c-0.7,0.3-1.8,0.6-3.4,0.6c-3.1,0-5-2.1-5-5.1
		s1.8-5.5,4.8-5.5c3.3,0,4.2,2.9,4.2,4.8c0,0.4,0,0.7-0.1,0.9H188z M193.4,15.7c0-1.2-0.5-3-2.6-3c-1.9,0-2.7,1.7-2.8,3H193.4z"/>
	<path class="st2" d="M203.1,21.7l-0.1-1.3h-0.1c-0.6,0.8-1.7,1.5-3.1,1.5c-2.1,0-3.1-1.4-3.1-2.9c0-2.5,2.2-3.8,6.1-3.8v-0.2
		c0-0.8-0.2-2.4-2.3-2.4c-0.9,0-1.9,0.3-2.6,0.8l-0.4-1.2c0.8-0.5,2.1-0.9,3.3-0.9c3.1,0,3.9,2.1,3.9,4.2v3.8c0,0.9,0,1.7,0.2,2.4
		H203.1z M202.8,16.6c-2,0-4.3,0.3-4.3,2.3c0,1.2,0.8,1.8,1.7,1.8c1.3,0,2.2-0.8,2.5-1.7c0.1-0.2,0.1-0.4,0.1-0.6V16.6z"/>
	<path class="st2" d="M216.3,6.8v12.3c0,0.9,0,1.9,0.1,2.6h-1.7l-0.1-1.8h0c-0.6,1.1-1.8,2-3.5,2c-2.5,0-4.3-2.1-4.3-5.2
		c0-3.4,2.1-5.5,4.6-5.5c1.6,0,2.6,0.7,3.1,1.6h0V6.8H216.3z M214.5,15.7c0-0.2,0-0.5-0.1-0.8c-0.3-1.2-1.3-2.1-2.7-2.1
		c-1.9,0-3,1.7-3,3.9c0,2.1,1,3.8,3,3.8c1.2,0,2.4-0.8,2.7-2.2c0.1-0.3,0.1-0.5,0.1-0.8V15.7z"/>
	<path class="st2" d="M229,16.8l-9.7,5v-1.4l8.3-4.1v0l-8.3-4.1v-1.4l9.7,5V16.8z"/>
</g>
<g>
	<path class="st6" d="M131.5,260.5c-0.1-2-0.2-4.3-0.2-6.1h-0.1c-0.5,1.7-1.1,3.4-1.8,5.4l-2.5,6.9h-1.4l-2.3-6.7
		c-0.7-2-1.2-3.8-1.6-5.5h0c0,1.8-0.1,4.1-0.3,6.3l-0.4,6.1h-1.7l1-14.2h2.3l2.4,6.8c0.6,1.7,1.1,3.3,1.4,4.8h0.1
		c0.4-1.4,0.9-3,1.5-4.8l2.5-6.8h2.3l0.9,14.2h-1.8L131.5,260.5z"/>
	<path class="st6" d="M138.5,253.7c0,0.6-0.4,1.1-1.2,1.1c-0.7,0-1.1-0.5-1.1-1.1c0-0.7,0.5-1.2,1.2-1.2
		C138,252.6,138.5,253.1,138.5,253.7z M136.4,266.7v-10.2h1.8v10.2H136.4z"/>
	<path class="st6" d="M143,256.6v4.3c0,1.6,0,2.6-0.1,4.1l0.1,0c0.6-1.2,1-2,1.6-3.1l3.2-5.2h2.2v10.2h-1.8v-4.3
		c0-1.7,0-2.5,0.1-4.2h-0.1c-0.7,1.3-1.1,2.1-1.7,3.1c-1,1.6-2.1,3.5-3.2,5.3h-2.1v-10.2H143z M144.2,252.4c0.1,0.9,0.5,1.6,1.3,1.6
		c0.9,0,1.3-0.7,1.4-1.6h1.3c-0.1,1.7-1.2,2.6-2.8,2.6c-1.8,0-2.6-1.2-2.6-2.6H144.2z"/>
	<path class="st6" d="M165.8,256.6v10.2h-1.8v-8.7h-4.7v8.7h-1.8v-10.2H165.8z"/>
	<path class="st6" d="M169.8,262c0,2.5,1.6,3.5,3.5,3.5c1.3,0,2.1-0.2,2.8-0.5l0.3,1.3c-0.7,0.3-1.8,0.6-3.4,0.6c-3.1,0-5-2.1-5-5.1
		s1.8-5.5,4.8-5.5c3.3,0,4.2,2.9,4.2,4.8c0,0.4,0,0.7-0.1,0.9H169.8z M175.2,260.7c0-1.2-0.5-3-2.6-3c-1.9,0-2.7,1.7-2.8,3H175.2z"
		/>
	<path class="st6" d="M179.3,259.9c0-1.3,0-2.4-0.1-3.3h1.7l0.1,1.7h0c0.8-1.2,2-2,3.6-2c2.5,0,4.3,2.1,4.3,5.2
		c0,3.7-2.2,5.5-4.6,5.5c-1.3,0-2.5-0.6-3.1-1.6h0v5.5h-1.8V259.9z M181.1,262.6c0,0.3,0,0.5,0.1,0.8c0.3,1.3,1.4,2.2,2.8,2.2
		c2,0,3.1-1.6,3.1-3.9c0-2-1.1-3.8-3-3.8c-1.3,0-2.4,0.9-2.8,2.3c-0.1,0.2-0.1,0.5-0.1,0.8V262.6z"/>
	<path class="st6" d="M193,256.6v8.7h3.5v-8.7h1.8v8.7h3.5v-8.7h1.8v10.2h-12.5v-10.2H193z"/>
	<path class="st6" d="M208.5,256.6v4.3c0,1.6,0,2.6-0.1,4.1l0.1,0c0.6-1.2,1-2,1.6-3.1l3.2-5.2h2.2v10.2h-1.8v-4.3
		c0-1.7,0-2.5,0.1-4.2h-0.1c-0.7,1.3-1.1,2.1-1.7,3.1c-1,1.6-2.1,3.5-3.2,5.3h-2.1v-10.2H208.5z"/>
	<path class="st6" d="M220.1,256.6v4.3c0,1.6,0,2.6-0.1,4.1l0.1,0c0.6-1.2,1-2,1.6-3.1l3.2-5.2h2.2v10.2h-1.8v-4.3
		c0-1.7,0-2.5,0.1-4.2h-0.1c-0.7,1.3-1.1,2.1-1.7,3.1c-1,1.6-2.1,3.5-3.2,5.3h-2.1v-10.2H220.1z M221.3,252.4
		c0.1,0.9,0.5,1.6,1.3,1.6c0.9,0,1.3-0.7,1.4-1.6h1.3c-0.1,1.7-1.2,2.6-2.8,2.6c-1.8,0-2.6-1.2-2.6-2.6H221.3z"/>
	<path class="st6" d="M241.7,266.4c-0.5,0.3-1.6,0.6-2.9,0.6c-3.1,0-5.1-2.1-5.1-5.2c0-3.1,2.1-5.4,5.5-5.4c1.1,0,2.1,0.3,2.6,0.5
		l-0.4,1.4c-0.4-0.3-1.1-0.5-2.1-0.5c-2.3,0-3.6,1.7-3.6,3.8c0,2.4,1.5,3.8,3.5,3.8c1,0,1.7-0.3,2.3-0.5L241.7,266.4z"/>
	<path class="st6" d="M249.6,266.7l-0.1-1.3h-0.1c-0.6,0.8-1.7,1.5-3.1,1.5c-2.1,0-3.1-1.4-3.1-2.9c0-2.5,2.2-3.8,6.1-3.8v-0.2
		c0-0.8-0.2-2.4-2.3-2.4c-0.9,0-1.9,0.3-2.6,0.8l-0.4-1.2c0.8-0.5,2.1-0.9,3.3-0.9c3.1,0,3.9,2.1,3.9,4.2v3.8c0,0.9,0,1.7,0.2,2.4
		H249.6z M249.3,261.6c-2,0-4.3,0.3-4.3,2.3c0,1.2,0.8,1.8,1.7,1.8c1.3,0,2.2-0.8,2.5-1.7c0.1-0.2,0.1-0.4,0.1-0.6V261.6z"/>
	<path class="st6" d="M255.8,256.6v4.3c0,1.6,0,2.6-0.1,4.1l0.1,0c0.6-1.2,1-2,1.6-3.1l3.2-5.2h2.2v10.2h-1.8v-4.3
		c0-1.7,0-2.5,0.1-4.2H261c-0.7,1.3-1.1,2.1-1.7,3.1c-1,1.6-2.1,3.5-3.2,5.3H254v-10.2H255.8z M257,252.4c0.1,0.9,0.5,1.6,1.3,1.6
		c0.9,0,1.3-0.7,1.4-1.6h1.3c-0.1,1.7-1.2,2.6-2.8,2.6c-1.8,0-2.6-1.2-2.6-2.6H257z"/>
	<path class="st6" d="M272.5,256.6v1.5h-3.2v8.7h-1.8v-8.7h-3.2v-1.5H272.5z"/>
</g>
<g>
	<path class="st2" d="M121.2,48.3h56c2.2,0,4-1.8,4-4v0c0-2.2-1.8-4-4-4h-56c-2.2,0-4,1.8-4,4v0C117.2,46.5,119,48.3,121.2,48.3z"/>
</g>
<g>
	<path class="st2" d="M214.5,50.5l55.4-8.5c2.2-0.3,3.7-2.4,3.3-4.6v0c-0.3-2.2-2.4-3.7-4.6-3.3l-55.4,8.5c-2.2,0.3-3.7,2.4-3.3,4.6
		v0C210.2,49.4,212.3,50.9,214.5,50.5z"/>
</g>
<g>
	<path class="st7" d="M167.9,101.5h-39.8c-6.6,0-12-5.4-12-12v-5.1c0-6.6,5.4-12,12-12h39.8c6.6,0,12,5.4,12,12v5.1
		C179.9,96.1,174.5,101.5,167.9,101.5z"/>
	<path class="st3" d="M167.9,103.5h-39.8c-7.7,0-14-6.3-14-14v-5.1c0-7.7,6.3-14,14-14h39.8c7.7,0,14,6.3,14,14v5.1
		C181.9,97.2,175.7,103.5,167.9,103.5z M128.2,74.4c-5.5,0-10,4.5-10,10v5.1c0,5.5,4.5,10,10,10h39.8c5.5,0,10-4.5,10-10v-5.1
		c0-5.5-4.5-10-10-10H128.2z"/>
</g>
<g>
	<path class="st8" d="M156.6,91.2h-14.4c-2.4,0-4.4-2-4.4-4.4v-8c0-2.4,2-4.4,4.4-4.4h14.4c2.4,0,4.4,2,4.4,4.4v8
		C161.1,89.3,159.1,91.2,156.6,91.2z"/>
</g>
<g>
	<path class="st7" d="M262.6,101.5h-39.8c-6.6,0-12-5.4-12-12v-5.1c0-6.6,5.4-12,12-12h39.8c6.6,0,12,5.4,12,12v5.1
		C274.6,96.1,269.2,101.5,262.6,101.5z"/>
	<path class="st3" d="M262.6,103.5h-39.8c-7.7,0-14-6.3-14-14v-5.1c0-7.7,6.3-14,14-14h39.8c7.7,0,14,6.3,14,14v5.1
		C276.6,97.2,270.3,103.5,262.6,103.5z M222.8,74.4c-5.5,0-10,4.5-10,10v5.1c0,5.5,4.5,10,10,10h39.8c5.5,0,10-4.5,10-10v-5.1
		c0-5.5-4.5-10-10-10H222.8z"/>
</g>
<g>
	<path class="st8" d="M251.3,91.2h-14.4c-2.4,0-4.4-2-4.4-4.4v-8c0-2.4,2-4.4,4.4-4.4h14.4c2.4,0,4.4,2,4.4,4.4v8
		C255.7,89.3,253.7,91.2,251.3,91.2z"/>
</g>
<g>
	<path class="st2" d="M173.2,132.5h46.4c2.2,0,4-1.8,4-4l0,0c0-2.2-1.8-4-4-4h-46.4c-2.2,0-4,1.8-4,4l0,0
		C169.2,130.7,171,132.5,173.2,132.5z"/>
</g>
<g>
	<path class="st0" d="M494.3,307c6.5-7.5,12.3-14.7,18.6-21.6c3.9-4.3,8.9-6.9,15-6.6c8.5,0.4,13.9,6.3,13.2,14.8
		c-0.1,1.5-0.3,3-0.7,4.5c-2.3,8-4.5,16.1-7.1,24c-1.8,5.6-5.4,10.1-10.8,12.8c-1.8,0.9-2.4,1.8-1.7,3.9c2.5,7.4,2,14.6-1.2,21.7
		c-2.7,5.9-3.6,11.8-2.2,18.4c2.1,9.9-2.7,18.3-12.2,23.1c-0.7,0.3-1.3,0.6-1.4,0.7c2.6,2.9,5.4,5.8,7.8,8.9c2.5,3.2,5,6.6,7.1,10.1
		c0.9,1.5,1.1,3.6,1,5.4c-0.5,4.4-4.6,6.5-8.5,4.4c-2.1-1.1-3.8-2.8-5.7-4.1c-0.9-0.6-2.4-1.4-3.1-1c-0.8,0.4-1.4,2-1.4,3.1
		c0.3,4.4,0.7,8.8,1.3,13.2c1.6,12.4,2.1,24.8,0.3,37.1c-0.4,2.6-1.2,5.1-2.1,7.6c-1,2.6-2.9,4-5.9,3.9c-2.9-0.1-5-1.4-5.9-4
		c-0.9-2.8-1.4-5.8-1.7-8.8c-0.3-2.6-1.3-4.3-4.1-4.3c-5.8-0.1-11.6-0.3-17.5-0.2c-3.8,0.1-7.7,0.7-11.5,0.8
		c-2.9,0.1-4.3,1.5-4.8,4.1c-0.4,2-0.7,4.1-1.4,6c-1.4,3.8-4.8,5.9-8.8,5.7c-2.6-0.2-4.1-1.9-4.5-4.1c-1.1-5.8-2.7-11.6-2.6-17.5
		c0.1-14.1,1.1-28.2,1.7-42.3c0-0.6,0-1.3,0-2.5c-1,0.6-1.7,0.9-2.3,1.3c-1.9,1.4-3.6,3-5.6,4.3c-1.6,1-3.3,1.8-5.1,2.2
		c-5.7,1.3-9.6-2.7-7.2-7.9c2.4-5.3,5.9-10.2,9.3-15c2.2-3.1,5.1-5.8,7.8-8.8c-1.6-1-3.1-1.9-4.5-2.9c-9.1-6.1-12.5-14.5-9.2-24.9
		c1.7-5.4,1.5-10.4,0-15.8c-2.9-10-2.8-13.1-0.4-21.7c-1.7-1.3-3.6-2.6-5.2-4.1c-4.5-4.3-6.1-10-7.6-15.8c-0.9-3.7-2.3-7.4-3.3-11.1
		c-1-3.7-2.2-7.4-2.6-11.2c-0.8-7.9,4.9-13.8,12.9-14.3c7-0.4,12.2,3,16.5,7.7c5,5.6,9.6,11.6,14.3,17.4c0.9,1.1,1.5,1.8,3.2,1.3
		c16.7-5.1,33.2-4.3,49.6,1.5C494.2,307,494.6,307.1,494.3,307z"/>
</g>
<g>
	<path class="st9" d="M516.9,445.9c-4.4,1.3-8.1,0.2-10.9-3.4c-2.2-2.8-1.8-5.8-0.1-8.7c2.5-4.1,6.3-4.2,10.7-3.4
		c3.2-6.2,6.4-12.5,9.5-18.7c-5.2-7.4-5-12.3,0.6-15.4c4.1-2.3,9.6,0.4,12.1,5.5c2.6,0.3,5,0.2,7.1,0.9c4.1,1.4,6.2,5.4,5.2,9.1
		c-1.2,4.5-4.6,7.1-9.2,6.4c-2.3-0.4-3.1,0.4-4,2.3c-2.3,4.8-4.7,9.6-7.3,14.3c-0.8,1.5-0.7,2.4,0.5,3.6c2.5,2.5,3.5,5.6,2,9
		c-1.2,2.9-3.1,5-6.4,5.2c-3.7,0.3-6.6-1.3-8.7-4.3C517.7,447.7,517.4,446.9,516.9,445.9z"/>
</g>
<g>
	<path class="st10" d="M466.5,359.4c-1.3,0.2-2.7,0.4-4,0.8c-2.4,0.8-3.5,2.9-2.7,5.6c0.6,1.8,1.4,3.9,2.6,5.1
		c1.6,1.7,1.9,3.6,1.9,5.8c0,4.3-0.9,8.4-3.1,11.9c-2,3.3-4.9,4.9-8.4,4.2c-4.6-0.9-8.5-3.5-11.4-7.8c-4.2-6.3-1.6-16,5.1-19.5
		c2-1,4.1-1.7,6.1-2.6c3.3-1.5,4.3-3.2,4-7.3c-0.3-4.6-1-9.1-1.4-13.7c-0.7-7.3,0.4-13.9,4.5-19.8c3.7-5.5,15.2-5.6,18.2,2.6
		c2.5,6.7,2.9,13.3,1.8,20.2c-0.6,3.6-1.2,7.3-1.7,10.9c-0.6,4.1,0.4,6.2,3.7,8.1c2.1,1.2,4.3,2,6.3,3.3c7.9,5,8.5,17.4,1.1,23.2
		c-3,2.3-6.1,4.1-9.9,3.6c-4.4-0.7-8-5-9.2-11c-0.3-1.7-0.5-3.5-0.5-5.3c0-2.3,0.3-4.5,2.3-6c0.9-0.7,1.5-2,2.1-3.1
		c2.2-4.4,1-7.4-3.3-8.5C469.4,359.7,467.9,359.6,466.5,359.4z"/>
</g>
<g>
	<path class="st10" d="M448.6,406.1c11.2,1.7,22.1,2.2,33,1.5c4.9-0.3,5-0.3,6,3.9c2.3,9.5,4.3,19,4.1,28.7c0,2.1-0.3,4.1-0.5,6.2
		c-0.5,3.9-2.8,6.6-7,8c-10.8,3.8-21.6,4.1-32.4,0.3c-5.5-1.9-7.4-6.1-8-10.9C442.3,431,445.4,418.7,448.6,406.1z"/>
</g>
<g>
	<path class="st10" d="M517.1,324.8c-4.1-5.1-8-9.9-12.1-15c3.4-5.8,7.1-12,12.9-16.6c1.3-1.1,3-1.9,4.7-2.3c4.9-1.1,8.2,1.8,8,6.8
		c-0.1,1.8-0.4,3.7-0.9,5.4c-1.1,3.9-2.3,7.7-3.4,11.5C524.7,319.5,521.5,322.8,517.1,324.8z"/>
</g>
<g>
	<path class="st10" d="M434.7,309.3c-4.9,5.7-9.3,10.9-13.9,16.2c-3.6-1.9-6.1-5.1-7.5-9.3c-1.3-4.2-2.6-8.4-3.8-12.6
		c-0.5-1.7-0.8-3.4-0.9-5.1c-0.3-5.7,4.3-9.1,9.6-6.8c2.5,1.1,4.9,2.9,6.7,4.9C428.5,300.8,431.7,305.4,434.7,309.3z"/>
</g>
<g>
	<circle class="st9" cx="498.7" cy="349.5" r="9"/>
</g>
<g>
	<circle class="st0" cx="498.7" cy="349.5" r="7.2"/>
</g>
<g>
	<circle class="st9" cx="438" cy="349.5" r="9"/>
</g>
<g>
	<circle class="st0" cx="438" cy="349.5" r="7.2"/>
</g>
<g class="st11">
	<rect x="209" y="393.4" class="st1" width="14.3" height="14.3"/>
</g>
<g class="st12">
	<rect x="195" y="393.4" class="st1" width="14.3" height="14.3"/>
</g>
<g class="st13">
	<rect x="181" y="393.4" class="st1" width="14.3" height="14.3"/>
</g>
<g class="st14">
	<rect x="167" y="393.4" class="st1" width="14.3" height="14.3"/>
</g>
<g class="st15">
	<rect x="209" y="407.7" class="st1" width="14.3" height="14.3"/>
</g>
<g class="st16">
	<rect x="195" y="407.7" class="st1" width="14.3" height="14.3"/>
</g>
<g class="st17">
	<rect x="181" y="407.7" class="st1" width="14.3" height="14.3"/>
</g>
<g class="st18">
	<rect x="167" y="407.7" class="st1" width="14.3" height="14.3"/>
</g>
<g class="st19">
	<rect x="209" y="421.9" class="st1" width="14.3" height="14.3"/>
</g>
<g class="st13">
	<rect x="195" y="421.9" class="st1" width="14.3" height="14.3"/>
</g>
<g class="st20">
	<rect x="181" y="421.9" class="st1" width="14.3" height="14.3"/>
</g>
<g class="st11">
	<rect x="167" y="421.9" class="st1" width="14.3" height="14.3"/>
</g>
</svg>
