<?xml version="1.0" encoding="utf-8"?>
<!-- Generator: Adobe Illustrator 22.0.0, SVG Export Plug-In . SVG Version: 6.00 Build 0)  -->
<svg version="1.1" id="Слой_1" xmlns="http://www.w3.org/2000/svg" xmlns:xlink="http://www.w3.org/1999/xlink" x="0px" y="0px"
	 viewBox="0 0 403.3 601.4" style="enable-background:new 0 0 403.3 601.4;" xml:space="preserve">
<style type="text/css">
	.st0{fill:#1A2535;}
	.st1{fill:#738999;}
	.st2{fill:#6C427C;}
	.st3{fill:#2A7491;}
	.st4{fill:#1C8E55;}
	.st5{fill:#FF931E;}
	.st6{fill:#FFC285;}
	.st7{fill:#F2F2F2;}
</style>
<g>
	<path class="st0" d="M387.7,597.9H15.8c-6.6,0-12-5.4-12-12V16c0-6.6,5.4-12,12-12h371.9c6.6,0,12,5.4,12,12v569.9
		C399.7,592.5,394.3,597.9,387.7,597.9z"/>
	<path class="st1" d="M387.7,599.9H15.8c-7.7,0-14-6.3-14-14V16c0-7.7,6.3-14,14-14h371.9c7.7,0,14,6.3,14,14v569.9
		C401.7,593.6,395.4,599.9,387.7,599.9z M15.8,6c-5.5,0-10,4.5-10,10v569.9c0,5.5,4.5,10,10,10h371.9c5.5,0,10-4.5,10-10V16
		c0-5.5-4.5-10-10-10H15.8z"/>
</g>
<g>
	<path class="st0" d="M363.7,573.4H39.8c-6.6,0-12-5.4-12-12V97.2c0-6.6,5.4-12,12-12h323.9c6.6,0,12,5.4,12,12v464.3
		C375.7,568,370.3,573.4,363.7,573.4z"/>
	<path class="st2" d="M363.7,575.4H39.8c-7.7,0-14-6.3-14-14V97.2c0-7.7,6.3-14,14-14h323.9c7.7,0,14,6.3,14,14v464.3
		C377.7,569.1,371.4,575.4,363.7,575.4z M39.8,87.2c-5.5,0-10,4.5-10,10v464.3c0,5.5,4.5,10,10,10h323.9c5.5,0,10-4.5,10-10V97.2
		c0-5.5-4.5-10-10-10H39.8z"/>
</g>
<g>
	<path class="st0" d="M312.9,260.4H90.5c-6.6,0-12-5.4-12-12V147.2c0-6.6,5.4-12,12-12h222.4c6.6,0,12,5.4,12,12v101.2
		C324.9,255,319.5,260.4,312.9,260.4z"/>
	<path class="st3" d="M312.9,262.4H90.5c-7.7,0-14-6.3-14-14V147.2c0-7.7,6.3-14,14-14h222.4c7.7,0,14,6.3,14,14v101.2
		C326.9,256.1,320.6,262.4,312.9,262.4z M90.5,137.2c-5.5,0-10,4.5-10,10v101.2c0,5.5,4.5,10,10,10h222.4c5.5,0,10-4.5,10-10V147.2
		c0-5.5-4.5-10-10-10H90.5z"/>
</g>
<g>
	<path class="st0" d="M288.9,237h-175c-6.6,0-12-5.4-12-12v-34.8c0-6.6,5.4-12,12-12h175c6.6,0,12,5.4,12,12V225
		C300.9,231.6,295.5,237,288.9,237z"/>
	<path class="st1" d="M288.9,239h-175c-7.7,0-14-6.3-14-14v-34.8c0-7.7,6.3-14,14-14h175c7.7,0,14,6.3,14,14V225
		C302.9,232.8,296.6,239,288.9,239z M113.9,180.3c-5.5,0-10,4.5-10,10V225c0,5.5,4.5,10,10,10h175c5.5,0,10-4.5,10-10v-34.8
		c0-5.5-4.5-10-10-10H113.9z"/>
</g>
<g>
	<path class="st0" d="M312.9,522.7H90.5c-6.6,0-12-5.4-12-12V323.1c0-6.6,5.4-12,12-12h222.4c6.6,0,12,5.4,12,12v187.5
		C324.9,517.3,319.5,522.7,312.9,522.7z"/>
	<path class="st4" d="M312.9,524.7H90.5c-7.7,0-14-6.3-14-14V323.1c0-7.7,6.3-14,14-14h222.4c7.7,0,14,6.3,14,14v187.5
		C326.9,518.4,320.6,524.7,312.9,524.7z M90.5,313.1c-5.5,0-10,4.5-10,10v187.5c0,5.5,4.5,10,10,10h222.4c5.5,0,10-4.5,10-10V323.1
		c0-5.5-4.5-10-10-10H90.5z"/>
</g>
<g>
	<path class="st0" d="M288.9,408h-175c-6.6,0-12-5.4-12-12v-33.5c0-6.6,5.4-12,12-12h175c6.6,0,12,5.4,12,12V396
		C300.9,402.6,295.5,408,288.9,408z"/>
	<path class="st1" d="M288.9,410h-175c-7.7,0-14-6.3-14-14v-33.5c0-7.7,6.3-14,14-14h175c7.7,0,14,6.3,14,14V396
		C302.9,403.8,296.6,410,288.9,410z M113.9,352.5c-5.5,0-10,4.5-10,10V396c0,5.5,4.5,10,10,10h175c5.5,0,10-4.5,10-10v-33.5
		c0-5.5-4.5-10-10-10H113.9z"/>
</g>
<g>
	<path class="st0" d="M288.9,498.7h-175c-6.6,0-12-5.4-12-12v-38.3c0-6.6,5.4-12,12-12h175c6.6,0,12,5.4,12,12v38.3
		C300.9,493.3,295.5,498.7,288.9,498.7z"/>
	<path class="st5" d="M288.9,500.7h-175c-7.7,0-14-6.3-14-14v-38.3c0-7.7,6.3-14,14-14h175c7.7,0,14,6.3,14,14v38.3
		C302.9,494.4,296.6,500.7,288.9,500.7z M113.9,438.4c-5.5,0-10,4.5-10,10v38.3c0,5.5,4.5,10,10,10h175c5.5,0,10-4.5,10-10v-38.3
		c0-5.5-4.5-10-10-10H113.9z"/>
</g>
<g>
	<path class="st0" d="M233.3,322.7h-63c-6.6,0-12-5.4-12-12l0,0c0-6.6,5.4-12,12-12h63c6.6,0,12,5.4,12,12l0,0
		C245.3,317.3,239.9,322.7,233.3,322.7z"/>
	<path class="st4" d="M233.3,324.7h-63c-7.7,0-14-6.3-14-14s6.3-14,14-14h63c7.7,0,14,6.3,14,14S241,324.7,233.3,324.7z
		 M170.3,300.7c-5.5,0-10,4.5-10,10s4.5,10,10,10h63c5.5,0,10-4.5,10-10s-4.5-10-10-10H170.3z"/>
</g>
<g>
	<path class="st0" d="M233.3,362.5h-63c-6.6,0-12-5.4-12-12v0c0-6.6,5.4-12,12-12h63c6.6,0,12,5.4,12,12v0
		C245.3,357.1,239.9,362.5,233.3,362.5z"/>
	<path class="st1" d="M233.3,364.5h-63c-7.7,0-14-6.3-14-14s6.3-14,14-14h63c7.7,0,14,6.3,14,14S241,364.5,233.3,364.5z
		 M170.3,340.5c-5.5,0-10,4.5-10,10s4.5,10,10,10h63c5.5,0,10-4.5,10-10s-4.5-10-10-10H170.3z"/>
</g>
<g>
	<path class="st0" d="M233.3,448.4h-63c-6.6,0-12-5.4-12-12v0c0-6.6,5.4-12,12-12h63c6.6,0,12,5.4,12,12v0
		C245.3,443,239.9,448.4,233.3,448.4z"/>
	<path class="st5" d="M233.3,450.4h-63c-7.7,0-14-6.3-14-14s6.3-14,14-14h63c7.7,0,14,6.3,14,14S241,450.4,233.3,450.4z
		 M170.3,426.4c-5.5,0-10,4.5-10,10s4.5,10,10,10h63c5.5,0,10-4.5,10-10s-4.5-10-10-10H170.3z"/>
</g>
<g>
	<rect x="168.3" y="279.5" class="st0" width="69.8" height="110"/>
</g>
<g>
	<rect x="168.3" y="418" class="st0" width="69.8" height="67.5"/>
</g>
<g>
	<path class="st1" d="M123.1,37.9l9.7-5v1.4l-8.2,4.1v0l8.2,4.1V44l-9.7-5V37.9z"/>
	<path class="st1" d="M135.4,43c0-0.8,0.5-1.3,1.2-1.3c0.8,0,1.2,0.5,1.2,1.3c0,0.7-0.5,1.3-1.2,1.3C135.9,44.3,135.4,43.7,135.4,43
		z M135.9,40l-0.3-10.1h2L137.4,40H135.9z"/>
	<path class="st1" d="M140.6,30.1c1.1-0.2,2.4-0.3,3.9-0.3c2.6,0,4.5,0.6,5.7,1.8c1.3,1.2,2,2.8,2,5.1c0,2.3-0.7,4.2-2,5.5
		c-1.3,1.3-3.5,2-6.3,2c-1.3,0-2.4-0.1-3.3-0.2V30.1z M142.5,42.6c0.5,0.1,1.1,0.1,1.8,0.1c3.9,0,6-2.2,6-6c0-3.3-1.9-5.5-5.7-5.5
		c-0.9,0-1.7,0.1-2.1,0.2V42.6z"/>
	<path class="st1" d="M166.7,36.8c0,4.9-3,7.5-6.6,7.5c-3.7,0-6.4-2.9-6.4-7.2c0-4.5,2.8-7.4,6.6-7.4
		C164.2,29.7,166.7,32.6,166.7,36.8z M155.7,37c0,3,1.6,5.7,4.5,5.7c2.9,0,4.5-2.7,4.5-5.9c0-2.8-1.5-5.8-4.5-5.8
		C157.3,31.1,155.7,33.9,155.7,37z"/>
	<path class="st1" d="M179,43.6c-0.7,0.3-2,0.7-3.7,0.7c-4,0-7-2.5-7-7.2c0-4.4,3-7.4,7.4-7.4c1.8,0,2.9,0.4,3.4,0.6l-0.4,1.5
		c-0.7-0.3-1.7-0.6-2.9-0.6c-3.3,0-5.5,2.1-5.5,5.8c0,3.5,2,5.7,5.4,5.7c1.1,0,2.2-0.2,3-0.6L179,43.6z"/>
	<path class="st1" d="M184.6,31.4h-4.3v-1.6h10.5v1.6h-4.3V44h-1.8V31.4z"/>
	<path class="st1" d="M196,44v-6l-4.5-8.1h2.1l2,3.9c0.5,1.1,1,1.9,1.4,2.9h0c0.4-0.9,0.9-1.8,1.4-2.9l2-3.9h2.1l-4.7,8.1v6H196z"/>
	<path class="st1" d="M204.1,30.1c0.9-0.1,2-0.3,3.5-0.3c1.8,0,3.1,0.4,4,1.2c0.8,0.7,1.2,1.7,1.2,3c0,1.3-0.4,2.3-1.1,3
		c-1,1-2.5,1.6-4.3,1.6c-0.5,0-1.1,0-1.5-0.1V44h-1.8V30.1z M205.9,36.9c0.4,0.1,0.9,0.1,1.5,0.1c2.2,0,3.5-1.1,3.5-3
		c0-1.9-1.3-2.8-3.3-2.8c-0.8,0-1.4,0.1-1.7,0.1V36.9z"/>
	<path class="st1" d="M222.6,37.4h-5.5v5.1h6.1V44h-8V29.9h7.6v1.5h-5.8v4.5h5.5V37.4z"/>
	<path class="st1" d="M230,29.1h1.8v6.3h0c0.3-0.5,0.8-1,1.3-1.3c0.5-0.3,1.2-0.5,1.9-0.5c1.4,0,3.5,0.8,3.5,4.3v6h-1.8v-5.8
		c0-1.6-0.6-3-2.4-3c-1.2,0-2.1,0.8-2.5,1.8c-0.1,0.3-0.1,0.5-0.1,0.9V44H230V29.1z"/>
	<path class="st1" d="M243.8,31v2.9h2.6v1.4h-2.6v5.5c0,1.3,0.4,2,1.4,2c0.5,0,0.8-0.1,1.1-0.1l0.1,1.4c-0.4,0.1-0.9,0.3-1.6,0.3
		c-0.9,0-1.6-0.3-2-0.8c-0.5-0.5-0.7-1.4-0.7-2.6v-5.5h-1.6v-1.4h1.6v-2.4L243.8,31z"/>
	<path class="st1" d="M248.5,36.6c0-1,0-1.9-0.1-2.8h1.6l0.1,1.6h0.1c0.6-1,1.5-1.9,3.2-1.9c1.4,0,2.4,0.8,2.9,2h0
		c0.3-0.6,0.7-1,1.1-1.3c0.6-0.5,1.3-0.7,2.2-0.7c1.3,0,3.3,0.9,3.3,4.4v6h-1.8v-5.8c0-2-0.7-3.1-2.2-3.1c-1,0-1.9,0.8-2.2,1.7
		c-0.1,0.3-0.1,0.6-0.1,0.9V44h-1.8V38c0-1.6-0.7-2.8-2.1-2.8c-1.2,0-2,0.9-2.3,1.8c-0.1,0.3-0.1,0.6-0.1,0.9V44h-1.8V36.6z"/>
	<path class="st1" d="M266,29.1h1.8V44H266V29.1z"/>
	<path class="st1" d="M280.6,39l-9.7,5v-1.4l8.3-4.1v0l-8.3-4.1v-1.4l9.7,5V39z"/>
</g>
<g>
	<path class="st4" d="M168.6,310.4l9.7-5v1.4l-8.2,4.1v0l8.2,4.1v1.4l-9.7-5V310.4z"/>
	<path class="st4" d="M181.2,316.5c0-0.7,0.1-1.7,0.1-2.6v-12.3h1.8v6.4h0c0.7-1.1,1.8-1.9,3.5-1.9c2.5,0,4.3,2.1,4.3,5.2
		c0,3.6-2.3,5.4-4.6,5.4c-1.5,0-2.6-0.6-3.4-1.9h-0.1l-0.1,1.7H181.2z M183.1,312.5c0,0.2,0,0.5,0.1,0.7c0.4,1.3,1.4,2.2,2.8,2.2
		c1.9,0,3.1-1.6,3.1-3.9c0-2-1-3.8-3-3.8c-1.3,0-2.4,0.9-2.8,2.3c0,0.2-0.1,0.5-0.1,0.8V312.5z"/>
	<path class="st4" d="M202.5,311.4c0,3.8-2.6,5.4-5.1,5.4c-2.8,0-4.9-2-4.9-5.2c0-3.4,2.2-5.4,5-5.4
		C200.5,306.1,202.5,308.3,202.5,311.4z M194.4,311.5c0,2.2,1.3,3.9,3.1,3.9c1.8,0,3.1-1.7,3.1-3.9c0-1.7-0.9-3.9-3-3.9
		S194.4,309.5,194.4,311.5z"/>
	<path class="st4" d="M213.6,301.6v12.3c0,0.9,0,1.9,0.1,2.6H212l-0.1-1.8h0c-0.6,1.1-1.8,2-3.5,2c-2.5,0-4.3-2.1-4.3-5.2
		c0-3.4,2.1-5.5,4.6-5.5c1.6,0,2.6,0.7,3.1,1.6h0v-6.1H213.6z M211.7,310.5c0-0.2,0-0.5-0.1-0.8c-0.3-1.2-1.3-2.1-2.7-2.1
		c-1.9,0-3,1.7-3,3.9c0,2.1,1,3.8,3,3.8c1.2,0,2.4-0.8,2.7-2.2c0.1-0.3,0.1-0.5,0.1-0.8V310.5z"/>
	<path class="st4" d="M217.3,306.4l2.2,6c0.2,0.7,0.5,1.5,0.7,2.1h0c0.2-0.6,0.4-1.4,0.7-2.1l2-6h2l-2.8,7.2
		c-1.3,3.5-2.2,5.3-3.5,6.4c-0.9,0.8-1.8,1.1-2.3,1.2l-0.5-1.6c0.5-0.1,1.1-0.4,1.6-0.9c0.5-0.4,1.1-1.1,1.6-2.1
		c0.1-0.2,0.1-0.3,0.1-0.4c0-0.1,0-0.3-0.1-0.5l-3.8-9.4H217.3z"/>
	<path class="st4" d="M236.1,311.5l-9.7,5v-1.4l8.3-4.1v0l-8.3-4.1v-1.4l9.7,5V311.5z"/>
</g>
<g>
	<path class="st1" d="M179.4,350.4l9.7-5v1.4l-8.2,4.1v0l8.2,4.1v1.4l-9.7-5V350.4z"/>
	<path class="st1" d="M192.1,341.6h1.8v6.3h0c0.3-0.5,0.8-1,1.3-1.3c0.5-0.3,1.2-0.5,1.9-0.5c1.4,0,3.5,0.8,3.5,4.3v6h-1.8v-5.8
		c0-1.6-0.6-3-2.4-3c-1.2,0-2.1,0.8-2.5,1.8c-0.1,0.3-0.1,0.5-0.1,0.9v6.1h-1.8V341.6z"/>
	<path class="st1" d="M207.2,344.6L207.2,344.6l-2.4,1.3l-0.4-1.4l3-1.6h1.6v13.6h-1.8V344.6z"/>
	<path class="st1" d="M224.1,351.5l-9.7,5v-1.4l8.3-4.1v0l-8.3-4.1v-1.4l9.7,5V351.5z"/>
</g>
<g>
	<path class="st5" d="M167.6,434.9l9.7-5v1.4l-8.2,4.1v0l8.2,4.1v1.4l-9.7-5V434.9z"/>
	<path class="st5" d="M180.1,439.2c0.5,0.4,1.5,0.7,2.4,0.7c1.3,0,2-0.7,2-1.5c0-0.9-0.5-1.4-1.9-1.9c-1.8-0.7-2.7-1.7-2.7-2.9
		c0-1.6,1.3-3,3.5-3c1,0,1.9,0.3,2.5,0.6l-0.5,1.3c-0.4-0.3-1.1-0.6-2.1-0.6c-1.1,0-1.7,0.6-1.7,1.4c0,0.8,0.6,1.2,1.9,1.7
		c1.8,0.7,2.7,1.6,2.7,3.1c0,1.8-1.4,3-3.8,3c-1.1,0-2.1-0.3-2.9-0.7L180.1,439.2z"/>
	<path class="st5" d="M195.9,440.7c-0.5,0.3-1.6,0.6-2.9,0.6c-3.1,0-5.1-2.1-5.1-5.2c0-3.1,2.1-5.4,5.5-5.4c1.1,0,2.1,0.3,2.6,0.5
		l-0.4,1.4c-0.4-0.3-1.1-0.5-2.1-0.5c-2.3,0-3.6,1.7-3.6,3.8c0,2.4,1.5,3.8,3.5,3.8c1.1,0,1.7-0.3,2.3-0.5L195.9,440.7z"/>
	<path class="st5" d="M198,434c0-1.2,0-2.2-0.1-3.2h1.6l0.1,2h0.1c0.5-1.4,1.6-2.2,2.8-2.2c0.2,0,0.4,0,0.5,0.1v1.7
		c-0.2,0-0.4-0.1-0.6-0.1c-1.3,0-2.2,1-2.5,2.4c0,0.3-0.1,0.5-0.1,0.9v5.4H198V434z"/>
	<path class="st5" d="M207,428c0,0.6-0.4,1.1-1.2,1.1c-0.7,0-1.1-0.5-1.1-1.1c0-0.7,0.5-1.2,1.2-1.2C206.6,426.9,207,427.4,207,428z
		 M205,441v-10.2h1.8V441H205z"/>
	<path class="st5" d="M209.9,434.2c0-1.3,0-2.4-0.1-3.3h1.7l0.1,1.7h0c0.8-1.2,2-2,3.6-2c2.5,0,4.3,2.1,4.3,5.2
		c0,3.7-2.2,5.5-4.6,5.5c-1.3,0-2.5-0.6-3.1-1.6h0v5.5h-1.8V434.2z M211.7,436.9c0,0.3,0,0.5,0.1,0.8c0.3,1.3,1.4,2.2,2.8,2.2
		c2,0,3.1-1.6,3.1-3.9c0-2-1.1-3.8-3-3.8c-1.3,0-2.4,0.9-2.8,2.3c-0.1,0.2-0.1,0.5-0.1,0.8V436.9z"/>
	<path class="st5" d="M224.1,428v2.9h2.6v1.4h-2.6v5.5c0,1.3,0.4,2,1.4,2c0.5,0,0.8-0.1,1.1-0.1l0.1,1.4c-0.4,0.1-0.9,0.3-1.6,0.3
		c-0.9,0-1.6-0.3-2-0.8c-0.5-0.5-0.7-1.4-0.7-2.6v-5.5h-1.6v-1.4h1.6v-2.4L224.1,428z"/>
	<path class="st5" d="M238.4,436l-9.7,5v-1.4l8.3-4.1v0l-8.3-4.1v-1.4l9.7,5V436z"/>
</g>
<g>
	<path class="st5" d="M183.2,477l-0.1-1.3H183c-0.6,0.8-1.7,1.5-3.1,1.5c-2.1,0-3.1-1.4-3.1-2.9c0-2.5,2.2-3.8,6.1-3.8v-0.2
		c0-0.8-0.2-2.4-2.3-2.4c-0.9,0-1.9,0.3-2.6,0.8l-0.4-1.2c0.8-0.5,2.1-0.9,3.3-0.9c3.1,0,3.9,2.1,3.9,4.2v3.8c0,0.9,0,1.7,0.2,2.4
		H183.2z M182.9,471.9c-2,0-4.3,0.3-4.3,2.3c0,1.2,0.8,1.8,1.7,1.8c1.3,0,2.2-0.8,2.5-1.7c0.1-0.2,0.1-0.4,0.1-0.6V471.9z"/>
	<path class="st5" d="M187.7,462.1h1.8V477h-1.8V462.1z"/>
	<path class="st5" d="M193.7,472.3c0,2.5,1.6,3.5,3.5,3.5c1.3,0,2.1-0.2,2.8-0.5l0.3,1.3c-0.7,0.3-1.8,0.6-3.4,0.6
		c-3.1,0-5-2.1-5-5.1s1.8-5.5,4.8-5.5c3.3,0,4.2,2.9,4.2,4.8c0,0.4,0,0.7-0.1,0.9H193.7z M199.1,471c0-1.2-0.5-3-2.6-3
		c-1.9,0-2.7,1.7-2.8,3H199.1z"/>
	<path class="st5" d="M203.2,470c0-1.2,0-2.2-0.1-3.2h1.6l0.1,2h0.1c0.5-1.4,1.6-2.2,2.8-2.2c0.2,0,0.4,0,0.5,0.1v1.7
		c-0.2,0-0.4-0.1-0.6-0.1c-1.3,0-2.2,1-2.5,2.4c0,0.3-0.1,0.5-0.1,0.9v5.4h-1.8V470z"/>
	<path class="st5" d="M212.8,464v2.9h2.6v1.4h-2.6v5.5c0,1.3,0.4,2,1.4,2c0.5,0,0.8-0.1,1.1-0.1l0.1,1.4c-0.4,0.1-0.9,0.3-1.6,0.3
		c-0.9,0-1.6-0.3-2-0.8c-0.5-0.5-0.7-1.4-0.7-2.6v-5.5h-1.6v-1.4h1.6v-2.4L212.8,464z"/>
	<path class="st6" d="M221.5,462.5c-1.5,2.1-2.6,4.8-2.6,8.6c0,3.7,1.2,6.4,2.6,8.5h-1.4c-1.3-1.7-2.8-4.4-2.8-8.5
		c0-4.1,1.4-6.8,2.8-8.6H221.5z"/>
	<path class="st6" d="M222.3,479.6c1.5-2.1,2.6-4.8,2.6-8.6c0-3.8-1.1-6.4-2.6-8.5h1.4c1.3,1.7,2.8,4.4,2.8,8.5
		c0,4.1-1.4,6.8-2.8,8.6H222.3z"/>
</g>
<g>
	<path class="st0" d="M233.3,97.9h-63c-6.6,0-12-5.4-12-12v0c0-6.6,5.4-12,12-12h63c6.6,0,12,5.4,12,12v0
		C245.3,92.5,239.9,97.9,233.3,97.9z"/>
	<path class="st2" d="M233.3,99.9h-63c-7.7,0-14-6.3-14-14s6.3-14,14-14h63c7.7,0,14,6.3,14,14S241,99.9,233.3,99.9z M170.3,75.9
		c-5.5,0-10,4.5-10,10s4.5,10,10,10h63c5.5,0,10-4.5,10-10s-4.5-10-10-10H170.3z"/>
</g>
<g>
	<path class="st0" d="M233.3,148h-63c-6.6,0-12-5.4-12-12v0c0-6.6,5.4-12,12-12h63c6.6,0,12,5.4,12,12v0
		C245.3,142.6,239.9,148,233.3,148z"/>
	<path class="st3" d="M233.3,150h-63c-7.7,0-14-6.3-14-14s6.3-14,14-14h63c7.7,0,14,6.3,14,14S241,150,233.3,150z M170.3,126
		c-5.5,0-10,4.5-10,10s4.5,10,10,10h63c5.5,0,10-4.5,10-10s-4.5-10-10-10H170.3z"/>
</g>
<g>
	<path class="st0" d="M233.3,188.5h-63c-6.6,0-12-5.4-12-12v0c0-6.6,5.4-12,12-12h63c6.6,0,12,5.4,12,12v0
		C245.3,183.1,239.9,188.5,233.3,188.5z"/>
	<path class="st1" d="M233.3,190.5h-63c-7.7,0-14-6.3-14-14s6.3-14,14-14h63c7.7,0,14,6.3,14,14S241,190.5,233.3,190.5z
		 M170.3,166.5c-5.5,0-10,4.5-10,10s4.5,10,10,10h63c5.5,0,10-4.5,10-10s-4.5-10-10-10H170.3z"/>
</g>
<g>
	<rect x="168.3" y="68.8" class="st0" width="69.8" height="124.4"/>
</g>
<g>
	<path class="st2" d="M169.6,85.4l9.7-5v1.4l-8.2,4.1v0l8.2,4.1v1.4l-9.7-5V85.4z"/>
	<path class="st2" d="M182.3,76.6h1.8V83h0c0.3-0.5,0.8-1,1.3-1.3c0.5-0.3,1.2-0.5,1.9-0.5c1.4,0,3.5,0.8,3.5,4.3v6h-1.8v-5.8
		c0-1.6-0.6-3-2.4-3c-1.2,0-2.1,0.8-2.5,1.8c-0.1,0.3-0.1,0.5-0.1,0.9v6.1h-1.8V76.6z"/>
	<path class="st2" d="M196.1,78.5v2.9h2.6v1.4h-2.6v5.5c0,1.3,0.4,2,1.4,2c0.5,0,0.8-0.1,1.1-0.1l0.1,1.4c-0.4,0.1-0.9,0.3-1.6,0.3
		c-0.9,0-1.6-0.3-2-0.8c-0.5-0.5-0.7-1.4-0.7-2.6v-5.5h-1.6v-1.4h1.6v-2.4L196.1,78.5z"/>
	<path class="st2" d="M200.8,84.1c0-1,0-1.9-0.1-2.8h1.6l0.1,1.6h0.1c0.6-1,1.5-1.9,3.2-1.9c1.4,0,2.4,0.8,2.9,2h0
		c0.3-0.6,0.7-1,1.1-1.3c0.6-0.5,1.3-0.7,2.2-0.7c1.3,0,3.3,0.9,3.3,4.4v6h-1.8v-5.8c0-2-0.7-3.1-2.2-3.1c-1,0-1.9,0.8-2.2,1.7
		c-0.1,0.3-0.1,0.6-0.1,0.9v6.3h-1.8v-6.1c0-1.6-0.7-2.8-2.1-2.8c-1.2,0-2,0.9-2.3,1.8c-0.1,0.3-0.1,0.6-0.1,0.9v6.1h-1.8V84.1z"/>
	<path class="st2" d="M218.3,76.6h1.8v14.9h-1.8V76.6z"/>
	<path class="st2" d="M232.9,86.5l-9.7,5v-1.4l8.3-4.1v0l-8.3-4.1v-1.4l9.7,5V86.5z"/>
</g>
<g>
	<path class="st3" d="M168.6,135.4l9.7-5v1.4l-8.2,4.1v0l8.2,4.1v1.4l-9.7-5V135.4z"/>
	<path class="st3" d="M181.3,126.6h1.8v6.3h0c0.3-0.5,0.8-1,1.3-1.3c0.5-0.3,1.2-0.5,1.9-0.5c1.4,0,3.5,0.8,3.5,4.3v6h-1.8v-5.8
		c0-1.6-0.6-3-2.4-3c-1.2,0-2.1,0.8-2.5,1.8c-0.1,0.3-0.1,0.5-0.1,0.9v6.1h-1.8V126.6z"/>
	<path class="st3" d="M194,136.8c0,2.5,1.6,3.5,3.5,3.5c1.3,0,2.1-0.2,2.8-0.5l0.3,1.3c-0.7,0.3-1.8,0.6-3.4,0.6c-3.1,0-5-2.1-5-5.1
		s1.8-5.5,4.8-5.5c3.3,0,4.2,2.9,4.2,4.8c0,0.4,0,0.7-0.1,0.9H194z M199.4,135.5c0-1.2-0.5-3-2.6-3c-1.9,0-2.7,1.7-2.8,3H199.4z"/>
	<path class="st3" d="M209.1,141.5l-0.1-1.3h-0.1c-0.6,0.8-1.7,1.5-3.1,1.5c-2.1,0-3.1-1.4-3.1-2.9c0-2.5,2.2-3.8,6.1-3.8v-0.2
		c0-0.8-0.2-2.4-2.3-2.4c-0.9,0-1.9,0.3-2.6,0.8l-0.4-1.2c0.8-0.5,2.1-0.9,3.3-0.9c3.1,0,3.9,2.1,3.9,4.2v3.8c0,0.9,0,1.7,0.2,2.4
		H209.1z M208.8,136.4c-2,0-4.3,0.3-4.3,2.3c0,1.2,0.8,1.8,1.7,1.8c1.3,0,2.2-0.8,2.5-1.7c0.1-0.2,0.1-0.4,0.1-0.6V136.4z"/>
	<path class="st3" d="M222.4,126.6v12.3c0,0.9,0,1.9,0.1,2.6h-1.7l-0.1-1.8h0c-0.6,1.1-1.8,2-3.5,2c-2.5,0-4.3-2.1-4.3-5.2
		c0-3.4,2.1-5.5,4.6-5.5c1.6,0,2.6,0.7,3.1,1.6h0v-6.1H222.4z M220.5,135.5c0-0.2,0-0.5-0.1-0.8c-0.3-1.2-1.3-2.1-2.7-2.1
		c-1.9,0-3,1.7-3,3.9c0,2.1,1,3.8,3,3.8c1.2,0,2.4-0.8,2.7-2.2c0.1-0.3,0.1-0.5,0.1-0.8V135.5z"/>
	<path class="st3" d="M235,136.5l-9.7,5v-1.4l8.3-4.1v0l-8.3-4.1v-1.4l9.7,5V136.5z"/>
</g>
<g>
	<path class="st1" d="M174.4,177.4l9.7-5v1.4l-8.2,4.1v0l8.2,4.1v1.4l-9.7-5V177.4z"/>
	<path class="st1" d="M189.3,170.5v2.9h2.6v1.4h-2.6v5.5c0,1.3,0.4,2,1.4,2c0.5,0,0.8-0.1,1.1-0.1l0.1,1.4c-0.4,0.1-0.9,0.3-1.6,0.3
		c-0.9,0-1.6-0.3-2-0.8c-0.5-0.5-0.7-1.4-0.7-2.6v-5.5h-1.6v-1.4h1.6v-2.4L189.3,170.5z"/>
	<path class="st1" d="M196.1,170.5c0,0.6-0.4,1.1-1.2,1.1c-0.7,0-1.1-0.5-1.1-1.1c0-0.7,0.5-1.2,1.2-1.2
		C195.7,169.4,196.1,169.9,196.1,170.5z M194,183.5v-10.2h1.8v10.2H194z"/>
	<path class="st1" d="M201.2,170.5v2.9h2.6v1.4h-2.6v5.5c0,1.3,0.4,2,1.4,2c0.5,0,0.8-0.1,1.1-0.1l0.1,1.4c-0.4,0.1-0.9,0.3-1.6,0.3
		c-0.9,0-1.6-0.3-2-0.8c-0.5-0.5-0.7-1.4-0.7-2.6v-5.5h-1.6v-1.4h1.6v-2.4L201.2,170.5z"/>
	<path class="st1" d="M205.9,168.6h1.8v14.9h-1.8V168.6z"/>
	<path class="st1" d="M211.9,178.8c0,2.5,1.6,3.5,3.5,3.5c1.3,0,2.1-0.2,2.8-0.5l0.3,1.3c-0.7,0.3-1.8,0.6-3.4,0.6
		c-3.1,0-5-2.1-5-5.1s1.8-5.5,4.8-5.5c3.3,0,4.2,2.9,4.2,4.8c0,0.4,0,0.7-0.1,0.9H211.9z M217.3,177.5c0-1.2-0.5-3-2.6-3
		c-1.9,0-2.7,1.7-2.8,3H217.3z"/>
	<path class="st1" d="M231,178.5l-9.7,5v-1.4l8.3-4.1v0l-8.3-4.1v-1.4l9.7,5V178.5z"/>
</g>
<g>
	<path class="st7" d="M151.5,202.6v5.9h6.8v-5.9h1.8v14.2h-1.8v-6.6h-6.8v6.6h-1.8v-14.2H151.5z"/>
	<path class="st7" d="M168.9,216.7l-0.1-1.3h-0.1c-0.6,0.8-1.7,1.5-3.1,1.5c-2.1,0-3.1-1.4-3.1-2.9c0-2.5,2.2-3.8,6.1-3.8V210
		c0-0.8-0.2-2.4-2.3-2.4c-0.9,0-1.9,0.3-2.6,0.8l-0.4-1.2c0.8-0.5,2.1-0.9,3.3-0.9c3.1,0,3.9,2.1,3.9,4.2v3.8c0,0.9,0,1.7,0.2,2.4
		H168.9z M168.6,211.5c-2,0-4.3,0.3-4.3,2.3c0,1.2,0.8,1.8,1.7,1.8c1.3,0,2.2-0.8,2.5-1.7c0.1-0.2,0.1-0.4,0.1-0.6V211.5z"/>
	<path class="st7" d="M174.2,210.8h0.9c1.6,0,2.6-0.7,2.6-1.7c0-0.9-0.8-1.5-2-1.5c-0.8,0-1.7,0.3-2.5,0.7l-0.5-1.1
		c1-0.6,2.2-0.9,3.4-0.9c1.6,0,3.4,0.7,3.4,2.7c0,1.3-1.2,2.1-2.3,2.3v0c1.5,0.1,2.8,1,2.8,2.5c0,2.2-2.2,3-4.4,3
		c-1.2,0-2.4-0.3-3.3-0.8l0.5-1.2c0.7,0.4,1.7,0.7,2.7,0.7c1.5,0,2.5-0.7,2.5-1.7c0-1.4-1.4-1.7-3-1.7h-0.9V210.8z"/>
	<path class="st7" d="M182.4,206.7c0.7-0.1,2-0.2,3.2-0.2c1.7,0,4.5,0.3,4.5,2.5c0,1.3-1,2-2.1,2.3v0c1.5,0.2,2.6,1.1,2.6,2.5
		c0,2.7-3.4,3-5.4,3c-1.1,0-2.3-0.1-2.9-0.1V206.7z M184.1,215.5c0.5,0.1,0.9,0.1,1.5,0.1c1.2,0,3.1-0.3,3.1-1.8s-1.5-1.8-3.2-1.8
		h-1.3V215.5z M184.2,210.8h1.4c1.4,0,2.8-0.4,2.8-1.6c0-1-0.9-1.5-2.7-1.5c-0.6,0-1,0-1.4,0.1V210.8z"/>
	<path class="st7" d="M198.6,216.7l-0.1-1.3h-0.1c-0.6,0.8-1.7,1.5-3.1,1.5c-2.1,0-3.1-1.4-3.1-2.9c0-2.5,2.2-3.8,6.1-3.8V210
		c0-0.8-0.2-2.4-2.3-2.4c-0.9,0-1.9,0.3-2.6,0.8l-0.4-1.2c0.8-0.5,2.1-0.9,3.3-0.9c3.1,0,3.9,2.1,3.9,4.2v3.8c0,0.9,0,1.7,0.2,2.4
		H198.6z M198.3,211.5c-2,0-4.3,0.3-4.3,2.3c0,1.2,0.8,1.8,1.7,1.8c1.3,0,2.2-0.8,2.5-1.7c0.1-0.2,0.1-0.4,0.1-0.6V211.5z"/>
	<path class="st7" d="M214.8,216.3c-0.5,0.3-1.6,0.6-2.9,0.6c-3.1,0-5.1-2.1-5.1-5.2c0-3.1,2.1-5.4,5.5-5.4c1.1,0,2.1,0.3,2.6,0.5
		l-0.4,1.4c-0.4-0.3-1.1-0.5-2.1-0.5c-2.3,0-3.6,1.7-3.6,3.8c0,2.4,1.5,3.8,3.5,3.8c1,0,1.7-0.3,2.3-0.5L214.8,216.3z"/>
	<path class="st7" d="M222.6,216.7l-0.1-1.3h-0.1c-0.6,0.8-1.7,1.5-3.1,1.5c-2.1,0-3.1-1.4-3.1-2.9c0-2.5,2.2-3.8,6.1-3.8V210
		c0-0.8-0.2-2.4-2.3-2.4c-0.9,0-1.9,0.3-2.6,0.8l-0.4-1.2c0.8-0.5,2.1-0.9,3.3-0.9c3.1,0,3.9,2.1,3.9,4.2v3.8c0,0.9,0,1.7,0.2,2.4
		H222.6z M222.3,211.5c-2,0-4.3,0.3-4.3,2.3c0,1.2,0.8,1.8,1.7,1.8c1.3,0,2.2-0.8,2.5-1.7c0.1-0.2,0.1-0.4,0.1-0.6V211.5z"/>
	<path class="st7" d="M228.8,206.5v4.3c0,1.6,0,2.6-0.1,4.1l0.1,0c0.6-1.2,1-2,1.6-3.1l3.2-5.2h2.2v10.2H234v-4.3
		c0-1.7,0-2.5,0.1-4.2H234c-0.7,1.3-1.1,2.1-1.7,3.1c-1,1.6-2.1,3.5-3.2,5.3h-2.1v-10.2H228.8z M230,202.4c0.1,0.9,0.5,1.6,1.3,1.6
		c0.9,0,1.3-0.7,1.4-1.6h1.3c-0.1,1.7-1.2,2.6-2.8,2.6c-1.8,0-2.6-1.2-2.6-2.6H230z"/>
	<path class="st7" d="M245.5,206.5v1.5h-3.2v8.7h-1.8V208h-3.2v-1.5H245.5z"/>
	<path class="st7" d="M248.3,206.5l2.2,6c0.2,0.7,0.5,1.5,0.7,2.1h0c0.2-0.6,0.4-1.4,0.7-2.1l2-6h2l-2.8,7.2
		c-1.3,3.5-2.2,5.3-3.5,6.4c-0.9,0.8-1.8,1.1-2.3,1.2l-0.5-1.6c0.5-0.1,1.1-0.4,1.6-0.9c0.5-0.4,1.1-1.1,1.6-2.1
		c0.1-0.2,0.1-0.3,0.1-0.4c0-0.1,0-0.3-0.1-0.5l-3.8-9.4H248.3z"/>
</g>
<g>
	<path class="st7" d="M137.6,381.3c-0.1-2-0.2-4.3-0.2-6.1h-0.1c-0.5,1.7-1.1,3.4-1.8,5.4l-2.5,6.9h-1.4l-2.3-6.7
		c-0.7-2-1.2-3.8-1.6-5.5h0c0,1.8-0.1,4.1-0.3,6.3l-0.4,6.1h-1.7l1-14.2h2.3l2.4,6.8c0.6,1.7,1.1,3.3,1.4,4.8h0.1
		c0.4-1.4,0.9-3,1.5-4.8l2.5-6.8h2.3l0.9,14.2h-1.8L137.6,381.3z"/>
	<path class="st7" d="M144.5,374.5c0,0.6-0.4,1.1-1.2,1.1c-0.7,0-1.1-0.5-1.1-1.1c0-0.7,0.5-1.2,1.2-1.2
		C144.1,373.4,144.5,373.9,144.5,374.5z M142.5,387.5v-10.2h1.8v10.2H142.5z"/>
	<path class="st7" d="M149.1,377.4v4.3c0,1.6,0,2.6-0.1,4.1l0.1,0c0.6-1.2,1-2,1.6-3.1l3.2-5.2h2.2v10.2h-1.8v-4.3
		c0-1.7,0-2.5,0.1-4.2h-0.1c-0.7,1.3-1.1,2.1-1.7,3.1c-1,1.6-2.1,3.5-3.2,5.3h-2.1v-10.2H149.1z M150.3,373.2
		c0.1,0.9,0.5,1.6,1.3,1.6c0.9,0,1.3-0.7,1.4-1.6h1.3c-0.1,1.7-1.2,2.6-2.8,2.6c-1.8,0-2.6-1.2-2.6-2.6H150.3z"/>
	<path class="st7" d="M171.8,377.4v10.2H170v-8.7h-4.7v8.7h-1.8v-10.2H171.8z"/>
	<path class="st7" d="M175.8,382.8c0,2.5,1.6,3.5,3.5,3.5c1.3,0,2.1-0.2,2.8-0.5l0.3,1.3c-0.7,0.3-1.8,0.6-3.4,0.6
		c-3.1,0-5-2.1-5-5.1s1.8-5.5,4.8-5.5c3.3,0,4.2,2.9,4.2,4.8c0,0.4,0,0.7-0.1,0.9H175.8z M181.3,381.5c0-1.2-0.5-3-2.6-3
		c-1.9,0-2.7,1.7-2.8,3H181.3z"/>
	<path class="st7" d="M185.3,380.7c0-1.3,0-2.4-0.1-3.3h1.7l0.1,1.7h0c0.8-1.2,2-2,3.6-2c2.5,0,4.3,2.1,4.3,5.2
		c0,3.7-2.2,5.5-4.6,5.5c-1.3,0-2.5-0.6-3.1-1.6h0v5.5h-1.8V380.7z M187.2,383.4c0,0.3,0,0.5,0.1,0.8c0.3,1.3,1.4,2.2,2.8,2.2
		c2,0,3.1-1.6,3.1-3.9c0-2-1.1-3.8-3-3.8c-1.3,0-2.4,0.9-2.8,2.3c-0.1,0.2-0.1,0.5-0.1,0.8V383.4z"/>
	<path class="st7" d="M199,377.4v8.7h3.5v-8.7h1.8v8.7h3.5v-8.7h1.8v10.2h-12.5v-10.2H199z"/>
	<path class="st7" d="M214.5,377.4v4.3c0,1.6,0,2.6-0.1,4.1l0.1,0c0.6-1.2,1-2,1.6-3.1l3.2-5.2h2.2v10.2h-1.8v-4.3
		c0-1.7,0-2.5,0.1-4.2h-0.1c-0.7,1.3-1.1,2.1-1.7,3.1c-1,1.6-2.1,3.5-3.2,5.3h-2.1v-10.2H214.5z"/>
	<path class="st7" d="M226.1,377.4v4.3c0,1.6,0,2.6-0.1,4.1l0.1,0c0.6-1.2,1-2,1.6-3.1l3.2-5.2h2.2v10.2h-1.8v-4.3
		c0-1.7,0-2.5,0.1-4.2h-0.1c-0.7,1.3-1.1,2.1-1.7,3.1c-1,1.6-2.1,3.5-3.2,5.3h-2.1v-10.2H226.1z M227.3,373.2
		c0.1,0.9,0.5,1.6,1.3,1.6c0.9,0,1.3-0.7,1.4-1.6h1.3c-0.1,1.7-1.2,2.6-2.8,2.6c-1.8,0-2.6-1.2-2.6-2.6H227.3z"/>
	<path class="st7" d="M247.7,387.2c-0.5,0.3-1.6,0.6-2.9,0.6c-3.1,0-5.1-2.1-5.1-5.2c0-3.1,2.1-5.4,5.5-5.4c1.1,0,2.1,0.3,2.6,0.5
		l-0.4,1.4c-0.4-0.3-1.1-0.5-2.1-0.5c-2.3,0-3.6,1.7-3.6,3.8c0,2.4,1.5,3.8,3.5,3.8c1,0,1.7-0.3,2.3-0.5L247.7,387.2z"/>
	<path class="st7" d="M255.6,387.5l-0.1-1.3h-0.1c-0.6,0.8-1.7,1.5-3.1,1.5c-2.1,0-3.1-1.4-3.1-2.9c0-2.5,2.2-3.8,6.1-3.8v-0.2
		c0-0.8-0.2-2.4-2.3-2.4c-0.9,0-1.9,0.3-2.6,0.8l-0.4-1.2c0.8-0.5,2.1-0.9,3.3-0.9c3.1,0,3.9,2.1,3.9,4.2v3.8c0,0.9,0,1.7,0.2,2.4
		H255.6z M255.3,382.4c-2,0-4.3,0.3-4.3,2.3c0,1.2,0.8,1.8,1.7,1.8c1.3,0,2.2-0.8,2.5-1.7c0.1-0.2,0.1-0.4,0.1-0.6V382.4z"/>
	<path class="st7" d="M261.8,377.4v4.3c0,1.6,0,2.6-0.1,4.1l0.1,0c0.6-1.2,1-2,1.6-3.1l3.2-5.2h2.2v10.2H267v-4.3
		c0-1.7,0-2.5,0.1-4.2H267c-0.7,1.3-1.1,2.1-1.7,3.1c-1,1.6-2.1,3.5-3.2,5.3h-2.1v-10.2H261.8z M263,373.2c0.1,0.9,0.5,1.6,1.3,1.6
		c0.9,0,1.3-0.7,1.4-1.6h1.3c-0.1,1.7-1.2,2.6-2.8,2.6c-1.8,0-2.6-1.2-2.6-2.6H263z"/>
	<path class="st7" d="M278.5,377.4v1.5h-3.2v8.7h-1.8v-8.7h-3.2v-1.5H278.5z"/>
</g>
</svg>
