<?xml version="1.0" encoding="utf-8"?>
<!-- Generator: Adobe Illustrator 22.0.0, SVG Export Plug-In . SVG Version: 6.00 Build 0)  -->
<svg version="1.1" id="Слой_1" xmlns="http://www.w3.org/2000/svg" xmlns:xlink="http://www.w3.org/1999/xlink" x="0px" y="0px"
	 viewBox="0 0 1006 475" style="enable-background:new 0 0 1006 475;" xml:space="preserve">
<style type="text/css">
	.st0{fill:#808080;}
	.st1{fill:#333333;}
	.st2{fill:#4C2311;}
	.st3{fill:#8E3F21;}
	.st4{fill:#FFFFFF;}
	.st5{fill:#42210B;}
	.st6{fill:#CCCCCC;}
	.st7{fill:#006837;}
	.st8{fill:#997059;}
	.st9{fill:#A5A5A5;}
	.st10{fill:#FF1D25;}
	.st11{fill:#FF931E;}
	.st12{fill:#7AC943;}
	.st13{fill:#B5B5B5;}
	.st14{fill:#1A2535;}
	.st15{fill:#EAEAEA;}
	.st16{fill:#37628C;}
</style>
<g>
	<path class="st0" d="M916,334.1H644.7c-6.6,0-12-5.4-12-12V130.2c0-6.6,5.4-12,12-12H916c6.6,0,12,5.4,12,12v191.8
		C928,328.7,922.6,334.1,916,334.1z"/>
	<path class="st1" d="M916,336.1H644.7c-7.7,0-14-6.3-14-14V130.2c0-7.7,6.3-14,14-14H916c7.7,0,14,6.3,14,14v191.8
		C930,329.8,923.7,336.1,916,336.1z M644.7,120.2c-5.5,0-10,4.5-10,10v191.8c0,5.5,4.5,10,10,10H916c5.5,0,10-4.5,10-10V130.2
		c0-5.5-4.5-10-10-10H644.7z"/>
</g>
<g>
	<g>
		<path class="st2" d="M233.1,310.5c0,0,63.3-8.1,81.1-14.6c17.7-6.5,44.4-24.2,44.4-24.2s9.4-4.9,11.7-9.4
			c2.3-4.5-7.4,1.7-10.1,3.5c-2.7,1.7-7.8-0.9-9.5,1.2s4,2.3,4,2.3s-10.2,12.3-38.2,22.2c-28,9.9-84.9,16-84.9,16L233.1,310.5z"/>
	</g>
</g>
<g>
	<g>
		<path class="st3" d="M134.4,82.2c0.4-0.3,37.8,75.1,37.8,75.1L84,122.5l46.4,75.5l-92.8-21l56.8,69L7.4,225
			c0,0,49.4,58.8,76.1,86.8c44,49.7,129,82.9,182.2,34c66.7-77.7-13.4-165-41.4-193.6C196.4,123.8,134,82.5,134.4,82.2z"/>
	</g>
</g>
<g>
	<g>
		<path class="st2" d="M222.7,153.9c24.4,24.8,47.1,53,59.1,86c6.3,17.4,9.4,36.3,6.3,54.9c-3.5,21-14.8,43.5-32.4,56.2
			c-33.6,24.1-77.8,19-113.3,2.2c-34.6-16.4-59.1-43.8-83.9-71.9c-16.9-19-23.8-31.9-23.8-31.9l-2.2-13.7c0,0,32,5.3,61,12.4
			c2.3,0.6,3.5-2,2.2-3.6c-18.9-23.1-30.8-43.1-30.8-43.1l0.7-10.8c0,0,33,2.5,64,9.5c1.7,0.4,3.5-1.4,2.5-3.2
			c-15.4-25.2-21.2-46.7-21.2-46.7v-10.1c0,0,31.1,7.6,60.5,19.2c1.9,0.7,3.2-1.7,2.5-3.2c-12.5-25.1-12.5-37.6-12.5-37.6l0.7-8.5
			c0,0,34.3,17,60.8,43.7c1.9,2,5-1,3-3c-26.8-27-59.1-49.3-90.2-70.5c-2-1.2-3.9,1.3-3,3c12.7,25.1,25.2,50,37.8,75.1
			c0.9-1,1.6-2.2,2.5-3.2c-29.4-11.5-58.8-23.2-88.2-34.7c-1.9-0.7-3.3,1.7-2.5,3.2c15.4,25.2,31,50.3,46.4,75.5
			c0.9-1,1.6-2.2,2.5-3.2c-31-7.1-61.8-14-92.8-21c-2.3-0.6-3.5,2-2.2,3.6c18.9,23.1,37.9,46,56.8,69c0.7-1.2,1.4-2.5,2.2-3.6
			c-29-6.9-57.9-14-86.9-21c-2.3-0.6-3.5,2-2.2,3.6c21.3,25.4,42.8,50.4,65.1,74.9c12.7,14.1,25.5,27.7,41.1,38.8
			c17,12.3,36.2,21.8,56.5,27.1c37,9.8,81.9,4,105.6-29c46.8-65-1-139.4-48.4-187.6C223.9,148.8,220.9,151.8,222.7,153.9z"/>
	</g>
</g>
<g>
	<g>
		<circle class="st4" cx="257.3" cy="260.4" r="25.8"/>
	</g>
	<g>
		<path class="st5" d="M229.4,260.4c0-15.4,12.5-28,28-28c15.4,0,28,12.5,28,28s-12.5,28-28,28C242.1,288.4,229.4,275.9,229.4,260.4
			z M233.7,260.4c0,13.1,10.5,23.6,23.6,23.6c13.1,0,23.6-10.5,23.6-23.6c0-13.1-10.7-23.6-23.6-23.6
			C244.4,236.8,233.7,247.3,233.7,260.4z"/>
	</g>
</g>
<g>
	<g>
		<circle class="st4" cx="190" cy="260.4" r="25.8"/>
	</g>
	<g>
		<path class="st5" d="M162.1,260.4c0-15.4,12.5-28,28-28s28,12.5,28,28s-12.5,28-28,28S162.1,275.9,162.1,260.4z M166.4,260.4
			c0,13.1,10.5,23.6,23.6,23.6c13.1,0,23.6-10.5,23.6-23.6c0-13.1-10.7-23.6-23.6-23.6S166.4,247.3,166.4,260.4z"/>
	</g>
</g>
<g>
	<g>
		<path class="st3" d="M210.2,327.2c0,0,83.9,55.5,91.9,51.5c8.1-4-40.9-78-40.9-78L210.2,327.2z"/>
	</g>
</g>
<g>
	<g>
		<g>
			<path class="st2" d="M211.7,330.9c11,7.2,21.9,14.1,33,21c15.3,9.5,30.6,19.6,47.6,26.7c8.8,3.6,15.4,2.5,12.5-7.1
				c-4.6-15-14.4-29.1-22.6-42.7c-5.5-8.9-11-17.7-16.7-26.4c-0.4,0.3-0.9,0.4-1.3,0.6c0,0-0.1,0.1-0.3,0.1
				c-0.3,0.1-0.6,0.4-0.6,0.4c-0.7,0.6-1.6,1-2.3,1.4c5.8,8.6,23.6,38.5,23.6,38.5l-19,15c0,0-27.5-16.1-48.6-30
				C215.3,329.3,213.5,330.2,211.7,330.9z"/>
		</g>
	</g>
</g>
<g>
	<g>
		<g>
			<path class="st2" d="M211.9,334.1c-5.5,0-24.8,4.6-40.2,0c-15.4-4.6-9.1-29.3-9.1-29.3s55.8,27.4,58.5,29.3
				C221.2,334.1,217.4,334.1,211.9,334.1z"/>
		</g>
	</g>
	<g>
		<g>
			<g>
				<path class="st2" d="M222.3,332.2c-9.5-5.9-20.2-10.4-30.3-15.3c-9.4-4.8-18.9-9.4-28.2-14c-1.2-0.6-2.7-0.1-3.2,1.3
					c-2.3,9.5-2.9,23.3,6.1,29.7c7.9,5.6,20.9,4.6,30.1,3.9c8.4-0.7,16.1-1.6,24.5-1.6c2.7,0,2.7-4.3,0-4.3
					c-15.6,0-32.4,4.9-47.7,0.4c-11.4-3.3-11.2-17.4-8.8-27c-1,0.4-2.2,0.9-3.2,1.3c9.4,4.6,18.9,9.4,28.2,14
					c9.9,4.9,20.8,9.4,30.3,15.3C222.5,337.4,224.6,333.7,222.3,332.2z"/>
			</g>
		</g>
	</g>
</g>
<g>
	<g>
		<path class="st5" d="M259.5,219.5l-17,3.6l-3.9-5.2l23.6-4.6c0,0,9.2,9.2,17.3,16.7L259.5,219.5z"/>
	</g>
</g>
<g>
	<g>
		<path class="st5" d="M183.4,218.1l17.9,2.9l3.9-5.3l-24.9-3.7c0,0-9.5,9.7-17.7,17.4L183.4,218.1z"/>
	</g>
</g>
<g>
	<g>
		<path class="st2" d="M127.2,314.4c0,0,34.8,36.8,57.3,51c22.5,14.3,37.2,14.9,37.2,14.9s-2.9-4.2-0.3-4.1c2.4,0.2,3.2,5,6,6
			c2.8,1,12.7,4.5,8,5.3c-4.5,0.7-13.3-3.2-13.3-3.2s-27.8-9.1-42.1-18.2c-14.4-9.1-54.1-49.2-54.1-49.2L127.2,314.4z"/>
	</g>
	<g>
		<path class="st2" d="M125,317.1l2.1-3.9l0.7,0.8c0.4,0.4,35.1,36.9,57.2,50.9c18.2,11.5,31.3,14.1,35.4,14.7
			c-0.5-1.1-1.1-2.3-0.5-3.2c0.1-0.3,0.7-0.8,1.6-0.8c1.6,0.1,2.5,1.6,3.5,3.1c0.7,1.3,1.5,2.7,2.8,3c8.3,2.9,9.8,4.3,9.7,5.3
			c-0.1,1-1.4,1.2-1.8,1.2c-4.7,0.7-13.4-3.1-13.8-3.3c-0.2,0-27.9-9.2-42.2-18.3c-14.3-9-52.6-47.6-54.2-49.3L125,317.1z
			 M127.4,315.6l-0.6,1.3c4.1,4.1,40.3,40.2,53.7,48.6c14.2,8.9,41.6,18.1,41.9,18.2c0.2,0,8.7,3.9,13.1,3.2c0.2,0,0.3-0.1,0.3-0.1
			c-0.6-0.4-2.5-1.6-8.6-3.8c-1.6-0.5-2.6-2.1-3.4-3.5c-0.7-1.3-1.5-2.4-2.3-2.4c-0.2,0-0.3,0.1-0.3,0.1c-0.1,0.3,0.5,1.7,1.2,2.9
			l0.8,1.2l-1.4-0.1c-0.6,0-15.2-0.8-37.6-14.9C163.6,353.1,132.4,320.8,127.4,315.6z"/>
	</g>
</g>
<g>
	<g>
		<path d="M300.6,376.9c-4.8,3.7-32.9-15.7-32.9-15.7l18.9-16.4C286.6,344.8,305.5,373.1,300.6,376.9z"/>
	</g>
</g>
<g>
	<g>
		<path class="st2" d="M136.3,355l-8.9,103.8c0,0,0,0-8.9,0s-8.9,7.2-8.9,7.2l23.2-2.9l7.1-106.6L136.3,355z"/>
	</g>
</g>
<g>
	<g>
		<path class="st2" d="M199.4,370.8l8.9,83.6c0,0,0,0,8.9,0c8.9,0,8.9,5.8,8.9,5.8l-23.2-2.3l-7.1-85.9L199.4,370.8z"/>
	</g>
</g>
<g>
	<g>
		<circle class="st5" cx="271.6" cy="335.5" r="2.2"/>
	</g>
</g>
<g>
	<g>
		<circle class="st5" cx="261.5" cy="319.7" r="2.2"/>
	</g>
</g>
<g>
	<g>
		<circle class="st5" cx="238.5" cy="335.5" r="2.2"/>
	</g>
</g>
<g>
	<g>
		<circle class="st5" cx="254.3" cy="337" r="2.2"/>
	</g>
</g>
<g>
	<g>
		<circle class="st5" cx="264.4" cy="349.9" r="2.2"/>
	</g>
</g>
<g>
	<g>
		<path class="st6" d="M284,349.8L284,349.8c1.3-0.7,2.9-0.3,3.6,1l5.3,9.4c0.7,1.3,0.3,2.9-1,3.6l0,0c-1.3,0.7-2.9,0.3-3.6-1
			l-5.3-9.4C282.1,352.1,282.6,350.5,284,349.8z"/>
	</g>
</g>
<g>
	<g>
		<g>
			<circle cx="265.7" cy="256.8" r="10.5"/>
		</g>
		<g>
			<path class="st7" d="M262,269.1c-3.3-1.2-5.9-3.3-7.5-6.3c-1.6-3-1.9-6.5-0.9-9.7l0,0c1.2-3.3,3.3-5.9,6.3-7.5
				c3-1.6,6.5-1.9,9.7-0.9c6.6,2.2,10.4,9.4,8.2,16c-1.7,5.5-6.8,8.9-12.1,8.9C264.4,269.7,263.1,269.4,262,269.1z M262,249.5
				c-2,1-3.5,2.7-4.2,4.9l0,0c-1.4,4.3,1,9.1,5.5,10.5c4.3,1.4,9.1-1,10.5-5.5c1.4-4.3-1-9.1-5.5-10.5c-0.9-0.3-1.7-0.4-2.6-0.4
				C264.4,248.5,263.1,248.8,262,249.5z"/>
		</g>
	</g>
	<g>
		<g>
			<circle class="st6" cx="266.3" cy="253.4" r="2.2"/>
		</g>
	</g>
</g>
<g>
	<g>
		<g>
			<circle cx="198.4" cy="256.8" r="10.5"/>
		</g>
		<g>
			<path class="st7" d="M185.7,257c0-6.9,5.6-12.7,12.7-12.7c6.9,0,12.7,5.8,12.7,12.7c0,6.9-5.6,12.7-12.7,12.7
				C191.3,269.7,185.7,263.9,185.7,257z M190.1,256.8c0,4.6,3.7,8.4,8.4,8.4c4.6,0,8.4-3.7,8.4-8.4c0-4.6-3.7-8.4-8.4-8.4
				C193.7,248.5,189.9,252.2,190.1,256.8z"/>
		</g>
	</g>
	<g>
		<g>
			<circle class="st6" cx="198.6" cy="253.4" r="2.2"/>
		</g>
	</g>
</g>
<g>
	<path class="st8" d="M163.7,111.7c22.8,13.9,40.1,25.9,53.5,39.4c13.5,13.5,18.2,20.7,18.2,20.7s-10.3-14.7-35.9-30.1
		S163.7,111.7,163.7,111.7z"/>
</g>
<g>
	<path class="st8" d="M169.2,162.2c0,0-22.1-9.5-32.5-12.1c-10.4-2.6-21.2-4.4-21.2-4.4l32.5,16.6H169.2z"/>
</g>
<g>
	<polygon class="st8" points="120.9,200.4 72.3,193.6 105.8,203.3 	"/>
</g>
<g>
	<polygon class="st8" points="89.9,249.8 35.2,238.3 72.3,251.9 	"/>
</g>
<g>
	<path class="st9" d="M883.8,141.4H714.7c-3.2,0-5.9-2.6-5.9-5.9l0,0c0-3.2,2.6-5.9,5.9-5.9h169.1c3.2,0,5.9,2.6,5.9,5.9l0,0
		C889.7,138.7,887,141.4,883.8,141.4z"/>
	<path class="st1" d="M883.8,143.4H714.7c-4.3,0-7.9-3.5-7.9-7.9s3.5-7.9,7.9-7.9h169.1c4.3,0,7.9,3.5,7.9,7.9
		S888.1,143.4,883.8,143.4z M714.7,131.7c-2.1,0-3.9,1.7-3.9,3.9s1.7,3.9,3.9,3.9h169.1c2.1,0,3.9-1.7,3.9-3.9s-1.7-3.9-3.9-3.9
		H714.7z"/>
</g>
<g>
	<path class="st1" d="M911,143.4h-5.8c-4.3,0-7.9-3.5-7.9-7.9c0-4.3,3.5-7.9,7.9-7.9h5.8c4.3,0,7.9,3.5,7.9,7.9
		C918.8,139.9,915.3,143.4,911,143.4z"/>
</g>
<g>
	<path class="st0" d="M689.7,141.4L689.7,141.4c-3.2,0-5.9-2.6-5.9-5.9l0,0c0-3.2,2.6-5.9,5.9-5.9l0,0c3.2,0,5.9,2.6,5.9,5.9l0,0
		C695.6,138.7,692.9,141.4,689.7,141.4z"/>
	<path class="st1" d="M689.7,143.4c-4.3,0-7.9-3.5-7.9-7.9s3.5-7.9,7.9-7.9c4.3,0,7.9,3.5,7.9,7.9S694,143.4,689.7,143.4z
		 M689.7,131.7c-2.1,0-3.9,1.7-3.9,3.9s1.7,3.9,3.9,3.9s3.9-1.7,3.9-3.9S691.8,131.7,689.7,131.7z"/>
</g>
<g>
	<g>
		<circle class="st10" cx="648.7" cy="135.5" r="3.8"/>
	</g>
	<g>
		<circle class="st11" cx="658.6" cy="135.5" r="3.8"/>
	</g>
	<g>
		<circle class="st12" cx="668.6" cy="135.5" r="3.8"/>
	</g>
</g>
<g>
	<polygon class="st0" points="689.7,135.5 700.1,135.5 695.7,127.7 694.6,132.3 692.4,132.7 	"/>
</g>
<g>
	<path class="st13" d="M914.7,326.5H646c-3.3,0-6-2.7-6-6V158.2c0-3.3,2.7-6,6-6h268.7c3.3,0,6,2.7,6,6v162.3
		C920.7,323.8,918,326.5,914.7,326.5z"/>
	<path class="st1" d="M914.7,328.5H646c-4.4,0-8-3.6-8-8V158.2c0-4.4,3.6-8,8-8h268.7c4.4,0,8,3.6,8,8v162.3
		C922.7,324.9,919.1,328.5,914.7,328.5z M646,154.2c-2.2,0-4,1.8-4,4v162.3c0,2.2,1.8,4,4,4h268.7c2.2,0,4-1.8,4-4V158.2
		c0-2.2-1.8-4-4-4H646z"/>
</g>
<g>
	<path class="st13" d="M455,367.9h-90.6c-3.3,0-6-2.7-6-6V199.6c0-3.3,2.7-6,6-6H473c3.3,0,6,2.7,6,6v142.3L455,367.9z"/>
	<path class="st1" d="M455.9,369.9h-91.4c-4.4,0-8-3.6-8-8V199.6c0-4.4,3.6-8,8-8H473c4.4,0,8,3.6,8,8v143.1L455.9,369.9z
		 M364.4,195.6c-2.2,0-4,1.8-4,4v162.3c0,2.2,1.8,4,4,4h89.7l22.9-24.8V199.6c0-2.2-1.8-4-4-4H364.4z"/>
</g>
<g>
	<path class="st14" d="M451.2,361.1h-80.5c-2.9,0-5.3-2.5-5.3-5.5V206.8c0-3,2.4-5.5,5.3-5.5h96.5c2.9,0,5.3,2.5,5.3,5.5v130.5
		L451.2,361.1z"/>
</g>
<g>
	<path class="st15" d="M751.8,213.6h-39.8c-6.6,0-12-5.4-12-12v-5.1c0-6.6,5.4-12,12-12h39.8c6.6,0,12,5.4,12,12v5.1
		C763.8,208.2,758.4,213.6,751.8,213.6z"/>
	<path class="st1" d="M751.8,215.6h-39.8c-7.7,0-14-6.3-14-14v-5.1c0-7.7,6.3-14,14-14h39.8c7.7,0,14,6.3,14,14v5.1
		C765.8,209.3,759.6,215.6,751.8,215.6z M712.1,186.4c-5.5,0-10,4.5-10,10v5.1c0,5.5,4.5,10,10,10h39.8c5.5,0,10-4.5,10-10v-5.1
		c0-5.5-4.5-10-10-10H712.1z"/>
</g>
<g>
	<polygon class="st1" points="762,205.4 702,205.4 706.1,213 757.9,213 	"/>
</g>
<g>
	<polygon class="st1" points="762,193 702,193 706.1,184.4 757.9,184.4 	"/>
</g>
<g>
	<path class="st1" d="M727.5,203.3h-14.4c-2.4,0-4.4-2-4.4-4.4v0c0-2.4,2-4.4,4.4-4.4h14.4c2.4,0,4.4,2,4.4,4.4v0
		C731.9,201.3,730,203.3,727.5,203.3z"/>
</g>
<g>
	<path class="st15" d="M846.5,213.6h-39.8c-6.6,0-12-5.4-12-12v-5.1c0-6.6,5.4-12,12-12h39.8c6.6,0,12,5.4,12,12v5.1
		C858.5,208.2,853.1,213.6,846.5,213.6z"/>
	<path class="st1" d="M846.5,215.6h-39.8c-7.7,0-14-6.3-14-14v-5.1c0-7.7,6.3-14,14-14h39.8c7.7,0,14,6.3,14,14v5.1
		C860.5,209.3,854.2,215.6,846.5,215.6z M806.7,186.4c-5.5,0-10,4.5-10,10v5.1c0,5.5,4.5,10,10,10h39.8c5.5,0,10-4.5,10-10v-5.1
		c0-5.5-4.5-10-10-10H806.7z"/>
</g>
<g>
	<path class="st1" d="M822.2,203.3h-14.4c-2.4,0-4.4-2-4.4-4.4v0c0-2.4,2-4.4,4.4-4.4h14.4c2.4,0,4.4,2,4.4,4.4v0
		C826.6,201.3,824.6,203.3,822.2,203.3z"/>
</g>
<g>
	<path class="st1" d="M848.8,269.7v14c0,2.2,1.8,4,4,4l0,0c2.2,0,4-1.8,4-4v-14c0-2.2-1.8-4-4-4l0,0
		C850.6,265.7,848.8,267.5,848.8,269.7z"/>
</g>
<g>
	<path class="st1" d="M771.7,280.7h81.1c2.2,0,4-1.8,4-4l0,0c0-2.2-1.8-4-4-4h-81.1c-2.2,0-4,1.8-4,4l0,0
		C767.7,278.9,769.5,280.7,771.7,280.7z"/>
</g>
<g>
	<path class="st1" d="M706.3,172.7h56c2.2,0,4-1.8,4-4v0c0-2.2-1.8-4-4-4h-56c-2.2,0-4,1.8-4,4v0
		C702.3,170.9,704.1,172.7,706.3,172.7z"/>
</g>
<g>
	<path class="st1" d="M798.6,172.7h56c2.2,0,4-1.8,4-4v0c0-2.2-1.8-4-4-4h-56c-2.2,0-4,1.8-4,4v0
		C794.6,170.9,796.4,172.7,798.6,172.7z"/>
</g>
<g>
	<path class="st1" d="M747.3,415.1h-14c-2.2,0-4,1.8-4,4v0c0,2.2,1.8,4,4,4h14c2.2,0,4-1.8,4-4v0
		C751.3,416.9,749.5,415.1,747.3,415.1z"/>
</g>
<g>
	<path class="st1" d="M736.3,338.1v81.1c0,2.2,1.8,4,4,4l0,0c2.2,0,4-1.8,4-4v-81.1c0-2.2-1.8-4-4-4l0,0
		C738.1,334.1,736.3,335.9,736.3,338.1z"/>
</g>
<g>
	<path class="st1" d="M826.6,415.1h-14c-2.2,0-4,1.8-4,4v0c0,2.2,1.8,4,4,4h14c2.2,0,4-1.8,4-4v0
		C830.6,416.9,828.8,415.1,826.6,415.1z"/>
</g>
<g>
	<path class="st1" d="M815.6,338.1v81.1c0,2.2,1.8,4,4,4h0c2.2,0,4-1.8,4-4v-81.1c0-2.2-1.8-4-4-4h0
		C817.4,334.1,815.6,335.9,815.6,338.1z"/>
</g>
<g>
	<path class="st1" d="M991.5,331.3l-9.9,9.9c-1.6,1.6-1.6,4.1,0,5.7l0,0c1.6,1.6,4.1,1.6,5.7,0l9.9-9.9c1.6-1.6,1.6-4.1,0-5.7v0
		C995.6,329.8,993,329.8,991.5,331.3z"/>
</g>
<g>
	<path class="st1" d="M929.2,284.6l57.3,57.3c1.6,1.6,4.1,1.6,5.7,0l0,0c1.6-1.6,1.6-4.1,0-5.7L934.8,279c-1.6-1.6-4.1-1.6-5.7,0
		l0,0C927.6,280.5,927.6,283.1,929.2,284.6z"/>
</g>
<g>
	<path class="st1" d="M578.9,340.2l-9.9-9.9c-1.6-1.6-4.1-1.6-5.7,0l0,0c-1.6,1.6-1.6,4.1,0,5.7l9.9,9.9c1.6,1.6,4.1,1.6,5.7,0l0,0
		C580.5,344.3,580.5,341.8,578.9,340.2z"/>
</g>
<g>
	<path class="st1" d="M625.7,277.9l-57.3,57.3c-1.6,1.6-1.6,4.1,0,5.7l0,0c1.6,1.6,4.1,1.6,5.7,0l57.3-57.3c1.6-1.6,1.6-4.1,0-5.7
		l0,0C629.8,276.4,627.2,276.4,625.7,277.9z"/>
</g>
<g>
	<path class="st13" d="M457.6,363.2l17.3-18h-12.7c-3.8,0-6.9,3.1-6.9,6.9v4.5C455.4,360.4,453.8,363.2,457.6,363.2z"/>
</g>
<g>
	<path class="st13" d="M461.7,342.8c-2.7,0-4.9,2.2-4.9,4.9v16.5l20.1-21.4H461.7z"/>
</g>
<g>
	<path class="st1" d="M453.8,367.9v-18.6c0-4.4,3.6-8,8-8h17.7L453.8,367.9z M461.8,345.2c-2.2,0-4,1.8-4,4v13.5l16.5-17.5H461.8z"
		/>
</g>
<g>
	<path class="st13" d="M377.7,215.4H413c1.1,0,1.9-0.9,1.9-1.9l0,0c0-1.1-0.9-1.9-1.9-1.9h-35.3c-1.1,0-1.9,0.9-1.9,1.9l0,0
		C375.8,214.5,376.7,215.4,377.7,215.4z"/>
</g>
<g>
	<polygon class="st1" points="857,205.4 797,205.4 801.1,213 852.9,213 	"/>
</g>
<g>
	<polygon class="st1" points="857,193 797,193 801.1,184.4 852.9,184.4 	"/>
</g>
<g>
	<path class="st16" d="M377.7,223.1h14.4c1.1,0,1.9-0.9,1.9-1.9v0c0-1.1-0.9-1.9-1.9-1.9h-14.4c-1.1,0-1.9,0.9-1.9,1.9v0
		C375.8,222.2,376.7,223.1,377.7,223.1z"/>
</g>
<g>
	<path class="st16" d="M398.5,223.1H413c1.1,0,1.9-0.9,1.9-1.9v0c0-1.1-0.9-1.9-1.9-1.9h-14.4c-1.1,0-1.9,0.9-1.9,1.9v0
		C396.6,222.2,397.5,223.1,398.5,223.1z"/>
</g>
<g>
	<path class="st16" d="M419.2,223.1h14.4c1.1,0,1.9-0.9,1.9-1.9v0c0-1.1-0.9-1.9-1.9-1.9h-14.4c-1.1,0-1.9,0.9-1.9,1.9v0
		C417.3,222.2,418.2,223.1,419.2,223.1z"/>
</g>
<g>
	<path class="st16" d="M377.7,230.8h4.6c1.1,0,1.9-0.9,1.9-1.9l0,0c0-1.1-0.9-1.9-1.9-1.9h-4.6c-1.1,0-1.9,0.9-1.9,1.9l0,0
		C375.8,229.9,376.7,230.8,377.7,230.8z"/>
</g>
<g>
	<path class="st11" d="M388.8,230.8h16.3c1.1,0,1.9-0.9,1.9-1.9l0,0c0-1.1-0.9-1.9-1.9-1.9h-16.3c-1.1,0-1.9,0.9-1.9,1.9l0,0
		C386.9,229.9,387.8,230.8,388.8,230.8z"/>
</g>
<g>
	<path class="st16" d="M377.7,238.5h4.6c1.1,0,1.9-0.9,1.9-1.9l0,0c0-1.1-0.9-1.9-1.9-1.9h-4.6c-1.1,0-1.9,0.9-1.9,1.9l0,0
		C375.8,237.6,376.7,238.5,377.7,238.5z"/>
</g>
<g>
	<path class="st11" d="M388.8,238.5h16.3c1.1,0,1.9-0.9,1.9-1.9l0,0c0-1.1-0.9-1.9-1.9-1.9h-16.3c-1.1,0-1.9,0.9-1.9,1.9l0,0
		C386.9,237.6,387.8,238.5,388.8,238.5z"/>
</g>
<g>
	<path class="st16" d="M377.7,246.2h18.7c1.1,0,1.9-0.9,1.9-1.9l0,0c0-1.1-0.9-1.9-1.9-1.9h-18.7c-1.1,0-1.9,0.9-1.9,1.9l0,0
		C375.8,245.3,376.7,246.2,377.7,246.2z"/>
</g>
<g>
	<path class="st16" d="M377.7,253.9h18.7c1.1,0,1.9-0.9,1.9-1.9v0c0-1.1-0.9-1.9-1.9-1.9h-18.7c-1.1,0-1.9,0.9-1.9,1.9v0
		C375.8,253,376.7,253.9,377.7,253.9z"/>
</g>
<g>
	<path class="st15" d="M502.1,134.8h-222c-6.6,0-12-5.4-12-12V18.9c0-6.6,5.4-12,12-12h222c6.6,0,12,5.4,12,12v103.9
		C514.1,129.4,508.7,134.8,502.1,134.8z"/>
	<path class="st1" d="M502.1,136.8h-222c-7.7,0-14-6.3-14-14V18.9c0-7.7,6.3-14,14-14h222c7.7,0,14,6.3,14,14v103.9
		C516.1,130.6,509.8,136.8,502.1,136.8z M280.1,8.9c-5.5,0-10,4.5-10,10v103.9c0,5.5,4.5,10,10,10h222c5.5,0,10-4.5,10-10V18.9
		c0-5.5-4.5-10-10-10H280.1z"/>
</g>
<g>
	<polygon class="st15" points="286.2,198.3 316.3,134.8 356.9,134.8 	"/>
	<path class="st1" d="M280.1,206.4l34.9-73.6h47.2L280.1,206.4z M317.5,136.8l-25.3,53.3l59.5-53.3H317.5z"/>
</g>
<g>
	<path class="st1" d="M311.9,65.3c2.3,0.5,4,1.5,5.2,3c1.2,1.5,1.8,3.2,1.8,5.2c0,3-1.1,5.4-3.4,7.3c-2.3,1.9-5.3,2.8-9,2.8
		c-3.4,0-6.2-0.8-8.4-2.5c-2.2-1.7-3.4-3.9-3.5-6.5h4.3c0,1.5,0.7,2.8,2,3.8c1.3,1.1,3.2,1.6,5.6,1.6c2.6,0,4.6-0.6,6-1.7
		c1.4-1.1,2.1-2.7,2.1-4.6c0-1.9-0.8-3.4-2.3-4.5c-1.5-1.1-3.7-1.6-6.5-1.6h-2.5v-3.6h2.8c4.6,0,6.9-1.8,6.9-5.4
		c0-1.5-0.6-2.6-1.8-3.4c-1.2-0.8-2.9-1.2-5.1-1.2c-4.2,0-6.5,1.6-6.8,4.7h-4.3c0.3-2.7,1.4-4.8,3.4-6.2s4.5-2.1,7.6-2.1
		c3.5,0,6.3,0.8,8.3,2.3c2,1.5,3,3.6,3,6.1c0,1.5-0.5,2.9-1.4,4.1C315,64,313.7,64.8,311.9,65.3z"/>
	<path class="st1" d="M328.4,62.5c1.8-2.2,4.1-3.3,6.7-3.3c3,0,5.4,1.1,7.1,3.2c1.7,2.2,2.5,5.1,2.5,8.8c0,3.8-0.9,6.8-2.8,9.1
		c-1.9,2.2-4.2,3.3-7.1,3.3c-2.5,0-4.6-0.8-6.4-2.4V92h-4.2V59.7h4.2V62.5z M328.4,77.5c1.8,1.9,3.8,2.8,6.1,2.8
		c1.8,0,3.2-0.8,4.3-2.3c1.1-1.5,1.6-3.8,1.6-6.8c0-2.9-0.5-5-1.5-6.5s-2.4-2.2-4.2-2.2c-2.3,0-4.4,1.3-6.3,4V77.5z"/>
	<path class="st1" d="M358.8,59.2c3.3,0,6,1.1,8,3.2c2,2.1,3,5.1,3,9c0,3.9-1,6.9-3,9c-2,2.1-4.6,3.2-8,3.2c-3.3,0-6-1.1-7.9-3.2
		c-2-2.1-3-5.1-3-9c0-3.9,1-6.9,3-9C352.8,60.2,355.4,59.2,358.8,59.2z M358.8,80.3c2,0,3.6-0.8,4.8-2.3c1.2-1.5,1.8-3.7,1.8-6.7
		c0-3-0.6-5.2-1.8-6.7c-1.2-1.5-2.8-2.3-4.8-2.3c-2,0-3.6,0.8-4.8,2.3c-1.2,1.5-1.8,3.7-1.8,6.7c0,3,0.6,5.2,1.8,6.7
		C355.2,79.5,356.8,80.3,358.8,80.3z"/>
	<path class="st1" d="M376.8,64c0.7-1.3,1.8-2.4,3.2-3.2c1.4-0.8,2.8-1.2,4.3-1.2c3.3,0,5.9,1.1,7.9,3.2c2,2.1,3,5,3,8.8
		c0,3.7-1,6.6-3,8.8c-2,2.1-4.7,3.2-7.9,3.2c-7.3,0-10.9-5-10.9-15.1c0-6,1-10.5,3-13.4c2-2.9,5.5-4.3,10.5-4.3
		c1.7,0,2.8-0.1,3.3-0.3c0.4-0.2,0.7-0.6,0.7-1.2h4.1c0,1.5-0.2,2.6-0.6,3.3c-0.4,0.7-1.1,1.2-2.2,1.5c-1.1,0.4-3,0.5-5.5,0.5
		c-4.1,0-6.8,1-8,3C377.4,59.8,376.8,61.9,376.8,64z M384.3,80.3c1.9,0,3.5-0.7,4.8-2.2s1.9-3.6,1.9-6.5s-0.6-5-1.9-6.5
		s-2.8-2.2-4.8-2.2s-3.5,0.7-4.8,2.2c-1.3,1.5-1.9,3.6-1.9,6.5s0.6,5,1.9,6.5C380.8,79.6,382.4,80.3,384.3,80.3z"/>
	<path class="st1" d="M400.1,83V59.7h4.2v17.7l10.4-17.7h4.5V83H415V65.3L404.6,83H400.1z"/>
	<path class="st1" d="M456.1,79.8h3.4v9.5h-4.1V83h-18.1V59.7h4.2v20.1H452V59.7h4.1V79.8z"/>
	<path class="st1" d="M473,83.5c-3.4,0-6.2-1.1-8.3-3.2c-2.1-2.1-3.1-5.1-3.1-9c0-3.8,1-6.8,3-9c2-2.2,4.6-3.2,7.9-3.2
		c3.3,0,6,1.1,8,3.2c2,2.1,3,5.1,3,9v1h-17.6c0.2,2.7,0.9,4.7,2.2,6c1.3,1.3,2.9,2,4.8,2c1.5,0,2.8-0.4,3.9-1.1
		c1.2-0.7,1.8-1.8,1.8-3.2h4.3c-0.3,2.4-1.4,4.3-3.3,5.6C477.9,82.9,475.7,83.5,473,83.5z M479.1,69.1c-0.3-2.2-1.1-3.9-2.3-5
		s-2.6-1.7-4.3-1.7c-1.7,0-3.1,0.6-4.3,1.7c-1.2,1.1-1.9,2.8-2.3,5H479.1z"/>
</g>
</svg>
