<?xml version="1.0" encoding="utf-8"?>
<!-- Generator: Adobe Illustrator 22.0.0, SVG Export Plug-In . SVG Version: 6.00 Build 0)  -->
<svg version="1.1" id="Слой_1" xmlns="http://www.w3.org/2000/svg" xmlns:xlink="http://www.w3.org/1999/xlink" x="0px" y="0px"
	 viewBox="0 0 566 346" style="enable-background:new 0 0 566 346;" xml:space="preserve">
<style type="text/css">
	.st0{fill:#FF931E;}
	.st1{fill:#1A2535;}
	.st2{fill:#111B26;}
	.st3{fill:#FFFFFF;}
	.st4{opacity:5.000000e-02;}
	.st5{opacity:0.25;}
	.st6{opacity:0.3;}
</style>
<g>
	<path class="st0" d="M188.6,185.2l-3.9,0.4v0.2c2.4,1.7,4.6,5,4.6,9.4c0,6.2-4.4,9.4-8.8,9.4c-7.4,0-11.5-6.6-11.4-18.5h-0.6
		c-2.5,0-7.1,0.7-7.1,7c0,2.9,0.9,5.8,2.3,8l-3.7,1.3c-1.6-2.5-2.7-6.2-2.7-10.1c0-9.4,6.4-11.7,12.6-11.7h11.5
		c2.7,0,5.3-0.1,7.4-0.5V185.2z M172.9,186.1c-0.1,6.1,1,13,6.9,13c3.6,0,5.3-2.4,5.3-5.3c0-4-2.5-6.5-5.1-7.4
		c-0.6-0.2-1.2-0.3-1.8-0.3H172.9z"/>
	<path class="st0" d="M143.6,171.7v-5.6h45v5.6H143.6z"/>
	<path class="st0" d="M174.3,153.6c7.5-0.1,10.7-4.9,10.7-10.5c0-4-0.7-6.4-1.6-8.5l4-1c0.9,2,1.9,5.3,1.9,10.2
		c0,9.4-6.2,15.1-15.5,15.1c-9.3,0-16.5-5.5-16.5-14.4c0-10,8.8-12.7,14.5-12.7c1.1,0,2,0.1,2.6,0.2V153.6z M170.3,137.2
		c-3.6-0.1-9.1,1.5-9.1,7.7c0,5.6,5.2,8.1,9.1,8.6V137.2z"/>
	<path class="st0" d="M167.5,125c-3.6,0-6.7,0.1-9.6,0.3v-4.9l6-0.2v-0.3c-4.1-1.4-6.7-4.8-6.7-8.5c0-0.6,0.1-1.1,0.2-1.6h5.3
		c-0.1,0.6-0.2,1.1-0.2,1.9c0,3.9,3,6.7,7.2,7.5c0.8,0.1,1.6,0.3,2.6,0.3h16.4v5.5H167.5z"/>
	<path class="st0" d="M149.1,96h8.8v-8h4.2v8h16.5c3.8,0,6-1.1,6-4.2c0-1.5-0.2-2.5-0.4-3.2l4.2-0.3c0.4,1.1,0.8,2.8,0.8,4.9
		c0,2.6-0.8,4.7-2.3,6c-1.6,1.6-4.4,2.2-8,2.2h-16.7v4.8h-4.2v-4.8h-7.4L149.1,96z"/>
</g>
<g>
	<path class="st1" d="M128.9,342.9c-11-50.3-0.2-96.5,30.5-129.9l2.9,2.7c-29.7,32.4-40.2,77.3-29.5,126.3L128.9,342.9z"/>
</g>
<g>
	<path class="st1" d="M94,212.4l-4-0.1c1.5-44.7,20.9-82.3,54.8-106.1l2.3,3.3C114.3,132.5,95.4,169,94,212.4z"/>
</g>
<g>
	<path class="st1" d="M232.5,211l-3.9-0.7c6.1-35.8-8.5-72.1-41.3-102.3l2.7-2.9C223.7,136.2,238.8,173.8,232.5,211z"/>
</g>
<g>
	<path class="st1" d="M201.6,342.6l-4-0.3c3.7-53.1-0.3-95.9-11.9-127.3l3.8-1.4C201.2,245.6,205.3,289,201.6,342.6z"/>
</g>
<g>
	<path class="st1" d="M11.3,250.2l85.6-38.5c2.3-1,3.3-3.7,2.3-6l0,0c-1-2.3-3.7-3.3-6-2.3L7.6,241.9c-2.3,1-3.3,3.7-2.3,6l0,0
		C6.3,250.2,9,251.2,11.3,250.2z"/>
</g>
<g>
	<g>
		<path class="st2" d="M204.1,46.5c-0.2,1-0.4,2.2-0.7,3.9c-4-5.7-9.7-7.9-15.3-10.3c-3.2-1.4-4.5-0.5-5,2.6
			c-8.9,2.3-17.8,2.7-26.8,0.5c-5-1.2-10.1-1.2-15.1,0.4c-0.6,0.2-1.3-0.2-2-0.3c0.2-0.6,0.2-1.2,0.5-1.7c1.4-2.4,4-4.3,3.3-7.6
			c-0.3-1.2-0.5-2.6-1.1-3.6c-2.4-3.9-4.2-8-5-12.5c-0.4-2.3,0.1-4,2.8-4.4c3.9-0.6,6.9-2.8,9.4-5.9c2.7-3.4,8.2-4.5,12.7-2.5
			c6.6,3,13.3,5.6,20.4,7c1.3,0.3,2.7,1.3,3.6,2.4c5.2,5.4,10.8,10,18.1,12.3c1.1,0.3,2,1.5,2.7,2.5c2.1,2.9,4,5.9,6.2,8.7
			c1.5,1.9,1.7,3.4-0.5,4.7C210,44.1,207.2,45.1,204.1,46.5z"/>
	</g>
	<g>
		<path class="st3" d="M163.8,11.2c-0.8,2.3-1.5,4.2-2.2,6.1c0.2,0,0.4-0.1,0.6-0.1c0.4,2,0.7,4,1.2,6.5c-4.7,0-8.8,0-13.2,0
			c-0.2-1.7-1-3.4,0.2-5.5c0.5-1-0.5-2.8-0.8-4.2c-0.3-1.4-0.3-1.3,1.1-1.9c0.2-0.1,0.4-0.4,0.5-0.6c1.4-3.8,5.1-4.9,8.5-2.5
			C160.9,9.9,161.5,11.8,163.8,11.2z M153,12.5c0,2.1,0.2,3.9,2.5,4.1c1.6,0.1,3.3-2,3.3-4c0-1.8-1.8-4-3.4-3.8
			C152.8,8.9,153.3,11.1,153,12.5z M151.3,19.8c3.3,0,6.2,0,9.1,0c0-0.2,0-0.5,0-0.7c-3.1,0.2-6.2,0.4-9.5,0.6
			c0.3,1.5,0.4,2.4,0.6,3.3c2.6,0,5.1,0,7.5,0c0-0.1,0-0.2,0-0.3c-2.4,0-4.7,0-7.2,0C151.6,21.7,151.5,21,151.3,19.8z"/>
	</g>
	<g>
		<path class="st3" d="M153.2,12.5c0.2-1.3-0.2-3.3,2.2-3.5c1.5-0.1,3.2,1.9,3.2,3.6c0,1.8-1.6,3.8-3.1,3.7
			C153.4,16.1,153.2,14.5,153.2,12.5z"/>
	</g>
	<g>
		<path d="M151.3,19.8c0.2,1.3,0.3,2,0.4,2.9c2.5,0,4.9,0,7.2,0c0,0.1,0,0.2,0,0.3c-2.4,0-4.9,0-7.5,0c-0.2-0.9-0.3-1.9-0.6-3.3
			c3.3-0.2,6.4-0.4,9.5-0.6c0,0.2,0,0.5,0,0.7C157.4,19.8,154.6,19.8,151.3,19.8z"/>
	</g>
	<g class="st4">
		<path class="st3" d="M145.3,35.4c12.9-1,28.6,0.2,31.9,1.2c3.2,1,6.1,2.2,6.1,2.2l-0.8,2.2c0,0-4.6,1.9-12.4,1.6
			c-7.8-0.2-13.4-2.5-17.6-2.2s-10.6,1.4-10.6,1.4V41c0,0,1.9-1.8,2.7-3.3S145.3,35.4,145.3,35.4z"/>
	</g>
	<g class="st5">
		<path d="M210.7,41.2c-3,1.8-6.8,3.6-7.1,4s-0.3,0.9-2.9-1s-10.1-5.9-13.6-6.6s-13.2-4.9-23.3-4.6c0,0-11.7,0-15,0.5
			s-3.1-0.1-4.2-2.1c-1.1-2-3.5-6.6-4.1-8.5c-0.6-1.9-1.4-6.8,0-5.8c1.4,1,6.5,7.3,8.4,7.9c1.9,0.7,8.2-1.1,10.4-0.4
			c2.3,0.7,8.2,1.5,8.5,0.8c0.3-0.8,4.9-2.5,6.3-2.4c1.4,0.1,4.6,5.7,9.1,7.4s14.7,0.1,15.2,2.3s2.3,6.3,6.2,7
			c3.8,0.8,6.8,0.2,6.6,0.8S210.7,41.2,210.7,41.2z"/>
	</g>
	<g>
		<path class="st2" d="M139.8,56.4c-0.5-0.3-1.3,0-1.3-1c0.1-0.9,0.8-0.5,1.2-0.6c0.1-0.6,0.1-1.2,0.3-1.8c0.7-3.1,2.8-4.7,5.7-5.2
			c2.9-0.5,5.8-0.4,8.7-0.1c0.4,0,0.8,0.2,1.2-0.2c0.1-0.1,0.3-0.1,0.5-0.1c7.1,0,14.2,0,21.3-0.1c0.2,0,0.5,0.2,0.7,0.2
			c0.2,0.1,0.4,0.1,0.5,0.1c2.7-0.3,5.4-0.4,8.1-0.1c1.7,0.2,3.3,0.7,4.6,1.8c1.5,1.3,2,3,2.2,4.8c0,0.2,0,0.3,0,0.5
			c0.5,0.2,1.4-0.4,1.4,0.7c0,1-0.9,0.7-1.4,1c-0.1,0.8-0.2,1.7-0.4,2.5c-0.8,3.9-4.7,7.4-8.7,7.9c-2.1,0.3-4.1,0-6-1
			c-3.4-1.8-6.4-4.1-8.3-7.5c-1.1-2-1.3-3.7-0.8-5.4c-0.2-0.5-0.4-0.8-0.5-1.1c-0.2-0.3-0.3-0.6-0.6-0.7c-1.1-0.5-2.2-0.6-3.3,0
			c-0.3,0.1-0.5,0.5-0.6,0.8c-0.2,0.3-0.3,0.6-0.4,1c0.5,1.6,0.3,3.4-0.6,5c-2.5,4.5-6.2,7.6-11.2,8.8c-5.3,1.3-11.3-2.9-12.1-8.2
			C140,57.9,139.9,57.2,139.8,56.4z M157.6,48.1c2.4,0.8,4.6,1.7,6,4.1c0.2-1.7,1.4-2.1,2.6-2.1c1.5-0.1,3,0.1,3.4,2.1
			c1.6-2.5,3.9-3.4,6.6-4.1C170,48.1,163.8,48.1,157.6,48.1z"/>
	</g>
</g>
<g class="st6">
	<path d="M422.4,274.7c-2.8,0-5.6,0-8.4,0c-3.2-1.7-8.1-2.6-9.3-5.3c-3.4-7.3-8.7-7.2-14.9-5.9c-0.6,0.1-1.2,0.1-1.9,0
		c-18.7-1.4-37.4-2.8-56.1-4.3c-6.8-0.5-13.3-2.2-20.4,0.9c-6.7,2.9-14.3,2-20.5-3.5c-1.9-1.7-4.4-2.9-6.9-3.8
		c-2.1-0.8-4.5-1-6.8-1.5c-12.3-2.5-18.6-20.7-10.6-30.5c1.1-1.3,1.8-3.1,2.2-4.9c1.8-7,5.1-12.6,12.3-15.1c3.4-1.2,6.6-2.8,10-3.8
		c15.3-4.3,30.7-8.5,46-12.8c2.1-0.6,4-1.9,5-2.3c-0.3-3.6-1.3-6.5-0.4-8.4c0.6-1.2,4.4-2.2,6-1.5c4.2,1.8,6.2-0.9,8.8-2.8
		c4.8-3.6,9.7-7.2,14.6-10.8c6.5-4.8,13.9-7.2,21.8-8.7c5-0.9,9.8-2.6,15.3-4.1c-7.6-4.8-8.4-9.5-2.6-13.2c1.7-1.1,4.1-1.3,6.2-1.2
		c8.4,0.1,16.7,0.5,25.1,0.8c13.8,0.5,27.6,0.9,41.3,1.9c2.2,0.2,4.8,2.4,6.2,4.4c2.9,4.1,0.1,7.5-2.7,10.6c1.1,0.6,1.9,1.3,2.9,1.5
		c1.9,0.5,3.9,0.9,5.9,1.1c14.3,1.4,27.3,5.9,35,18.9c4.6,7.8,10.8,10.7,19.2,11.9c10.1,1.4,12.8,5,12.9,15.2
		c0.1,3.2-0.4,6.4,3.1,8.4c0.7,0.4,1.1,1.9,1.2,2.9c1.2,11-2.9,17.2-13.6,19.9c-4.5,1.2-7.3,2.5-7.4,8c-0.1,3.1-2,6.5-3.8,9.3
		c-2.8,4.2-7.3,5.7-12.2,5c-5.1-0.7-8.5-3.5-9.9-8.6c-0.4-1.3-0.8-2.6-1.3-4.4c-24.5,4.4-48.9,8.8-73.7,13.3
		C439.2,262.6,434.8,271.7,422.4,274.7z M471.7,148.1c-18.7-3.7-37.6-3.4-56.4-2.3C434.1,146.6,452.8,147.4,471.7,148.1z"/>
</g>
</svg>
