<?xml version="1.0" encoding="utf-8"?>
<!-- Generator: Adobe Illustrator 22.0.0, SVG Export Plug-In . SVG Version: 6.00 Build 0)  -->
<svg version="1.1" id="Слой_1" xmlns="http://www.w3.org/2000/svg" xmlns:xlink="http://www.w3.org/1999/xlink" x="0px" y="0px"
	 viewBox="0 0 203.8 79" style="enable-background:new 0 0 203.8 79;" xml:space="preserve">
<style type="text/css">
	.st0{fill:#1A2535;}
	.st1{fill:#FF931E;}
	.st2{fill:#FFC285;}
</style>
<g>
	<path class="st0" d="M189.3,76.9h-175c-6.6,0-12-5.4-12-12V26.6c0-6.6,5.4-12,12-12h175c6.6,0,12,5.4,12,12v38.3
		C201.3,71.5,195.9,76.9,189.3,76.9z"/>
	<path class="st1" d="M189.3,78.9h-175c-7.7,0-14-6.3-14-14V26.6c0-7.7,6.3-14,14-14h175c7.7,0,14,6.3,14,14v38.3
		C203.3,72.6,197,78.9,189.3,78.9z M14.3,16.6c-5.5,0-10,4.5-10,10v38.3c0,5.5,4.5,10,10,10h175c5.5,0,10-4.5,10-10V26.6
		c0-5.5-4.5-10-10-10H14.3z"/>
</g>
<g>
	<path class="st0" d="M133.6,26.6h-63c-6.6,0-12-5.4-12-12v0c0-6.6,5.4-12,12-12h63c6.6,0,12,5.4,12,12v0
		C145.6,21.2,140.2,26.6,133.6,26.6z"/>
	<path class="st1" d="M133.6,28.6h-63c-7.7,0-14-6.3-14-14s6.3-14,14-14h63c7.7,0,14,6.3,14,14S141.4,28.6,133.6,28.6z M70.6,4.6
		c-5.5,0-10,4.5-10,10s4.5,10,10,10h63c5.5,0,10-4.5,10-10s-4.5-10-10-10H70.6z"/>
</g>
<g>
	<path class="st1" d="M67,14.1l9.7-5v1.4l-8.2,4.1v0l8.2,4.1v1.4l-9.7-5V14.1z"/>
	<path class="st1" d="M79.4,18.4c0.5,0.4,1.5,0.7,2.4,0.7c1.3,0,2-0.7,2-1.5c0-0.9-0.5-1.4-1.9-1.9c-1.8-0.7-2.7-1.7-2.7-2.9
		c0-1.6,1.3-3,3.5-3c1,0,1.9,0.3,2.5,0.6l-0.5,1.3c-0.4-0.3-1.1-0.6-2.1-0.6c-1.1,0-1.7,0.6-1.7,1.4c0,0.8,0.6,1.2,1.9,1.7
		c1.8,0.7,2.7,1.6,2.7,3.1c0,1.8-1.4,3-3.8,3c-1.1,0-2.1-0.3-2.9-0.7L79.4,18.4z"/>
	<path class="st1" d="M95.2,19.9c-0.5,0.3-1.6,0.6-2.9,0.6c-3.1,0-5.1-2.1-5.1-5.2c0-3.1,2.1-5.4,5.5-5.4c1.1,0,2.1,0.3,2.6,0.5
		l-0.4,1.4c-0.4-0.3-1.1-0.5-2.1-0.5c-2.3,0-3.6,1.7-3.6,3.8c0,2.4,1.5,3.8,3.5,3.8c1.1,0,1.7-0.3,2.3-0.5L95.2,19.9z"/>
	<path class="st1" d="M97.4,13.3c0-1.2,0-2.2-0.1-3.2h1.6l0.1,2h0.1c0.5-1.4,1.6-2.2,2.8-2.2c0.2,0,0.4,0,0.5,0.1v1.7
		c-0.2,0-0.4-0.1-0.6-0.1c-1.3,0-2.2,1-2.5,2.4c0,0.3-0.1,0.5-0.1,0.9v5.4h-1.8V13.3z"/>
	<path class="st1" d="M106.4,7.2c0,0.6-0.4,1.1-1.2,1.1c-0.7,0-1.1-0.5-1.1-1.1c0-0.7,0.5-1.2,1.2-1.2C106,6.1,106.4,6.6,106.4,7.2z
		 M104.4,20.2V10.1h1.8v10.2H104.4z"/>
	<path class="st1" d="M109.3,13.4c0-1.3,0-2.4-0.1-3.3h1.7l0.1,1.7h0c0.8-1.2,2-2,3.6-2c2.5,0,4.3,2.1,4.3,5.2
		c0,3.7-2.2,5.5-4.6,5.5c-1.3,0-2.5-0.6-3.1-1.6h0v5.5h-1.8V13.4z M111.1,16.1c0,0.3,0,0.5,0.1,0.8c0.3,1.3,1.4,2.2,2.8,2.2
		c2,0,3.1-1.6,3.1-3.9c0-2-1.1-3.8-3-3.8c-1.3,0-2.4,0.9-2.8,2.3c-0.1,0.2-0.1,0.5-0.1,0.8V16.1z"/>
	<path class="st1" d="M123.5,7.2v2.9h2.6v1.4h-2.6V17c0,1.3,0.4,2,1.4,2c0.5,0,0.8-0.1,1.1-0.1l0.1,1.4c-0.4,0.1-0.9,0.3-1.6,0.3
		c-0.9,0-1.6-0.3-2-0.8c-0.5-0.5-0.7-1.4-0.7-2.6v-5.5h-1.6v-1.4h1.6V7.7L123.5,7.2z"/>
	<path class="st1" d="M137.8,15.3l-9.7,5v-1.4l8.3-4.1v0l-8.3-4.1V9.1l9.7,5V15.3z"/>
</g>
<g>
	<path class="st1" d="M83.6,55.2L83.4,54h-0.1c-0.6,0.8-1.7,1.5-3.1,1.5c-2.1,0-3.1-1.4-3.1-2.9c0-2.5,2.2-3.8,6.1-3.8v-0.2
		c0-0.8-0.2-2.4-2.3-2.4c-0.9,0-1.9,0.3-2.6,0.8l-0.4-1.2c0.8-0.5,2.1-0.9,3.3-0.9c3.1,0,3.9,2.1,3.9,4.2v3.8c0,0.9,0,1.7,0.2,2.4
		H83.6z M83.3,50.1c-2,0-4.3,0.3-4.3,2.3c0,1.2,0.8,1.8,1.7,1.8c1.3,0,2.2-0.8,2.5-1.7c0.1-0.2,0.1-0.4,0.1-0.6V50.1z"/>
	<path class="st1" d="M88.1,40.3h1.8v14.9h-1.8V40.3z"/>
	<path class="st1" d="M94.1,50.5c0,2.5,1.6,3.5,3.5,3.5c1.3,0,2.1-0.2,2.8-0.5l0.3,1.3c-0.7,0.3-1.8,0.6-3.4,0.6c-3.1,0-5-2.1-5-5.1
		s1.8-5.5,4.8-5.5c3.3,0,4.2,2.9,4.2,4.8c0,0.4,0,0.7-0.1,0.9H94.1z M99.5,49.2c0-1.2-0.5-3-2.6-3c-1.9,0-2.7,1.7-2.8,3H99.5z"/>
	<path class="st1" d="M103.6,48.3c0-1.2,0-2.2-0.1-3.2h1.6l0.1,2h0.1c0.5-1.4,1.6-2.2,2.8-2.2c0.2,0,0.4,0,0.5,0.1v1.7
		c-0.2,0-0.4-0.1-0.6-0.1c-1.3,0-2.2,1-2.5,2.4c0,0.3-0.1,0.5-0.1,0.9v5.4h-1.8V48.3z"/>
	<path class="st1" d="M113.1,42.2v2.9h2.6v1.4h-2.6V52c0,1.3,0.4,2,1.4,2c0.5,0,0.8-0.1,1.1-0.1l0.1,1.4c-0.4,0.1-0.9,0.3-1.6,0.3
		c-0.9,0-1.6-0.3-2-0.8c-0.5-0.5-0.7-1.4-0.7-2.6v-5.5h-1.6v-1.4h1.6v-2.4L113.1,42.2z"/>
	<path class="st2" d="M121.9,40.7c-1.5,2.1-2.6,4.8-2.6,8.6c0,3.7,1.2,6.4,2.6,8.5h-1.4c-1.3-1.7-2.8-4.4-2.8-8.5
		c0-4.1,1.4-6.8,2.8-8.6H121.9z"/>
	<path class="st2" d="M122.7,57.8c1.5-2.1,2.6-4.8,2.6-8.6c0-3.8-1.1-6.4-2.6-8.5h1.4c1.3,1.7,2.8,4.4,2.8,8.5
		c0,4.1-1.4,6.8-2.8,8.6H122.7z"/>
</g>
</svg>
